M48
;GenerationSoftware,Autodesk,EAGLE,9.4.2*%
;CreationDate,2019-07-03T20:54:13Z*%
FMAT,2
ICI,OFF
METRIC,TZ,000.000
T8C0.305
T7C0.381
T6C0.508
T5C0.650
T4C0.800
T3C1.016
T2C2.032
T1C3.302
%
G90
M71
T1
X66040Y97028
X15240Y112268
X163068Y53340
X163068Y112268
X161798Y64008
X213868Y69088
X213868Y97028
X13970Y5080
X66040Y10160
X66040Y38100
X15240Y53340
X13970Y64008
X66040Y69088
X87884Y64008
X139954Y69088
X139954Y97028
X87884Y5080
X139954Y10160
X139954Y38100
X89154Y53340
X89154Y112268
X161798Y5080
X213868Y10160
X213868Y38100
T2
X2032Y70104
X6604Y70104
X2032Y11176
X6604Y11176
X80518Y70104
X149860Y11176
X154432Y11176
X80518Y11176
X149860Y70104
X154432Y70104
X75946Y11176
X75946Y70104
T3
X41656Y57150
X203708Y1270
X35560Y60198
X38100Y60198
X40640Y60198
X43180Y60198
X45720Y60198
X41656Y116078
X39116Y116078
X180848Y21590
X36576Y116078
X34036Y116078
X178308Y21590
X31496Y116078
X28956Y116078
X160528Y50800
X26416Y116078
X23876Y116078
X169164Y57150
X21336Y116078
X18796Y116078
X157988Y50800
X10160Y109728
X12700Y109728
X166624Y57150
X30480Y80518
X33020Y80518
X193548Y57150
X196088Y57150
X198628Y57150
X201168Y57150
X203708Y57150
X206248Y57150
X208788Y57150
X211328Y57150
X33020Y21590
X30480Y21590
X12700Y50800
X10160Y50800
X18796Y57150
X21336Y57150
X23876Y57150
X26416Y57150
X28956Y57150
X31496Y57150
X34036Y57150
X36576Y57150
X39116Y57150
X211328Y1270
X45720Y1270
X43180Y1270
X40640Y1270
X38100Y1270
X35560Y1270
X33020Y1270
X30480Y1270
X27940Y1270
X50800Y1270
X53340Y1270
X55880Y1270
X58420Y1270
X60960Y1270
X63500Y1270
X63500Y57150
X60960Y57150
X58420Y57150
X55880Y57150
X53340Y57150
X50800Y57150
X48260Y57150
X45720Y57150
X208788Y1270
X206248Y1270
X201168Y1270
X198628Y1270
X175768Y1270
X178308Y1270
X180848Y1270
X183388Y1270
X185928Y1270
X188468Y1270
X106934Y21590
X104394Y21590
X86614Y50800
X84074Y50800
X92710Y57150
X95250Y57150
X97790Y57150
X100330Y57150
X102870Y57150
X105410Y57150
X107950Y57150
X110490Y57150
X113030Y57150
X115570Y57150
X119634Y1270
X117094Y1270
X114554Y1270
X112014Y1270
X109474Y1270
X106934Y1270
X104394Y1270
X101854Y1270
X124714Y1270
X127254Y1270
X129794Y1270
X132334Y1270
X134874Y1270
X137414Y1270
X137414Y57150
X134874Y57150
X132334Y57150
X129794Y57150
X127254Y57150
X124714Y57150
X122174Y57150
X119634Y57150
X191008Y1270
X193548Y1270
X189484Y57150
X186944Y57150
X184404Y57150
X181864Y57150
X179324Y57150
X176784Y57150
X174244Y57150
X171704Y57150
X33020Y60198
X30480Y60198
X27940Y60198
X50800Y60198
X53340Y60198
X55880Y60198
X58420Y60198
X60960Y60198
X63500Y60198
X63500Y116078
X60960Y116078
X58420Y116078
X55880Y116078
X53340Y116078
X50800Y116078
X48260Y116078
X45720Y116078
X193548Y116078
X106934Y80518
X104394Y80518
X86614Y109728
X84074Y109728
X92710Y116078
X95250Y116078
X97790Y116078
X100330Y116078
X102870Y116078
X105410Y116078
X107950Y116078
X110490Y116078
X113030Y116078
X115570Y116078
X119634Y60198
X117094Y60198
X114554Y60198
X112014Y60198
X109474Y60198
X106934Y60198
X104394Y60198
X101854Y60198
X124714Y60198
X127254Y60198
X129794Y60198
X132334Y60198
X134874Y60198
X137414Y60198
X137414Y116078
X134874Y116078
X132334Y116078
X129794Y116078
X127254Y116078
X124714Y116078
X122174Y116078
X119634Y116078
X180848Y80518
X178308Y80518
X160528Y109728
X157988Y109728
X166624Y116078
X169164Y116078
X171704Y116078
X174244Y116078
X176784Y116078
X179324Y116078
X181864Y116078
X184404Y116078
X186944Y116078
X189484Y116078
X193548Y60198
X191008Y60198
X188468Y60198
X185928Y60198
X183388Y60198
X180848Y60198
X178308Y60198
X175768Y60198
X198628Y60198
X201168Y60198
X203708Y60198
X206248Y60198
X208788Y60198
X211328Y60198
X211328Y116078
X208788Y116078
X206248Y116078
X203708Y116078
X201168Y116078
X198628Y116078
X196088Y116078
T4
X59420Y79248
X59420Y20320
X133334Y20320
X207248Y20320
X133334Y79248
X207248Y79248
T5
X4905Y103728
X152733Y39020
X152733Y44800
X78819Y39020
X78819Y44800
X4905Y39020
X4905Y44800
X152733Y97948
X152733Y103728
X78819Y97948
X78819Y103728
X4905Y97948
T6
X49530Y37973
X48260Y37973
X46990Y37973
X45720Y37973
X44450Y36703
X49530Y36703
X48260Y36703
X45720Y95631
X46990Y95631
X48260Y95631
X49530Y95631
X44450Y95631
X45720Y96901
X46990Y96901
X48260Y96901
X49530Y96901
X44450Y96901
X46990Y36703
X45720Y36703
X197358Y95631
X193548Y95631
X194818Y95631
X196088Y95631
X122174Y96901
X192278Y95631
X193548Y96901
X194818Y96901
X196088Y96901
X197358Y96901
X192278Y96901
X192278Y37973
X197358Y37973
X196088Y37973
X194818Y37973
X193548Y37973
X192278Y36703
X197358Y36703
X196088Y36703
X194818Y36703
X193548Y36703
X118364Y37973
X123444Y37973
X122174Y37973
X120904Y37973
X119634Y37973
X118364Y36703
X123444Y36703
X119634Y95631
X120904Y95631
X122174Y95631
X123444Y95631
X118364Y95631
X119634Y96901
X120904Y96901
X122174Y36703
X123444Y96901
X118364Y96901
X120904Y36703
X119634Y36703
X44450Y37973
T7
X170561Y106451
X170561Y47523
X96647Y106451
X22733Y106451
X22733Y47523
X96647Y47523
T8
X170688Y43180
X168783Y43180
X212598Y17526
X193294Y15113
X172974Y53213
X172466Y29210
X180848Y40640
X188468Y41148
X192278Y20320
X197358Y26162
X201803Y23622
X206883Y23622
X213233Y23114
X213995Y34925
X212471Y31750
X212471Y29210
X212471Y26670
X201803Y39116
X201930Y34671
X198882Y20320
X197358Y24130
X197358Y20320
X197485Y32258
X208534Y20574
X192278Y17780
X194818Y17780
X197358Y17780
X199898Y17780
X194818Y20320
X189738Y20320
X164846Y46355
X169418Y38735
X189738Y17272
X175768Y16510
X177025Y9131
X192265Y9131
X155702Y44323
X155766Y38926
X152781Y5969
X148717Y29083
X150241Y45593
X151765Y45593
X151638Y40132
X151892Y38481
X150114Y38227
X152527Y42291
X155829Y40386
X155829Y42672
X180848Y13970
X170688Y44450
X191008Y44450
X206248Y29210
X211328Y44450
X200914Y41402
X200279Y33528
X203708Y31877
X208788Y44577
X204978Y44958
X170434Y54610
X209804Y54610
X210566Y31750
X212598Y19558
X167894Y54610
X210439Y53340
X212598Y21082
X211455Y31750
X204343Y29464
X206248Y27559
X203708Y15240
X208153Y35941
X212471Y34925
X206248Y22479
X213868Y19050
X170688Y41910
X210199Y37846
X166116Y36449
X170968Y18210
X203708Y26670
X199898Y15240
X201168Y15240
X204343Y27559
X205359Y27559
X202438Y15240
X204470Y31496
X196977Y31242
X203708Y30226
X197993Y30226
X207518Y29210
X208788Y27813
X207518Y31750
X210058Y29210
X208788Y30480
X208788Y29210
X205486Y22987
X205486Y15240
X204470Y22987
X204470Y15240
X12700Y103378
X64389Y94742
X11430Y102743
X16510Y94488
X60998Y95504
X35433Y105410
X61303Y99880
X31750Y104648
X53127Y99273
X29210Y104648
X61863Y99254
X2540Y83197
X5080Y85737
X5080Y80657
X2540Y81292
X2540Y85102
X17272Y79502
X38100Y70358
X5080Y110998
X41910Y64008
X27686Y112141
X1270Y66548
X27940Y105918
X17780Y81788
X14224Y76708
X6731Y95631
X13970Y91948
X14732Y94488
X12700Y88138
X11430Y105156
X8890Y110998
X23749Y74930
X7620Y105283
X1270Y94488
X20320Y79248
X21590Y79248
X24003Y81534
X17145Y83820
X3810Y62738
X3810Y66548
X1143Y62484
X21590Y62738
X44450Y64008
X39370Y64008
X17399Y95377
X16891Y100711
X22860Y102108
X20955Y102108
X64770Y76454
X45466Y74041
X25146Y112141
X24638Y88138
X33020Y99568
X40640Y100076
X44450Y79248
X49530Y85090
X53975Y82550
X59055Y82550
X65405Y82042
X66167Y93853
X64643Y90678
X64643Y88138
X64643Y85598
X53975Y98044
X54102Y93599
X51054Y79248
X49530Y83058
X49530Y79248
X49657Y91186
X60706Y79502
X44450Y76708
X46990Y76708
X49530Y76708
X52070Y76708
X46990Y79248
X41910Y79248
X17018Y105283
X21590Y97663
X41910Y76200
X27940Y75438
X29197Y68059
X44437Y68059
X7874Y103251
X7937Y97853
X4953Y64897
X889Y88011
X2413Y104521
X3937Y104521
X3810Y99060
X4064Y97409
X2286Y97155
X4699Y101219
X8001Y99314
X8001Y101600
X33020Y72898
X22860Y103378
X43180Y103378
X58420Y88138
X63500Y103378
X53086Y100330
X52451Y92456
X55880Y90805
X60960Y103505
X57150Y103886
X22606Y113538
X61976Y113538
X62738Y90678
X64770Y78486
X20066Y113538
X62611Y112268
X64770Y80010
X63627Y90678
X56515Y88392
X58420Y86487
X55880Y74168
X60325Y94869
X64643Y93853
X58420Y81407
X66040Y77978
X22860Y100838
X62371Y96774
X18288Y95377
X23140Y77138
X55880Y85598
X52070Y74168
X53340Y74168
X56515Y86487
X57531Y86487
X54610Y74168
X56642Y90424
X49149Y90170
X55880Y89154
X50165Y89154
X59690Y88138
X60960Y86741
X59690Y90678
X62230Y88138
X60960Y89408
X60960Y88138
X57658Y81915
X57658Y74168
X56642Y81915
X56642Y74168
X86614Y103378
X138303Y94742
X85344Y102743
X90424Y94488
X134912Y95504
X109347Y105410
X135217Y99880
X105664Y104648
X127041Y99273
X103124Y104648
X135777Y99254
X76454Y83197
X78994Y85737
X78994Y80657
X76454Y81292
X76454Y85102
X91186Y79502
X112014Y70358
X78994Y110998
X115824Y64008
X101600Y112141
X109347Y46482
X101854Y105918
X91694Y81788
X88138Y76708
X80645Y95631
X87884Y91948
X88646Y94488
X86614Y88138
X85344Y105156
X82804Y110998
X97663Y74930
X81534Y105283
X75184Y94488
X94234Y79248
X95504Y79248
X97917Y81534
X91059Y83820
X77724Y62738
X77724Y66548
X75057Y62484
X95504Y62738
X118364Y64008
X113284Y64008
X91313Y95377
X90805Y100711
X96774Y102108
X94869Y102108
X138684Y76454
X119380Y74041
X99060Y112141
X98552Y88138
X106934Y99568
X114554Y100076
X118364Y79248
X123444Y85090
X127889Y82550
X132969Y82550
X139319Y82042
X140081Y93853
X138557Y90678
X138557Y88138
X138557Y85598
X127889Y98044
X128016Y93599
X124968Y79248
X123444Y83058
X123444Y79248
X123571Y91186
X134620Y79502
X118364Y76708
X120904Y76708
X123444Y76708
X125984Y76708
X120904Y79248
X115824Y79248
X90932Y105283
X95504Y97663
X115824Y76200
X101854Y75438
X103111Y68059
X118351Y68059
X81788Y103251
X81852Y97853
X78867Y64897
X74803Y88011
X76327Y104521
X77851Y104521
X77724Y99060
X77978Y97409
X76200Y97155
X78613Y101219
X81915Y99314
X81915Y101600
X106934Y72898
X96774Y103378
X117094Y103378
X132334Y88138
X137414Y103378
X127000Y100330
X126365Y92456
X129794Y90805
X134874Y103505
X131064Y103886
X96520Y113538
X135890Y113538
X136652Y90678
X138684Y78486
X93980Y113538
X136525Y112268
X138684Y80010
X137541Y90678
X130429Y88392
X132334Y86487
X129794Y74168
X134239Y94869
X138557Y93853
X132334Y81407
X139954Y77978
X96774Y100838
X136285Y96774
X92202Y95377
X97054Y77138
X129794Y85598
X125984Y74168
X127254Y74168
X130429Y86487
X131445Y86487
X128524Y74168
X130556Y90424
X123063Y90170
X129794Y89154
X124079Y89154
X133604Y88138
X134874Y86741
X133604Y90678
X136144Y88138
X134874Y89408
X134874Y88138
X12700Y44450
X131572Y81915
X131572Y74168
X130556Y81915
X130556Y74168
X160528Y103378
X212217Y94742
X159258Y102743
X164338Y94488
X208826Y95504
X183261Y105410
X209131Y99880
X179578Y104648
X200955Y99273
X177038Y104648
X209691Y99254
X150368Y83197
X152908Y85737
X152908Y80657
X150368Y81292
X150368Y85102
X165100Y79502
X185928Y70358
X152908Y110998
X189738Y64008
X175514Y112141
X149098Y66548
X175768Y105918
X165608Y81788
X162052Y76708
X154559Y95631
X161798Y91948
X162560Y94488
X160528Y88138
X159258Y105156
X156718Y110998
X171577Y74930
X155448Y105283
X149098Y94488
X168148Y79248
X169418Y79248
X171831Y81534
X164973Y83820
X151638Y62738
X151638Y66548
X148971Y62484
X169418Y62738
X192278Y64008
X187198Y64008
X165227Y95377
X164719Y100711
X170688Y102108
X168783Y102108
X212598Y76454
X193294Y74041
X172974Y112141
X172466Y88138
X180848Y99568
X188468Y100076
X192278Y79248
X197358Y85090
X201803Y82550
X206883Y82550
X213233Y82042
X213995Y93853
X212471Y90678
X212471Y88138
X212471Y85598
X201803Y98044
X201930Y93599
X198882Y79248
X197358Y83058
X197358Y79248
X197485Y91186
X208534Y79502
X192278Y76708
X194818Y76708
X197358Y76708
X199898Y76708
X194818Y79248
X189738Y79248
X164846Y105283
X169418Y97663
X189738Y76200
X175768Y75438
X177025Y68059
X192265Y68059
X155702Y103251
X155766Y97853
X152781Y64897
X148717Y88011
X150241Y104521
X151765Y104521
X151638Y99060
X151892Y97409
X150114Y97155
X152527Y101219
X155829Y99314
X155829Y101600
X180848Y72898
X170688Y103378
X191008Y103378
X206248Y88138
X211328Y103378
X200914Y100330
X200279Y92456
X203708Y90805
X208788Y103505
X204978Y103886
X170434Y113538
X209804Y113538
X210566Y90678
X212598Y78486
X167894Y113538
X210439Y112268
X212598Y80010
X211455Y90678
X204343Y88392
X206248Y86487
X203708Y74168
X208153Y94869
X212471Y93853
X206248Y81407
X213868Y77978
X170688Y100838
X210199Y96774
X166116Y95377
X170968Y77138
X203708Y85598
X199898Y74168
X201168Y74168
X204343Y86487
X205359Y86487
X202438Y74168
X204470Y90424
X196977Y90170
X203708Y89154
X197993Y89154
X207518Y88138
X208788Y86741
X207518Y90678
X210058Y88138
X208788Y89408
X208788Y88138
X64389Y35814
X205486Y81915
X205486Y74168
X204470Y81915
X204470Y74168
X11430Y43815
X16510Y35560
X60998Y36576
X35433Y46482
X61303Y40952
X31750Y45720
X53127Y40345
X29210Y45720
X61863Y40326
X2540Y24269
X5080Y26809
X5080Y21729
X2540Y22364
X2540Y26174
X17272Y20574
X38100Y11430
X5080Y52070
X41910Y5080
X27686Y53213
X1270Y7620
X27940Y46990
X17780Y22860
X14224Y17780
X6731Y36703
X13970Y33020
X14732Y35560
X12700Y29210
X11430Y46228
X8890Y52070
X23749Y16002
X7620Y46355
X1270Y35560
X20320Y20320
X21590Y20320
X24003Y22606
X17145Y24892
X3810Y3810
X3810Y7620
X1143Y3556
X21590Y3810
X44450Y5080
X39370Y5080
X17399Y36449
X16891Y41783
X22860Y43180
X20955Y43180
X64770Y17526
X45466Y15113
X25146Y53213
X24638Y29210
X33020Y40640
X40640Y41148
X44450Y20320
X49530Y26162
X53975Y23622
X59055Y23622
X65405Y23114
X66167Y34925
X64643Y31750
X64643Y29210
X64643Y26670
X53975Y39116
X54102Y34671
X51054Y20320
X49530Y24130
X49530Y20320
X49657Y32258
X60706Y20574
X44450Y17780
X46990Y17780
X49530Y17780
X52070Y17780
X46990Y20320
X41910Y20320
X17018Y46355
X21590Y38735
X41910Y17272
X27940Y16510
X29197Y9131
X44437Y9131
X7874Y44323
X7937Y38926
X4953Y5969
X889Y29083
X2413Y45593
X3937Y45593
X3810Y40132
X4064Y38481
X2286Y38227
X4699Y42291
X8001Y40386
X8001Y42672
X33020Y13970
X22860Y44450
X43180Y44450
X58420Y29210
X63500Y44450
X53086Y41402
X52451Y33528
X55880Y31877
X60960Y44577
X57150Y44958
X22606Y54610
X61976Y54610
X62738Y31750
X64770Y19558
X20066Y54610
X62611Y53340
X64770Y21082
X63627Y31750
X56515Y29464
X58420Y27559
X55880Y15240
X60325Y35941
X64643Y34925
X58420Y22479
X66040Y19050
X22860Y41910
X62371Y37846
X18288Y36449
X23140Y18210
X55880Y26670
X52070Y15240
X53340Y15240
X56515Y27559
X57531Y27559
X54610Y15240
X56642Y31496
X49149Y31242
X55880Y30226
X50165Y30226
X59690Y29210
X60960Y27813
X59690Y31750
X62230Y29210
X60960Y30480
X60960Y29210
X57658Y22987
X57658Y15240
X56642Y22987
X56642Y15240
X86614Y44450
X138303Y35814
X85344Y43815
X90424Y35560
X134912Y36576
X135217Y40952
X105664Y45720
X127041Y40345
X103124Y45720
X135777Y40326
X76454Y24269
X78994Y26809
X78994Y21729
X76454Y22364
X76454Y26174
X91186Y20574
X112014Y11430
X78994Y52070
X115824Y5080
X101600Y53213
X75184Y7620
X101854Y46990
X91694Y22860
X88138Y17780
X80645Y36703
X87884Y33020
X88646Y35560
X86614Y29210
X85344Y46228
X82804Y52070
X97663Y16002
X81534Y46355
X75184Y35560
X94234Y20320
X95504Y20320
X97917Y22606
X91059Y24892
X77724Y3810
X77724Y7620
X75184Y66548
X75057Y3556
X95504Y3810
X118364Y5080
X113284Y5080
X91313Y36449
X90805Y41783
X96774Y43180
X94869Y43180
X138684Y17526
X119380Y15113
X99060Y53213
X98552Y29210
X106934Y40640
X114554Y41148
X118364Y20320
X123444Y26162
X127889Y23622
X132969Y23622
X139319Y23114
X140081Y34925
X138557Y31750
X138557Y29210
X138557Y26670
X127889Y39116
X128016Y34671
X124968Y20320
X123444Y24130
X123444Y20320
X123571Y32258
X134620Y20574
X118364Y17780
X120904Y17780
X123444Y17780
X125984Y17780
X120904Y20320
X115824Y20320
X90932Y46355
X95504Y38735
X115824Y17272
X101854Y16510
X103111Y9131
X118351Y9131
X81788Y44323
X81852Y38926
X78867Y5969
X74803Y29083
X76327Y45593
X77851Y45593
X77724Y40132
X77978Y38481
X76200Y38227
X78613Y42291
X81915Y40386
X81915Y42672
X106934Y13970
X96774Y44450
X117094Y44450
X132334Y29210
X137414Y44450
X127000Y41402
X126365Y33528
X129794Y31877
X134874Y44577
X131064Y44958
X96520Y54610
X135890Y54610
X136652Y31750
X138684Y19558
X93980Y54610
X136525Y53340
X138684Y21082
X137541Y31750
X130429Y29464
X132334Y27559
X129794Y15240
X134239Y35941
X138557Y34925
X132334Y22479
X139954Y19050
X96774Y41910
X136285Y37846
X92202Y36449
X97054Y18210
X129794Y26670
X125984Y15240
X127254Y15240
X130429Y27559
X131445Y27559
X128524Y15240
X130556Y31496
X123063Y31242
X129794Y30226
X124079Y30226
X133604Y29210
X134874Y27813
X133604Y31750
X136144Y29210
X134874Y30480
X134874Y29210
X131572Y22987
X131572Y15240
X130556Y22987
X130556Y15240
X160528Y44450
X212217Y35814
X159258Y43815
X164338Y35560
X208826Y36576
X183261Y46482
X209131Y40952
X179578Y45720
X200955Y40345
X177038Y45720
X209691Y40326
X150368Y24269
X152908Y26809
X152908Y21729
X150368Y22364
X150368Y26174
X165100Y20574
X185928Y11430
X152908Y52070
X189738Y5080
X175514Y53213
X149098Y7620
X175768Y46990
X165608Y22860
X162052Y17780
X154559Y36703
X161798Y33020
X162560Y35560
X160528Y29210
X159258Y46228
X156718Y52070
X171577Y16002
X155448Y46355
X149098Y35560
X168148Y20320
X169418Y20320
X171831Y22606
X164973Y24892
X151638Y3810
X151638Y7620
X148971Y3556
X169418Y3810
X192278Y5080
X187198Y5080
X165227Y36449
X164719Y41783
M30