G04 EAGLE Gerber RS-274X export*
G75*
%MOMM*%
%FSLAX34Y34*%
%LPD*%
%INSoldermask Bottom*%
%IPPOS*%
%AMOC8*
5,1,8,0,0,1.08239X$1,22.5*%
G01*
%ADD10C,3.505200*%
%ADD11C,2.235200*%
%ADD12C,0.853200*%
%ADD13R,3.203200X1.103200*%
%ADD14C,1.473200*%
%ADD15C,1.203200*%
%ADD16R,2.743200X1.981200*%
%ADD17C,8.203200*%
%ADD18C,2.082800*%
%ADD19C,1.003200*%
%ADD20R,1.473200X0.838200*%
%ADD21C,1.270000*%
%ADD22C,1.703200*%

G36*
X59880Y1047824D02*
X59880Y1047824D01*
X59942Y1047824D01*
X60660Y1047912D01*
X60667Y1047914D01*
X60675Y1047914D01*
X60838Y1047955D01*
X61514Y1048212D01*
X61521Y1048216D01*
X61529Y1048218D01*
X61677Y1048297D01*
X62272Y1048708D01*
X62278Y1048714D01*
X62285Y1048717D01*
X62303Y1048733D01*
X62306Y1048735D01*
X62313Y1048742D01*
X62409Y1048830D01*
X62889Y1049371D01*
X62893Y1049378D01*
X62899Y1049383D01*
X62993Y1049522D01*
X63329Y1050162D01*
X63332Y1050170D01*
X63336Y1050177D01*
X63394Y1050334D01*
X63567Y1051036D01*
X63568Y1051044D01*
X63571Y1051052D01*
X63589Y1051218D01*
X63589Y1051942D01*
X63588Y1051950D01*
X63589Y1051958D01*
X63567Y1052124D01*
X63394Y1052826D01*
X63391Y1052833D01*
X63390Y1052841D01*
X63329Y1052998D01*
X62993Y1053638D01*
X62988Y1053644D01*
X62985Y1053652D01*
X62889Y1053789D01*
X62409Y1054330D01*
X62403Y1054335D01*
X62399Y1054342D01*
X62272Y1054452D01*
X61677Y1054863D01*
X61669Y1054866D01*
X61663Y1054872D01*
X61514Y1054948D01*
X60838Y1055205D01*
X60830Y1055206D01*
X60823Y1055210D01*
X60660Y1055249D01*
X59942Y1055336D01*
X59912Y1055334D01*
X59850Y1055341D01*
X48850Y1055341D01*
X48820Y1055336D01*
X48758Y1055336D01*
X48040Y1055249D01*
X48033Y1055246D01*
X48025Y1055246D01*
X47862Y1055205D01*
X47186Y1054948D01*
X47179Y1054944D01*
X47171Y1054942D01*
X47023Y1054863D01*
X46428Y1054452D01*
X46422Y1054447D01*
X46415Y1054443D01*
X46291Y1054330D01*
X45811Y1053789D01*
X45807Y1053782D01*
X45801Y1053777D01*
X45707Y1053638D01*
X45371Y1052998D01*
X45368Y1052990D01*
X45364Y1052983D01*
X45306Y1052826D01*
X45133Y1052124D01*
X45132Y1052116D01*
X45129Y1052108D01*
X45111Y1051942D01*
X45111Y1051218D01*
X45112Y1051210D01*
X45111Y1051203D01*
X45133Y1051036D01*
X45306Y1050334D01*
X45309Y1050327D01*
X45310Y1050319D01*
X45371Y1050162D01*
X45707Y1049522D01*
X45712Y1049516D01*
X45715Y1049508D01*
X45811Y1049371D01*
X46291Y1048830D01*
X46297Y1048825D01*
X46301Y1048818D01*
X46428Y1048708D01*
X47023Y1048297D01*
X47031Y1048294D01*
X47037Y1048288D01*
X47186Y1048212D01*
X47862Y1047955D01*
X47870Y1047954D01*
X47877Y1047950D01*
X48040Y1047912D01*
X48758Y1047824D01*
X48788Y1047826D01*
X48850Y1047819D01*
X59850Y1047819D01*
X59880Y1047824D01*
G37*
G36*
X1538160Y1047824D02*
X1538160Y1047824D01*
X1538222Y1047824D01*
X1538940Y1047912D01*
X1538947Y1047914D01*
X1538955Y1047914D01*
X1539118Y1047955D01*
X1539794Y1048212D01*
X1539801Y1048216D01*
X1539809Y1048218D01*
X1539957Y1048297D01*
X1540552Y1048708D01*
X1540558Y1048714D01*
X1540565Y1048717D01*
X1540583Y1048733D01*
X1540586Y1048735D01*
X1540593Y1048742D01*
X1540689Y1048830D01*
X1541169Y1049371D01*
X1541173Y1049378D01*
X1541179Y1049383D01*
X1541273Y1049522D01*
X1541609Y1050162D01*
X1541612Y1050170D01*
X1541616Y1050177D01*
X1541674Y1050334D01*
X1541847Y1051036D01*
X1541848Y1051044D01*
X1541851Y1051052D01*
X1541869Y1051218D01*
X1541869Y1051942D01*
X1541868Y1051950D01*
X1541869Y1051958D01*
X1541847Y1052124D01*
X1541674Y1052826D01*
X1541671Y1052833D01*
X1541670Y1052841D01*
X1541609Y1052998D01*
X1541273Y1053638D01*
X1541268Y1053644D01*
X1541265Y1053652D01*
X1541169Y1053789D01*
X1540689Y1054330D01*
X1540683Y1054335D01*
X1540679Y1054342D01*
X1540552Y1054452D01*
X1539957Y1054863D01*
X1539949Y1054866D01*
X1539943Y1054872D01*
X1539794Y1054948D01*
X1539118Y1055205D01*
X1539110Y1055206D01*
X1539103Y1055210D01*
X1538940Y1055249D01*
X1538222Y1055336D01*
X1538192Y1055334D01*
X1538130Y1055341D01*
X1527130Y1055341D01*
X1527100Y1055336D01*
X1527038Y1055336D01*
X1526320Y1055249D01*
X1526313Y1055246D01*
X1526305Y1055246D01*
X1526142Y1055205D01*
X1525466Y1054948D01*
X1525459Y1054944D01*
X1525451Y1054942D01*
X1525303Y1054863D01*
X1524708Y1054452D01*
X1524702Y1054447D01*
X1524695Y1054443D01*
X1524571Y1054330D01*
X1524091Y1053789D01*
X1524087Y1053782D01*
X1524081Y1053777D01*
X1523987Y1053638D01*
X1523651Y1052998D01*
X1523648Y1052990D01*
X1523644Y1052983D01*
X1523586Y1052826D01*
X1523413Y1052124D01*
X1523412Y1052116D01*
X1523409Y1052108D01*
X1523391Y1051942D01*
X1523391Y1051218D01*
X1523392Y1051210D01*
X1523391Y1051203D01*
X1523413Y1051036D01*
X1523586Y1050334D01*
X1523589Y1050327D01*
X1523590Y1050319D01*
X1523651Y1050162D01*
X1523987Y1049522D01*
X1523992Y1049516D01*
X1523995Y1049508D01*
X1524091Y1049371D01*
X1524571Y1048830D01*
X1524577Y1048825D01*
X1524581Y1048818D01*
X1524708Y1048708D01*
X1525303Y1048297D01*
X1525311Y1048294D01*
X1525317Y1048288D01*
X1525466Y1048212D01*
X1526142Y1047955D01*
X1526150Y1047954D01*
X1526157Y1047950D01*
X1526320Y1047912D01*
X1527038Y1047824D01*
X1527068Y1047826D01*
X1527130Y1047819D01*
X1538130Y1047819D01*
X1538160Y1047824D01*
G37*
G36*
X799020Y1047824D02*
X799020Y1047824D01*
X799082Y1047824D01*
X799800Y1047912D01*
X799807Y1047914D01*
X799815Y1047914D01*
X799978Y1047955D01*
X800654Y1048212D01*
X800661Y1048216D01*
X800669Y1048218D01*
X800817Y1048297D01*
X801412Y1048708D01*
X801418Y1048714D01*
X801425Y1048717D01*
X801443Y1048733D01*
X801446Y1048735D01*
X801453Y1048742D01*
X801549Y1048830D01*
X802029Y1049371D01*
X802033Y1049378D01*
X802039Y1049383D01*
X802133Y1049522D01*
X802469Y1050162D01*
X802472Y1050170D01*
X802476Y1050177D01*
X802534Y1050334D01*
X802707Y1051036D01*
X802708Y1051044D01*
X802711Y1051052D01*
X802729Y1051218D01*
X802729Y1051942D01*
X802728Y1051950D01*
X802729Y1051958D01*
X802707Y1052124D01*
X802534Y1052826D01*
X802531Y1052833D01*
X802530Y1052841D01*
X802469Y1052998D01*
X802133Y1053638D01*
X802128Y1053644D01*
X802125Y1053652D01*
X802029Y1053789D01*
X801549Y1054330D01*
X801543Y1054335D01*
X801539Y1054342D01*
X801412Y1054452D01*
X800817Y1054863D01*
X800809Y1054866D01*
X800803Y1054872D01*
X800654Y1054948D01*
X799978Y1055205D01*
X799970Y1055206D01*
X799963Y1055210D01*
X799800Y1055249D01*
X799082Y1055336D01*
X799052Y1055334D01*
X798990Y1055341D01*
X787990Y1055341D01*
X787960Y1055336D01*
X787898Y1055336D01*
X787180Y1055249D01*
X787173Y1055246D01*
X787165Y1055246D01*
X787002Y1055205D01*
X786326Y1054948D01*
X786319Y1054944D01*
X786311Y1054942D01*
X786163Y1054863D01*
X785568Y1054452D01*
X785562Y1054447D01*
X785555Y1054443D01*
X785431Y1054330D01*
X784951Y1053789D01*
X784947Y1053782D01*
X784941Y1053777D01*
X784847Y1053638D01*
X784511Y1052998D01*
X784508Y1052990D01*
X784504Y1052983D01*
X784446Y1052826D01*
X784273Y1052124D01*
X784272Y1052116D01*
X784269Y1052108D01*
X784251Y1051942D01*
X784251Y1051218D01*
X784252Y1051210D01*
X784251Y1051203D01*
X784273Y1051036D01*
X784446Y1050334D01*
X784449Y1050327D01*
X784450Y1050319D01*
X784511Y1050162D01*
X784847Y1049522D01*
X784852Y1049516D01*
X784855Y1049508D01*
X784951Y1049371D01*
X785431Y1048830D01*
X785437Y1048825D01*
X785441Y1048818D01*
X785568Y1048708D01*
X786163Y1048297D01*
X786171Y1048294D01*
X786177Y1048288D01*
X786326Y1048212D01*
X787002Y1047955D01*
X787010Y1047954D01*
X787017Y1047950D01*
X787180Y1047912D01*
X787898Y1047824D01*
X787928Y1047826D01*
X787990Y1047819D01*
X798990Y1047819D01*
X799020Y1047824D01*
G37*
G36*
X1538160Y961424D02*
X1538160Y961424D01*
X1538222Y961424D01*
X1538940Y961512D01*
X1538947Y961514D01*
X1538955Y961514D01*
X1539118Y961555D01*
X1539794Y961812D01*
X1539801Y961816D01*
X1539809Y961818D01*
X1539957Y961897D01*
X1540552Y962308D01*
X1540558Y962314D01*
X1540565Y962317D01*
X1540583Y962333D01*
X1540586Y962335D01*
X1540593Y962342D01*
X1540689Y962430D01*
X1541169Y962971D01*
X1541173Y962978D01*
X1541179Y962983D01*
X1541273Y963122D01*
X1541609Y963762D01*
X1541612Y963770D01*
X1541616Y963777D01*
X1541674Y963934D01*
X1541847Y964636D01*
X1541848Y964644D01*
X1541851Y964652D01*
X1541869Y964818D01*
X1541869Y965542D01*
X1541868Y965550D01*
X1541869Y965558D01*
X1541847Y965724D01*
X1541674Y966426D01*
X1541671Y966433D01*
X1541670Y966441D01*
X1541609Y966598D01*
X1541273Y967238D01*
X1541268Y967244D01*
X1541265Y967252D01*
X1541169Y967389D01*
X1540689Y967930D01*
X1540683Y967935D01*
X1540679Y967942D01*
X1540552Y968052D01*
X1539957Y968463D01*
X1539949Y968466D01*
X1539943Y968472D01*
X1539794Y968548D01*
X1539118Y968805D01*
X1539110Y968806D01*
X1539103Y968810D01*
X1538940Y968849D01*
X1538222Y968936D01*
X1538192Y968934D01*
X1538130Y968941D01*
X1527130Y968941D01*
X1527100Y968936D01*
X1527038Y968936D01*
X1526320Y968849D01*
X1526313Y968846D01*
X1526305Y968846D01*
X1526142Y968805D01*
X1525466Y968548D01*
X1525459Y968544D01*
X1525451Y968542D01*
X1525303Y968463D01*
X1524708Y968052D01*
X1524702Y968047D01*
X1524695Y968043D01*
X1524571Y967930D01*
X1524091Y967389D01*
X1524087Y967382D01*
X1524081Y967377D01*
X1523987Y967238D01*
X1523651Y966598D01*
X1523648Y966590D01*
X1523644Y966583D01*
X1523586Y966426D01*
X1523413Y965724D01*
X1523412Y965716D01*
X1523409Y965708D01*
X1523391Y965542D01*
X1523391Y964818D01*
X1523392Y964810D01*
X1523391Y964803D01*
X1523413Y964636D01*
X1523586Y963934D01*
X1523589Y963927D01*
X1523590Y963919D01*
X1523651Y963762D01*
X1523987Y963122D01*
X1523992Y963116D01*
X1523995Y963108D01*
X1524091Y962971D01*
X1524571Y962430D01*
X1524577Y962425D01*
X1524581Y962418D01*
X1524708Y962308D01*
X1525303Y961897D01*
X1525311Y961894D01*
X1525317Y961888D01*
X1525466Y961812D01*
X1526142Y961555D01*
X1526150Y961554D01*
X1526157Y961550D01*
X1526320Y961512D01*
X1527038Y961424D01*
X1527068Y961426D01*
X1527130Y961419D01*
X1538130Y961419D01*
X1538160Y961424D01*
G37*
G36*
X59880Y961424D02*
X59880Y961424D01*
X59942Y961424D01*
X60660Y961512D01*
X60667Y961514D01*
X60675Y961514D01*
X60838Y961555D01*
X61514Y961812D01*
X61521Y961816D01*
X61529Y961818D01*
X61677Y961897D01*
X62272Y962308D01*
X62278Y962314D01*
X62285Y962317D01*
X62303Y962333D01*
X62306Y962335D01*
X62313Y962342D01*
X62409Y962430D01*
X62889Y962971D01*
X62893Y962978D01*
X62899Y962983D01*
X62993Y963122D01*
X63329Y963762D01*
X63332Y963770D01*
X63336Y963777D01*
X63394Y963934D01*
X63567Y964636D01*
X63568Y964644D01*
X63571Y964652D01*
X63589Y964818D01*
X63589Y965542D01*
X63588Y965550D01*
X63589Y965558D01*
X63567Y965724D01*
X63394Y966426D01*
X63391Y966433D01*
X63390Y966441D01*
X63329Y966598D01*
X62993Y967238D01*
X62988Y967244D01*
X62985Y967252D01*
X62889Y967389D01*
X62409Y967930D01*
X62403Y967935D01*
X62399Y967942D01*
X62272Y968052D01*
X61677Y968463D01*
X61669Y968466D01*
X61663Y968472D01*
X61514Y968548D01*
X60838Y968805D01*
X60830Y968806D01*
X60823Y968810D01*
X60660Y968849D01*
X59942Y968936D01*
X59912Y968934D01*
X59850Y968941D01*
X48850Y968941D01*
X48820Y968936D01*
X48758Y968936D01*
X48040Y968849D01*
X48033Y968846D01*
X48025Y968846D01*
X47862Y968805D01*
X47186Y968548D01*
X47179Y968544D01*
X47171Y968542D01*
X47023Y968463D01*
X46428Y968052D01*
X46422Y968047D01*
X46415Y968043D01*
X46291Y967930D01*
X45811Y967389D01*
X45807Y967382D01*
X45801Y967377D01*
X45707Y967238D01*
X45371Y966598D01*
X45368Y966590D01*
X45364Y966583D01*
X45306Y966426D01*
X45133Y965724D01*
X45132Y965716D01*
X45129Y965708D01*
X45111Y965542D01*
X45111Y964818D01*
X45112Y964810D01*
X45111Y964803D01*
X45133Y964636D01*
X45306Y963934D01*
X45309Y963927D01*
X45310Y963919D01*
X45371Y963762D01*
X45707Y963122D01*
X45712Y963116D01*
X45715Y963108D01*
X45811Y962971D01*
X46291Y962430D01*
X46297Y962425D01*
X46301Y962418D01*
X46428Y962308D01*
X47023Y961897D01*
X47031Y961894D01*
X47037Y961888D01*
X47186Y961812D01*
X47862Y961555D01*
X47870Y961554D01*
X47877Y961550D01*
X48040Y961512D01*
X48758Y961424D01*
X48788Y961426D01*
X48850Y961419D01*
X59850Y961419D01*
X59880Y961424D01*
G37*
G36*
X799020Y961424D02*
X799020Y961424D01*
X799082Y961424D01*
X799800Y961512D01*
X799807Y961514D01*
X799815Y961514D01*
X799978Y961555D01*
X800654Y961812D01*
X800661Y961816D01*
X800669Y961818D01*
X800817Y961897D01*
X801412Y962308D01*
X801418Y962314D01*
X801425Y962317D01*
X801443Y962333D01*
X801446Y962335D01*
X801453Y962342D01*
X801549Y962430D01*
X802029Y962971D01*
X802033Y962978D01*
X802039Y962983D01*
X802133Y963122D01*
X802469Y963762D01*
X802472Y963770D01*
X802476Y963777D01*
X802534Y963934D01*
X802707Y964636D01*
X802708Y964644D01*
X802711Y964652D01*
X802729Y964818D01*
X802729Y965542D01*
X802728Y965550D01*
X802729Y965558D01*
X802707Y965724D01*
X802534Y966426D01*
X802531Y966433D01*
X802530Y966441D01*
X802469Y966598D01*
X802133Y967238D01*
X802128Y967244D01*
X802125Y967252D01*
X802029Y967389D01*
X801549Y967930D01*
X801543Y967935D01*
X801539Y967942D01*
X801412Y968052D01*
X800817Y968463D01*
X800809Y968466D01*
X800803Y968472D01*
X800654Y968548D01*
X799978Y968805D01*
X799970Y968806D01*
X799963Y968810D01*
X799800Y968849D01*
X799082Y968936D01*
X799052Y968934D01*
X798990Y968941D01*
X787990Y968941D01*
X787960Y968936D01*
X787898Y968936D01*
X787180Y968849D01*
X787173Y968846D01*
X787165Y968846D01*
X787002Y968805D01*
X786326Y968548D01*
X786319Y968544D01*
X786311Y968542D01*
X786163Y968463D01*
X785568Y968052D01*
X785562Y968047D01*
X785555Y968043D01*
X785431Y967930D01*
X784951Y967389D01*
X784947Y967382D01*
X784941Y967377D01*
X784847Y967238D01*
X784511Y966598D01*
X784508Y966590D01*
X784504Y966583D01*
X784446Y966426D01*
X784273Y965724D01*
X784272Y965716D01*
X784269Y965708D01*
X784251Y965542D01*
X784251Y964818D01*
X784252Y964810D01*
X784251Y964803D01*
X784273Y964636D01*
X784446Y963934D01*
X784449Y963927D01*
X784450Y963919D01*
X784511Y963762D01*
X784847Y963122D01*
X784852Y963116D01*
X784855Y963108D01*
X784951Y962971D01*
X785431Y962430D01*
X785437Y962425D01*
X785441Y962418D01*
X785568Y962308D01*
X786163Y961897D01*
X786171Y961894D01*
X786177Y961888D01*
X786326Y961812D01*
X787002Y961555D01*
X787010Y961554D01*
X787017Y961550D01*
X787180Y961512D01*
X787898Y961424D01*
X787928Y961426D01*
X787990Y961419D01*
X798990Y961419D01*
X799020Y961424D01*
G37*
G36*
X1538160Y458544D02*
X1538160Y458544D01*
X1538222Y458544D01*
X1538940Y458632D01*
X1538947Y458634D01*
X1538955Y458634D01*
X1539118Y458675D01*
X1539794Y458932D01*
X1539801Y458936D01*
X1539809Y458938D01*
X1539957Y459017D01*
X1540552Y459428D01*
X1540558Y459434D01*
X1540565Y459437D01*
X1540583Y459453D01*
X1540586Y459455D01*
X1540593Y459462D01*
X1540689Y459550D01*
X1541169Y460091D01*
X1541173Y460098D01*
X1541179Y460103D01*
X1541273Y460242D01*
X1541609Y460882D01*
X1541612Y460890D01*
X1541616Y460897D01*
X1541674Y461054D01*
X1541847Y461756D01*
X1541848Y461764D01*
X1541851Y461772D01*
X1541869Y461938D01*
X1541869Y462662D01*
X1541868Y462670D01*
X1541869Y462678D01*
X1541847Y462844D01*
X1541674Y463546D01*
X1541671Y463553D01*
X1541670Y463561D01*
X1541609Y463718D01*
X1541273Y464358D01*
X1541268Y464364D01*
X1541265Y464372D01*
X1541169Y464509D01*
X1540689Y465050D01*
X1540683Y465055D01*
X1540679Y465062D01*
X1540552Y465172D01*
X1539957Y465583D01*
X1539949Y465586D01*
X1539943Y465592D01*
X1539794Y465668D01*
X1539118Y465925D01*
X1539110Y465926D01*
X1539103Y465930D01*
X1538940Y465969D01*
X1538222Y466056D01*
X1538192Y466054D01*
X1538130Y466061D01*
X1527130Y466061D01*
X1527100Y466056D01*
X1527038Y466056D01*
X1526320Y465969D01*
X1526313Y465966D01*
X1526305Y465966D01*
X1526142Y465925D01*
X1525466Y465668D01*
X1525459Y465664D01*
X1525451Y465662D01*
X1525303Y465583D01*
X1524708Y465172D01*
X1524702Y465167D01*
X1524695Y465163D01*
X1524571Y465050D01*
X1524091Y464509D01*
X1524087Y464502D01*
X1524081Y464497D01*
X1523987Y464358D01*
X1523651Y463718D01*
X1523648Y463710D01*
X1523644Y463703D01*
X1523586Y463546D01*
X1523413Y462844D01*
X1523412Y462836D01*
X1523409Y462828D01*
X1523391Y462662D01*
X1523391Y461938D01*
X1523392Y461930D01*
X1523391Y461923D01*
X1523413Y461756D01*
X1523586Y461054D01*
X1523589Y461047D01*
X1523590Y461039D01*
X1523651Y460882D01*
X1523987Y460242D01*
X1523992Y460236D01*
X1523995Y460228D01*
X1524091Y460091D01*
X1524571Y459550D01*
X1524577Y459545D01*
X1524581Y459538D01*
X1524708Y459428D01*
X1525303Y459017D01*
X1525311Y459014D01*
X1525317Y459008D01*
X1525466Y458932D01*
X1526142Y458675D01*
X1526150Y458674D01*
X1526157Y458670D01*
X1526320Y458632D01*
X1527038Y458544D01*
X1527068Y458546D01*
X1527130Y458539D01*
X1538130Y458539D01*
X1538160Y458544D01*
G37*
G36*
X799020Y458544D02*
X799020Y458544D01*
X799082Y458544D01*
X799800Y458632D01*
X799807Y458634D01*
X799815Y458634D01*
X799978Y458675D01*
X800654Y458932D01*
X800661Y458936D01*
X800669Y458938D01*
X800817Y459017D01*
X801412Y459428D01*
X801418Y459434D01*
X801425Y459437D01*
X801443Y459453D01*
X801446Y459455D01*
X801453Y459462D01*
X801549Y459550D01*
X802029Y460091D01*
X802033Y460098D01*
X802039Y460103D01*
X802133Y460242D01*
X802469Y460882D01*
X802472Y460890D01*
X802476Y460897D01*
X802534Y461054D01*
X802707Y461756D01*
X802708Y461764D01*
X802711Y461772D01*
X802729Y461938D01*
X802729Y462662D01*
X802728Y462670D01*
X802729Y462678D01*
X802707Y462844D01*
X802534Y463546D01*
X802531Y463553D01*
X802530Y463561D01*
X802469Y463718D01*
X802133Y464358D01*
X802128Y464364D01*
X802125Y464372D01*
X802029Y464509D01*
X801549Y465050D01*
X801543Y465055D01*
X801539Y465062D01*
X801412Y465172D01*
X800817Y465583D01*
X800809Y465586D01*
X800803Y465592D01*
X800654Y465668D01*
X799978Y465925D01*
X799970Y465926D01*
X799963Y465930D01*
X799800Y465969D01*
X799082Y466056D01*
X799052Y466054D01*
X798990Y466061D01*
X787990Y466061D01*
X787960Y466056D01*
X787898Y466056D01*
X787180Y465969D01*
X787173Y465966D01*
X787165Y465966D01*
X787002Y465925D01*
X786326Y465668D01*
X786319Y465664D01*
X786311Y465662D01*
X786163Y465583D01*
X785568Y465172D01*
X785562Y465167D01*
X785555Y465163D01*
X785431Y465050D01*
X784951Y464509D01*
X784947Y464502D01*
X784941Y464497D01*
X784847Y464358D01*
X784511Y463718D01*
X784508Y463710D01*
X784504Y463703D01*
X784446Y463546D01*
X784273Y462844D01*
X784272Y462836D01*
X784269Y462828D01*
X784251Y462662D01*
X784251Y461938D01*
X784252Y461930D01*
X784251Y461923D01*
X784273Y461756D01*
X784446Y461054D01*
X784449Y461047D01*
X784450Y461039D01*
X784511Y460882D01*
X784847Y460242D01*
X784852Y460236D01*
X784855Y460228D01*
X784951Y460091D01*
X785431Y459550D01*
X785437Y459545D01*
X785441Y459538D01*
X785568Y459428D01*
X786163Y459017D01*
X786171Y459014D01*
X786177Y459008D01*
X786326Y458932D01*
X787002Y458675D01*
X787010Y458674D01*
X787017Y458670D01*
X787180Y458632D01*
X787898Y458544D01*
X787928Y458546D01*
X787990Y458539D01*
X798990Y458539D01*
X799020Y458544D01*
G37*
G36*
X59880Y458544D02*
X59880Y458544D01*
X59942Y458544D01*
X60660Y458632D01*
X60667Y458634D01*
X60675Y458634D01*
X60838Y458675D01*
X61514Y458932D01*
X61521Y458936D01*
X61529Y458938D01*
X61677Y459017D01*
X62272Y459428D01*
X62278Y459434D01*
X62285Y459437D01*
X62303Y459453D01*
X62306Y459455D01*
X62313Y459462D01*
X62409Y459550D01*
X62889Y460091D01*
X62893Y460098D01*
X62899Y460103D01*
X62993Y460242D01*
X63329Y460882D01*
X63332Y460890D01*
X63336Y460897D01*
X63394Y461054D01*
X63567Y461756D01*
X63568Y461764D01*
X63571Y461772D01*
X63589Y461938D01*
X63589Y462662D01*
X63588Y462670D01*
X63589Y462678D01*
X63567Y462844D01*
X63394Y463546D01*
X63391Y463553D01*
X63390Y463561D01*
X63329Y463718D01*
X62993Y464358D01*
X62988Y464364D01*
X62985Y464372D01*
X62889Y464509D01*
X62409Y465050D01*
X62403Y465055D01*
X62399Y465062D01*
X62272Y465172D01*
X61677Y465583D01*
X61669Y465586D01*
X61663Y465592D01*
X61514Y465668D01*
X60838Y465925D01*
X60830Y465926D01*
X60823Y465930D01*
X60660Y465969D01*
X59942Y466056D01*
X59912Y466054D01*
X59850Y466061D01*
X48850Y466061D01*
X48820Y466056D01*
X48758Y466056D01*
X48040Y465969D01*
X48033Y465966D01*
X48025Y465966D01*
X47862Y465925D01*
X47186Y465668D01*
X47179Y465664D01*
X47171Y465662D01*
X47023Y465583D01*
X46428Y465172D01*
X46422Y465167D01*
X46415Y465163D01*
X46291Y465050D01*
X45811Y464509D01*
X45807Y464502D01*
X45801Y464497D01*
X45707Y464358D01*
X45371Y463718D01*
X45368Y463710D01*
X45364Y463703D01*
X45306Y463546D01*
X45133Y462844D01*
X45132Y462836D01*
X45129Y462828D01*
X45111Y462662D01*
X45111Y461938D01*
X45112Y461930D01*
X45111Y461923D01*
X45133Y461756D01*
X45306Y461054D01*
X45309Y461047D01*
X45310Y461039D01*
X45371Y460882D01*
X45707Y460242D01*
X45712Y460236D01*
X45715Y460228D01*
X45811Y460091D01*
X46291Y459550D01*
X46297Y459545D01*
X46301Y459538D01*
X46428Y459428D01*
X47023Y459017D01*
X47031Y459014D01*
X47037Y459008D01*
X47186Y458932D01*
X47862Y458675D01*
X47870Y458674D01*
X47877Y458670D01*
X48040Y458632D01*
X48758Y458544D01*
X48788Y458546D01*
X48850Y458539D01*
X59850Y458539D01*
X59880Y458544D01*
G37*
G36*
X59880Y372144D02*
X59880Y372144D01*
X59942Y372144D01*
X60660Y372232D01*
X60667Y372234D01*
X60675Y372234D01*
X60838Y372275D01*
X61514Y372532D01*
X61521Y372536D01*
X61529Y372538D01*
X61677Y372617D01*
X62272Y373028D01*
X62278Y373034D01*
X62285Y373037D01*
X62303Y373053D01*
X62306Y373055D01*
X62313Y373062D01*
X62409Y373150D01*
X62889Y373691D01*
X62893Y373698D01*
X62899Y373703D01*
X62993Y373842D01*
X63329Y374482D01*
X63332Y374490D01*
X63336Y374497D01*
X63394Y374654D01*
X63567Y375356D01*
X63568Y375364D01*
X63571Y375372D01*
X63589Y375538D01*
X63589Y376262D01*
X63588Y376270D01*
X63589Y376278D01*
X63567Y376444D01*
X63394Y377146D01*
X63391Y377153D01*
X63390Y377161D01*
X63329Y377318D01*
X62993Y377958D01*
X62988Y377964D01*
X62985Y377972D01*
X62889Y378109D01*
X62409Y378650D01*
X62403Y378655D01*
X62399Y378662D01*
X62272Y378772D01*
X61677Y379183D01*
X61669Y379186D01*
X61663Y379192D01*
X61514Y379268D01*
X60838Y379525D01*
X60830Y379526D01*
X60823Y379530D01*
X60660Y379569D01*
X59942Y379656D01*
X59912Y379654D01*
X59850Y379661D01*
X48850Y379661D01*
X48820Y379656D01*
X48758Y379656D01*
X48040Y379569D01*
X48033Y379566D01*
X48025Y379566D01*
X47862Y379525D01*
X47186Y379268D01*
X47179Y379264D01*
X47171Y379262D01*
X47023Y379183D01*
X46428Y378772D01*
X46422Y378767D01*
X46415Y378763D01*
X46291Y378650D01*
X45811Y378109D01*
X45807Y378102D01*
X45801Y378097D01*
X45707Y377958D01*
X45371Y377318D01*
X45368Y377310D01*
X45364Y377303D01*
X45306Y377146D01*
X45133Y376444D01*
X45132Y376436D01*
X45129Y376428D01*
X45111Y376262D01*
X45111Y375538D01*
X45112Y375530D01*
X45111Y375523D01*
X45133Y375356D01*
X45306Y374654D01*
X45309Y374647D01*
X45310Y374639D01*
X45371Y374482D01*
X45707Y373842D01*
X45712Y373836D01*
X45715Y373828D01*
X45811Y373691D01*
X46291Y373150D01*
X46297Y373145D01*
X46301Y373138D01*
X46428Y373028D01*
X47023Y372617D01*
X47031Y372614D01*
X47037Y372608D01*
X47186Y372532D01*
X47862Y372275D01*
X47870Y372274D01*
X47877Y372270D01*
X48040Y372232D01*
X48758Y372144D01*
X48788Y372146D01*
X48850Y372139D01*
X59850Y372139D01*
X59880Y372144D01*
G37*
G36*
X1538160Y372144D02*
X1538160Y372144D01*
X1538222Y372144D01*
X1538940Y372232D01*
X1538947Y372234D01*
X1538955Y372234D01*
X1539118Y372275D01*
X1539794Y372532D01*
X1539801Y372536D01*
X1539809Y372538D01*
X1539957Y372617D01*
X1540552Y373028D01*
X1540558Y373034D01*
X1540565Y373037D01*
X1540583Y373053D01*
X1540586Y373055D01*
X1540593Y373062D01*
X1540689Y373150D01*
X1541169Y373691D01*
X1541173Y373698D01*
X1541179Y373703D01*
X1541273Y373842D01*
X1541609Y374482D01*
X1541612Y374490D01*
X1541616Y374497D01*
X1541674Y374654D01*
X1541847Y375356D01*
X1541848Y375364D01*
X1541851Y375372D01*
X1541869Y375538D01*
X1541869Y376262D01*
X1541868Y376270D01*
X1541869Y376278D01*
X1541847Y376444D01*
X1541674Y377146D01*
X1541671Y377153D01*
X1541670Y377161D01*
X1541609Y377318D01*
X1541273Y377958D01*
X1541268Y377964D01*
X1541265Y377972D01*
X1541169Y378109D01*
X1540689Y378650D01*
X1540683Y378655D01*
X1540679Y378662D01*
X1540552Y378772D01*
X1539957Y379183D01*
X1539949Y379186D01*
X1539943Y379192D01*
X1539794Y379268D01*
X1539118Y379525D01*
X1539110Y379526D01*
X1539103Y379530D01*
X1538940Y379569D01*
X1538222Y379656D01*
X1538192Y379654D01*
X1538130Y379661D01*
X1527130Y379661D01*
X1527100Y379656D01*
X1527038Y379656D01*
X1526320Y379569D01*
X1526313Y379566D01*
X1526305Y379566D01*
X1526142Y379525D01*
X1525466Y379268D01*
X1525459Y379264D01*
X1525451Y379262D01*
X1525303Y379183D01*
X1524708Y378772D01*
X1524702Y378767D01*
X1524695Y378763D01*
X1524571Y378650D01*
X1524091Y378109D01*
X1524087Y378102D01*
X1524081Y378097D01*
X1523987Y377958D01*
X1523651Y377318D01*
X1523648Y377310D01*
X1523644Y377303D01*
X1523586Y377146D01*
X1523413Y376444D01*
X1523412Y376436D01*
X1523409Y376428D01*
X1523391Y376262D01*
X1523391Y375538D01*
X1523392Y375530D01*
X1523391Y375523D01*
X1523413Y375356D01*
X1523586Y374654D01*
X1523589Y374647D01*
X1523590Y374639D01*
X1523651Y374482D01*
X1523987Y373842D01*
X1523992Y373836D01*
X1523995Y373828D01*
X1524091Y373691D01*
X1524571Y373150D01*
X1524577Y373145D01*
X1524581Y373138D01*
X1524708Y373028D01*
X1525303Y372617D01*
X1525311Y372614D01*
X1525317Y372608D01*
X1525466Y372532D01*
X1526142Y372275D01*
X1526150Y372274D01*
X1526157Y372270D01*
X1526320Y372232D01*
X1527038Y372144D01*
X1527068Y372146D01*
X1527130Y372139D01*
X1538130Y372139D01*
X1538160Y372144D01*
G37*
G36*
X799020Y372144D02*
X799020Y372144D01*
X799082Y372144D01*
X799800Y372232D01*
X799807Y372234D01*
X799815Y372234D01*
X799978Y372275D01*
X800654Y372532D01*
X800661Y372536D01*
X800669Y372538D01*
X800817Y372617D01*
X801412Y373028D01*
X801418Y373034D01*
X801425Y373037D01*
X801443Y373053D01*
X801446Y373055D01*
X801453Y373062D01*
X801549Y373150D01*
X802029Y373691D01*
X802033Y373698D01*
X802039Y373703D01*
X802133Y373842D01*
X802469Y374482D01*
X802472Y374490D01*
X802476Y374497D01*
X802534Y374654D01*
X802707Y375356D01*
X802708Y375364D01*
X802711Y375372D01*
X802729Y375538D01*
X802729Y376262D01*
X802728Y376270D01*
X802729Y376278D01*
X802707Y376444D01*
X802534Y377146D01*
X802531Y377153D01*
X802530Y377161D01*
X802469Y377318D01*
X802133Y377958D01*
X802128Y377964D01*
X802125Y377972D01*
X802029Y378109D01*
X801549Y378650D01*
X801543Y378655D01*
X801539Y378662D01*
X801412Y378772D01*
X800817Y379183D01*
X800809Y379186D01*
X800803Y379192D01*
X800654Y379268D01*
X799978Y379525D01*
X799970Y379526D01*
X799963Y379530D01*
X799800Y379569D01*
X799082Y379656D01*
X799052Y379654D01*
X798990Y379661D01*
X787990Y379661D01*
X787960Y379656D01*
X787898Y379656D01*
X787180Y379569D01*
X787173Y379566D01*
X787165Y379566D01*
X787002Y379525D01*
X786326Y379268D01*
X786319Y379264D01*
X786311Y379262D01*
X786163Y379183D01*
X785568Y378772D01*
X785562Y378767D01*
X785555Y378763D01*
X785431Y378650D01*
X784951Y378109D01*
X784947Y378102D01*
X784941Y378097D01*
X784847Y377958D01*
X784511Y377318D01*
X784508Y377310D01*
X784504Y377303D01*
X784446Y377146D01*
X784273Y376444D01*
X784272Y376436D01*
X784269Y376428D01*
X784251Y376262D01*
X784251Y375538D01*
X784252Y375530D01*
X784251Y375523D01*
X784273Y375356D01*
X784446Y374654D01*
X784449Y374647D01*
X784450Y374639D01*
X784511Y374482D01*
X784847Y373842D01*
X784852Y373836D01*
X784855Y373828D01*
X784951Y373691D01*
X785431Y373150D01*
X785437Y373145D01*
X785441Y373138D01*
X785568Y373028D01*
X786163Y372617D01*
X786171Y372614D01*
X786177Y372608D01*
X786326Y372532D01*
X787002Y372275D01*
X787010Y372274D01*
X787017Y372270D01*
X787180Y372232D01*
X787898Y372144D01*
X787928Y372146D01*
X787990Y372139D01*
X798990Y372139D01*
X799020Y372144D01*
G37*
G36*
X754870Y1047824D02*
X754870Y1047824D01*
X754932Y1047824D01*
X755650Y1047912D01*
X755657Y1047914D01*
X755665Y1047914D01*
X755828Y1047955D01*
X756504Y1048212D01*
X756511Y1048216D01*
X756519Y1048218D01*
X756667Y1048297D01*
X757262Y1048708D01*
X757268Y1048714D01*
X757275Y1048717D01*
X757293Y1048733D01*
X757296Y1048735D01*
X757303Y1048742D01*
X757399Y1048830D01*
X757879Y1049371D01*
X757883Y1049378D01*
X757889Y1049383D01*
X757983Y1049522D01*
X758319Y1050162D01*
X758322Y1050170D01*
X758326Y1050177D01*
X758384Y1050334D01*
X758557Y1051036D01*
X758558Y1051044D01*
X758561Y1051052D01*
X758579Y1051218D01*
X758579Y1051942D01*
X758578Y1051950D01*
X758579Y1051958D01*
X758557Y1052124D01*
X758384Y1052826D01*
X758381Y1052833D01*
X758380Y1052841D01*
X758319Y1052998D01*
X757983Y1053638D01*
X757978Y1053644D01*
X757975Y1053652D01*
X757879Y1053789D01*
X757399Y1054330D01*
X757393Y1054335D01*
X757389Y1054342D01*
X757262Y1054452D01*
X756667Y1054863D01*
X756659Y1054866D01*
X756653Y1054872D01*
X756504Y1054948D01*
X755828Y1055205D01*
X755820Y1055206D01*
X755813Y1055210D01*
X755650Y1055249D01*
X754932Y1055336D01*
X754902Y1055334D01*
X754840Y1055341D01*
X748640Y1055341D01*
X748610Y1055336D01*
X748548Y1055336D01*
X747830Y1055249D01*
X747823Y1055246D01*
X747815Y1055246D01*
X747652Y1055205D01*
X746976Y1054948D01*
X746969Y1054944D01*
X746961Y1054942D01*
X746813Y1054863D01*
X746218Y1054452D01*
X746212Y1054447D01*
X746205Y1054443D01*
X746081Y1054330D01*
X745601Y1053789D01*
X745597Y1053782D01*
X745591Y1053777D01*
X745497Y1053638D01*
X745161Y1052998D01*
X745158Y1052990D01*
X745154Y1052983D01*
X745096Y1052826D01*
X744923Y1052124D01*
X744922Y1052116D01*
X744919Y1052108D01*
X744901Y1051942D01*
X744901Y1051218D01*
X744902Y1051210D01*
X744901Y1051203D01*
X744923Y1051036D01*
X745096Y1050334D01*
X745099Y1050327D01*
X745100Y1050319D01*
X745161Y1050162D01*
X745497Y1049522D01*
X745502Y1049516D01*
X745505Y1049508D01*
X745601Y1049371D01*
X746081Y1048830D01*
X746087Y1048825D01*
X746091Y1048818D01*
X746218Y1048708D01*
X746813Y1048297D01*
X746821Y1048294D01*
X746827Y1048288D01*
X746976Y1048212D01*
X747652Y1047955D01*
X747660Y1047954D01*
X747667Y1047950D01*
X747830Y1047912D01*
X748548Y1047824D01*
X748578Y1047826D01*
X748640Y1047819D01*
X754840Y1047819D01*
X754870Y1047824D01*
G37*
G36*
X1494010Y1047824D02*
X1494010Y1047824D01*
X1494072Y1047824D01*
X1494790Y1047912D01*
X1494797Y1047914D01*
X1494805Y1047914D01*
X1494968Y1047955D01*
X1495644Y1048212D01*
X1495651Y1048216D01*
X1495659Y1048218D01*
X1495807Y1048297D01*
X1496402Y1048708D01*
X1496408Y1048714D01*
X1496415Y1048717D01*
X1496433Y1048733D01*
X1496436Y1048735D01*
X1496443Y1048742D01*
X1496539Y1048830D01*
X1497019Y1049371D01*
X1497023Y1049378D01*
X1497029Y1049383D01*
X1497123Y1049522D01*
X1497459Y1050162D01*
X1497462Y1050170D01*
X1497466Y1050177D01*
X1497524Y1050334D01*
X1497697Y1051036D01*
X1497698Y1051044D01*
X1497701Y1051052D01*
X1497719Y1051218D01*
X1497719Y1051942D01*
X1497718Y1051950D01*
X1497719Y1051958D01*
X1497697Y1052124D01*
X1497524Y1052826D01*
X1497521Y1052833D01*
X1497520Y1052841D01*
X1497459Y1052998D01*
X1497123Y1053638D01*
X1497118Y1053644D01*
X1497115Y1053652D01*
X1497019Y1053789D01*
X1496539Y1054330D01*
X1496533Y1054335D01*
X1496529Y1054342D01*
X1496402Y1054452D01*
X1495807Y1054863D01*
X1495799Y1054866D01*
X1495793Y1054872D01*
X1495644Y1054948D01*
X1494968Y1055205D01*
X1494960Y1055206D01*
X1494953Y1055210D01*
X1494790Y1055249D01*
X1494072Y1055336D01*
X1494042Y1055334D01*
X1493980Y1055341D01*
X1487780Y1055341D01*
X1487750Y1055336D01*
X1487688Y1055336D01*
X1486970Y1055249D01*
X1486963Y1055246D01*
X1486955Y1055246D01*
X1486792Y1055205D01*
X1486116Y1054948D01*
X1486109Y1054944D01*
X1486101Y1054942D01*
X1485953Y1054863D01*
X1485358Y1054452D01*
X1485352Y1054447D01*
X1485345Y1054443D01*
X1485221Y1054330D01*
X1484741Y1053789D01*
X1484737Y1053782D01*
X1484731Y1053777D01*
X1484637Y1053638D01*
X1484301Y1052998D01*
X1484298Y1052990D01*
X1484294Y1052983D01*
X1484236Y1052826D01*
X1484063Y1052124D01*
X1484062Y1052116D01*
X1484059Y1052108D01*
X1484041Y1051942D01*
X1484041Y1051218D01*
X1484042Y1051210D01*
X1484041Y1051203D01*
X1484063Y1051036D01*
X1484236Y1050334D01*
X1484239Y1050327D01*
X1484240Y1050319D01*
X1484301Y1050162D01*
X1484637Y1049522D01*
X1484642Y1049516D01*
X1484645Y1049508D01*
X1484741Y1049371D01*
X1485221Y1048830D01*
X1485227Y1048825D01*
X1485231Y1048818D01*
X1485358Y1048708D01*
X1485953Y1048297D01*
X1485961Y1048294D01*
X1485967Y1048288D01*
X1486116Y1048212D01*
X1486792Y1047955D01*
X1486800Y1047954D01*
X1486807Y1047950D01*
X1486970Y1047912D01*
X1487688Y1047824D01*
X1487718Y1047826D01*
X1487780Y1047819D01*
X1493980Y1047819D01*
X1494010Y1047824D01*
G37*
G36*
X15730Y1047824D02*
X15730Y1047824D01*
X15792Y1047824D01*
X16510Y1047912D01*
X16517Y1047914D01*
X16525Y1047914D01*
X16688Y1047955D01*
X17364Y1048212D01*
X17371Y1048216D01*
X17379Y1048218D01*
X17527Y1048297D01*
X18122Y1048708D01*
X18128Y1048714D01*
X18135Y1048717D01*
X18153Y1048733D01*
X18156Y1048735D01*
X18163Y1048742D01*
X18259Y1048830D01*
X18739Y1049371D01*
X18743Y1049378D01*
X18749Y1049383D01*
X18843Y1049522D01*
X19179Y1050162D01*
X19182Y1050170D01*
X19186Y1050177D01*
X19244Y1050334D01*
X19417Y1051036D01*
X19418Y1051044D01*
X19421Y1051052D01*
X19439Y1051218D01*
X19439Y1051942D01*
X19438Y1051950D01*
X19439Y1051958D01*
X19417Y1052124D01*
X19244Y1052826D01*
X19241Y1052833D01*
X19240Y1052841D01*
X19179Y1052998D01*
X18843Y1053638D01*
X18838Y1053644D01*
X18835Y1053652D01*
X18739Y1053789D01*
X18259Y1054330D01*
X18253Y1054335D01*
X18249Y1054342D01*
X18122Y1054452D01*
X17527Y1054863D01*
X17519Y1054866D01*
X17513Y1054872D01*
X17364Y1054948D01*
X16688Y1055205D01*
X16680Y1055206D01*
X16673Y1055210D01*
X16510Y1055249D01*
X15792Y1055336D01*
X15762Y1055334D01*
X15700Y1055341D01*
X9500Y1055341D01*
X9470Y1055336D01*
X9408Y1055336D01*
X8690Y1055249D01*
X8683Y1055246D01*
X8675Y1055246D01*
X8512Y1055205D01*
X7836Y1054948D01*
X7829Y1054944D01*
X7821Y1054942D01*
X7673Y1054863D01*
X7078Y1054452D01*
X7072Y1054447D01*
X7065Y1054443D01*
X6941Y1054330D01*
X6461Y1053789D01*
X6457Y1053782D01*
X6451Y1053777D01*
X6357Y1053638D01*
X6021Y1052998D01*
X6018Y1052990D01*
X6014Y1052983D01*
X5956Y1052826D01*
X5783Y1052124D01*
X5782Y1052116D01*
X5779Y1052108D01*
X5761Y1051942D01*
X5761Y1051218D01*
X5762Y1051210D01*
X5761Y1051203D01*
X5783Y1051036D01*
X5956Y1050334D01*
X5959Y1050327D01*
X5960Y1050319D01*
X6021Y1050162D01*
X6357Y1049522D01*
X6362Y1049516D01*
X6365Y1049508D01*
X6461Y1049371D01*
X6941Y1048830D01*
X6947Y1048825D01*
X6951Y1048818D01*
X7078Y1048708D01*
X7673Y1048297D01*
X7681Y1048294D01*
X7687Y1048288D01*
X7836Y1048212D01*
X8512Y1047955D01*
X8520Y1047954D01*
X8527Y1047950D01*
X8690Y1047912D01*
X9408Y1047824D01*
X9438Y1047826D01*
X9500Y1047819D01*
X15700Y1047819D01*
X15730Y1047824D01*
G37*
G36*
X754870Y458544D02*
X754870Y458544D01*
X754932Y458544D01*
X755650Y458632D01*
X755657Y458634D01*
X755665Y458634D01*
X755828Y458675D01*
X756504Y458932D01*
X756511Y458936D01*
X756519Y458938D01*
X756667Y459017D01*
X757262Y459428D01*
X757268Y459434D01*
X757275Y459437D01*
X757293Y459453D01*
X757296Y459455D01*
X757303Y459462D01*
X757399Y459550D01*
X757879Y460091D01*
X757883Y460098D01*
X757889Y460103D01*
X757983Y460242D01*
X758319Y460882D01*
X758322Y460890D01*
X758326Y460897D01*
X758384Y461054D01*
X758557Y461756D01*
X758558Y461764D01*
X758561Y461772D01*
X758579Y461938D01*
X758579Y462662D01*
X758578Y462670D01*
X758579Y462678D01*
X758557Y462844D01*
X758384Y463546D01*
X758381Y463553D01*
X758380Y463561D01*
X758319Y463718D01*
X757983Y464358D01*
X757978Y464364D01*
X757975Y464372D01*
X757879Y464509D01*
X757399Y465050D01*
X757393Y465055D01*
X757389Y465062D01*
X757262Y465172D01*
X756667Y465583D01*
X756659Y465586D01*
X756653Y465592D01*
X756504Y465668D01*
X755828Y465925D01*
X755820Y465926D01*
X755813Y465930D01*
X755650Y465969D01*
X754932Y466056D01*
X754902Y466054D01*
X754840Y466061D01*
X748640Y466061D01*
X748610Y466056D01*
X748548Y466056D01*
X747830Y465969D01*
X747823Y465966D01*
X747815Y465966D01*
X747652Y465925D01*
X746976Y465668D01*
X746969Y465664D01*
X746961Y465662D01*
X746813Y465583D01*
X746218Y465172D01*
X746212Y465167D01*
X746205Y465163D01*
X746081Y465050D01*
X745601Y464509D01*
X745597Y464502D01*
X745591Y464497D01*
X745497Y464358D01*
X745161Y463718D01*
X745158Y463710D01*
X745154Y463703D01*
X745096Y463546D01*
X744923Y462844D01*
X744922Y462836D01*
X744919Y462828D01*
X744901Y462662D01*
X744901Y461938D01*
X744902Y461930D01*
X744901Y461923D01*
X744923Y461756D01*
X745096Y461054D01*
X745099Y461047D01*
X745100Y461039D01*
X745161Y460882D01*
X745497Y460242D01*
X745502Y460236D01*
X745505Y460228D01*
X745601Y460091D01*
X746081Y459550D01*
X746087Y459545D01*
X746091Y459538D01*
X746218Y459428D01*
X746813Y459017D01*
X746821Y459014D01*
X746827Y459008D01*
X746976Y458932D01*
X747652Y458675D01*
X747660Y458674D01*
X747667Y458670D01*
X747830Y458632D01*
X748548Y458544D01*
X748578Y458546D01*
X748640Y458539D01*
X754840Y458539D01*
X754870Y458544D01*
G37*
G36*
X1494010Y458544D02*
X1494010Y458544D01*
X1494072Y458544D01*
X1494790Y458632D01*
X1494797Y458634D01*
X1494805Y458634D01*
X1494968Y458675D01*
X1495644Y458932D01*
X1495651Y458936D01*
X1495659Y458938D01*
X1495807Y459017D01*
X1496402Y459428D01*
X1496408Y459434D01*
X1496415Y459437D01*
X1496433Y459453D01*
X1496436Y459455D01*
X1496443Y459462D01*
X1496539Y459550D01*
X1497019Y460091D01*
X1497023Y460098D01*
X1497029Y460103D01*
X1497123Y460242D01*
X1497459Y460882D01*
X1497462Y460890D01*
X1497466Y460897D01*
X1497524Y461054D01*
X1497697Y461756D01*
X1497698Y461764D01*
X1497701Y461772D01*
X1497719Y461938D01*
X1497719Y462662D01*
X1497718Y462670D01*
X1497719Y462678D01*
X1497697Y462844D01*
X1497524Y463546D01*
X1497521Y463553D01*
X1497520Y463561D01*
X1497459Y463718D01*
X1497123Y464358D01*
X1497118Y464364D01*
X1497115Y464372D01*
X1497019Y464509D01*
X1496539Y465050D01*
X1496533Y465055D01*
X1496529Y465062D01*
X1496402Y465172D01*
X1495807Y465583D01*
X1495799Y465586D01*
X1495793Y465592D01*
X1495644Y465668D01*
X1494968Y465925D01*
X1494960Y465926D01*
X1494953Y465930D01*
X1494790Y465969D01*
X1494072Y466056D01*
X1494042Y466054D01*
X1493980Y466061D01*
X1487780Y466061D01*
X1487750Y466056D01*
X1487688Y466056D01*
X1486970Y465969D01*
X1486963Y465966D01*
X1486955Y465966D01*
X1486792Y465925D01*
X1486116Y465668D01*
X1486109Y465664D01*
X1486101Y465662D01*
X1485953Y465583D01*
X1485358Y465172D01*
X1485352Y465167D01*
X1485345Y465163D01*
X1485221Y465050D01*
X1484741Y464509D01*
X1484737Y464502D01*
X1484731Y464497D01*
X1484637Y464358D01*
X1484301Y463718D01*
X1484298Y463710D01*
X1484294Y463703D01*
X1484236Y463546D01*
X1484063Y462844D01*
X1484062Y462836D01*
X1484059Y462828D01*
X1484041Y462662D01*
X1484041Y461938D01*
X1484042Y461930D01*
X1484041Y461923D01*
X1484063Y461756D01*
X1484236Y461054D01*
X1484239Y461047D01*
X1484240Y461039D01*
X1484301Y460882D01*
X1484637Y460242D01*
X1484642Y460236D01*
X1484645Y460228D01*
X1484741Y460091D01*
X1485221Y459550D01*
X1485227Y459545D01*
X1485231Y459538D01*
X1485358Y459428D01*
X1485953Y459017D01*
X1485961Y459014D01*
X1485967Y459008D01*
X1486116Y458932D01*
X1486792Y458675D01*
X1486800Y458674D01*
X1486807Y458670D01*
X1486970Y458632D01*
X1487688Y458544D01*
X1487718Y458546D01*
X1487780Y458539D01*
X1493980Y458539D01*
X1494010Y458544D01*
G37*
G36*
X15730Y458544D02*
X15730Y458544D01*
X15792Y458544D01*
X16510Y458632D01*
X16517Y458634D01*
X16525Y458634D01*
X16688Y458675D01*
X17364Y458932D01*
X17371Y458936D01*
X17379Y458938D01*
X17527Y459017D01*
X18122Y459428D01*
X18128Y459434D01*
X18135Y459437D01*
X18153Y459453D01*
X18156Y459455D01*
X18163Y459462D01*
X18259Y459550D01*
X18739Y460091D01*
X18743Y460098D01*
X18749Y460103D01*
X18843Y460242D01*
X19179Y460882D01*
X19182Y460890D01*
X19186Y460897D01*
X19244Y461054D01*
X19417Y461756D01*
X19418Y461764D01*
X19421Y461772D01*
X19439Y461938D01*
X19439Y462662D01*
X19438Y462670D01*
X19439Y462678D01*
X19417Y462844D01*
X19244Y463546D01*
X19241Y463553D01*
X19240Y463561D01*
X19179Y463718D01*
X18843Y464358D01*
X18838Y464364D01*
X18835Y464372D01*
X18739Y464509D01*
X18259Y465050D01*
X18253Y465055D01*
X18249Y465062D01*
X18122Y465172D01*
X17527Y465583D01*
X17519Y465586D01*
X17513Y465592D01*
X17364Y465668D01*
X16688Y465925D01*
X16680Y465926D01*
X16673Y465930D01*
X16510Y465969D01*
X15792Y466056D01*
X15762Y466054D01*
X15700Y466061D01*
X9500Y466061D01*
X9470Y466056D01*
X9408Y466056D01*
X8690Y465969D01*
X8683Y465966D01*
X8675Y465966D01*
X8512Y465925D01*
X7836Y465668D01*
X7829Y465664D01*
X7821Y465662D01*
X7673Y465583D01*
X7078Y465172D01*
X7072Y465167D01*
X7065Y465163D01*
X6941Y465050D01*
X6461Y464509D01*
X6457Y464502D01*
X6451Y464497D01*
X6357Y464358D01*
X6021Y463718D01*
X6018Y463710D01*
X6014Y463703D01*
X5956Y463546D01*
X5783Y462844D01*
X5782Y462836D01*
X5779Y462828D01*
X5761Y462662D01*
X5761Y461938D01*
X5762Y461930D01*
X5761Y461923D01*
X5783Y461756D01*
X5956Y461054D01*
X5959Y461047D01*
X5960Y461039D01*
X6021Y460882D01*
X6357Y460242D01*
X6362Y460236D01*
X6365Y460228D01*
X6461Y460091D01*
X6941Y459550D01*
X6947Y459545D01*
X6951Y459538D01*
X7078Y459428D01*
X7673Y459017D01*
X7681Y459014D01*
X7687Y459008D01*
X7836Y458932D01*
X8512Y458675D01*
X8520Y458674D01*
X8527Y458670D01*
X8690Y458632D01*
X9408Y458544D01*
X9438Y458546D01*
X9500Y458539D01*
X15700Y458539D01*
X15730Y458544D01*
G37*
G36*
X754870Y961424D02*
X754870Y961424D01*
X754932Y961424D01*
X755650Y961512D01*
X755657Y961514D01*
X755665Y961514D01*
X755828Y961555D01*
X756504Y961812D01*
X756511Y961816D01*
X756519Y961818D01*
X756667Y961897D01*
X757262Y962308D01*
X757268Y962314D01*
X757275Y962317D01*
X757293Y962333D01*
X757296Y962335D01*
X757303Y962342D01*
X757399Y962430D01*
X757879Y962971D01*
X757883Y962978D01*
X757889Y962983D01*
X757983Y963122D01*
X758319Y963762D01*
X758322Y963770D01*
X758326Y963777D01*
X758384Y963934D01*
X758557Y964636D01*
X758558Y964644D01*
X758561Y964652D01*
X758579Y964818D01*
X758579Y965542D01*
X758578Y965550D01*
X758579Y965558D01*
X758557Y965724D01*
X758384Y966426D01*
X758381Y966433D01*
X758380Y966441D01*
X758319Y966598D01*
X757983Y967238D01*
X757978Y967244D01*
X757975Y967252D01*
X757879Y967389D01*
X757399Y967930D01*
X757393Y967935D01*
X757389Y967942D01*
X757262Y968052D01*
X756667Y968463D01*
X756659Y968466D01*
X756653Y968472D01*
X756504Y968548D01*
X755828Y968805D01*
X755820Y968806D01*
X755813Y968810D01*
X755650Y968849D01*
X754932Y968936D01*
X754902Y968934D01*
X754840Y968941D01*
X748640Y968941D01*
X748610Y968936D01*
X748548Y968936D01*
X747830Y968849D01*
X747823Y968846D01*
X747815Y968846D01*
X747652Y968805D01*
X746976Y968548D01*
X746969Y968544D01*
X746961Y968542D01*
X746813Y968463D01*
X746218Y968052D01*
X746212Y968047D01*
X746205Y968043D01*
X746081Y967930D01*
X745601Y967389D01*
X745597Y967382D01*
X745591Y967377D01*
X745497Y967238D01*
X745161Y966598D01*
X745158Y966590D01*
X745154Y966583D01*
X745096Y966426D01*
X744923Y965724D01*
X744922Y965716D01*
X744919Y965708D01*
X744901Y965542D01*
X744901Y964818D01*
X744902Y964810D01*
X744901Y964803D01*
X744923Y964636D01*
X745096Y963934D01*
X745099Y963927D01*
X745100Y963919D01*
X745161Y963762D01*
X745497Y963122D01*
X745502Y963116D01*
X745505Y963108D01*
X745601Y962971D01*
X746081Y962430D01*
X746087Y962425D01*
X746091Y962418D01*
X746218Y962308D01*
X746813Y961897D01*
X746821Y961894D01*
X746827Y961888D01*
X746976Y961812D01*
X747652Y961555D01*
X747660Y961554D01*
X747667Y961550D01*
X747830Y961512D01*
X748548Y961424D01*
X748578Y961426D01*
X748640Y961419D01*
X754840Y961419D01*
X754870Y961424D01*
G37*
G36*
X15730Y961424D02*
X15730Y961424D01*
X15792Y961424D01*
X16510Y961512D01*
X16517Y961514D01*
X16525Y961514D01*
X16688Y961555D01*
X17364Y961812D01*
X17371Y961816D01*
X17379Y961818D01*
X17527Y961897D01*
X18122Y962308D01*
X18128Y962314D01*
X18135Y962317D01*
X18153Y962333D01*
X18156Y962335D01*
X18163Y962342D01*
X18259Y962430D01*
X18739Y962971D01*
X18743Y962978D01*
X18749Y962983D01*
X18843Y963122D01*
X19179Y963762D01*
X19182Y963770D01*
X19186Y963777D01*
X19244Y963934D01*
X19417Y964636D01*
X19418Y964644D01*
X19421Y964652D01*
X19439Y964818D01*
X19439Y965542D01*
X19438Y965550D01*
X19439Y965558D01*
X19417Y965724D01*
X19244Y966426D01*
X19241Y966433D01*
X19240Y966441D01*
X19179Y966598D01*
X18843Y967238D01*
X18838Y967244D01*
X18835Y967252D01*
X18739Y967389D01*
X18259Y967930D01*
X18253Y967935D01*
X18249Y967942D01*
X18122Y968052D01*
X17527Y968463D01*
X17519Y968466D01*
X17513Y968472D01*
X17364Y968548D01*
X16688Y968805D01*
X16680Y968806D01*
X16673Y968810D01*
X16510Y968849D01*
X15792Y968936D01*
X15762Y968934D01*
X15700Y968941D01*
X9500Y968941D01*
X9470Y968936D01*
X9408Y968936D01*
X8690Y968849D01*
X8683Y968846D01*
X8675Y968846D01*
X8512Y968805D01*
X7836Y968548D01*
X7829Y968544D01*
X7821Y968542D01*
X7673Y968463D01*
X7078Y968052D01*
X7072Y968047D01*
X7065Y968043D01*
X6941Y967930D01*
X6461Y967389D01*
X6457Y967382D01*
X6451Y967377D01*
X6357Y967238D01*
X6021Y966598D01*
X6018Y966590D01*
X6014Y966583D01*
X5956Y966426D01*
X5783Y965724D01*
X5782Y965716D01*
X5779Y965708D01*
X5761Y965542D01*
X5761Y964818D01*
X5762Y964810D01*
X5761Y964803D01*
X5783Y964636D01*
X5956Y963934D01*
X5959Y963927D01*
X5960Y963919D01*
X6021Y963762D01*
X6357Y963122D01*
X6362Y963116D01*
X6365Y963108D01*
X6461Y962971D01*
X6941Y962430D01*
X6947Y962425D01*
X6951Y962418D01*
X7078Y962308D01*
X7673Y961897D01*
X7681Y961894D01*
X7687Y961888D01*
X7836Y961812D01*
X8512Y961555D01*
X8520Y961554D01*
X8527Y961550D01*
X8690Y961512D01*
X9408Y961424D01*
X9438Y961426D01*
X9500Y961419D01*
X15700Y961419D01*
X15730Y961424D01*
G37*
G36*
X1494010Y961424D02*
X1494010Y961424D01*
X1494072Y961424D01*
X1494790Y961512D01*
X1494797Y961514D01*
X1494805Y961514D01*
X1494968Y961555D01*
X1495644Y961812D01*
X1495651Y961816D01*
X1495659Y961818D01*
X1495807Y961897D01*
X1496402Y962308D01*
X1496408Y962314D01*
X1496415Y962317D01*
X1496433Y962333D01*
X1496436Y962335D01*
X1496443Y962342D01*
X1496539Y962430D01*
X1497019Y962971D01*
X1497023Y962978D01*
X1497029Y962983D01*
X1497123Y963122D01*
X1497459Y963762D01*
X1497462Y963770D01*
X1497466Y963777D01*
X1497524Y963934D01*
X1497697Y964636D01*
X1497698Y964644D01*
X1497701Y964652D01*
X1497719Y964818D01*
X1497719Y965542D01*
X1497718Y965550D01*
X1497719Y965558D01*
X1497697Y965724D01*
X1497524Y966426D01*
X1497521Y966433D01*
X1497520Y966441D01*
X1497459Y966598D01*
X1497123Y967238D01*
X1497118Y967244D01*
X1497115Y967252D01*
X1497019Y967389D01*
X1496539Y967930D01*
X1496533Y967935D01*
X1496529Y967942D01*
X1496402Y968052D01*
X1495807Y968463D01*
X1495799Y968466D01*
X1495793Y968472D01*
X1495644Y968548D01*
X1494968Y968805D01*
X1494960Y968806D01*
X1494953Y968810D01*
X1494790Y968849D01*
X1494072Y968936D01*
X1494042Y968934D01*
X1493980Y968941D01*
X1487780Y968941D01*
X1487750Y968936D01*
X1487688Y968936D01*
X1486970Y968849D01*
X1486963Y968846D01*
X1486955Y968846D01*
X1486792Y968805D01*
X1486116Y968548D01*
X1486109Y968544D01*
X1486101Y968542D01*
X1485953Y968463D01*
X1485358Y968052D01*
X1485352Y968047D01*
X1485345Y968043D01*
X1485221Y967930D01*
X1484741Y967389D01*
X1484737Y967382D01*
X1484731Y967377D01*
X1484637Y967238D01*
X1484301Y966598D01*
X1484298Y966590D01*
X1484294Y966583D01*
X1484236Y966426D01*
X1484063Y965724D01*
X1484062Y965716D01*
X1484059Y965708D01*
X1484041Y965542D01*
X1484041Y964818D01*
X1484042Y964810D01*
X1484041Y964803D01*
X1484063Y964636D01*
X1484236Y963934D01*
X1484239Y963927D01*
X1484240Y963919D01*
X1484301Y963762D01*
X1484637Y963122D01*
X1484642Y963116D01*
X1484645Y963108D01*
X1484741Y962971D01*
X1485221Y962430D01*
X1485227Y962425D01*
X1485231Y962418D01*
X1485358Y962308D01*
X1485953Y961897D01*
X1485961Y961894D01*
X1485967Y961888D01*
X1486116Y961812D01*
X1486792Y961555D01*
X1486800Y961554D01*
X1486807Y961550D01*
X1486970Y961512D01*
X1487688Y961424D01*
X1487718Y961426D01*
X1487780Y961419D01*
X1493980Y961419D01*
X1494010Y961424D01*
G37*
G36*
X15730Y372144D02*
X15730Y372144D01*
X15792Y372144D01*
X16510Y372232D01*
X16517Y372234D01*
X16525Y372234D01*
X16688Y372275D01*
X17364Y372532D01*
X17371Y372536D01*
X17379Y372538D01*
X17527Y372617D01*
X18122Y373028D01*
X18128Y373034D01*
X18135Y373037D01*
X18153Y373053D01*
X18156Y373055D01*
X18163Y373062D01*
X18259Y373150D01*
X18739Y373691D01*
X18743Y373698D01*
X18749Y373703D01*
X18843Y373842D01*
X19179Y374482D01*
X19182Y374490D01*
X19186Y374497D01*
X19244Y374654D01*
X19417Y375356D01*
X19418Y375364D01*
X19421Y375372D01*
X19439Y375538D01*
X19439Y376262D01*
X19438Y376270D01*
X19439Y376278D01*
X19417Y376444D01*
X19244Y377146D01*
X19241Y377153D01*
X19240Y377161D01*
X19179Y377318D01*
X18843Y377958D01*
X18838Y377964D01*
X18835Y377972D01*
X18739Y378109D01*
X18259Y378650D01*
X18253Y378655D01*
X18249Y378662D01*
X18122Y378772D01*
X17527Y379183D01*
X17519Y379186D01*
X17513Y379192D01*
X17364Y379268D01*
X16688Y379525D01*
X16680Y379526D01*
X16673Y379530D01*
X16510Y379569D01*
X15792Y379656D01*
X15762Y379654D01*
X15700Y379661D01*
X9500Y379661D01*
X9470Y379656D01*
X9408Y379656D01*
X8690Y379569D01*
X8683Y379566D01*
X8675Y379566D01*
X8512Y379525D01*
X7836Y379268D01*
X7829Y379264D01*
X7821Y379262D01*
X7673Y379183D01*
X7078Y378772D01*
X7072Y378767D01*
X7065Y378763D01*
X6941Y378650D01*
X6461Y378109D01*
X6457Y378102D01*
X6451Y378097D01*
X6357Y377958D01*
X6021Y377318D01*
X6018Y377310D01*
X6014Y377303D01*
X5956Y377146D01*
X5783Y376444D01*
X5782Y376436D01*
X5779Y376428D01*
X5761Y376262D01*
X5761Y375538D01*
X5762Y375530D01*
X5761Y375523D01*
X5783Y375356D01*
X5956Y374654D01*
X5959Y374647D01*
X5960Y374639D01*
X6021Y374482D01*
X6357Y373842D01*
X6362Y373836D01*
X6365Y373828D01*
X6461Y373691D01*
X6941Y373150D01*
X6947Y373145D01*
X6951Y373138D01*
X7078Y373028D01*
X7673Y372617D01*
X7681Y372614D01*
X7687Y372608D01*
X7836Y372532D01*
X8512Y372275D01*
X8520Y372274D01*
X8527Y372270D01*
X8690Y372232D01*
X9408Y372144D01*
X9438Y372146D01*
X9500Y372139D01*
X15700Y372139D01*
X15730Y372144D01*
G37*
G36*
X1494010Y372144D02*
X1494010Y372144D01*
X1494072Y372144D01*
X1494790Y372232D01*
X1494797Y372234D01*
X1494805Y372234D01*
X1494968Y372275D01*
X1495644Y372532D01*
X1495651Y372536D01*
X1495659Y372538D01*
X1495807Y372617D01*
X1496402Y373028D01*
X1496408Y373034D01*
X1496415Y373037D01*
X1496433Y373053D01*
X1496436Y373055D01*
X1496443Y373062D01*
X1496539Y373150D01*
X1497019Y373691D01*
X1497023Y373698D01*
X1497029Y373703D01*
X1497123Y373842D01*
X1497459Y374482D01*
X1497462Y374490D01*
X1497466Y374497D01*
X1497524Y374654D01*
X1497697Y375356D01*
X1497698Y375364D01*
X1497701Y375372D01*
X1497719Y375538D01*
X1497719Y376262D01*
X1497718Y376270D01*
X1497719Y376278D01*
X1497697Y376444D01*
X1497524Y377146D01*
X1497521Y377153D01*
X1497520Y377161D01*
X1497459Y377318D01*
X1497123Y377958D01*
X1497118Y377964D01*
X1497115Y377972D01*
X1497019Y378109D01*
X1496539Y378650D01*
X1496533Y378655D01*
X1496529Y378662D01*
X1496402Y378772D01*
X1495807Y379183D01*
X1495799Y379186D01*
X1495793Y379192D01*
X1495644Y379268D01*
X1494968Y379525D01*
X1494960Y379526D01*
X1494953Y379530D01*
X1494790Y379569D01*
X1494072Y379656D01*
X1494042Y379654D01*
X1493980Y379661D01*
X1487780Y379661D01*
X1487750Y379656D01*
X1487688Y379656D01*
X1486970Y379569D01*
X1486963Y379566D01*
X1486955Y379566D01*
X1486792Y379525D01*
X1486116Y379268D01*
X1486109Y379264D01*
X1486101Y379262D01*
X1485953Y379183D01*
X1485358Y378772D01*
X1485352Y378767D01*
X1485345Y378763D01*
X1485221Y378650D01*
X1484741Y378109D01*
X1484737Y378102D01*
X1484731Y378097D01*
X1484637Y377958D01*
X1484301Y377318D01*
X1484298Y377310D01*
X1484294Y377303D01*
X1484236Y377146D01*
X1484063Y376444D01*
X1484062Y376436D01*
X1484059Y376428D01*
X1484041Y376262D01*
X1484041Y375538D01*
X1484042Y375530D01*
X1484041Y375523D01*
X1484063Y375356D01*
X1484236Y374654D01*
X1484239Y374647D01*
X1484240Y374639D01*
X1484301Y374482D01*
X1484637Y373842D01*
X1484642Y373836D01*
X1484645Y373828D01*
X1484741Y373691D01*
X1485221Y373150D01*
X1485227Y373145D01*
X1485231Y373138D01*
X1485358Y373028D01*
X1485953Y372617D01*
X1485961Y372614D01*
X1485967Y372608D01*
X1486116Y372532D01*
X1486792Y372275D01*
X1486800Y372274D01*
X1486807Y372270D01*
X1486970Y372232D01*
X1487688Y372144D01*
X1487718Y372146D01*
X1487780Y372139D01*
X1493980Y372139D01*
X1494010Y372144D01*
G37*
G36*
X754870Y372144D02*
X754870Y372144D01*
X754932Y372144D01*
X755650Y372232D01*
X755657Y372234D01*
X755665Y372234D01*
X755828Y372275D01*
X756504Y372532D01*
X756511Y372536D01*
X756519Y372538D01*
X756667Y372617D01*
X757262Y373028D01*
X757268Y373034D01*
X757275Y373037D01*
X757293Y373053D01*
X757296Y373055D01*
X757303Y373062D01*
X757399Y373150D01*
X757879Y373691D01*
X757883Y373698D01*
X757889Y373703D01*
X757983Y373842D01*
X758319Y374482D01*
X758322Y374490D01*
X758326Y374497D01*
X758384Y374654D01*
X758557Y375356D01*
X758558Y375364D01*
X758561Y375372D01*
X758579Y375538D01*
X758579Y376262D01*
X758578Y376270D01*
X758579Y376278D01*
X758557Y376444D01*
X758384Y377146D01*
X758381Y377153D01*
X758380Y377161D01*
X758319Y377318D01*
X757983Y377958D01*
X757978Y377964D01*
X757975Y377972D01*
X757879Y378109D01*
X757399Y378650D01*
X757393Y378655D01*
X757389Y378662D01*
X757262Y378772D01*
X756667Y379183D01*
X756659Y379186D01*
X756653Y379192D01*
X756504Y379268D01*
X755828Y379525D01*
X755820Y379526D01*
X755813Y379530D01*
X755650Y379569D01*
X754932Y379656D01*
X754902Y379654D01*
X754840Y379661D01*
X748640Y379661D01*
X748610Y379656D01*
X748548Y379656D01*
X747830Y379569D01*
X747823Y379566D01*
X747815Y379566D01*
X747652Y379525D01*
X746976Y379268D01*
X746969Y379264D01*
X746961Y379262D01*
X746813Y379183D01*
X746218Y378772D01*
X746212Y378767D01*
X746205Y378763D01*
X746081Y378650D01*
X745601Y378109D01*
X745597Y378102D01*
X745591Y378097D01*
X745497Y377958D01*
X745161Y377318D01*
X745158Y377310D01*
X745154Y377303D01*
X745096Y377146D01*
X744923Y376444D01*
X744922Y376436D01*
X744919Y376428D01*
X744901Y376262D01*
X744901Y375538D01*
X744902Y375530D01*
X744901Y375523D01*
X744923Y375356D01*
X745096Y374654D01*
X745099Y374647D01*
X745100Y374639D01*
X745161Y374482D01*
X745497Y373842D01*
X745502Y373836D01*
X745505Y373828D01*
X745601Y373691D01*
X746081Y373150D01*
X746087Y373145D01*
X746091Y373138D01*
X746218Y373028D01*
X746813Y372617D01*
X746821Y372614D01*
X746827Y372608D01*
X746976Y372532D01*
X747652Y372275D01*
X747660Y372274D01*
X747667Y372270D01*
X747830Y372232D01*
X748548Y372144D01*
X748578Y372146D01*
X748640Y372139D01*
X754840Y372139D01*
X754870Y372144D01*
G37*
G36*
X981775Y1056652D02*
X981775Y1056652D01*
X981841Y1056654D01*
X981884Y1056672D01*
X981931Y1056680D01*
X981988Y1056714D01*
X982048Y1056739D01*
X982083Y1056770D01*
X982124Y1056795D01*
X982166Y1056846D01*
X982214Y1056890D01*
X982236Y1056932D01*
X982265Y1056969D01*
X982286Y1057031D01*
X982317Y1057090D01*
X982325Y1057144D01*
X982337Y1057181D01*
X982336Y1057221D01*
X982344Y1057275D01*
X982344Y1061085D01*
X982333Y1061150D01*
X982331Y1061216D01*
X982313Y1061259D01*
X982305Y1061306D01*
X982271Y1061363D01*
X982246Y1061423D01*
X982215Y1061458D01*
X982190Y1061499D01*
X982139Y1061541D01*
X982095Y1061589D01*
X982053Y1061611D01*
X982016Y1061640D01*
X981954Y1061661D01*
X981895Y1061692D01*
X981841Y1061700D01*
X981804Y1061712D01*
X981764Y1061711D01*
X981710Y1061719D01*
X979170Y1061719D01*
X979105Y1061708D01*
X979039Y1061706D01*
X978996Y1061688D01*
X978949Y1061680D01*
X978892Y1061646D01*
X978832Y1061621D01*
X978797Y1061590D01*
X978756Y1061565D01*
X978715Y1061514D01*
X978666Y1061470D01*
X978644Y1061428D01*
X978615Y1061391D01*
X978594Y1061329D01*
X978563Y1061270D01*
X978555Y1061216D01*
X978543Y1061179D01*
X978543Y1061175D01*
X978543Y1061174D01*
X978544Y1061139D01*
X978536Y1061085D01*
X978536Y1057275D01*
X978547Y1057210D01*
X978549Y1057144D01*
X978567Y1057101D01*
X978575Y1057054D01*
X978609Y1056997D01*
X978634Y1056937D01*
X978665Y1056902D01*
X978690Y1056861D01*
X978741Y1056820D01*
X978785Y1056771D01*
X978827Y1056749D01*
X978864Y1056720D01*
X978926Y1056699D01*
X978985Y1056668D01*
X979039Y1056660D01*
X979076Y1056648D01*
X979116Y1056649D01*
X979170Y1056641D01*
X981710Y1056641D01*
X981775Y1056652D01*
G37*
G36*
X242635Y1056652D02*
X242635Y1056652D01*
X242701Y1056654D01*
X242744Y1056672D01*
X242791Y1056680D01*
X242848Y1056714D01*
X242908Y1056739D01*
X242943Y1056770D01*
X242984Y1056795D01*
X243026Y1056846D01*
X243074Y1056890D01*
X243096Y1056932D01*
X243125Y1056969D01*
X243146Y1057031D01*
X243177Y1057090D01*
X243185Y1057144D01*
X243197Y1057181D01*
X243196Y1057221D01*
X243204Y1057275D01*
X243204Y1061085D01*
X243193Y1061150D01*
X243191Y1061216D01*
X243173Y1061259D01*
X243165Y1061306D01*
X243131Y1061363D01*
X243106Y1061423D01*
X243075Y1061458D01*
X243050Y1061499D01*
X242999Y1061541D01*
X242955Y1061589D01*
X242913Y1061611D01*
X242876Y1061640D01*
X242814Y1061661D01*
X242755Y1061692D01*
X242701Y1061700D01*
X242664Y1061712D01*
X242624Y1061711D01*
X242570Y1061719D01*
X240030Y1061719D01*
X239965Y1061708D01*
X239899Y1061706D01*
X239856Y1061688D01*
X239809Y1061680D01*
X239752Y1061646D01*
X239692Y1061621D01*
X239657Y1061590D01*
X239616Y1061565D01*
X239575Y1061514D01*
X239526Y1061470D01*
X239504Y1061428D01*
X239475Y1061391D01*
X239454Y1061329D01*
X239423Y1061270D01*
X239415Y1061216D01*
X239403Y1061179D01*
X239403Y1061175D01*
X239403Y1061174D01*
X239404Y1061139D01*
X239396Y1061085D01*
X239396Y1057275D01*
X239407Y1057210D01*
X239409Y1057144D01*
X239427Y1057101D01*
X239435Y1057054D01*
X239469Y1056997D01*
X239494Y1056937D01*
X239525Y1056902D01*
X239550Y1056861D01*
X239601Y1056820D01*
X239645Y1056771D01*
X239687Y1056749D01*
X239724Y1056720D01*
X239786Y1056699D01*
X239845Y1056668D01*
X239899Y1056660D01*
X239936Y1056648D01*
X239976Y1056649D01*
X240030Y1056641D01*
X242570Y1056641D01*
X242635Y1056652D01*
G37*
G36*
X1720915Y1056652D02*
X1720915Y1056652D01*
X1720981Y1056654D01*
X1721024Y1056672D01*
X1721071Y1056680D01*
X1721128Y1056714D01*
X1721188Y1056739D01*
X1721223Y1056770D01*
X1721264Y1056795D01*
X1721306Y1056846D01*
X1721354Y1056890D01*
X1721376Y1056932D01*
X1721405Y1056969D01*
X1721426Y1057031D01*
X1721457Y1057090D01*
X1721465Y1057144D01*
X1721477Y1057181D01*
X1721476Y1057221D01*
X1721484Y1057275D01*
X1721484Y1061085D01*
X1721473Y1061150D01*
X1721471Y1061216D01*
X1721453Y1061259D01*
X1721445Y1061306D01*
X1721411Y1061363D01*
X1721386Y1061423D01*
X1721355Y1061458D01*
X1721330Y1061499D01*
X1721279Y1061541D01*
X1721235Y1061589D01*
X1721193Y1061611D01*
X1721156Y1061640D01*
X1721094Y1061661D01*
X1721035Y1061692D01*
X1720981Y1061700D01*
X1720944Y1061712D01*
X1720904Y1061711D01*
X1720850Y1061719D01*
X1718310Y1061719D01*
X1718245Y1061708D01*
X1718179Y1061706D01*
X1718136Y1061688D01*
X1718089Y1061680D01*
X1718032Y1061646D01*
X1717972Y1061621D01*
X1717937Y1061590D01*
X1717896Y1061565D01*
X1717855Y1061514D01*
X1717806Y1061470D01*
X1717784Y1061428D01*
X1717755Y1061391D01*
X1717734Y1061329D01*
X1717703Y1061270D01*
X1717695Y1061216D01*
X1717683Y1061179D01*
X1717683Y1061175D01*
X1717683Y1061174D01*
X1717684Y1061139D01*
X1717676Y1061085D01*
X1717676Y1057275D01*
X1717687Y1057210D01*
X1717689Y1057144D01*
X1717707Y1057101D01*
X1717715Y1057054D01*
X1717749Y1056997D01*
X1717774Y1056937D01*
X1717805Y1056902D01*
X1717830Y1056861D01*
X1717881Y1056820D01*
X1717925Y1056771D01*
X1717967Y1056749D01*
X1718004Y1056720D01*
X1718066Y1056699D01*
X1718125Y1056668D01*
X1718179Y1056660D01*
X1718216Y1056648D01*
X1718256Y1056649D01*
X1718310Y1056641D01*
X1720850Y1056641D01*
X1720915Y1056652D01*
G37*
G36*
X1720915Y467372D02*
X1720915Y467372D01*
X1720981Y467374D01*
X1721024Y467392D01*
X1721071Y467400D01*
X1721128Y467434D01*
X1721188Y467459D01*
X1721223Y467490D01*
X1721264Y467515D01*
X1721306Y467566D01*
X1721354Y467610D01*
X1721376Y467652D01*
X1721405Y467689D01*
X1721426Y467751D01*
X1721457Y467810D01*
X1721465Y467864D01*
X1721477Y467901D01*
X1721476Y467941D01*
X1721484Y467995D01*
X1721484Y471805D01*
X1721473Y471870D01*
X1721471Y471936D01*
X1721453Y471979D01*
X1721445Y472026D01*
X1721411Y472083D01*
X1721386Y472143D01*
X1721355Y472178D01*
X1721330Y472219D01*
X1721279Y472261D01*
X1721235Y472309D01*
X1721193Y472331D01*
X1721156Y472360D01*
X1721094Y472381D01*
X1721035Y472412D01*
X1720981Y472420D01*
X1720944Y472432D01*
X1720904Y472431D01*
X1720850Y472439D01*
X1718310Y472439D01*
X1718245Y472428D01*
X1718179Y472426D01*
X1718136Y472408D01*
X1718089Y472400D01*
X1718032Y472366D01*
X1717972Y472341D01*
X1717937Y472310D01*
X1717896Y472285D01*
X1717855Y472234D01*
X1717806Y472190D01*
X1717784Y472148D01*
X1717755Y472111D01*
X1717734Y472049D01*
X1717703Y471990D01*
X1717695Y471936D01*
X1717683Y471899D01*
X1717683Y471895D01*
X1717683Y471894D01*
X1717684Y471859D01*
X1717676Y471805D01*
X1717676Y467995D01*
X1717687Y467930D01*
X1717689Y467864D01*
X1717707Y467821D01*
X1717715Y467774D01*
X1717749Y467717D01*
X1717774Y467657D01*
X1717805Y467622D01*
X1717830Y467581D01*
X1717881Y467540D01*
X1717925Y467491D01*
X1717967Y467469D01*
X1718004Y467440D01*
X1718066Y467419D01*
X1718125Y467388D01*
X1718179Y467380D01*
X1718216Y467368D01*
X1718256Y467369D01*
X1718310Y467361D01*
X1720850Y467361D01*
X1720915Y467372D01*
G37*
G36*
X981775Y467372D02*
X981775Y467372D01*
X981841Y467374D01*
X981884Y467392D01*
X981931Y467400D01*
X981988Y467434D01*
X982048Y467459D01*
X982083Y467490D01*
X982124Y467515D01*
X982166Y467566D01*
X982214Y467610D01*
X982236Y467652D01*
X982265Y467689D01*
X982286Y467751D01*
X982317Y467810D01*
X982325Y467864D01*
X982337Y467901D01*
X982336Y467941D01*
X982344Y467995D01*
X982344Y471805D01*
X982333Y471870D01*
X982331Y471936D01*
X982313Y471979D01*
X982305Y472026D01*
X982271Y472083D01*
X982246Y472143D01*
X982215Y472178D01*
X982190Y472219D01*
X982139Y472261D01*
X982095Y472309D01*
X982053Y472331D01*
X982016Y472360D01*
X981954Y472381D01*
X981895Y472412D01*
X981841Y472420D01*
X981804Y472432D01*
X981764Y472431D01*
X981710Y472439D01*
X979170Y472439D01*
X979105Y472428D01*
X979039Y472426D01*
X978996Y472408D01*
X978949Y472400D01*
X978892Y472366D01*
X978832Y472341D01*
X978797Y472310D01*
X978756Y472285D01*
X978715Y472234D01*
X978666Y472190D01*
X978644Y472148D01*
X978615Y472111D01*
X978594Y472049D01*
X978563Y471990D01*
X978555Y471936D01*
X978543Y471899D01*
X978543Y471895D01*
X978543Y471894D01*
X978544Y471859D01*
X978536Y471805D01*
X978536Y467995D01*
X978547Y467930D01*
X978549Y467864D01*
X978567Y467821D01*
X978575Y467774D01*
X978609Y467717D01*
X978634Y467657D01*
X978665Y467622D01*
X978690Y467581D01*
X978741Y467540D01*
X978785Y467491D01*
X978827Y467469D01*
X978864Y467440D01*
X978926Y467419D01*
X978985Y467388D01*
X979039Y467380D01*
X979076Y467368D01*
X979116Y467369D01*
X979170Y467361D01*
X981710Y467361D01*
X981775Y467372D01*
G37*
G36*
X242635Y467372D02*
X242635Y467372D01*
X242701Y467374D01*
X242744Y467392D01*
X242791Y467400D01*
X242848Y467434D01*
X242908Y467459D01*
X242943Y467490D01*
X242984Y467515D01*
X243026Y467566D01*
X243074Y467610D01*
X243096Y467652D01*
X243125Y467689D01*
X243146Y467751D01*
X243177Y467810D01*
X243185Y467864D01*
X243197Y467901D01*
X243196Y467941D01*
X243204Y467995D01*
X243204Y471805D01*
X243193Y471870D01*
X243191Y471936D01*
X243173Y471979D01*
X243165Y472026D01*
X243131Y472083D01*
X243106Y472143D01*
X243075Y472178D01*
X243050Y472219D01*
X242999Y472261D01*
X242955Y472309D01*
X242913Y472331D01*
X242876Y472360D01*
X242814Y472381D01*
X242755Y472412D01*
X242701Y472420D01*
X242664Y472432D01*
X242624Y472431D01*
X242570Y472439D01*
X240030Y472439D01*
X239965Y472428D01*
X239899Y472426D01*
X239856Y472408D01*
X239809Y472400D01*
X239752Y472366D01*
X239692Y472341D01*
X239657Y472310D01*
X239616Y472285D01*
X239575Y472234D01*
X239526Y472190D01*
X239504Y472148D01*
X239475Y472111D01*
X239454Y472049D01*
X239423Y471990D01*
X239415Y471936D01*
X239403Y471899D01*
X239403Y471895D01*
X239403Y471894D01*
X239404Y471859D01*
X239396Y471805D01*
X239396Y467995D01*
X239407Y467930D01*
X239409Y467864D01*
X239427Y467821D01*
X239435Y467774D01*
X239469Y467717D01*
X239494Y467657D01*
X239525Y467622D01*
X239550Y467581D01*
X239601Y467540D01*
X239645Y467491D01*
X239687Y467469D01*
X239724Y467440D01*
X239786Y467419D01*
X239845Y467388D01*
X239899Y467380D01*
X239936Y467368D01*
X239976Y467369D01*
X240030Y467361D01*
X242570Y467361D01*
X242635Y467372D01*
G37*
D10*
X139700Y50800D03*
X660400Y101600D03*
X660400Y381000D03*
X152400Y533400D03*
D11*
X20320Y111760D03*
X66040Y111760D03*
D12*
X49050Y448000D03*
X49050Y390200D03*
D13*
X19050Y427990D03*
X19050Y445770D03*
X19050Y410210D03*
X19050Y392430D03*
D14*
X480060Y342900D03*
X508000Y342900D03*
D15*
X457200Y367030D03*
X469900Y367030D03*
X482600Y367030D03*
X495300Y367030D03*
X444500Y367030D03*
X457200Y379730D03*
X469900Y379730D03*
X482600Y379730D03*
X495300Y379730D03*
X444500Y379730D03*
D14*
X139700Y431800D03*
X127000Y393700D03*
X444500Y342900D03*
D16*
X231400Y182100D03*
D17*
X215900Y267100D02*
X215900Y317100D01*
D16*
X231400Y402100D03*
X200400Y182100D03*
X200400Y402100D03*
D18*
X330200Y215900D03*
X304800Y215900D03*
X127000Y508000D03*
X101600Y508000D03*
D19*
X594200Y203200D03*
D14*
X609600Y254000D03*
X596900Y279400D03*
X622300Y279400D03*
X596900Y304800D03*
X622300Y304800D03*
X609600Y330200D03*
D20*
X241300Y464820D03*
X241300Y474980D03*
D18*
X187960Y571500D03*
X213360Y571500D03*
X238760Y571500D03*
X264160Y571500D03*
X289560Y571500D03*
X314960Y571500D03*
X340360Y571500D03*
X365760Y571500D03*
X391160Y571500D03*
X416560Y571500D03*
X457200Y12700D03*
X431800Y12700D03*
X406400Y12700D03*
X381000Y12700D03*
X355600Y12700D03*
X330200Y12700D03*
X304800Y12700D03*
X279400Y12700D03*
X508000Y12700D03*
X533400Y12700D03*
X558800Y12700D03*
X584200Y12700D03*
X609600Y12700D03*
X635000Y12700D03*
X635000Y571500D03*
X609600Y571500D03*
X584200Y571500D03*
X558800Y571500D03*
X533400Y571500D03*
X508000Y571500D03*
X482600Y571500D03*
X457200Y571500D03*
D10*
X878840Y50800D03*
X1399540Y101600D03*
X1399540Y381000D03*
X891540Y533400D03*
D11*
X759460Y111760D03*
X805180Y111760D03*
D12*
X788190Y448000D03*
X788190Y390200D03*
D13*
X758190Y427990D03*
X758190Y445770D03*
X758190Y410210D03*
X758190Y392430D03*
D14*
X1219200Y342900D03*
X1247140Y342900D03*
D15*
X1196340Y367030D03*
X1209040Y367030D03*
X1221740Y367030D03*
X1234440Y367030D03*
X1183640Y367030D03*
X1196340Y379730D03*
X1209040Y379730D03*
X1221740Y379730D03*
X1234440Y379730D03*
X1183640Y379730D03*
D14*
X878840Y431800D03*
X866140Y393700D03*
X1183640Y342900D03*
D16*
X970540Y182100D03*
D17*
X955040Y267100D02*
X955040Y317100D01*
D16*
X970540Y402100D03*
X939540Y182100D03*
X939540Y402100D03*
D18*
X1069340Y215900D03*
X1043940Y215900D03*
X866140Y508000D03*
X840740Y508000D03*
D19*
X1333340Y203200D03*
D14*
X1348740Y254000D03*
X1336040Y279400D03*
X1361440Y279400D03*
X1336040Y304800D03*
X1361440Y304800D03*
X1348740Y330200D03*
D20*
X980440Y464820D03*
X980440Y474980D03*
D18*
X927100Y571500D03*
X952500Y571500D03*
X977900Y571500D03*
X1003300Y571500D03*
X1028700Y571500D03*
X1054100Y571500D03*
X1079500Y571500D03*
X1104900Y571500D03*
X1130300Y571500D03*
X1155700Y571500D03*
X1196340Y12700D03*
X1170940Y12700D03*
X1145540Y12700D03*
X1120140Y12700D03*
X1094740Y12700D03*
X1069340Y12700D03*
X1043940Y12700D03*
X1018540Y12700D03*
X1247140Y12700D03*
X1272540Y12700D03*
X1297940Y12700D03*
X1323340Y12700D03*
X1348740Y12700D03*
X1374140Y12700D03*
X1374140Y571500D03*
X1348740Y571500D03*
X1323340Y571500D03*
X1297940Y571500D03*
X1272540Y571500D03*
X1247140Y571500D03*
X1221740Y571500D03*
X1196340Y571500D03*
D10*
X1617980Y50800D03*
X2138680Y101600D03*
X2138680Y381000D03*
X1630680Y533400D03*
D11*
X1498600Y111760D03*
X1544320Y111760D03*
D12*
X1527330Y448000D03*
X1527330Y390200D03*
D13*
X1497330Y427990D03*
X1497330Y445770D03*
X1497330Y410210D03*
X1497330Y392430D03*
D14*
X1958340Y342900D03*
X1986280Y342900D03*
D15*
X1935480Y367030D03*
X1948180Y367030D03*
X1960880Y367030D03*
X1973580Y367030D03*
X1922780Y367030D03*
X1935480Y379730D03*
X1948180Y379730D03*
X1960880Y379730D03*
X1973580Y379730D03*
X1922780Y379730D03*
D14*
X1617980Y431800D03*
X1605280Y393700D03*
X1922780Y342900D03*
D16*
X1709680Y182100D03*
D17*
X1694180Y267100D02*
X1694180Y317100D01*
D16*
X1709680Y402100D03*
X1678680Y182100D03*
X1678680Y402100D03*
D18*
X1808480Y215900D03*
X1783080Y215900D03*
X1605280Y508000D03*
X1579880Y508000D03*
D19*
X2072480Y203200D03*
D14*
X2087880Y254000D03*
X2075180Y279400D03*
X2100580Y279400D03*
X2075180Y304800D03*
X2100580Y304800D03*
X2087880Y330200D03*
D20*
X1719580Y464820D03*
X1719580Y474980D03*
D18*
X1666240Y571500D03*
X1691640Y571500D03*
X1717040Y571500D03*
X1742440Y571500D03*
X1767840Y571500D03*
X1793240Y571500D03*
X1818640Y571500D03*
X1844040Y571500D03*
X1869440Y571500D03*
X1894840Y571500D03*
X1935480Y12700D03*
X1910080Y12700D03*
X1884680Y12700D03*
X1859280Y12700D03*
X1833880Y12700D03*
X1808480Y12700D03*
X1783080Y12700D03*
X1757680Y12700D03*
X1986280Y12700D03*
X2011680Y12700D03*
X2037080Y12700D03*
X2062480Y12700D03*
X2087880Y12700D03*
X2113280Y12700D03*
X2113280Y571500D03*
X2087880Y571500D03*
X2062480Y571500D03*
X2037080Y571500D03*
X2011680Y571500D03*
X1986280Y571500D03*
X1960880Y571500D03*
X1935480Y571500D03*
D10*
X139700Y640080D03*
X660400Y690880D03*
X660400Y970280D03*
X152400Y1122680D03*
D11*
X20320Y701040D03*
X66040Y701040D03*
D12*
X49050Y1037280D03*
X49050Y979480D03*
D13*
X19050Y1017270D03*
X19050Y1035050D03*
X19050Y999490D03*
X19050Y981710D03*
D14*
X480060Y932180D03*
X508000Y932180D03*
D15*
X457200Y956310D03*
X469900Y956310D03*
X482600Y956310D03*
X495300Y956310D03*
X444500Y956310D03*
X457200Y969010D03*
X469900Y969010D03*
X482600Y969010D03*
X495300Y969010D03*
X444500Y969010D03*
D14*
X139700Y1021080D03*
X127000Y982980D03*
X444500Y932180D03*
D16*
X231400Y771380D03*
D17*
X215900Y856380D02*
X215900Y906380D01*
D16*
X231400Y991380D03*
X200400Y771380D03*
X200400Y991380D03*
D18*
X330200Y805180D03*
X304800Y805180D03*
X127000Y1097280D03*
X101600Y1097280D03*
D19*
X594200Y792480D03*
D14*
X609600Y843280D03*
X596900Y868680D03*
X622300Y868680D03*
X596900Y894080D03*
X622300Y894080D03*
X609600Y919480D03*
D20*
X241300Y1054100D03*
X241300Y1064260D03*
D18*
X187960Y1160780D03*
X213360Y1160780D03*
X238760Y1160780D03*
X264160Y1160780D03*
X289560Y1160780D03*
X314960Y1160780D03*
X340360Y1160780D03*
X365760Y1160780D03*
X391160Y1160780D03*
X416560Y1160780D03*
X457200Y601980D03*
X431800Y601980D03*
X406400Y601980D03*
X381000Y601980D03*
X355600Y601980D03*
X330200Y601980D03*
X304800Y601980D03*
X279400Y601980D03*
X508000Y601980D03*
X533400Y601980D03*
X558800Y601980D03*
X584200Y601980D03*
X609600Y601980D03*
X635000Y601980D03*
X635000Y1160780D03*
X609600Y1160780D03*
X584200Y1160780D03*
X558800Y1160780D03*
X533400Y1160780D03*
X508000Y1160780D03*
X482600Y1160780D03*
X457200Y1160780D03*
D10*
X878840Y640080D03*
X1399540Y690880D03*
X1399540Y970280D03*
X891540Y1122680D03*
D11*
X759460Y701040D03*
X805180Y701040D03*
D12*
X788190Y1037280D03*
X788190Y979480D03*
D13*
X758190Y1017270D03*
X758190Y1035050D03*
X758190Y999490D03*
X758190Y981710D03*
D14*
X1219200Y932180D03*
X1247140Y932180D03*
D15*
X1196340Y956310D03*
X1209040Y956310D03*
X1221740Y956310D03*
X1234440Y956310D03*
X1183640Y956310D03*
X1196340Y969010D03*
X1209040Y969010D03*
X1221740Y969010D03*
X1234440Y969010D03*
X1183640Y969010D03*
D14*
X878840Y1021080D03*
X866140Y982980D03*
X1183640Y932180D03*
D16*
X970540Y771380D03*
D17*
X955040Y856380D02*
X955040Y906380D01*
D16*
X970540Y991380D03*
X939540Y771380D03*
X939540Y991380D03*
D18*
X1069340Y805180D03*
X1043940Y805180D03*
X866140Y1097280D03*
X840740Y1097280D03*
D19*
X1333340Y792480D03*
D14*
X1348740Y843280D03*
X1336040Y868680D03*
X1361440Y868680D03*
X1336040Y894080D03*
X1361440Y894080D03*
X1348740Y919480D03*
D20*
X980440Y1054100D03*
X980440Y1064260D03*
D18*
X927100Y1160780D03*
X952500Y1160780D03*
X977900Y1160780D03*
X1003300Y1160780D03*
X1028700Y1160780D03*
X1054100Y1160780D03*
X1079500Y1160780D03*
X1104900Y1160780D03*
X1130300Y1160780D03*
X1155700Y1160780D03*
X1196340Y601980D03*
X1170940Y601980D03*
X1145540Y601980D03*
X1120140Y601980D03*
X1094740Y601980D03*
X1069340Y601980D03*
X1043940Y601980D03*
X1018540Y601980D03*
X1247140Y601980D03*
X1272540Y601980D03*
X1297940Y601980D03*
X1323340Y601980D03*
X1348740Y601980D03*
X1374140Y601980D03*
X1374140Y1160780D03*
X1348740Y1160780D03*
X1323340Y1160780D03*
X1297940Y1160780D03*
X1272540Y1160780D03*
X1247140Y1160780D03*
X1221740Y1160780D03*
X1196340Y1160780D03*
D10*
X1617980Y640080D03*
X2138680Y690880D03*
X2138680Y970280D03*
X1630680Y1122680D03*
D11*
X1498600Y701040D03*
X1544320Y701040D03*
D12*
X1527330Y1037280D03*
X1527330Y979480D03*
D13*
X1497330Y1017270D03*
X1497330Y1035050D03*
X1497330Y999490D03*
X1497330Y981710D03*
D14*
X1958340Y932180D03*
X1986280Y932180D03*
D15*
X1935480Y956310D03*
X1948180Y956310D03*
X1960880Y956310D03*
X1973580Y956310D03*
X1922780Y956310D03*
X1935480Y969010D03*
X1948180Y969010D03*
X1960880Y969010D03*
X1973580Y969010D03*
X1922780Y969010D03*
D14*
X1617980Y1021080D03*
X1605280Y982980D03*
X1922780Y932180D03*
D16*
X1709680Y771380D03*
D17*
X1694180Y856380D02*
X1694180Y906380D01*
D16*
X1709680Y991380D03*
X1678680Y771380D03*
X1678680Y991380D03*
D18*
X1808480Y805180D03*
X1783080Y805180D03*
X1605280Y1097280D03*
X1579880Y1097280D03*
D19*
X2072480Y792480D03*
D14*
X2087880Y843280D03*
X2075180Y868680D03*
X2100580Y868680D03*
X2075180Y894080D03*
X2100580Y894080D03*
X2087880Y919480D03*
D20*
X1719580Y1054100D03*
X1719580Y1064260D03*
D18*
X1666240Y1160780D03*
X1691640Y1160780D03*
X1717040Y1160780D03*
X1742440Y1160780D03*
X1767840Y1160780D03*
X1793240Y1160780D03*
X1818640Y1160780D03*
X1844040Y1160780D03*
X1869440Y1160780D03*
X1894840Y1160780D03*
X1935480Y601980D03*
X1910080Y601980D03*
X1884680Y601980D03*
X1859280Y601980D03*
X1833880Y601980D03*
X1808480Y601980D03*
X1783080Y601980D03*
X1757680Y601980D03*
X1986280Y601980D03*
X2011680Y601980D03*
X2037080Y601980D03*
X2062480Y601980D03*
X2087880Y601980D03*
X2113280Y601980D03*
X2113280Y1160780D03*
X2087880Y1160780D03*
X2062480Y1160780D03*
X2037080Y1160780D03*
X2011680Y1160780D03*
X1986280Y1160780D03*
X1960880Y1160780D03*
X1935480Y1160780D03*
D15*
X116840Y1194435D03*
X2047240Y1194435D03*
D21*
X107785Y-20955D02*
X107788Y-20733D01*
X107796Y-20511D01*
X107810Y-20289D01*
X107829Y-20067D01*
X107853Y-19847D01*
X107883Y-19626D01*
X107918Y-19407D01*
X107959Y-19188D01*
X108005Y-18971D01*
X108056Y-18755D01*
X108113Y-18540D01*
X108175Y-18326D01*
X108242Y-18115D01*
X108314Y-17904D01*
X108392Y-17696D01*
X108474Y-17490D01*
X108562Y-17286D01*
X108654Y-17083D01*
X108752Y-16884D01*
X108854Y-16687D01*
X108961Y-16492D01*
X109073Y-16300D01*
X109190Y-16111D01*
X109311Y-15924D01*
X109437Y-15741D01*
X109567Y-15561D01*
X109702Y-15384D01*
X109840Y-15211D01*
X109983Y-15041D01*
X110131Y-14874D01*
X110282Y-14711D01*
X110437Y-14552D01*
X110596Y-14397D01*
X110759Y-14246D01*
X110926Y-14098D01*
X111096Y-13955D01*
X111269Y-13817D01*
X111446Y-13682D01*
X111626Y-13552D01*
X111809Y-13426D01*
X111996Y-13305D01*
X112185Y-13188D01*
X112377Y-13076D01*
X112572Y-12969D01*
X112769Y-12867D01*
X112968Y-12769D01*
X113171Y-12677D01*
X113375Y-12589D01*
X113581Y-12507D01*
X113789Y-12429D01*
X114000Y-12357D01*
X114211Y-12290D01*
X114425Y-12228D01*
X114640Y-12171D01*
X114856Y-12120D01*
X115073Y-12074D01*
X115292Y-12033D01*
X115511Y-11998D01*
X115732Y-11968D01*
X115952Y-11944D01*
X116174Y-11925D01*
X116396Y-11911D01*
X116618Y-11903D01*
X116840Y-11900D01*
X117062Y-11903D01*
X117284Y-11911D01*
X117506Y-11925D01*
X117728Y-11944D01*
X117948Y-11968D01*
X118169Y-11998D01*
X118388Y-12033D01*
X118607Y-12074D01*
X118824Y-12120D01*
X119040Y-12171D01*
X119255Y-12228D01*
X119469Y-12290D01*
X119680Y-12357D01*
X119891Y-12429D01*
X120099Y-12507D01*
X120305Y-12589D01*
X120509Y-12677D01*
X120712Y-12769D01*
X120911Y-12867D01*
X121108Y-12969D01*
X121303Y-13076D01*
X121495Y-13188D01*
X121684Y-13305D01*
X121871Y-13426D01*
X122054Y-13552D01*
X122234Y-13682D01*
X122411Y-13817D01*
X122584Y-13955D01*
X122754Y-14098D01*
X122921Y-14246D01*
X123084Y-14397D01*
X123243Y-14552D01*
X123398Y-14711D01*
X123549Y-14874D01*
X123697Y-15041D01*
X123840Y-15211D01*
X123978Y-15384D01*
X124113Y-15561D01*
X124243Y-15741D01*
X124369Y-15924D01*
X124490Y-16111D01*
X124607Y-16300D01*
X124719Y-16492D01*
X124826Y-16687D01*
X124928Y-16884D01*
X125026Y-17083D01*
X125118Y-17286D01*
X125206Y-17490D01*
X125288Y-17696D01*
X125366Y-17904D01*
X125438Y-18115D01*
X125505Y-18326D01*
X125567Y-18540D01*
X125624Y-18755D01*
X125675Y-18971D01*
X125721Y-19188D01*
X125762Y-19407D01*
X125797Y-19626D01*
X125827Y-19847D01*
X125851Y-20067D01*
X125870Y-20289D01*
X125884Y-20511D01*
X125892Y-20733D01*
X125895Y-20955D01*
X125892Y-21177D01*
X125884Y-21399D01*
X125870Y-21621D01*
X125851Y-21843D01*
X125827Y-22063D01*
X125797Y-22284D01*
X125762Y-22503D01*
X125721Y-22722D01*
X125675Y-22939D01*
X125624Y-23155D01*
X125567Y-23370D01*
X125505Y-23584D01*
X125438Y-23795D01*
X125366Y-24006D01*
X125288Y-24214D01*
X125206Y-24420D01*
X125118Y-24624D01*
X125026Y-24827D01*
X124928Y-25026D01*
X124826Y-25223D01*
X124719Y-25418D01*
X124607Y-25610D01*
X124490Y-25799D01*
X124369Y-25986D01*
X124243Y-26169D01*
X124113Y-26349D01*
X123978Y-26526D01*
X123840Y-26699D01*
X123697Y-26869D01*
X123549Y-27036D01*
X123398Y-27199D01*
X123243Y-27358D01*
X123084Y-27513D01*
X122921Y-27664D01*
X122754Y-27812D01*
X122584Y-27955D01*
X122411Y-28093D01*
X122234Y-28228D01*
X122054Y-28358D01*
X121871Y-28484D01*
X121684Y-28605D01*
X121495Y-28722D01*
X121303Y-28834D01*
X121108Y-28941D01*
X120911Y-29043D01*
X120712Y-29141D01*
X120509Y-29233D01*
X120305Y-29321D01*
X120099Y-29403D01*
X119891Y-29481D01*
X119680Y-29553D01*
X119469Y-29620D01*
X119255Y-29682D01*
X119040Y-29739D01*
X118824Y-29790D01*
X118607Y-29836D01*
X118388Y-29877D01*
X118169Y-29912D01*
X117948Y-29942D01*
X117728Y-29966D01*
X117506Y-29985D01*
X117284Y-29999D01*
X117062Y-30007D01*
X116840Y-30010D01*
X116618Y-30007D01*
X116396Y-29999D01*
X116174Y-29985D01*
X115952Y-29966D01*
X115732Y-29942D01*
X115511Y-29912D01*
X115292Y-29877D01*
X115073Y-29836D01*
X114856Y-29790D01*
X114640Y-29739D01*
X114425Y-29682D01*
X114211Y-29620D01*
X114000Y-29553D01*
X113789Y-29481D01*
X113581Y-29403D01*
X113375Y-29321D01*
X113171Y-29233D01*
X112968Y-29141D01*
X112769Y-29043D01*
X112572Y-28941D01*
X112377Y-28834D01*
X112185Y-28722D01*
X111996Y-28605D01*
X111809Y-28484D01*
X111626Y-28358D01*
X111446Y-28228D01*
X111269Y-28093D01*
X111096Y-27955D01*
X110926Y-27812D01*
X110759Y-27664D01*
X110596Y-27513D01*
X110437Y-27358D01*
X110282Y-27199D01*
X110131Y-27036D01*
X109983Y-26869D01*
X109840Y-26699D01*
X109702Y-26526D01*
X109567Y-26349D01*
X109437Y-26169D01*
X109311Y-25986D01*
X109190Y-25799D01*
X109073Y-25610D01*
X108961Y-25418D01*
X108854Y-25223D01*
X108752Y-25026D01*
X108654Y-24827D01*
X108562Y-24624D01*
X108474Y-24420D01*
X108392Y-24214D01*
X108314Y-24006D01*
X108242Y-23795D01*
X108175Y-23584D01*
X108113Y-23370D01*
X108056Y-23155D01*
X108005Y-22939D01*
X107959Y-22722D01*
X107918Y-22503D01*
X107883Y-22284D01*
X107853Y-22063D01*
X107829Y-21843D01*
X107810Y-21621D01*
X107796Y-21399D01*
X107788Y-21177D01*
X107785Y-20955D01*
D22*
X116840Y-20955D03*
M02*
