G04 EAGLE Gerber RS-274X export*
G75*
%MOMM*%
%FSLAX34Y34*%
%LPD*%
%INSoldermask Top*%
%IPPOS*%
%AMOC8*
5,1,8,0,0,1.08239X$1,22.5*%
G01*
%ADD10R,1.303200X1.203200*%
%ADD11R,1.603200X1.803200*%
%ADD12R,1.603200X3.203200*%
%ADD13R,1.203200X1.303200*%
%ADD14R,1.103200X1.003200*%
%ADD15R,1.727200X1.041400*%
%ADD16R,1.981200X3.327400*%
%ADD17C,3.505200*%
%ADD18C,1.203200*%
%ADD19R,1.203200X2.203200*%
%ADD20R,1.403200X1.603200*%
%ADD21R,1.673200X1.473200*%
%ADD22R,3.003200X2.603200*%
%ADD23C,2.235200*%
%ADD24R,1.403200X0.753200*%
%ADD25R,2.203200X1.403200*%
%ADD26R,1.553200X0.803200*%
%ADD27R,1.219200X0.503200*%
%ADD28R,1.219200X0.803200*%
%ADD29R,1.219200X0.753200*%
%ADD30C,0.853200*%
%ADD31R,1.403200X0.803200*%
%ADD32R,1.727200X0.965200*%
%ADD33R,1.473200X0.838200*%
%ADD34R,1.203200X3.003200*%
%ADD35R,1.033200X0.833200*%
%ADD36C,2.082800*%
%ADD37R,0.838200X1.473200*%
%ADD38R,2.003200X1.203200*%
%ADD39R,0.725200X0.928200*%
%ADD40C,1.003200*%
%ADD41C,0.600000*%
%ADD42R,0.403200X0.703200*%
%ADD43R,0.703200X0.403200*%
%ADD44R,0.603200X0.803200*%
%ADD45R,0.803200X0.803200*%
%ADD46R,0.803200X0.603200*%
%ADD47C,1.270000*%
%ADD48C,1.703200*%

G36*
X60304Y959134D02*
X60304Y959134D01*
X60307Y959131D01*
X61429Y959286D01*
X61434Y959291D01*
X61438Y959288D01*
X62509Y959659D01*
X62513Y959665D01*
X62518Y959663D01*
X63495Y960236D01*
X63498Y960242D01*
X63503Y960241D01*
X64350Y960994D01*
X64352Y961001D01*
X64357Y961001D01*
X65041Y961904D01*
X65041Y961911D01*
X65046Y961912D01*
X65541Y962931D01*
X65539Y962938D01*
X65544Y962940D01*
X65831Y964037D01*
X65829Y964041D01*
X65831Y964042D01*
X65829Y964044D01*
X65832Y964046D01*
X65899Y965177D01*
X65897Y965181D01*
X65899Y965183D01*
X65832Y966314D01*
X65827Y966319D01*
X65831Y966323D01*
X65544Y967420D01*
X65538Y967424D01*
X65541Y967429D01*
X65046Y968448D01*
X65040Y968451D01*
X65041Y968456D01*
X64357Y969359D01*
X64350Y969361D01*
X64350Y969366D01*
X63503Y970119D01*
X63496Y970119D01*
X63495Y970124D01*
X62518Y970697D01*
X62511Y970696D01*
X62509Y970701D01*
X61438Y971072D01*
X61432Y971069D01*
X61429Y971074D01*
X60307Y971229D01*
X60302Y971226D01*
X60300Y971229D01*
X48300Y971229D01*
X48295Y971226D01*
X48292Y971229D01*
X47025Y971024D01*
X47019Y971018D01*
X47015Y971021D01*
X45825Y970539D01*
X45821Y970532D01*
X45815Y970534D01*
X44762Y969800D01*
X44760Y969792D01*
X44754Y969793D01*
X43891Y968843D01*
X43890Y968834D01*
X43885Y968834D01*
X43255Y967715D01*
X43256Y967707D01*
X43250Y967705D01*
X42885Y966475D01*
X42888Y966467D01*
X42883Y966464D01*
X42801Y965183D01*
X42804Y965179D01*
X42801Y965177D01*
X42883Y963896D01*
X42889Y963890D01*
X42885Y963885D01*
X43250Y962655D01*
X43257Y962650D01*
X43255Y962645D01*
X43885Y961526D01*
X43892Y961523D01*
X43891Y961517D01*
X44754Y960567D01*
X44762Y960566D01*
X44762Y960560D01*
X45815Y959826D01*
X45823Y959826D01*
X45825Y959821D01*
X47015Y959339D01*
X47022Y959341D01*
X47025Y959336D01*
X48292Y959131D01*
X48297Y959134D01*
X48300Y959131D01*
X60300Y959131D01*
X60304Y959134D01*
G37*
G36*
X1538584Y959134D02*
X1538584Y959134D01*
X1538587Y959131D01*
X1539709Y959286D01*
X1539714Y959291D01*
X1539718Y959288D01*
X1540789Y959659D01*
X1540793Y959665D01*
X1540798Y959663D01*
X1541775Y960236D01*
X1541778Y960242D01*
X1541783Y960241D01*
X1542630Y960994D01*
X1542632Y961001D01*
X1542637Y961001D01*
X1543321Y961904D01*
X1543321Y961911D01*
X1543326Y961912D01*
X1543821Y962931D01*
X1543819Y962938D01*
X1543824Y962940D01*
X1544111Y964037D01*
X1544109Y964041D01*
X1544111Y964042D01*
X1544109Y964044D01*
X1544112Y964046D01*
X1544179Y965177D01*
X1544177Y965181D01*
X1544179Y965183D01*
X1544112Y966314D01*
X1544107Y966319D01*
X1544111Y966323D01*
X1543824Y967420D01*
X1543818Y967424D01*
X1543821Y967429D01*
X1543326Y968448D01*
X1543320Y968451D01*
X1543321Y968456D01*
X1542637Y969359D01*
X1542630Y969361D01*
X1542630Y969366D01*
X1541783Y970119D01*
X1541776Y970119D01*
X1541775Y970124D01*
X1540798Y970697D01*
X1540791Y970696D01*
X1540789Y970701D01*
X1539718Y971072D01*
X1539712Y971069D01*
X1539709Y971074D01*
X1538587Y971229D01*
X1538582Y971226D01*
X1538580Y971229D01*
X1526580Y971229D01*
X1526575Y971226D01*
X1526572Y971229D01*
X1525305Y971024D01*
X1525299Y971018D01*
X1525295Y971021D01*
X1524105Y970539D01*
X1524101Y970532D01*
X1524095Y970534D01*
X1523042Y969800D01*
X1523040Y969792D01*
X1523034Y969793D01*
X1522171Y968843D01*
X1522170Y968834D01*
X1522165Y968834D01*
X1521535Y967715D01*
X1521536Y967707D01*
X1521530Y967705D01*
X1521165Y966475D01*
X1521168Y966467D01*
X1521163Y966464D01*
X1521081Y965183D01*
X1521084Y965179D01*
X1521081Y965177D01*
X1521163Y963896D01*
X1521169Y963890D01*
X1521165Y963885D01*
X1521530Y962655D01*
X1521537Y962650D01*
X1521535Y962645D01*
X1522165Y961526D01*
X1522172Y961523D01*
X1522171Y961517D01*
X1523034Y960567D01*
X1523042Y960566D01*
X1523042Y960560D01*
X1524095Y959826D01*
X1524103Y959826D01*
X1524105Y959821D01*
X1525295Y959339D01*
X1525302Y959341D01*
X1525305Y959336D01*
X1526572Y959131D01*
X1526577Y959134D01*
X1526580Y959131D01*
X1538580Y959131D01*
X1538584Y959134D01*
G37*
G36*
X799444Y959134D02*
X799444Y959134D01*
X799447Y959131D01*
X800569Y959286D01*
X800574Y959291D01*
X800578Y959288D01*
X801649Y959659D01*
X801653Y959665D01*
X801658Y959663D01*
X802635Y960236D01*
X802638Y960242D01*
X802643Y960241D01*
X803490Y960994D01*
X803492Y961001D01*
X803497Y961001D01*
X804181Y961904D01*
X804181Y961911D01*
X804186Y961912D01*
X804681Y962931D01*
X804679Y962938D01*
X804684Y962940D01*
X804971Y964037D01*
X804969Y964041D01*
X804971Y964042D01*
X804969Y964044D01*
X804972Y964046D01*
X805039Y965177D01*
X805037Y965181D01*
X805039Y965183D01*
X804972Y966314D01*
X804967Y966319D01*
X804971Y966323D01*
X804684Y967420D01*
X804678Y967424D01*
X804681Y967429D01*
X804186Y968448D01*
X804180Y968451D01*
X804181Y968456D01*
X803497Y969359D01*
X803490Y969361D01*
X803490Y969366D01*
X802643Y970119D01*
X802636Y970119D01*
X802635Y970124D01*
X801658Y970697D01*
X801651Y970696D01*
X801649Y970701D01*
X800578Y971072D01*
X800572Y971069D01*
X800569Y971074D01*
X799447Y971229D01*
X799442Y971226D01*
X799440Y971229D01*
X787440Y971229D01*
X787435Y971226D01*
X787432Y971229D01*
X786165Y971024D01*
X786159Y971018D01*
X786155Y971021D01*
X784965Y970539D01*
X784961Y970532D01*
X784955Y970534D01*
X783902Y969800D01*
X783900Y969792D01*
X783894Y969793D01*
X783031Y968843D01*
X783030Y968834D01*
X783025Y968834D01*
X782395Y967715D01*
X782396Y967707D01*
X782390Y967705D01*
X782025Y966475D01*
X782028Y966467D01*
X782023Y966464D01*
X781941Y965183D01*
X781944Y965179D01*
X781941Y965177D01*
X782023Y963896D01*
X782029Y963890D01*
X782025Y963885D01*
X782390Y962655D01*
X782397Y962650D01*
X782395Y962645D01*
X783025Y961526D01*
X783032Y961523D01*
X783031Y961517D01*
X783894Y960567D01*
X783902Y960566D01*
X783902Y960560D01*
X784955Y959826D01*
X784963Y959826D01*
X784965Y959821D01*
X786155Y959339D01*
X786162Y959341D01*
X786165Y959336D01*
X787432Y959131D01*
X787437Y959134D01*
X787440Y959131D01*
X799440Y959131D01*
X799444Y959134D01*
G37*
G36*
X1538584Y1045534D02*
X1538584Y1045534D01*
X1538587Y1045531D01*
X1539709Y1045686D01*
X1539714Y1045691D01*
X1539718Y1045688D01*
X1540789Y1046059D01*
X1540793Y1046065D01*
X1540798Y1046063D01*
X1541775Y1046636D01*
X1541778Y1046642D01*
X1541783Y1046641D01*
X1542630Y1047394D01*
X1542632Y1047401D01*
X1542637Y1047401D01*
X1543321Y1048304D01*
X1543321Y1048311D01*
X1543326Y1048312D01*
X1543821Y1049331D01*
X1543819Y1049338D01*
X1543824Y1049340D01*
X1544111Y1050437D01*
X1544109Y1050441D01*
X1544111Y1050442D01*
X1544109Y1050444D01*
X1544112Y1050446D01*
X1544179Y1051577D01*
X1544177Y1051581D01*
X1544179Y1051583D01*
X1544112Y1052714D01*
X1544107Y1052719D01*
X1544111Y1052723D01*
X1543824Y1053820D01*
X1543818Y1053824D01*
X1543821Y1053829D01*
X1543326Y1054848D01*
X1543320Y1054851D01*
X1543321Y1054856D01*
X1542637Y1055759D01*
X1542630Y1055761D01*
X1542630Y1055766D01*
X1541783Y1056519D01*
X1541776Y1056519D01*
X1541775Y1056524D01*
X1540798Y1057097D01*
X1540791Y1057096D01*
X1540789Y1057101D01*
X1539718Y1057472D01*
X1539712Y1057469D01*
X1539709Y1057474D01*
X1538587Y1057629D01*
X1538582Y1057626D01*
X1538580Y1057629D01*
X1526580Y1057629D01*
X1526575Y1057626D01*
X1526572Y1057629D01*
X1525305Y1057424D01*
X1525299Y1057418D01*
X1525295Y1057421D01*
X1524105Y1056939D01*
X1524101Y1056932D01*
X1524095Y1056934D01*
X1523042Y1056200D01*
X1523040Y1056192D01*
X1523034Y1056193D01*
X1522171Y1055243D01*
X1522170Y1055234D01*
X1522165Y1055234D01*
X1521535Y1054115D01*
X1521536Y1054107D01*
X1521530Y1054105D01*
X1521165Y1052875D01*
X1521168Y1052867D01*
X1521163Y1052864D01*
X1521081Y1051583D01*
X1521084Y1051579D01*
X1521081Y1051577D01*
X1521163Y1050296D01*
X1521169Y1050290D01*
X1521165Y1050285D01*
X1521530Y1049055D01*
X1521537Y1049050D01*
X1521535Y1049045D01*
X1522165Y1047926D01*
X1522172Y1047923D01*
X1522171Y1047917D01*
X1523034Y1046967D01*
X1523042Y1046966D01*
X1523042Y1046960D01*
X1524095Y1046226D01*
X1524103Y1046226D01*
X1524105Y1046221D01*
X1525295Y1045739D01*
X1525302Y1045741D01*
X1525305Y1045736D01*
X1526572Y1045531D01*
X1526577Y1045534D01*
X1526580Y1045531D01*
X1538580Y1045531D01*
X1538584Y1045534D01*
G37*
G36*
X60304Y1045534D02*
X60304Y1045534D01*
X60307Y1045531D01*
X61429Y1045686D01*
X61434Y1045691D01*
X61438Y1045688D01*
X62509Y1046059D01*
X62513Y1046065D01*
X62518Y1046063D01*
X63495Y1046636D01*
X63498Y1046642D01*
X63503Y1046641D01*
X64350Y1047394D01*
X64352Y1047401D01*
X64357Y1047401D01*
X65041Y1048304D01*
X65041Y1048311D01*
X65046Y1048312D01*
X65541Y1049331D01*
X65539Y1049338D01*
X65544Y1049340D01*
X65831Y1050437D01*
X65829Y1050441D01*
X65831Y1050442D01*
X65829Y1050444D01*
X65832Y1050446D01*
X65899Y1051577D01*
X65897Y1051581D01*
X65899Y1051583D01*
X65832Y1052714D01*
X65827Y1052719D01*
X65831Y1052723D01*
X65544Y1053820D01*
X65538Y1053824D01*
X65541Y1053829D01*
X65046Y1054848D01*
X65040Y1054851D01*
X65041Y1054856D01*
X64357Y1055759D01*
X64350Y1055761D01*
X64350Y1055766D01*
X63503Y1056519D01*
X63496Y1056519D01*
X63495Y1056524D01*
X62518Y1057097D01*
X62511Y1057096D01*
X62509Y1057101D01*
X61438Y1057472D01*
X61432Y1057469D01*
X61429Y1057474D01*
X60307Y1057629D01*
X60302Y1057626D01*
X60300Y1057629D01*
X48300Y1057629D01*
X48295Y1057626D01*
X48292Y1057629D01*
X47025Y1057424D01*
X47019Y1057418D01*
X47015Y1057421D01*
X45825Y1056939D01*
X45821Y1056932D01*
X45815Y1056934D01*
X44762Y1056200D01*
X44760Y1056192D01*
X44754Y1056193D01*
X43891Y1055243D01*
X43890Y1055234D01*
X43885Y1055234D01*
X43255Y1054115D01*
X43256Y1054107D01*
X43250Y1054105D01*
X42885Y1052875D01*
X42888Y1052867D01*
X42883Y1052864D01*
X42801Y1051583D01*
X42804Y1051579D01*
X42801Y1051577D01*
X42883Y1050296D01*
X42889Y1050290D01*
X42885Y1050285D01*
X43250Y1049055D01*
X43257Y1049050D01*
X43255Y1049045D01*
X43885Y1047926D01*
X43892Y1047923D01*
X43891Y1047917D01*
X44754Y1046967D01*
X44762Y1046966D01*
X44762Y1046960D01*
X45815Y1046226D01*
X45823Y1046226D01*
X45825Y1046221D01*
X47015Y1045739D01*
X47022Y1045741D01*
X47025Y1045736D01*
X48292Y1045531D01*
X48297Y1045534D01*
X48300Y1045531D01*
X60300Y1045531D01*
X60304Y1045534D01*
G37*
G36*
X799444Y1045534D02*
X799444Y1045534D01*
X799447Y1045531D01*
X800569Y1045686D01*
X800574Y1045691D01*
X800578Y1045688D01*
X801649Y1046059D01*
X801653Y1046065D01*
X801658Y1046063D01*
X802635Y1046636D01*
X802638Y1046642D01*
X802643Y1046641D01*
X803490Y1047394D01*
X803492Y1047401D01*
X803497Y1047401D01*
X804181Y1048304D01*
X804181Y1048311D01*
X804186Y1048312D01*
X804681Y1049331D01*
X804679Y1049338D01*
X804684Y1049340D01*
X804971Y1050437D01*
X804969Y1050441D01*
X804971Y1050442D01*
X804969Y1050444D01*
X804972Y1050446D01*
X805039Y1051577D01*
X805037Y1051581D01*
X805039Y1051583D01*
X804972Y1052714D01*
X804967Y1052719D01*
X804971Y1052723D01*
X804684Y1053820D01*
X804678Y1053824D01*
X804681Y1053829D01*
X804186Y1054848D01*
X804180Y1054851D01*
X804181Y1054856D01*
X803497Y1055759D01*
X803490Y1055761D01*
X803490Y1055766D01*
X802643Y1056519D01*
X802636Y1056519D01*
X802635Y1056524D01*
X801658Y1057097D01*
X801651Y1057096D01*
X801649Y1057101D01*
X800578Y1057472D01*
X800572Y1057469D01*
X800569Y1057474D01*
X799447Y1057629D01*
X799442Y1057626D01*
X799440Y1057629D01*
X787440Y1057629D01*
X787435Y1057626D01*
X787432Y1057629D01*
X786165Y1057424D01*
X786159Y1057418D01*
X786155Y1057421D01*
X784965Y1056939D01*
X784961Y1056932D01*
X784955Y1056934D01*
X783902Y1056200D01*
X783900Y1056192D01*
X783894Y1056193D01*
X783031Y1055243D01*
X783030Y1055234D01*
X783025Y1055234D01*
X782395Y1054115D01*
X782396Y1054107D01*
X782390Y1054105D01*
X782025Y1052875D01*
X782028Y1052867D01*
X782023Y1052864D01*
X781941Y1051583D01*
X781944Y1051579D01*
X781941Y1051577D01*
X782023Y1050296D01*
X782029Y1050290D01*
X782025Y1050285D01*
X782390Y1049055D01*
X782397Y1049050D01*
X782395Y1049045D01*
X783025Y1047926D01*
X783032Y1047923D01*
X783031Y1047917D01*
X783894Y1046967D01*
X783902Y1046966D01*
X783902Y1046960D01*
X784955Y1046226D01*
X784963Y1046226D01*
X784965Y1046221D01*
X786155Y1045739D01*
X786162Y1045741D01*
X786165Y1045736D01*
X787432Y1045531D01*
X787437Y1045534D01*
X787440Y1045531D01*
X799440Y1045531D01*
X799444Y1045534D01*
G37*
G36*
X1538584Y456254D02*
X1538584Y456254D01*
X1538587Y456251D01*
X1539709Y456406D01*
X1539714Y456411D01*
X1539718Y456408D01*
X1540789Y456779D01*
X1540793Y456785D01*
X1540798Y456783D01*
X1541775Y457356D01*
X1541778Y457362D01*
X1541783Y457361D01*
X1542630Y458114D01*
X1542632Y458121D01*
X1542637Y458121D01*
X1543321Y459024D01*
X1543321Y459031D01*
X1543326Y459032D01*
X1543821Y460051D01*
X1543819Y460058D01*
X1543824Y460060D01*
X1544111Y461157D01*
X1544109Y461161D01*
X1544111Y461162D01*
X1544109Y461164D01*
X1544112Y461166D01*
X1544179Y462297D01*
X1544177Y462301D01*
X1544179Y462303D01*
X1544112Y463434D01*
X1544107Y463439D01*
X1544111Y463443D01*
X1543824Y464540D01*
X1543818Y464544D01*
X1543821Y464549D01*
X1543326Y465568D01*
X1543320Y465571D01*
X1543321Y465576D01*
X1542637Y466479D01*
X1542630Y466481D01*
X1542630Y466486D01*
X1541783Y467239D01*
X1541776Y467239D01*
X1541775Y467244D01*
X1540798Y467817D01*
X1540791Y467816D01*
X1540789Y467821D01*
X1539718Y468192D01*
X1539712Y468189D01*
X1539709Y468194D01*
X1538587Y468349D01*
X1538582Y468346D01*
X1538580Y468349D01*
X1526580Y468349D01*
X1526575Y468346D01*
X1526572Y468349D01*
X1525305Y468144D01*
X1525299Y468138D01*
X1525295Y468141D01*
X1524105Y467659D01*
X1524101Y467652D01*
X1524095Y467654D01*
X1523042Y466920D01*
X1523040Y466912D01*
X1523034Y466913D01*
X1522171Y465963D01*
X1522170Y465954D01*
X1522165Y465954D01*
X1521535Y464835D01*
X1521536Y464827D01*
X1521530Y464825D01*
X1521165Y463595D01*
X1521168Y463587D01*
X1521163Y463584D01*
X1521081Y462303D01*
X1521084Y462299D01*
X1521081Y462297D01*
X1521163Y461016D01*
X1521169Y461010D01*
X1521165Y461005D01*
X1521530Y459775D01*
X1521537Y459770D01*
X1521535Y459765D01*
X1522165Y458646D01*
X1522172Y458643D01*
X1522171Y458637D01*
X1523034Y457687D01*
X1523042Y457686D01*
X1523042Y457680D01*
X1524095Y456946D01*
X1524103Y456946D01*
X1524105Y456941D01*
X1525295Y456459D01*
X1525302Y456461D01*
X1525305Y456456D01*
X1526572Y456251D01*
X1526577Y456254D01*
X1526580Y456251D01*
X1538580Y456251D01*
X1538584Y456254D01*
G37*
G36*
X799444Y456254D02*
X799444Y456254D01*
X799447Y456251D01*
X800569Y456406D01*
X800574Y456411D01*
X800578Y456408D01*
X801649Y456779D01*
X801653Y456785D01*
X801658Y456783D01*
X802635Y457356D01*
X802638Y457362D01*
X802643Y457361D01*
X803490Y458114D01*
X803492Y458121D01*
X803497Y458121D01*
X804181Y459024D01*
X804181Y459031D01*
X804186Y459032D01*
X804681Y460051D01*
X804679Y460058D01*
X804684Y460060D01*
X804971Y461157D01*
X804969Y461161D01*
X804971Y461162D01*
X804969Y461164D01*
X804972Y461166D01*
X805039Y462297D01*
X805037Y462301D01*
X805039Y462303D01*
X804972Y463434D01*
X804967Y463439D01*
X804971Y463443D01*
X804684Y464540D01*
X804678Y464544D01*
X804681Y464549D01*
X804186Y465568D01*
X804180Y465571D01*
X804181Y465576D01*
X803497Y466479D01*
X803490Y466481D01*
X803490Y466486D01*
X802643Y467239D01*
X802636Y467239D01*
X802635Y467244D01*
X801658Y467817D01*
X801651Y467816D01*
X801649Y467821D01*
X800578Y468192D01*
X800572Y468189D01*
X800569Y468194D01*
X799447Y468349D01*
X799442Y468346D01*
X799440Y468349D01*
X787440Y468349D01*
X787435Y468346D01*
X787432Y468349D01*
X786165Y468144D01*
X786159Y468138D01*
X786155Y468141D01*
X784965Y467659D01*
X784961Y467652D01*
X784955Y467654D01*
X783902Y466920D01*
X783900Y466912D01*
X783894Y466913D01*
X783031Y465963D01*
X783030Y465954D01*
X783025Y465954D01*
X782395Y464835D01*
X782396Y464827D01*
X782390Y464825D01*
X782025Y463595D01*
X782028Y463587D01*
X782023Y463584D01*
X781941Y462303D01*
X781944Y462299D01*
X781941Y462297D01*
X782023Y461016D01*
X782029Y461010D01*
X782025Y461005D01*
X782390Y459775D01*
X782397Y459770D01*
X782395Y459765D01*
X783025Y458646D01*
X783032Y458643D01*
X783031Y458637D01*
X783894Y457687D01*
X783902Y457686D01*
X783902Y457680D01*
X784955Y456946D01*
X784963Y456946D01*
X784965Y456941D01*
X786155Y456459D01*
X786162Y456461D01*
X786165Y456456D01*
X787432Y456251D01*
X787437Y456254D01*
X787440Y456251D01*
X799440Y456251D01*
X799444Y456254D01*
G37*
G36*
X60304Y456254D02*
X60304Y456254D01*
X60307Y456251D01*
X61429Y456406D01*
X61434Y456411D01*
X61438Y456408D01*
X62509Y456779D01*
X62513Y456785D01*
X62518Y456783D01*
X63495Y457356D01*
X63498Y457362D01*
X63503Y457361D01*
X64350Y458114D01*
X64352Y458121D01*
X64357Y458121D01*
X65041Y459024D01*
X65041Y459031D01*
X65046Y459032D01*
X65541Y460051D01*
X65539Y460058D01*
X65544Y460060D01*
X65831Y461157D01*
X65829Y461161D01*
X65831Y461162D01*
X65829Y461164D01*
X65832Y461166D01*
X65899Y462297D01*
X65897Y462301D01*
X65899Y462303D01*
X65832Y463434D01*
X65827Y463439D01*
X65831Y463443D01*
X65544Y464540D01*
X65538Y464544D01*
X65541Y464549D01*
X65046Y465568D01*
X65040Y465571D01*
X65041Y465576D01*
X64357Y466479D01*
X64350Y466481D01*
X64350Y466486D01*
X63503Y467239D01*
X63496Y467239D01*
X63495Y467244D01*
X62518Y467817D01*
X62511Y467816D01*
X62509Y467821D01*
X61438Y468192D01*
X61432Y468189D01*
X61429Y468194D01*
X60307Y468349D01*
X60302Y468346D01*
X60300Y468349D01*
X48300Y468349D01*
X48295Y468346D01*
X48292Y468349D01*
X47025Y468144D01*
X47019Y468138D01*
X47015Y468141D01*
X45825Y467659D01*
X45821Y467652D01*
X45815Y467654D01*
X44762Y466920D01*
X44760Y466912D01*
X44754Y466913D01*
X43891Y465963D01*
X43890Y465954D01*
X43885Y465954D01*
X43255Y464835D01*
X43256Y464827D01*
X43250Y464825D01*
X42885Y463595D01*
X42888Y463587D01*
X42883Y463584D01*
X42801Y462303D01*
X42804Y462299D01*
X42801Y462297D01*
X42883Y461016D01*
X42889Y461010D01*
X42885Y461005D01*
X43250Y459775D01*
X43257Y459770D01*
X43255Y459765D01*
X43885Y458646D01*
X43892Y458643D01*
X43891Y458637D01*
X44754Y457687D01*
X44762Y457686D01*
X44762Y457680D01*
X45815Y456946D01*
X45823Y456946D01*
X45825Y456941D01*
X47015Y456459D01*
X47022Y456461D01*
X47025Y456456D01*
X48292Y456251D01*
X48297Y456254D01*
X48300Y456251D01*
X60300Y456251D01*
X60304Y456254D01*
G37*
G36*
X799444Y369854D02*
X799444Y369854D01*
X799447Y369851D01*
X800569Y370006D01*
X800574Y370011D01*
X800578Y370008D01*
X801649Y370379D01*
X801653Y370385D01*
X801658Y370383D01*
X802635Y370956D01*
X802638Y370962D01*
X802643Y370961D01*
X803490Y371714D01*
X803492Y371721D01*
X803497Y371721D01*
X804181Y372624D01*
X804181Y372631D01*
X804186Y372632D01*
X804681Y373651D01*
X804679Y373658D01*
X804684Y373660D01*
X804971Y374757D01*
X804969Y374761D01*
X804971Y374762D01*
X804969Y374764D01*
X804972Y374766D01*
X805039Y375897D01*
X805037Y375901D01*
X805039Y375903D01*
X804972Y377034D01*
X804967Y377039D01*
X804971Y377043D01*
X804684Y378140D01*
X804678Y378144D01*
X804681Y378149D01*
X804186Y379168D01*
X804180Y379171D01*
X804181Y379176D01*
X803497Y380079D01*
X803490Y380081D01*
X803490Y380086D01*
X802643Y380839D01*
X802636Y380839D01*
X802635Y380844D01*
X801658Y381417D01*
X801651Y381416D01*
X801649Y381421D01*
X800578Y381792D01*
X800572Y381789D01*
X800569Y381794D01*
X799447Y381949D01*
X799442Y381946D01*
X799440Y381949D01*
X787440Y381949D01*
X787435Y381946D01*
X787432Y381949D01*
X786165Y381744D01*
X786159Y381738D01*
X786155Y381741D01*
X784965Y381259D01*
X784961Y381252D01*
X784955Y381254D01*
X783902Y380520D01*
X783900Y380512D01*
X783894Y380513D01*
X783031Y379563D01*
X783030Y379554D01*
X783025Y379554D01*
X782395Y378435D01*
X782396Y378427D01*
X782390Y378425D01*
X782025Y377195D01*
X782028Y377187D01*
X782023Y377184D01*
X781941Y375903D01*
X781944Y375899D01*
X781941Y375897D01*
X782023Y374616D01*
X782029Y374610D01*
X782025Y374605D01*
X782390Y373375D01*
X782397Y373370D01*
X782395Y373365D01*
X783025Y372246D01*
X783032Y372243D01*
X783031Y372237D01*
X783894Y371287D01*
X783902Y371286D01*
X783902Y371280D01*
X784955Y370546D01*
X784963Y370546D01*
X784965Y370541D01*
X786155Y370059D01*
X786162Y370061D01*
X786165Y370056D01*
X787432Y369851D01*
X787437Y369854D01*
X787440Y369851D01*
X799440Y369851D01*
X799444Y369854D01*
G37*
G36*
X1538584Y369854D02*
X1538584Y369854D01*
X1538587Y369851D01*
X1539709Y370006D01*
X1539714Y370011D01*
X1539718Y370008D01*
X1540789Y370379D01*
X1540793Y370385D01*
X1540798Y370383D01*
X1541775Y370956D01*
X1541778Y370962D01*
X1541783Y370961D01*
X1542630Y371714D01*
X1542632Y371721D01*
X1542637Y371721D01*
X1543321Y372624D01*
X1543321Y372631D01*
X1543326Y372632D01*
X1543821Y373651D01*
X1543819Y373658D01*
X1543824Y373660D01*
X1544111Y374757D01*
X1544109Y374761D01*
X1544111Y374762D01*
X1544109Y374764D01*
X1544112Y374766D01*
X1544179Y375897D01*
X1544177Y375901D01*
X1544179Y375903D01*
X1544112Y377034D01*
X1544107Y377039D01*
X1544111Y377043D01*
X1543824Y378140D01*
X1543818Y378144D01*
X1543821Y378149D01*
X1543326Y379168D01*
X1543320Y379171D01*
X1543321Y379176D01*
X1542637Y380079D01*
X1542630Y380081D01*
X1542630Y380086D01*
X1541783Y380839D01*
X1541776Y380839D01*
X1541775Y380844D01*
X1540798Y381417D01*
X1540791Y381416D01*
X1540789Y381421D01*
X1539718Y381792D01*
X1539712Y381789D01*
X1539709Y381794D01*
X1538587Y381949D01*
X1538582Y381946D01*
X1538580Y381949D01*
X1526580Y381949D01*
X1526575Y381946D01*
X1526572Y381949D01*
X1525305Y381744D01*
X1525299Y381738D01*
X1525295Y381741D01*
X1524105Y381259D01*
X1524101Y381252D01*
X1524095Y381254D01*
X1523042Y380520D01*
X1523040Y380512D01*
X1523034Y380513D01*
X1522171Y379563D01*
X1522170Y379554D01*
X1522165Y379554D01*
X1521535Y378435D01*
X1521536Y378427D01*
X1521530Y378425D01*
X1521165Y377195D01*
X1521168Y377187D01*
X1521163Y377184D01*
X1521081Y375903D01*
X1521084Y375899D01*
X1521081Y375897D01*
X1521163Y374616D01*
X1521169Y374610D01*
X1521165Y374605D01*
X1521530Y373375D01*
X1521537Y373370D01*
X1521535Y373365D01*
X1522165Y372246D01*
X1522172Y372243D01*
X1522171Y372237D01*
X1523034Y371287D01*
X1523042Y371286D01*
X1523042Y371280D01*
X1524095Y370546D01*
X1524103Y370546D01*
X1524105Y370541D01*
X1525295Y370059D01*
X1525302Y370061D01*
X1525305Y370056D01*
X1526572Y369851D01*
X1526577Y369854D01*
X1526580Y369851D01*
X1538580Y369851D01*
X1538584Y369854D01*
G37*
G36*
X60304Y369854D02*
X60304Y369854D01*
X60307Y369851D01*
X61429Y370006D01*
X61434Y370011D01*
X61438Y370008D01*
X62509Y370379D01*
X62513Y370385D01*
X62518Y370383D01*
X63495Y370956D01*
X63498Y370962D01*
X63503Y370961D01*
X64350Y371714D01*
X64352Y371721D01*
X64357Y371721D01*
X65041Y372624D01*
X65041Y372631D01*
X65046Y372632D01*
X65541Y373651D01*
X65539Y373658D01*
X65544Y373660D01*
X65831Y374757D01*
X65829Y374761D01*
X65831Y374762D01*
X65829Y374764D01*
X65832Y374766D01*
X65899Y375897D01*
X65897Y375901D01*
X65899Y375903D01*
X65832Y377034D01*
X65827Y377039D01*
X65831Y377043D01*
X65544Y378140D01*
X65538Y378144D01*
X65541Y378149D01*
X65046Y379168D01*
X65040Y379171D01*
X65041Y379176D01*
X64357Y380079D01*
X64350Y380081D01*
X64350Y380086D01*
X63503Y380839D01*
X63496Y380839D01*
X63495Y380844D01*
X62518Y381417D01*
X62511Y381416D01*
X62509Y381421D01*
X61438Y381792D01*
X61432Y381789D01*
X61429Y381794D01*
X60307Y381949D01*
X60302Y381946D01*
X60300Y381949D01*
X48300Y381949D01*
X48295Y381946D01*
X48292Y381949D01*
X47025Y381744D01*
X47019Y381738D01*
X47015Y381741D01*
X45825Y381259D01*
X45821Y381252D01*
X45815Y381254D01*
X44762Y380520D01*
X44760Y380512D01*
X44754Y380513D01*
X43891Y379563D01*
X43890Y379554D01*
X43885Y379554D01*
X43255Y378435D01*
X43256Y378427D01*
X43250Y378425D01*
X42885Y377195D01*
X42888Y377187D01*
X42883Y377184D01*
X42801Y375903D01*
X42804Y375899D01*
X42801Y375897D01*
X42883Y374616D01*
X42889Y374610D01*
X42885Y374605D01*
X43250Y373375D01*
X43257Y373370D01*
X43255Y373365D01*
X43885Y372246D01*
X43892Y372243D01*
X43891Y372237D01*
X44754Y371287D01*
X44762Y371286D01*
X44762Y371280D01*
X45815Y370546D01*
X45823Y370546D01*
X45825Y370541D01*
X47015Y370059D01*
X47022Y370061D01*
X47025Y370056D01*
X48292Y369851D01*
X48297Y369854D01*
X48300Y369851D01*
X60300Y369851D01*
X60304Y369854D01*
G37*
G36*
X1493783Y959133D02*
X1493783Y959133D01*
X1493785Y959131D01*
X1494961Y959242D01*
X1494966Y959247D01*
X1494970Y959244D01*
X1496102Y959582D01*
X1496106Y959588D01*
X1496111Y959586D01*
X1497155Y960138D01*
X1497158Y960145D01*
X1497163Y960143D01*
X1498079Y960889D01*
X1498080Y960896D01*
X1498086Y960896D01*
X1498839Y961806D01*
X1498839Y961813D01*
X1498844Y961814D01*
X1499405Y962853D01*
X1499404Y962858D01*
X1499408Y962860D01*
X1499407Y962861D01*
X1499409Y962862D01*
X1499756Y963991D01*
X1499756Y963992D01*
X1499757Y963993D01*
X1499754Y963997D01*
X1499758Y964000D01*
X1499879Y965175D01*
X1499875Y965182D01*
X1499879Y965186D01*
X1499722Y966526D01*
X1499717Y966532D01*
X1499720Y966537D01*
X1499269Y967808D01*
X1499262Y967813D01*
X1499264Y967818D01*
X1498542Y968957D01*
X1498534Y968960D01*
X1498535Y968966D01*
X1497577Y969916D01*
X1497569Y969917D01*
X1497568Y969923D01*
X1496423Y970636D01*
X1496415Y970635D01*
X1496413Y970641D01*
X1495137Y971081D01*
X1495130Y971079D01*
X1495127Y971083D01*
X1493785Y971229D01*
X1493782Y971227D01*
X1493780Y971229D01*
X1487780Y971229D01*
X1487777Y971227D01*
X1487774Y971229D01*
X1486445Y971074D01*
X1486439Y971068D01*
X1486435Y971071D01*
X1485174Y970624D01*
X1485169Y970617D01*
X1485164Y970619D01*
X1484034Y969902D01*
X1484031Y969895D01*
X1484025Y969896D01*
X1483083Y968946D01*
X1483082Y968937D01*
X1483076Y968937D01*
X1482369Y967801D01*
X1482370Y967793D01*
X1482364Y967791D01*
X1481928Y966526D01*
X1481930Y966518D01*
X1481925Y966516D01*
X1481781Y965185D01*
X1481785Y965179D01*
X1481781Y965175D01*
X1481891Y964009D01*
X1481896Y964004D01*
X1481893Y964000D01*
X1482228Y962877D01*
X1482234Y962873D01*
X1482232Y962869D01*
X1482780Y961833D01*
X1482786Y961830D01*
X1482785Y961825D01*
X1483524Y960917D01*
X1483531Y960915D01*
X1483531Y960910D01*
X1484433Y960163D01*
X1484441Y960163D01*
X1484441Y960158D01*
X1485472Y959601D01*
X1485479Y959602D01*
X1485481Y959597D01*
X1486600Y959253D01*
X1486607Y959255D01*
X1486610Y959251D01*
X1487775Y959131D01*
X1487778Y959133D01*
X1487780Y959131D01*
X1493780Y959131D01*
X1493783Y959133D01*
G37*
G36*
X15503Y959133D02*
X15503Y959133D01*
X15505Y959131D01*
X16681Y959242D01*
X16686Y959247D01*
X16690Y959244D01*
X17822Y959582D01*
X17826Y959588D01*
X17831Y959586D01*
X18875Y960138D01*
X18878Y960145D01*
X18883Y960143D01*
X19799Y960889D01*
X19800Y960896D01*
X19806Y960896D01*
X20559Y961806D01*
X20559Y961813D01*
X20564Y961814D01*
X21125Y962853D01*
X21124Y962858D01*
X21128Y962860D01*
X21127Y962861D01*
X21129Y962862D01*
X21476Y963991D01*
X21476Y963992D01*
X21477Y963993D01*
X21474Y963997D01*
X21478Y964000D01*
X21599Y965175D01*
X21595Y965182D01*
X21599Y965186D01*
X21442Y966526D01*
X21437Y966532D01*
X21440Y966537D01*
X20989Y967808D01*
X20982Y967813D01*
X20984Y967818D01*
X20262Y968957D01*
X20254Y968960D01*
X20255Y968966D01*
X19297Y969916D01*
X19289Y969917D01*
X19288Y969923D01*
X18143Y970636D01*
X18135Y970635D01*
X18133Y970641D01*
X16857Y971081D01*
X16850Y971079D01*
X16847Y971083D01*
X15505Y971229D01*
X15502Y971227D01*
X15500Y971229D01*
X9500Y971229D01*
X9497Y971227D01*
X9494Y971229D01*
X8165Y971074D01*
X8159Y971068D01*
X8155Y971071D01*
X6894Y970624D01*
X6889Y970617D01*
X6884Y970619D01*
X5754Y969902D01*
X5751Y969895D01*
X5745Y969896D01*
X4803Y968946D01*
X4802Y968937D01*
X4796Y968937D01*
X4089Y967801D01*
X4090Y967793D01*
X4084Y967791D01*
X3648Y966526D01*
X3650Y966518D01*
X3645Y966516D01*
X3501Y965185D01*
X3505Y965179D01*
X3501Y965175D01*
X3611Y964009D01*
X3616Y964004D01*
X3613Y964000D01*
X3948Y962877D01*
X3954Y962873D01*
X3952Y962869D01*
X4500Y961833D01*
X4506Y961830D01*
X4505Y961825D01*
X5244Y960917D01*
X5251Y960915D01*
X5251Y960910D01*
X6153Y960163D01*
X6161Y960163D01*
X6161Y960158D01*
X7192Y959601D01*
X7199Y959602D01*
X7201Y959597D01*
X8320Y959253D01*
X8327Y959255D01*
X8330Y959251D01*
X9495Y959131D01*
X9498Y959133D01*
X9500Y959131D01*
X15500Y959131D01*
X15503Y959133D01*
G37*
G36*
X754643Y959133D02*
X754643Y959133D01*
X754645Y959131D01*
X755821Y959242D01*
X755826Y959247D01*
X755830Y959244D01*
X756962Y959582D01*
X756966Y959588D01*
X756971Y959586D01*
X758015Y960138D01*
X758018Y960145D01*
X758023Y960143D01*
X758939Y960889D01*
X758940Y960896D01*
X758946Y960896D01*
X759699Y961806D01*
X759699Y961813D01*
X759704Y961814D01*
X760265Y962853D01*
X760264Y962858D01*
X760268Y962860D01*
X760267Y962861D01*
X760269Y962862D01*
X760616Y963991D01*
X760616Y963992D01*
X760617Y963993D01*
X760614Y963997D01*
X760618Y964000D01*
X760739Y965175D01*
X760735Y965182D01*
X760739Y965186D01*
X760582Y966526D01*
X760577Y966532D01*
X760580Y966537D01*
X760129Y967808D01*
X760122Y967813D01*
X760124Y967818D01*
X759402Y968957D01*
X759394Y968960D01*
X759395Y968966D01*
X758437Y969916D01*
X758429Y969917D01*
X758428Y969923D01*
X757283Y970636D01*
X757275Y970635D01*
X757273Y970641D01*
X755997Y971081D01*
X755990Y971079D01*
X755987Y971083D01*
X754645Y971229D01*
X754642Y971227D01*
X754640Y971229D01*
X748640Y971229D01*
X748637Y971227D01*
X748634Y971229D01*
X747305Y971074D01*
X747299Y971068D01*
X747295Y971071D01*
X746034Y970624D01*
X746029Y970617D01*
X746024Y970619D01*
X744894Y969902D01*
X744891Y969895D01*
X744885Y969896D01*
X743943Y968946D01*
X743942Y968937D01*
X743936Y968937D01*
X743229Y967801D01*
X743230Y967793D01*
X743224Y967791D01*
X742788Y966526D01*
X742790Y966518D01*
X742785Y966516D01*
X742641Y965185D01*
X742645Y965179D01*
X742641Y965175D01*
X742751Y964009D01*
X742756Y964004D01*
X742753Y964000D01*
X743088Y962877D01*
X743094Y962873D01*
X743092Y962869D01*
X743640Y961833D01*
X743646Y961830D01*
X743645Y961825D01*
X744384Y960917D01*
X744391Y960915D01*
X744391Y960910D01*
X745293Y960163D01*
X745301Y960163D01*
X745301Y960158D01*
X746332Y959601D01*
X746339Y959602D01*
X746341Y959597D01*
X747460Y959253D01*
X747467Y959255D01*
X747470Y959251D01*
X748635Y959131D01*
X748638Y959133D01*
X748640Y959131D01*
X754640Y959131D01*
X754643Y959133D01*
G37*
G36*
X754643Y1045533D02*
X754643Y1045533D01*
X754645Y1045531D01*
X755821Y1045642D01*
X755826Y1045647D01*
X755830Y1045644D01*
X756962Y1045982D01*
X756966Y1045988D01*
X756971Y1045986D01*
X758015Y1046538D01*
X758018Y1046545D01*
X758023Y1046543D01*
X758939Y1047289D01*
X758940Y1047296D01*
X758946Y1047296D01*
X759699Y1048206D01*
X759699Y1048213D01*
X759704Y1048214D01*
X760265Y1049253D01*
X760264Y1049258D01*
X760268Y1049260D01*
X760267Y1049261D01*
X760269Y1049262D01*
X760616Y1050391D01*
X760616Y1050392D01*
X760617Y1050393D01*
X760614Y1050397D01*
X760618Y1050400D01*
X760739Y1051575D01*
X760735Y1051582D01*
X760739Y1051586D01*
X760582Y1052926D01*
X760577Y1052932D01*
X760580Y1052937D01*
X760129Y1054208D01*
X760122Y1054213D01*
X760124Y1054218D01*
X759402Y1055357D01*
X759394Y1055360D01*
X759395Y1055366D01*
X758437Y1056316D01*
X758429Y1056317D01*
X758428Y1056323D01*
X757283Y1057036D01*
X757275Y1057035D01*
X757273Y1057041D01*
X755997Y1057481D01*
X755990Y1057479D01*
X755987Y1057483D01*
X754645Y1057629D01*
X754642Y1057627D01*
X754640Y1057629D01*
X748640Y1057629D01*
X748637Y1057627D01*
X748634Y1057629D01*
X747305Y1057474D01*
X747299Y1057468D01*
X747295Y1057471D01*
X746034Y1057024D01*
X746029Y1057017D01*
X746024Y1057019D01*
X744894Y1056302D01*
X744891Y1056295D01*
X744885Y1056296D01*
X743943Y1055346D01*
X743942Y1055337D01*
X743936Y1055337D01*
X743229Y1054201D01*
X743230Y1054193D01*
X743224Y1054191D01*
X742788Y1052926D01*
X742790Y1052918D01*
X742785Y1052916D01*
X742641Y1051585D01*
X742645Y1051579D01*
X742641Y1051575D01*
X742751Y1050409D01*
X742756Y1050404D01*
X742753Y1050400D01*
X743088Y1049277D01*
X743094Y1049273D01*
X743092Y1049269D01*
X743640Y1048233D01*
X743646Y1048230D01*
X743645Y1048225D01*
X744384Y1047317D01*
X744391Y1047315D01*
X744391Y1047310D01*
X745293Y1046563D01*
X745301Y1046563D01*
X745301Y1046558D01*
X746332Y1046001D01*
X746339Y1046002D01*
X746341Y1045997D01*
X747460Y1045653D01*
X747467Y1045655D01*
X747470Y1045651D01*
X748635Y1045531D01*
X748638Y1045533D01*
X748640Y1045531D01*
X754640Y1045531D01*
X754643Y1045533D01*
G37*
G36*
X1493783Y1045533D02*
X1493783Y1045533D01*
X1493785Y1045531D01*
X1494961Y1045642D01*
X1494966Y1045647D01*
X1494970Y1045644D01*
X1496102Y1045982D01*
X1496106Y1045988D01*
X1496111Y1045986D01*
X1497155Y1046538D01*
X1497158Y1046545D01*
X1497163Y1046543D01*
X1498079Y1047289D01*
X1498080Y1047296D01*
X1498086Y1047296D01*
X1498839Y1048206D01*
X1498839Y1048213D01*
X1498844Y1048214D01*
X1499405Y1049253D01*
X1499404Y1049258D01*
X1499408Y1049260D01*
X1499407Y1049261D01*
X1499409Y1049262D01*
X1499756Y1050391D01*
X1499756Y1050392D01*
X1499757Y1050393D01*
X1499754Y1050397D01*
X1499758Y1050400D01*
X1499879Y1051575D01*
X1499875Y1051582D01*
X1499879Y1051586D01*
X1499722Y1052926D01*
X1499717Y1052932D01*
X1499720Y1052937D01*
X1499269Y1054208D01*
X1499262Y1054213D01*
X1499264Y1054218D01*
X1498542Y1055357D01*
X1498534Y1055360D01*
X1498535Y1055366D01*
X1497577Y1056316D01*
X1497569Y1056317D01*
X1497568Y1056323D01*
X1496423Y1057036D01*
X1496415Y1057035D01*
X1496413Y1057041D01*
X1495137Y1057481D01*
X1495130Y1057479D01*
X1495127Y1057483D01*
X1493785Y1057629D01*
X1493782Y1057627D01*
X1493780Y1057629D01*
X1487780Y1057629D01*
X1487777Y1057627D01*
X1487774Y1057629D01*
X1486445Y1057474D01*
X1486439Y1057468D01*
X1486435Y1057471D01*
X1485174Y1057024D01*
X1485169Y1057017D01*
X1485164Y1057019D01*
X1484034Y1056302D01*
X1484031Y1056295D01*
X1484025Y1056296D01*
X1483083Y1055346D01*
X1483082Y1055337D01*
X1483076Y1055337D01*
X1482369Y1054201D01*
X1482370Y1054193D01*
X1482364Y1054191D01*
X1481928Y1052926D01*
X1481930Y1052918D01*
X1481925Y1052916D01*
X1481781Y1051585D01*
X1481785Y1051579D01*
X1481781Y1051575D01*
X1481891Y1050409D01*
X1481896Y1050404D01*
X1481893Y1050400D01*
X1482228Y1049277D01*
X1482234Y1049273D01*
X1482232Y1049269D01*
X1482780Y1048233D01*
X1482786Y1048230D01*
X1482785Y1048225D01*
X1483524Y1047317D01*
X1483531Y1047315D01*
X1483531Y1047310D01*
X1484433Y1046563D01*
X1484441Y1046563D01*
X1484441Y1046558D01*
X1485472Y1046001D01*
X1485479Y1046002D01*
X1485481Y1045997D01*
X1486600Y1045653D01*
X1486607Y1045655D01*
X1486610Y1045651D01*
X1487775Y1045531D01*
X1487778Y1045533D01*
X1487780Y1045531D01*
X1493780Y1045531D01*
X1493783Y1045533D01*
G37*
G36*
X15503Y1045533D02*
X15503Y1045533D01*
X15505Y1045531D01*
X16681Y1045642D01*
X16686Y1045647D01*
X16690Y1045644D01*
X17822Y1045982D01*
X17826Y1045988D01*
X17831Y1045986D01*
X18875Y1046538D01*
X18878Y1046545D01*
X18883Y1046543D01*
X19799Y1047289D01*
X19800Y1047296D01*
X19806Y1047296D01*
X20559Y1048206D01*
X20559Y1048213D01*
X20564Y1048214D01*
X21125Y1049253D01*
X21124Y1049258D01*
X21128Y1049260D01*
X21127Y1049261D01*
X21129Y1049262D01*
X21476Y1050391D01*
X21476Y1050392D01*
X21477Y1050393D01*
X21474Y1050397D01*
X21478Y1050400D01*
X21599Y1051575D01*
X21595Y1051582D01*
X21599Y1051586D01*
X21442Y1052926D01*
X21437Y1052932D01*
X21440Y1052937D01*
X20989Y1054208D01*
X20982Y1054213D01*
X20984Y1054218D01*
X20262Y1055357D01*
X20254Y1055360D01*
X20255Y1055366D01*
X19297Y1056316D01*
X19289Y1056317D01*
X19288Y1056323D01*
X18143Y1057036D01*
X18135Y1057035D01*
X18133Y1057041D01*
X16857Y1057481D01*
X16850Y1057479D01*
X16847Y1057483D01*
X15505Y1057629D01*
X15502Y1057627D01*
X15500Y1057629D01*
X9500Y1057629D01*
X9497Y1057627D01*
X9494Y1057629D01*
X8165Y1057474D01*
X8159Y1057468D01*
X8155Y1057471D01*
X6894Y1057024D01*
X6889Y1057017D01*
X6884Y1057019D01*
X5754Y1056302D01*
X5751Y1056295D01*
X5745Y1056296D01*
X4803Y1055346D01*
X4802Y1055337D01*
X4796Y1055337D01*
X4089Y1054201D01*
X4090Y1054193D01*
X4084Y1054191D01*
X3648Y1052926D01*
X3650Y1052918D01*
X3645Y1052916D01*
X3501Y1051585D01*
X3505Y1051579D01*
X3501Y1051575D01*
X3611Y1050409D01*
X3616Y1050404D01*
X3613Y1050400D01*
X3948Y1049277D01*
X3954Y1049273D01*
X3952Y1049269D01*
X4500Y1048233D01*
X4506Y1048230D01*
X4505Y1048225D01*
X5244Y1047317D01*
X5251Y1047315D01*
X5251Y1047310D01*
X6153Y1046563D01*
X6161Y1046563D01*
X6161Y1046558D01*
X7192Y1046001D01*
X7199Y1046002D01*
X7201Y1045997D01*
X8320Y1045653D01*
X8327Y1045655D01*
X8330Y1045651D01*
X9495Y1045531D01*
X9498Y1045533D01*
X9500Y1045531D01*
X15500Y1045531D01*
X15503Y1045533D01*
G37*
G36*
X15503Y456253D02*
X15503Y456253D01*
X15505Y456251D01*
X16681Y456362D01*
X16686Y456367D01*
X16690Y456364D01*
X17822Y456702D01*
X17826Y456708D01*
X17831Y456706D01*
X18875Y457258D01*
X18878Y457265D01*
X18883Y457263D01*
X19799Y458009D01*
X19800Y458016D01*
X19806Y458016D01*
X20559Y458926D01*
X20559Y458933D01*
X20564Y458934D01*
X21125Y459973D01*
X21124Y459978D01*
X21128Y459980D01*
X21127Y459981D01*
X21129Y459982D01*
X21476Y461111D01*
X21476Y461112D01*
X21477Y461113D01*
X21474Y461117D01*
X21478Y461120D01*
X21599Y462295D01*
X21595Y462302D01*
X21599Y462306D01*
X21442Y463646D01*
X21437Y463652D01*
X21440Y463657D01*
X20989Y464928D01*
X20982Y464933D01*
X20984Y464938D01*
X20262Y466077D01*
X20254Y466080D01*
X20255Y466086D01*
X19297Y467036D01*
X19289Y467037D01*
X19288Y467043D01*
X18143Y467756D01*
X18135Y467755D01*
X18133Y467761D01*
X16857Y468201D01*
X16850Y468199D01*
X16847Y468203D01*
X15505Y468349D01*
X15502Y468347D01*
X15500Y468349D01*
X9500Y468349D01*
X9497Y468347D01*
X9494Y468349D01*
X8165Y468194D01*
X8159Y468188D01*
X8155Y468191D01*
X6894Y467744D01*
X6889Y467737D01*
X6884Y467739D01*
X5754Y467022D01*
X5751Y467015D01*
X5745Y467016D01*
X4803Y466066D01*
X4802Y466057D01*
X4796Y466057D01*
X4089Y464921D01*
X4090Y464913D01*
X4084Y464911D01*
X3648Y463646D01*
X3650Y463638D01*
X3645Y463636D01*
X3501Y462305D01*
X3505Y462299D01*
X3501Y462295D01*
X3611Y461129D01*
X3616Y461124D01*
X3613Y461120D01*
X3948Y459997D01*
X3954Y459993D01*
X3952Y459989D01*
X4500Y458953D01*
X4506Y458950D01*
X4505Y458945D01*
X5244Y458037D01*
X5251Y458035D01*
X5251Y458030D01*
X6153Y457283D01*
X6161Y457283D01*
X6161Y457278D01*
X7192Y456721D01*
X7199Y456722D01*
X7201Y456717D01*
X8320Y456373D01*
X8327Y456375D01*
X8330Y456371D01*
X9495Y456251D01*
X9498Y456253D01*
X9500Y456251D01*
X15500Y456251D01*
X15503Y456253D01*
G37*
G36*
X1493783Y456253D02*
X1493783Y456253D01*
X1493785Y456251D01*
X1494961Y456362D01*
X1494966Y456367D01*
X1494970Y456364D01*
X1496102Y456702D01*
X1496106Y456708D01*
X1496111Y456706D01*
X1497155Y457258D01*
X1497158Y457265D01*
X1497163Y457263D01*
X1498079Y458009D01*
X1498080Y458016D01*
X1498086Y458016D01*
X1498839Y458926D01*
X1498839Y458933D01*
X1498844Y458934D01*
X1499405Y459973D01*
X1499404Y459978D01*
X1499408Y459980D01*
X1499407Y459981D01*
X1499409Y459982D01*
X1499756Y461111D01*
X1499756Y461112D01*
X1499757Y461113D01*
X1499754Y461117D01*
X1499758Y461120D01*
X1499879Y462295D01*
X1499875Y462302D01*
X1499879Y462306D01*
X1499722Y463646D01*
X1499717Y463652D01*
X1499720Y463657D01*
X1499269Y464928D01*
X1499262Y464933D01*
X1499264Y464938D01*
X1498542Y466077D01*
X1498534Y466080D01*
X1498535Y466086D01*
X1497577Y467036D01*
X1497569Y467037D01*
X1497568Y467043D01*
X1496423Y467756D01*
X1496415Y467755D01*
X1496413Y467761D01*
X1495137Y468201D01*
X1495130Y468199D01*
X1495127Y468203D01*
X1493785Y468349D01*
X1493782Y468347D01*
X1493780Y468349D01*
X1487780Y468349D01*
X1487777Y468347D01*
X1487774Y468349D01*
X1486445Y468194D01*
X1486439Y468188D01*
X1486435Y468191D01*
X1485174Y467744D01*
X1485169Y467737D01*
X1485164Y467739D01*
X1484034Y467022D01*
X1484031Y467015D01*
X1484025Y467016D01*
X1483083Y466066D01*
X1483082Y466057D01*
X1483076Y466057D01*
X1482369Y464921D01*
X1482370Y464913D01*
X1482364Y464911D01*
X1481928Y463646D01*
X1481930Y463638D01*
X1481925Y463636D01*
X1481781Y462305D01*
X1481785Y462299D01*
X1481781Y462295D01*
X1481891Y461129D01*
X1481896Y461124D01*
X1481893Y461120D01*
X1482228Y459997D01*
X1482234Y459993D01*
X1482232Y459989D01*
X1482780Y458953D01*
X1482786Y458950D01*
X1482785Y458945D01*
X1483524Y458037D01*
X1483531Y458035D01*
X1483531Y458030D01*
X1484433Y457283D01*
X1484441Y457283D01*
X1484441Y457278D01*
X1485472Y456721D01*
X1485479Y456722D01*
X1485481Y456717D01*
X1486600Y456373D01*
X1486607Y456375D01*
X1486610Y456371D01*
X1487775Y456251D01*
X1487778Y456253D01*
X1487780Y456251D01*
X1493780Y456251D01*
X1493783Y456253D01*
G37*
G36*
X754643Y456253D02*
X754643Y456253D01*
X754645Y456251D01*
X755821Y456362D01*
X755826Y456367D01*
X755830Y456364D01*
X756962Y456702D01*
X756966Y456708D01*
X756971Y456706D01*
X758015Y457258D01*
X758018Y457265D01*
X758023Y457263D01*
X758939Y458009D01*
X758940Y458016D01*
X758946Y458016D01*
X759699Y458926D01*
X759699Y458933D01*
X759704Y458934D01*
X760265Y459973D01*
X760264Y459978D01*
X760268Y459980D01*
X760267Y459981D01*
X760269Y459982D01*
X760616Y461111D01*
X760616Y461112D01*
X760617Y461113D01*
X760614Y461117D01*
X760618Y461120D01*
X760739Y462295D01*
X760735Y462302D01*
X760739Y462306D01*
X760582Y463646D01*
X760577Y463652D01*
X760580Y463657D01*
X760129Y464928D01*
X760122Y464933D01*
X760124Y464938D01*
X759402Y466077D01*
X759394Y466080D01*
X759395Y466086D01*
X758437Y467036D01*
X758429Y467037D01*
X758428Y467043D01*
X757283Y467756D01*
X757275Y467755D01*
X757273Y467761D01*
X755997Y468201D01*
X755990Y468199D01*
X755987Y468203D01*
X754645Y468349D01*
X754642Y468347D01*
X754640Y468349D01*
X748640Y468349D01*
X748637Y468347D01*
X748634Y468349D01*
X747305Y468194D01*
X747299Y468188D01*
X747295Y468191D01*
X746034Y467744D01*
X746029Y467737D01*
X746024Y467739D01*
X744894Y467022D01*
X744891Y467015D01*
X744885Y467016D01*
X743943Y466066D01*
X743942Y466057D01*
X743936Y466057D01*
X743229Y464921D01*
X743230Y464913D01*
X743224Y464911D01*
X742788Y463646D01*
X742790Y463638D01*
X742785Y463636D01*
X742641Y462305D01*
X742645Y462299D01*
X742641Y462295D01*
X742751Y461129D01*
X742756Y461124D01*
X742753Y461120D01*
X743088Y459997D01*
X743094Y459993D01*
X743092Y459989D01*
X743640Y458953D01*
X743646Y458950D01*
X743645Y458945D01*
X744384Y458037D01*
X744391Y458035D01*
X744391Y458030D01*
X745293Y457283D01*
X745301Y457283D01*
X745301Y457278D01*
X746332Y456721D01*
X746339Y456722D01*
X746341Y456717D01*
X747460Y456373D01*
X747467Y456375D01*
X747470Y456371D01*
X748635Y456251D01*
X748638Y456253D01*
X748640Y456251D01*
X754640Y456251D01*
X754643Y456253D01*
G37*
G36*
X754643Y369853D02*
X754643Y369853D01*
X754645Y369851D01*
X755821Y369962D01*
X755826Y369967D01*
X755830Y369964D01*
X756962Y370302D01*
X756966Y370308D01*
X756971Y370306D01*
X758015Y370858D01*
X758018Y370865D01*
X758023Y370863D01*
X758939Y371609D01*
X758940Y371616D01*
X758946Y371616D01*
X759699Y372526D01*
X759699Y372533D01*
X759704Y372534D01*
X760265Y373573D01*
X760264Y373578D01*
X760268Y373580D01*
X760267Y373581D01*
X760269Y373582D01*
X760616Y374711D01*
X760616Y374712D01*
X760617Y374713D01*
X760614Y374717D01*
X760618Y374720D01*
X760739Y375895D01*
X760735Y375902D01*
X760739Y375906D01*
X760582Y377246D01*
X760577Y377252D01*
X760580Y377257D01*
X760129Y378528D01*
X760122Y378533D01*
X760124Y378538D01*
X759402Y379677D01*
X759394Y379680D01*
X759395Y379686D01*
X758437Y380636D01*
X758429Y380637D01*
X758428Y380643D01*
X757283Y381356D01*
X757275Y381355D01*
X757273Y381361D01*
X755997Y381801D01*
X755990Y381799D01*
X755987Y381803D01*
X754645Y381949D01*
X754642Y381947D01*
X754640Y381949D01*
X748640Y381949D01*
X748637Y381947D01*
X748634Y381949D01*
X747305Y381794D01*
X747299Y381788D01*
X747295Y381791D01*
X746034Y381344D01*
X746029Y381337D01*
X746024Y381339D01*
X744894Y380622D01*
X744891Y380615D01*
X744885Y380616D01*
X743943Y379666D01*
X743942Y379657D01*
X743936Y379657D01*
X743229Y378521D01*
X743230Y378513D01*
X743224Y378511D01*
X742788Y377246D01*
X742790Y377238D01*
X742785Y377236D01*
X742641Y375905D01*
X742645Y375899D01*
X742641Y375895D01*
X742751Y374729D01*
X742756Y374724D01*
X742753Y374720D01*
X743088Y373597D01*
X743094Y373593D01*
X743092Y373589D01*
X743640Y372553D01*
X743646Y372550D01*
X743645Y372545D01*
X744384Y371637D01*
X744391Y371635D01*
X744391Y371630D01*
X745293Y370883D01*
X745301Y370883D01*
X745301Y370878D01*
X746332Y370321D01*
X746339Y370322D01*
X746341Y370317D01*
X747460Y369973D01*
X747467Y369975D01*
X747470Y369971D01*
X748635Y369851D01*
X748638Y369853D01*
X748640Y369851D01*
X754640Y369851D01*
X754643Y369853D01*
G37*
G36*
X15503Y369853D02*
X15503Y369853D01*
X15505Y369851D01*
X16681Y369962D01*
X16686Y369967D01*
X16690Y369964D01*
X17822Y370302D01*
X17826Y370308D01*
X17831Y370306D01*
X18875Y370858D01*
X18878Y370865D01*
X18883Y370863D01*
X19799Y371609D01*
X19800Y371616D01*
X19806Y371616D01*
X20559Y372526D01*
X20559Y372533D01*
X20564Y372534D01*
X21125Y373573D01*
X21124Y373578D01*
X21128Y373580D01*
X21127Y373581D01*
X21129Y373582D01*
X21476Y374711D01*
X21476Y374712D01*
X21477Y374713D01*
X21474Y374717D01*
X21478Y374720D01*
X21599Y375895D01*
X21595Y375902D01*
X21599Y375906D01*
X21442Y377246D01*
X21437Y377252D01*
X21440Y377257D01*
X20989Y378528D01*
X20982Y378533D01*
X20984Y378538D01*
X20262Y379677D01*
X20254Y379680D01*
X20255Y379686D01*
X19297Y380636D01*
X19289Y380637D01*
X19288Y380643D01*
X18143Y381356D01*
X18135Y381355D01*
X18133Y381361D01*
X16857Y381801D01*
X16850Y381799D01*
X16847Y381803D01*
X15505Y381949D01*
X15502Y381947D01*
X15500Y381949D01*
X9500Y381949D01*
X9497Y381947D01*
X9494Y381949D01*
X8165Y381794D01*
X8159Y381788D01*
X8155Y381791D01*
X6894Y381344D01*
X6889Y381337D01*
X6884Y381339D01*
X5754Y380622D01*
X5751Y380615D01*
X5745Y380616D01*
X4803Y379666D01*
X4802Y379657D01*
X4796Y379657D01*
X4089Y378521D01*
X4090Y378513D01*
X4084Y378511D01*
X3648Y377246D01*
X3650Y377238D01*
X3645Y377236D01*
X3501Y375905D01*
X3505Y375899D01*
X3501Y375895D01*
X3611Y374729D01*
X3616Y374724D01*
X3613Y374720D01*
X3948Y373597D01*
X3954Y373593D01*
X3952Y373589D01*
X4500Y372553D01*
X4506Y372550D01*
X4505Y372545D01*
X5244Y371637D01*
X5251Y371635D01*
X5251Y371630D01*
X6153Y370883D01*
X6161Y370883D01*
X6161Y370878D01*
X7192Y370321D01*
X7199Y370322D01*
X7201Y370317D01*
X8320Y369973D01*
X8327Y369975D01*
X8330Y369971D01*
X9495Y369851D01*
X9498Y369853D01*
X9500Y369851D01*
X15500Y369851D01*
X15503Y369853D01*
G37*
G36*
X1493783Y369853D02*
X1493783Y369853D01*
X1493785Y369851D01*
X1494961Y369962D01*
X1494966Y369967D01*
X1494970Y369964D01*
X1496102Y370302D01*
X1496106Y370308D01*
X1496111Y370306D01*
X1497155Y370858D01*
X1497158Y370865D01*
X1497163Y370863D01*
X1498079Y371609D01*
X1498080Y371616D01*
X1498086Y371616D01*
X1498839Y372526D01*
X1498839Y372533D01*
X1498844Y372534D01*
X1499405Y373573D01*
X1499404Y373578D01*
X1499408Y373580D01*
X1499407Y373581D01*
X1499409Y373582D01*
X1499756Y374711D01*
X1499756Y374712D01*
X1499757Y374713D01*
X1499754Y374717D01*
X1499758Y374720D01*
X1499879Y375895D01*
X1499875Y375902D01*
X1499879Y375906D01*
X1499722Y377246D01*
X1499717Y377252D01*
X1499720Y377257D01*
X1499269Y378528D01*
X1499262Y378533D01*
X1499264Y378538D01*
X1498542Y379677D01*
X1498534Y379680D01*
X1498535Y379686D01*
X1497577Y380636D01*
X1497569Y380637D01*
X1497568Y380643D01*
X1496423Y381356D01*
X1496415Y381355D01*
X1496413Y381361D01*
X1495137Y381801D01*
X1495130Y381799D01*
X1495127Y381803D01*
X1493785Y381949D01*
X1493782Y381947D01*
X1493780Y381949D01*
X1487780Y381949D01*
X1487777Y381947D01*
X1487774Y381949D01*
X1486445Y381794D01*
X1486439Y381788D01*
X1486435Y381791D01*
X1485174Y381344D01*
X1485169Y381337D01*
X1485164Y381339D01*
X1484034Y380622D01*
X1484031Y380615D01*
X1484025Y380616D01*
X1483083Y379666D01*
X1483082Y379657D01*
X1483076Y379657D01*
X1482369Y378521D01*
X1482370Y378513D01*
X1482364Y378511D01*
X1481928Y377246D01*
X1481930Y377238D01*
X1481925Y377236D01*
X1481781Y375905D01*
X1481785Y375899D01*
X1481781Y375895D01*
X1481891Y374729D01*
X1481896Y374724D01*
X1481893Y374720D01*
X1482228Y373597D01*
X1482234Y373593D01*
X1482232Y373589D01*
X1482780Y372553D01*
X1482786Y372550D01*
X1482785Y372545D01*
X1483524Y371637D01*
X1483531Y371635D01*
X1483531Y371630D01*
X1484433Y370883D01*
X1484441Y370883D01*
X1484441Y370878D01*
X1485472Y370321D01*
X1485479Y370322D01*
X1485481Y370317D01*
X1486600Y369973D01*
X1486607Y369975D01*
X1486610Y369971D01*
X1487775Y369851D01*
X1487778Y369853D01*
X1487780Y369851D01*
X1493780Y369851D01*
X1493783Y369853D01*
G37*
G36*
X1797750Y765187D02*
X1797750Y765187D01*
X1797816Y765189D01*
X1797859Y765207D01*
X1797906Y765215D01*
X1797963Y765249D01*
X1798023Y765274D01*
X1798058Y765305D01*
X1798099Y765330D01*
X1798141Y765381D01*
X1798189Y765425D01*
X1798211Y765467D01*
X1798240Y765504D01*
X1798261Y765566D01*
X1798292Y765625D01*
X1798300Y765679D01*
X1798312Y765716D01*
X1798311Y765756D01*
X1798319Y765810D01*
X1798319Y768350D01*
X1798308Y768415D01*
X1798306Y768481D01*
X1798288Y768524D01*
X1798280Y768571D01*
X1798246Y768628D01*
X1798221Y768688D01*
X1798190Y768723D01*
X1798165Y768764D01*
X1798114Y768806D01*
X1798070Y768854D01*
X1798028Y768876D01*
X1797991Y768905D01*
X1797929Y768926D01*
X1797870Y768957D01*
X1797816Y768965D01*
X1797779Y768977D01*
X1797739Y768976D01*
X1797685Y768984D01*
X1793875Y768984D01*
X1793810Y768973D01*
X1793744Y768971D01*
X1793701Y768953D01*
X1793654Y768945D01*
X1793597Y768911D01*
X1793537Y768886D01*
X1793502Y768855D01*
X1793461Y768830D01*
X1793420Y768779D01*
X1793371Y768735D01*
X1793349Y768693D01*
X1793320Y768656D01*
X1793299Y768594D01*
X1793268Y768535D01*
X1793260Y768481D01*
X1793248Y768444D01*
X1793248Y768441D01*
X1793249Y768404D01*
X1793241Y768350D01*
X1793241Y765810D01*
X1793252Y765745D01*
X1793254Y765679D01*
X1793272Y765636D01*
X1793280Y765589D01*
X1793314Y765532D01*
X1793339Y765472D01*
X1793370Y765437D01*
X1793395Y765396D01*
X1793446Y765355D01*
X1793490Y765306D01*
X1793532Y765284D01*
X1793569Y765255D01*
X1793631Y765234D01*
X1793690Y765203D01*
X1793744Y765195D01*
X1793781Y765183D01*
X1793821Y765184D01*
X1793875Y765176D01*
X1797685Y765176D01*
X1797750Y765187D01*
G37*
G36*
X1058610Y765187D02*
X1058610Y765187D01*
X1058676Y765189D01*
X1058719Y765207D01*
X1058766Y765215D01*
X1058823Y765249D01*
X1058883Y765274D01*
X1058918Y765305D01*
X1058959Y765330D01*
X1059001Y765381D01*
X1059049Y765425D01*
X1059071Y765467D01*
X1059100Y765504D01*
X1059121Y765566D01*
X1059152Y765625D01*
X1059160Y765679D01*
X1059172Y765716D01*
X1059171Y765756D01*
X1059179Y765810D01*
X1059179Y768350D01*
X1059168Y768415D01*
X1059166Y768481D01*
X1059148Y768524D01*
X1059140Y768571D01*
X1059106Y768628D01*
X1059081Y768688D01*
X1059050Y768723D01*
X1059025Y768764D01*
X1058974Y768806D01*
X1058930Y768854D01*
X1058888Y768876D01*
X1058851Y768905D01*
X1058789Y768926D01*
X1058730Y768957D01*
X1058676Y768965D01*
X1058639Y768977D01*
X1058599Y768976D01*
X1058545Y768984D01*
X1054735Y768984D01*
X1054670Y768973D01*
X1054604Y768971D01*
X1054561Y768953D01*
X1054514Y768945D01*
X1054457Y768911D01*
X1054397Y768886D01*
X1054362Y768855D01*
X1054321Y768830D01*
X1054280Y768779D01*
X1054231Y768735D01*
X1054209Y768693D01*
X1054180Y768656D01*
X1054159Y768594D01*
X1054128Y768535D01*
X1054120Y768481D01*
X1054108Y768444D01*
X1054108Y768441D01*
X1054109Y768404D01*
X1054101Y768350D01*
X1054101Y765810D01*
X1054112Y765745D01*
X1054114Y765679D01*
X1054132Y765636D01*
X1054140Y765589D01*
X1054174Y765532D01*
X1054199Y765472D01*
X1054230Y765437D01*
X1054255Y765396D01*
X1054306Y765355D01*
X1054350Y765306D01*
X1054392Y765284D01*
X1054429Y765255D01*
X1054491Y765234D01*
X1054550Y765203D01*
X1054604Y765195D01*
X1054641Y765183D01*
X1054681Y765184D01*
X1054735Y765176D01*
X1058545Y765176D01*
X1058610Y765187D01*
G37*
G36*
X319470Y765187D02*
X319470Y765187D01*
X319536Y765189D01*
X319579Y765207D01*
X319626Y765215D01*
X319683Y765249D01*
X319743Y765274D01*
X319778Y765305D01*
X319819Y765330D01*
X319861Y765381D01*
X319909Y765425D01*
X319931Y765467D01*
X319960Y765504D01*
X319981Y765566D01*
X320012Y765625D01*
X320020Y765679D01*
X320032Y765716D01*
X320031Y765756D01*
X320039Y765810D01*
X320039Y768350D01*
X320028Y768415D01*
X320026Y768481D01*
X320008Y768524D01*
X320000Y768571D01*
X319966Y768628D01*
X319941Y768688D01*
X319910Y768723D01*
X319885Y768764D01*
X319834Y768806D01*
X319790Y768854D01*
X319748Y768876D01*
X319711Y768905D01*
X319649Y768926D01*
X319590Y768957D01*
X319536Y768965D01*
X319499Y768977D01*
X319459Y768976D01*
X319405Y768984D01*
X315595Y768984D01*
X315530Y768973D01*
X315464Y768971D01*
X315421Y768953D01*
X315374Y768945D01*
X315317Y768911D01*
X315257Y768886D01*
X315222Y768855D01*
X315181Y768830D01*
X315140Y768779D01*
X315091Y768735D01*
X315069Y768693D01*
X315040Y768656D01*
X315019Y768594D01*
X314988Y768535D01*
X314980Y768481D01*
X314968Y768444D01*
X314968Y768441D01*
X314969Y768404D01*
X314961Y768350D01*
X314961Y765810D01*
X314972Y765745D01*
X314974Y765679D01*
X314992Y765636D01*
X315000Y765589D01*
X315034Y765532D01*
X315059Y765472D01*
X315090Y765437D01*
X315115Y765396D01*
X315166Y765355D01*
X315210Y765306D01*
X315252Y765284D01*
X315289Y765255D01*
X315351Y765234D01*
X315410Y765203D01*
X315464Y765195D01*
X315501Y765183D01*
X315541Y765184D01*
X315595Y765176D01*
X319405Y765176D01*
X319470Y765187D01*
G37*
G36*
X319470Y175907D02*
X319470Y175907D01*
X319536Y175909D01*
X319579Y175927D01*
X319626Y175935D01*
X319683Y175969D01*
X319743Y175994D01*
X319778Y176025D01*
X319819Y176050D01*
X319861Y176101D01*
X319909Y176145D01*
X319931Y176187D01*
X319960Y176224D01*
X319981Y176286D01*
X320012Y176345D01*
X320020Y176399D01*
X320032Y176436D01*
X320031Y176476D01*
X320039Y176530D01*
X320039Y179070D01*
X320028Y179135D01*
X320026Y179201D01*
X320008Y179244D01*
X320000Y179291D01*
X319966Y179348D01*
X319941Y179408D01*
X319910Y179443D01*
X319885Y179484D01*
X319834Y179526D01*
X319790Y179574D01*
X319748Y179596D01*
X319711Y179625D01*
X319649Y179646D01*
X319590Y179677D01*
X319536Y179685D01*
X319499Y179697D01*
X319459Y179696D01*
X319405Y179704D01*
X315595Y179704D01*
X315530Y179693D01*
X315464Y179691D01*
X315421Y179673D01*
X315374Y179665D01*
X315317Y179631D01*
X315257Y179606D01*
X315222Y179575D01*
X315181Y179550D01*
X315140Y179499D01*
X315091Y179455D01*
X315069Y179413D01*
X315040Y179376D01*
X315019Y179314D01*
X314988Y179255D01*
X314980Y179201D01*
X314968Y179164D01*
X314968Y179161D01*
X314969Y179124D01*
X314961Y179070D01*
X314961Y176530D01*
X314972Y176465D01*
X314974Y176399D01*
X314992Y176356D01*
X315000Y176309D01*
X315034Y176252D01*
X315059Y176192D01*
X315090Y176157D01*
X315115Y176116D01*
X315166Y176075D01*
X315210Y176026D01*
X315252Y176004D01*
X315289Y175975D01*
X315351Y175954D01*
X315410Y175923D01*
X315464Y175915D01*
X315501Y175903D01*
X315541Y175904D01*
X315595Y175896D01*
X319405Y175896D01*
X319470Y175907D01*
G37*
G36*
X1797750Y175907D02*
X1797750Y175907D01*
X1797816Y175909D01*
X1797859Y175927D01*
X1797906Y175935D01*
X1797963Y175969D01*
X1798023Y175994D01*
X1798058Y176025D01*
X1798099Y176050D01*
X1798141Y176101D01*
X1798189Y176145D01*
X1798211Y176187D01*
X1798240Y176224D01*
X1798261Y176286D01*
X1798292Y176345D01*
X1798300Y176399D01*
X1798312Y176436D01*
X1798311Y176476D01*
X1798319Y176530D01*
X1798319Y179070D01*
X1798308Y179135D01*
X1798306Y179201D01*
X1798288Y179244D01*
X1798280Y179291D01*
X1798246Y179348D01*
X1798221Y179408D01*
X1798190Y179443D01*
X1798165Y179484D01*
X1798114Y179526D01*
X1798070Y179574D01*
X1798028Y179596D01*
X1797991Y179625D01*
X1797929Y179646D01*
X1797870Y179677D01*
X1797816Y179685D01*
X1797779Y179697D01*
X1797739Y179696D01*
X1797685Y179704D01*
X1793875Y179704D01*
X1793810Y179693D01*
X1793744Y179691D01*
X1793701Y179673D01*
X1793654Y179665D01*
X1793597Y179631D01*
X1793537Y179606D01*
X1793502Y179575D01*
X1793461Y179550D01*
X1793420Y179499D01*
X1793371Y179455D01*
X1793349Y179413D01*
X1793320Y179376D01*
X1793299Y179314D01*
X1793268Y179255D01*
X1793260Y179201D01*
X1793248Y179164D01*
X1793248Y179161D01*
X1793249Y179124D01*
X1793241Y179070D01*
X1793241Y176530D01*
X1793252Y176465D01*
X1793254Y176399D01*
X1793272Y176356D01*
X1793280Y176309D01*
X1793314Y176252D01*
X1793339Y176192D01*
X1793370Y176157D01*
X1793395Y176116D01*
X1793446Y176075D01*
X1793490Y176026D01*
X1793532Y176004D01*
X1793569Y175975D01*
X1793631Y175954D01*
X1793690Y175923D01*
X1793744Y175915D01*
X1793781Y175903D01*
X1793821Y175904D01*
X1793875Y175896D01*
X1797685Y175896D01*
X1797750Y175907D01*
G37*
G36*
X1058610Y175907D02*
X1058610Y175907D01*
X1058676Y175909D01*
X1058719Y175927D01*
X1058766Y175935D01*
X1058823Y175969D01*
X1058883Y175994D01*
X1058918Y176025D01*
X1058959Y176050D01*
X1059001Y176101D01*
X1059049Y176145D01*
X1059071Y176187D01*
X1059100Y176224D01*
X1059121Y176286D01*
X1059152Y176345D01*
X1059160Y176399D01*
X1059172Y176436D01*
X1059171Y176476D01*
X1059179Y176530D01*
X1059179Y179070D01*
X1059168Y179135D01*
X1059166Y179201D01*
X1059148Y179244D01*
X1059140Y179291D01*
X1059106Y179348D01*
X1059081Y179408D01*
X1059050Y179443D01*
X1059025Y179484D01*
X1058974Y179526D01*
X1058930Y179574D01*
X1058888Y179596D01*
X1058851Y179625D01*
X1058789Y179646D01*
X1058730Y179677D01*
X1058676Y179685D01*
X1058639Y179697D01*
X1058599Y179696D01*
X1058545Y179704D01*
X1054735Y179704D01*
X1054670Y179693D01*
X1054604Y179691D01*
X1054561Y179673D01*
X1054514Y179665D01*
X1054457Y179631D01*
X1054397Y179606D01*
X1054362Y179575D01*
X1054321Y179550D01*
X1054280Y179499D01*
X1054231Y179455D01*
X1054209Y179413D01*
X1054180Y179376D01*
X1054159Y179314D01*
X1054128Y179255D01*
X1054120Y179201D01*
X1054108Y179164D01*
X1054108Y179161D01*
X1054109Y179124D01*
X1054101Y179070D01*
X1054101Y176530D01*
X1054112Y176465D01*
X1054114Y176399D01*
X1054132Y176356D01*
X1054140Y176309D01*
X1054174Y176252D01*
X1054199Y176192D01*
X1054230Y176157D01*
X1054255Y176116D01*
X1054306Y176075D01*
X1054350Y176026D01*
X1054392Y176004D01*
X1054429Y175975D01*
X1054491Y175954D01*
X1054550Y175923D01*
X1054604Y175915D01*
X1054641Y175903D01*
X1054681Y175904D01*
X1054735Y175896D01*
X1058545Y175896D01*
X1058610Y175907D01*
G37*
D10*
X207400Y361950D03*
X224400Y361950D03*
X385200Y172720D03*
X402200Y172720D03*
X168520Y482600D03*
X151520Y482600D03*
X509660Y247650D03*
X526660Y247650D03*
D11*
X217200Y160020D03*
X189200Y160020D03*
D10*
X93100Y287020D03*
X110100Y287020D03*
D12*
X215900Y107820D03*
X215900Y59820D03*
D13*
X38100Y301870D03*
X38100Y284870D03*
D14*
X53500Y304140D03*
X53500Y285140D03*
X74500Y294640D03*
D10*
X182000Y447040D03*
X199000Y447040D03*
X26280Y321310D03*
X9280Y321310D03*
D15*
X106400Y218593D03*
X106400Y241300D03*
X106400Y264185D03*
D16*
X46990Y241300D03*
D10*
X141850Y198120D03*
X124850Y198120D03*
X124850Y223520D03*
X141850Y223520D03*
D17*
X139700Y50800D03*
X660400Y101600D03*
X660400Y381000D03*
X152400Y533400D03*
D18*
X659130Y68580D03*
X114300Y546100D03*
D10*
X93100Y302260D03*
X110100Y302260D03*
D11*
X120680Y330200D03*
X92680Y330200D03*
D19*
X340360Y516900D03*
X289560Y516900D03*
X238760Y516900D03*
X365760Y549900D03*
X314960Y549900D03*
X264160Y549900D03*
X213360Y549900D03*
X187960Y549900D03*
X213360Y516900D03*
X238760Y549900D03*
X264160Y516900D03*
X289560Y549900D03*
X314960Y516900D03*
X340360Y549900D03*
X365760Y516900D03*
X187960Y516900D03*
X391160Y549900D03*
X416560Y549900D03*
X391160Y516900D03*
X416560Y516900D03*
X304800Y67300D03*
X355600Y67300D03*
X406400Y67300D03*
X279400Y34300D03*
X330200Y34300D03*
X381000Y34300D03*
X431800Y34300D03*
X457200Y34300D03*
X431800Y67300D03*
X406400Y34300D03*
X381000Y67300D03*
X355600Y34300D03*
X330200Y67300D03*
X304800Y34300D03*
X279400Y67300D03*
X457200Y67300D03*
D11*
X189200Y248920D03*
X217200Y248920D03*
D20*
X378700Y152400D03*
X408700Y152400D03*
X230900Y381000D03*
X200900Y381000D03*
D21*
X160020Y87720D03*
X160020Y130720D03*
D19*
X482600Y549900D03*
X533400Y549900D03*
X584200Y549900D03*
X457200Y516900D03*
X508000Y516900D03*
X558800Y516900D03*
X609600Y516900D03*
X635000Y516900D03*
X609600Y549900D03*
X584200Y516900D03*
X558800Y549900D03*
X533400Y516900D03*
X508000Y549900D03*
X482600Y516900D03*
X457200Y549900D03*
X635000Y549900D03*
X609600Y34300D03*
X558800Y34300D03*
X508000Y34300D03*
X635000Y67300D03*
X584200Y67300D03*
X533400Y67300D03*
X508000Y67300D03*
X533400Y34300D03*
X558800Y67300D03*
X584200Y34300D03*
X609600Y67300D03*
X635000Y34300D03*
D22*
X20320Y168760D03*
X20320Y54760D03*
X81320Y168760D03*
X81320Y54760D03*
D23*
X20320Y111760D03*
X66040Y111760D03*
D24*
X190199Y212700D03*
X190199Y203200D03*
X190199Y193700D03*
X216201Y193700D03*
X216201Y212700D03*
D10*
X211700Y228600D03*
X194700Y228600D03*
X118500Y355600D03*
X135500Y355600D03*
D20*
X230900Y304800D03*
X200900Y304800D03*
D10*
X224400Y285750D03*
X207400Y285750D03*
X135500Y482600D03*
X118500Y482600D03*
X224400Y323850D03*
X207400Y323850D03*
D20*
X230900Y342900D03*
X200900Y342900D03*
D25*
X671750Y162500D03*
X671750Y218500D03*
D26*
X635000Y175500D03*
X635000Y185500D03*
X635000Y195500D03*
X635000Y205500D03*
D27*
X65040Y411600D03*
X65040Y416600D03*
D28*
X65040Y386850D03*
D29*
X65040Y394600D03*
D27*
X65040Y401600D03*
X65040Y406600D03*
X65040Y426600D03*
X65040Y421600D03*
D28*
X65040Y451350D03*
D29*
X65040Y443600D03*
D27*
X65040Y436600D03*
X65040Y431600D03*
D30*
X49050Y448000D03*
X49050Y390200D03*
D31*
X99000Y463550D03*
X99000Y450850D03*
X99000Y438150D03*
X99000Y425450D03*
X99000Y412750D03*
X99000Y400050D03*
X99000Y387350D03*
X99000Y374650D03*
X155000Y374650D03*
X155000Y387350D03*
X155000Y400050D03*
X155000Y412750D03*
X155000Y425450D03*
X155000Y438150D03*
X155000Y450850D03*
X155000Y463550D03*
D10*
X9280Y339090D03*
X26280Y339090D03*
X102480Y482600D03*
X85480Y482600D03*
D32*
X78740Y501650D03*
X22860Y501650D03*
X78740Y539750D03*
X22860Y539750D03*
D33*
X87630Y358394D03*
X87630Y350266D03*
D34*
X42150Y330200D03*
X72150Y330200D03*
D18*
X457200Y367030D03*
X469900Y367030D03*
X482600Y367030D03*
X495300Y367030D03*
X444500Y367030D03*
X457200Y379730D03*
X469900Y379730D03*
X482600Y379730D03*
X495300Y379730D03*
X444500Y379730D03*
D10*
X182000Y401320D03*
X199000Y401320D03*
X182000Y416560D03*
X199000Y416560D03*
X526660Y232410D03*
X509660Y232410D03*
X526660Y215900D03*
X509660Y215900D03*
D35*
X254000Y202000D03*
X254000Y179000D03*
D10*
X199000Y431800D03*
X182000Y431800D03*
D36*
X330200Y215900D03*
X304800Y215900D03*
D37*
X312420Y177800D03*
X322580Y177800D03*
D38*
X518160Y275790D03*
X518160Y300790D03*
D10*
X509660Y313690D03*
X526660Y313690D03*
X509660Y262890D03*
X526660Y262890D03*
D36*
X127000Y508000D03*
X101600Y508000D03*
D10*
X151520Y497840D03*
X168520Y497840D03*
D13*
X554990Y194700D03*
X554990Y211700D03*
D39*
X581200Y212200D03*
D40*
X594200Y203200D03*
D39*
X571200Y212200D03*
X571200Y194200D03*
X581200Y194200D03*
D41*
X587575Y203200D02*
X587577Y203363D01*
X587583Y203525D01*
X587593Y203687D01*
X587607Y203849D01*
X587625Y204011D01*
X587647Y204172D01*
X587673Y204333D01*
X587702Y204492D01*
X587736Y204652D01*
X587774Y204810D01*
X587815Y204967D01*
X587860Y205123D01*
X587909Y205278D01*
X587962Y205432D01*
X588019Y205584D01*
X588079Y205735D01*
X588143Y205885D01*
X588211Y206033D01*
X588282Y206179D01*
X588357Y206323D01*
X588436Y206465D01*
X588518Y206606D01*
X588603Y206744D01*
X588692Y206881D01*
X588784Y207015D01*
X588879Y207147D01*
X588977Y207276D01*
X589079Y207403D01*
X589183Y207527D01*
X589291Y207649D01*
X589402Y207768D01*
X589515Y207885D01*
X589632Y207998D01*
X589751Y208109D01*
X589873Y208217D01*
X589997Y208321D01*
X590124Y208423D01*
X590253Y208521D01*
X590385Y208616D01*
X590519Y208708D01*
X590656Y208797D01*
X590794Y208882D01*
X590935Y208964D01*
X591077Y209043D01*
X591221Y209118D01*
X591367Y209189D01*
X591515Y209257D01*
X591665Y209321D01*
X591816Y209381D01*
X591968Y209438D01*
X592122Y209491D01*
X592277Y209540D01*
X592433Y209585D01*
X592590Y209626D01*
X592748Y209664D01*
X592908Y209698D01*
X593067Y209727D01*
X593228Y209753D01*
X593389Y209775D01*
X593551Y209793D01*
X593713Y209807D01*
X593875Y209817D01*
X594037Y209823D01*
X594200Y209825D01*
X594363Y209823D01*
X594525Y209817D01*
X594687Y209807D01*
X594849Y209793D01*
X595011Y209775D01*
X595172Y209753D01*
X595333Y209727D01*
X595492Y209698D01*
X595652Y209664D01*
X595810Y209626D01*
X595967Y209585D01*
X596123Y209540D01*
X596278Y209491D01*
X596432Y209438D01*
X596584Y209381D01*
X596735Y209321D01*
X596885Y209257D01*
X597033Y209189D01*
X597179Y209118D01*
X597323Y209043D01*
X597465Y208964D01*
X597606Y208882D01*
X597744Y208797D01*
X597881Y208708D01*
X598015Y208616D01*
X598147Y208521D01*
X598276Y208423D01*
X598403Y208321D01*
X598527Y208217D01*
X598649Y208109D01*
X598768Y207998D01*
X598885Y207885D01*
X598998Y207768D01*
X599109Y207649D01*
X599217Y207527D01*
X599321Y207403D01*
X599423Y207276D01*
X599521Y207147D01*
X599616Y207015D01*
X599708Y206881D01*
X599797Y206744D01*
X599882Y206606D01*
X599964Y206465D01*
X600043Y206323D01*
X600118Y206179D01*
X600189Y206033D01*
X600257Y205885D01*
X600321Y205735D01*
X600381Y205584D01*
X600438Y205432D01*
X600491Y205278D01*
X600540Y205123D01*
X600585Y204967D01*
X600626Y204810D01*
X600664Y204652D01*
X600698Y204492D01*
X600727Y204333D01*
X600753Y204172D01*
X600775Y204011D01*
X600793Y203849D01*
X600807Y203687D01*
X600817Y203525D01*
X600823Y203363D01*
X600825Y203200D01*
X600823Y203037D01*
X600817Y202875D01*
X600807Y202713D01*
X600793Y202551D01*
X600775Y202389D01*
X600753Y202228D01*
X600727Y202067D01*
X600698Y201908D01*
X600664Y201748D01*
X600626Y201590D01*
X600585Y201433D01*
X600540Y201277D01*
X600491Y201122D01*
X600438Y200968D01*
X600381Y200816D01*
X600321Y200665D01*
X600257Y200515D01*
X600189Y200367D01*
X600118Y200221D01*
X600043Y200077D01*
X599964Y199935D01*
X599882Y199794D01*
X599797Y199656D01*
X599708Y199519D01*
X599616Y199385D01*
X599521Y199253D01*
X599423Y199124D01*
X599321Y198997D01*
X599217Y198873D01*
X599109Y198751D01*
X598998Y198632D01*
X598885Y198515D01*
X598768Y198402D01*
X598649Y198291D01*
X598527Y198183D01*
X598403Y198079D01*
X598276Y197977D01*
X598147Y197879D01*
X598015Y197784D01*
X597881Y197692D01*
X597744Y197603D01*
X597606Y197518D01*
X597465Y197436D01*
X597323Y197357D01*
X597179Y197282D01*
X597033Y197211D01*
X596885Y197143D01*
X596735Y197079D01*
X596584Y197019D01*
X596432Y196962D01*
X596278Y196909D01*
X596123Y196860D01*
X595967Y196815D01*
X595810Y196774D01*
X595652Y196736D01*
X595492Y196702D01*
X595333Y196673D01*
X595172Y196647D01*
X595011Y196625D01*
X594849Y196607D01*
X594687Y196593D01*
X594525Y196583D01*
X594363Y196577D01*
X594200Y196575D01*
X594037Y196577D01*
X593875Y196583D01*
X593713Y196593D01*
X593551Y196607D01*
X593389Y196625D01*
X593228Y196647D01*
X593067Y196673D01*
X592908Y196702D01*
X592748Y196736D01*
X592590Y196774D01*
X592433Y196815D01*
X592277Y196860D01*
X592122Y196909D01*
X591968Y196962D01*
X591816Y197019D01*
X591665Y197079D01*
X591515Y197143D01*
X591367Y197211D01*
X591221Y197282D01*
X591077Y197357D01*
X590935Y197436D01*
X590794Y197518D01*
X590656Y197603D01*
X590519Y197692D01*
X590385Y197784D01*
X590253Y197879D01*
X590124Y197977D01*
X589997Y198079D01*
X589873Y198183D01*
X589751Y198291D01*
X589632Y198402D01*
X589515Y198515D01*
X589402Y198632D01*
X589291Y198751D01*
X589183Y198873D01*
X589079Y198997D01*
X588977Y199124D01*
X588879Y199253D01*
X588784Y199385D01*
X588692Y199519D01*
X588603Y199656D01*
X588518Y199794D01*
X588436Y199935D01*
X588357Y200077D01*
X588282Y200221D01*
X588211Y200367D01*
X588143Y200515D01*
X588079Y200665D01*
X588019Y200816D01*
X587962Y200968D01*
X587909Y201122D01*
X587860Y201277D01*
X587815Y201433D01*
X587774Y201590D01*
X587736Y201748D01*
X587702Y201908D01*
X587673Y202067D01*
X587647Y202228D01*
X587625Y202389D01*
X587607Y202551D01*
X587593Y202713D01*
X587583Y202875D01*
X587577Y203037D01*
X587575Y203200D01*
D42*
X600700Y203200D03*
D43*
X594200Y196700D03*
X594200Y209700D03*
D42*
X587700Y203200D03*
D44*
X650790Y337100D03*
X645790Y329100D03*
X640790Y337100D03*
X635790Y329100D03*
X630790Y337100D03*
X625790Y329100D03*
X620790Y337100D03*
X615790Y329100D03*
X610790Y337100D03*
X605790Y329100D03*
X600790Y337100D03*
X595790Y329100D03*
X590790Y337100D03*
X585790Y329100D03*
X580790Y337100D03*
X575790Y329100D03*
X570790Y337100D03*
X565790Y329100D03*
X560790Y337100D03*
X555790Y329100D03*
X550790Y337100D03*
D45*
X540790Y337100D03*
D46*
X540790Y327100D03*
X548790Y322100D03*
X540790Y317100D03*
X548790Y312100D03*
X540790Y307100D03*
X548790Y302100D03*
X540790Y297100D03*
X548790Y292100D03*
X540790Y287100D03*
X548790Y282100D03*
X540790Y277100D03*
X548790Y272100D03*
X540790Y267100D03*
X548790Y262100D03*
X540790Y257100D03*
D45*
X540790Y247100D03*
D44*
X550790Y247100D03*
X555790Y255100D03*
X560790Y247100D03*
X565790Y255100D03*
X570790Y247100D03*
X575790Y255100D03*
X580790Y247100D03*
X585790Y255100D03*
X590790Y247100D03*
X595790Y255100D03*
X600790Y247100D03*
X605790Y255100D03*
X610790Y247100D03*
X615790Y255100D03*
X620790Y247100D03*
X625790Y255100D03*
X630790Y247100D03*
X635790Y255100D03*
X640790Y247100D03*
X645790Y255100D03*
X650790Y247100D03*
D36*
X187960Y571500D03*
X213360Y571500D03*
X238760Y571500D03*
X264160Y571500D03*
X289560Y571500D03*
X314960Y571500D03*
X340360Y571500D03*
X365760Y571500D03*
X391160Y571500D03*
X416560Y571500D03*
X457200Y12700D03*
X431800Y12700D03*
X406400Y12700D03*
X381000Y12700D03*
X355600Y12700D03*
X330200Y12700D03*
X304800Y12700D03*
X279400Y12700D03*
X508000Y12700D03*
X533400Y12700D03*
X558800Y12700D03*
X584200Y12700D03*
X609600Y12700D03*
X635000Y12700D03*
X635000Y571500D03*
X609600Y571500D03*
X584200Y571500D03*
X558800Y571500D03*
X533400Y571500D03*
X508000Y571500D03*
X482600Y571500D03*
X457200Y571500D03*
D10*
X946540Y361950D03*
X963540Y361950D03*
X1124340Y172720D03*
X1141340Y172720D03*
X907660Y482600D03*
X890660Y482600D03*
X1248800Y247650D03*
X1265800Y247650D03*
D11*
X956340Y160020D03*
X928340Y160020D03*
D10*
X832240Y287020D03*
X849240Y287020D03*
D12*
X955040Y107820D03*
X955040Y59820D03*
D13*
X777240Y301870D03*
X777240Y284870D03*
D14*
X792640Y304140D03*
X792640Y285140D03*
X813640Y294640D03*
D10*
X921140Y447040D03*
X938140Y447040D03*
X765420Y321310D03*
X748420Y321310D03*
D15*
X845540Y218593D03*
X845540Y241300D03*
X845540Y264185D03*
D16*
X786130Y241300D03*
D10*
X880990Y198120D03*
X863990Y198120D03*
X863990Y223520D03*
X880990Y223520D03*
D17*
X878840Y50800D03*
X1399540Y101600D03*
X1399540Y381000D03*
X891540Y533400D03*
D18*
X1398270Y68580D03*
X853440Y546100D03*
D10*
X832240Y302260D03*
X849240Y302260D03*
D11*
X859820Y330200D03*
X831820Y330200D03*
D19*
X1079500Y516900D03*
X1028700Y516900D03*
X977900Y516900D03*
X1104900Y549900D03*
X1054100Y549900D03*
X1003300Y549900D03*
X952500Y549900D03*
X927100Y549900D03*
X952500Y516900D03*
X977900Y549900D03*
X1003300Y516900D03*
X1028700Y549900D03*
X1054100Y516900D03*
X1079500Y549900D03*
X1104900Y516900D03*
X927100Y516900D03*
X1130300Y549900D03*
X1155700Y549900D03*
X1130300Y516900D03*
X1155700Y516900D03*
X1043940Y67300D03*
X1094740Y67300D03*
X1145540Y67300D03*
X1018540Y34300D03*
X1069340Y34300D03*
X1120140Y34300D03*
X1170940Y34300D03*
X1196340Y34300D03*
X1170940Y67300D03*
X1145540Y34300D03*
X1120140Y67300D03*
X1094740Y34300D03*
X1069340Y67300D03*
X1043940Y34300D03*
X1018540Y67300D03*
X1196340Y67300D03*
D11*
X928340Y248920D03*
X956340Y248920D03*
D20*
X1117840Y152400D03*
X1147840Y152400D03*
X970040Y381000D03*
X940040Y381000D03*
D21*
X899160Y87720D03*
X899160Y130720D03*
D19*
X1221740Y549900D03*
X1272540Y549900D03*
X1323340Y549900D03*
X1196340Y516900D03*
X1247140Y516900D03*
X1297940Y516900D03*
X1348740Y516900D03*
X1374140Y516900D03*
X1348740Y549900D03*
X1323340Y516900D03*
X1297940Y549900D03*
X1272540Y516900D03*
X1247140Y549900D03*
X1221740Y516900D03*
X1196340Y549900D03*
X1374140Y549900D03*
X1348740Y34300D03*
X1297940Y34300D03*
X1247140Y34300D03*
X1374140Y67300D03*
X1323340Y67300D03*
X1272540Y67300D03*
X1247140Y67300D03*
X1272540Y34300D03*
X1297940Y67300D03*
X1323340Y34300D03*
X1348740Y67300D03*
X1374140Y34300D03*
D22*
X759460Y168760D03*
X759460Y54760D03*
X820460Y168760D03*
X820460Y54760D03*
D23*
X759460Y111760D03*
X805180Y111760D03*
D24*
X929339Y212700D03*
X929339Y203200D03*
X929339Y193700D03*
X955341Y193700D03*
X955341Y212700D03*
D10*
X950840Y228600D03*
X933840Y228600D03*
X857640Y355600D03*
X874640Y355600D03*
D20*
X970040Y304800D03*
X940040Y304800D03*
D10*
X963540Y285750D03*
X946540Y285750D03*
X874640Y482600D03*
X857640Y482600D03*
X963540Y323850D03*
X946540Y323850D03*
D20*
X970040Y342900D03*
X940040Y342900D03*
D25*
X1410890Y162500D03*
X1410890Y218500D03*
D26*
X1374140Y175500D03*
X1374140Y185500D03*
X1374140Y195500D03*
X1374140Y205500D03*
D27*
X804180Y411600D03*
X804180Y416600D03*
D28*
X804180Y386850D03*
D29*
X804180Y394600D03*
D27*
X804180Y401600D03*
X804180Y406600D03*
X804180Y426600D03*
X804180Y421600D03*
D28*
X804180Y451350D03*
D29*
X804180Y443600D03*
D27*
X804180Y436600D03*
X804180Y431600D03*
D30*
X788190Y448000D03*
X788190Y390200D03*
D31*
X838140Y463550D03*
X838140Y450850D03*
X838140Y438150D03*
X838140Y425450D03*
X838140Y412750D03*
X838140Y400050D03*
X838140Y387350D03*
X838140Y374650D03*
X894140Y374650D03*
X894140Y387350D03*
X894140Y400050D03*
X894140Y412750D03*
X894140Y425450D03*
X894140Y438150D03*
X894140Y450850D03*
X894140Y463550D03*
D10*
X748420Y339090D03*
X765420Y339090D03*
X841620Y482600D03*
X824620Y482600D03*
D32*
X817880Y501650D03*
X762000Y501650D03*
X817880Y539750D03*
X762000Y539750D03*
D33*
X826770Y358394D03*
X826770Y350266D03*
D34*
X781290Y330200D03*
X811290Y330200D03*
D18*
X1196340Y367030D03*
X1209040Y367030D03*
X1221740Y367030D03*
X1234440Y367030D03*
X1183640Y367030D03*
X1196340Y379730D03*
X1209040Y379730D03*
X1221740Y379730D03*
X1234440Y379730D03*
X1183640Y379730D03*
D10*
X921140Y401320D03*
X938140Y401320D03*
X921140Y416560D03*
X938140Y416560D03*
X1265800Y232410D03*
X1248800Y232410D03*
X1265800Y215900D03*
X1248800Y215900D03*
D35*
X993140Y202000D03*
X993140Y179000D03*
D10*
X938140Y431800D03*
X921140Y431800D03*
D36*
X1069340Y215900D03*
X1043940Y215900D03*
D37*
X1051560Y177800D03*
X1061720Y177800D03*
D38*
X1257300Y275790D03*
X1257300Y300790D03*
D10*
X1248800Y313690D03*
X1265800Y313690D03*
X1248800Y262890D03*
X1265800Y262890D03*
D36*
X866140Y508000D03*
X840740Y508000D03*
D10*
X890660Y497840D03*
X907660Y497840D03*
D13*
X1294130Y194700D03*
X1294130Y211700D03*
D39*
X1320340Y212200D03*
D40*
X1333340Y203200D03*
D39*
X1310340Y212200D03*
X1310340Y194200D03*
X1320340Y194200D03*
D41*
X1326715Y203200D02*
X1326717Y203363D01*
X1326723Y203525D01*
X1326733Y203687D01*
X1326747Y203849D01*
X1326765Y204011D01*
X1326787Y204172D01*
X1326813Y204333D01*
X1326842Y204492D01*
X1326876Y204652D01*
X1326914Y204810D01*
X1326955Y204967D01*
X1327000Y205123D01*
X1327049Y205278D01*
X1327102Y205432D01*
X1327159Y205584D01*
X1327219Y205735D01*
X1327283Y205885D01*
X1327351Y206033D01*
X1327422Y206179D01*
X1327497Y206323D01*
X1327576Y206465D01*
X1327658Y206606D01*
X1327743Y206744D01*
X1327832Y206881D01*
X1327924Y207015D01*
X1328019Y207147D01*
X1328117Y207276D01*
X1328219Y207403D01*
X1328323Y207527D01*
X1328431Y207649D01*
X1328542Y207768D01*
X1328655Y207885D01*
X1328772Y207998D01*
X1328891Y208109D01*
X1329013Y208217D01*
X1329137Y208321D01*
X1329264Y208423D01*
X1329393Y208521D01*
X1329525Y208616D01*
X1329659Y208708D01*
X1329796Y208797D01*
X1329934Y208882D01*
X1330075Y208964D01*
X1330217Y209043D01*
X1330361Y209118D01*
X1330507Y209189D01*
X1330655Y209257D01*
X1330805Y209321D01*
X1330956Y209381D01*
X1331108Y209438D01*
X1331262Y209491D01*
X1331417Y209540D01*
X1331573Y209585D01*
X1331730Y209626D01*
X1331888Y209664D01*
X1332048Y209698D01*
X1332207Y209727D01*
X1332368Y209753D01*
X1332529Y209775D01*
X1332691Y209793D01*
X1332853Y209807D01*
X1333015Y209817D01*
X1333177Y209823D01*
X1333340Y209825D01*
X1333503Y209823D01*
X1333665Y209817D01*
X1333827Y209807D01*
X1333989Y209793D01*
X1334151Y209775D01*
X1334312Y209753D01*
X1334473Y209727D01*
X1334632Y209698D01*
X1334792Y209664D01*
X1334950Y209626D01*
X1335107Y209585D01*
X1335263Y209540D01*
X1335418Y209491D01*
X1335572Y209438D01*
X1335724Y209381D01*
X1335875Y209321D01*
X1336025Y209257D01*
X1336173Y209189D01*
X1336319Y209118D01*
X1336463Y209043D01*
X1336605Y208964D01*
X1336746Y208882D01*
X1336884Y208797D01*
X1337021Y208708D01*
X1337155Y208616D01*
X1337287Y208521D01*
X1337416Y208423D01*
X1337543Y208321D01*
X1337667Y208217D01*
X1337789Y208109D01*
X1337908Y207998D01*
X1338025Y207885D01*
X1338138Y207768D01*
X1338249Y207649D01*
X1338357Y207527D01*
X1338461Y207403D01*
X1338563Y207276D01*
X1338661Y207147D01*
X1338756Y207015D01*
X1338848Y206881D01*
X1338937Y206744D01*
X1339022Y206606D01*
X1339104Y206465D01*
X1339183Y206323D01*
X1339258Y206179D01*
X1339329Y206033D01*
X1339397Y205885D01*
X1339461Y205735D01*
X1339521Y205584D01*
X1339578Y205432D01*
X1339631Y205278D01*
X1339680Y205123D01*
X1339725Y204967D01*
X1339766Y204810D01*
X1339804Y204652D01*
X1339838Y204492D01*
X1339867Y204333D01*
X1339893Y204172D01*
X1339915Y204011D01*
X1339933Y203849D01*
X1339947Y203687D01*
X1339957Y203525D01*
X1339963Y203363D01*
X1339965Y203200D01*
X1339963Y203037D01*
X1339957Y202875D01*
X1339947Y202713D01*
X1339933Y202551D01*
X1339915Y202389D01*
X1339893Y202228D01*
X1339867Y202067D01*
X1339838Y201908D01*
X1339804Y201748D01*
X1339766Y201590D01*
X1339725Y201433D01*
X1339680Y201277D01*
X1339631Y201122D01*
X1339578Y200968D01*
X1339521Y200816D01*
X1339461Y200665D01*
X1339397Y200515D01*
X1339329Y200367D01*
X1339258Y200221D01*
X1339183Y200077D01*
X1339104Y199935D01*
X1339022Y199794D01*
X1338937Y199656D01*
X1338848Y199519D01*
X1338756Y199385D01*
X1338661Y199253D01*
X1338563Y199124D01*
X1338461Y198997D01*
X1338357Y198873D01*
X1338249Y198751D01*
X1338138Y198632D01*
X1338025Y198515D01*
X1337908Y198402D01*
X1337789Y198291D01*
X1337667Y198183D01*
X1337543Y198079D01*
X1337416Y197977D01*
X1337287Y197879D01*
X1337155Y197784D01*
X1337021Y197692D01*
X1336884Y197603D01*
X1336746Y197518D01*
X1336605Y197436D01*
X1336463Y197357D01*
X1336319Y197282D01*
X1336173Y197211D01*
X1336025Y197143D01*
X1335875Y197079D01*
X1335724Y197019D01*
X1335572Y196962D01*
X1335418Y196909D01*
X1335263Y196860D01*
X1335107Y196815D01*
X1334950Y196774D01*
X1334792Y196736D01*
X1334632Y196702D01*
X1334473Y196673D01*
X1334312Y196647D01*
X1334151Y196625D01*
X1333989Y196607D01*
X1333827Y196593D01*
X1333665Y196583D01*
X1333503Y196577D01*
X1333340Y196575D01*
X1333177Y196577D01*
X1333015Y196583D01*
X1332853Y196593D01*
X1332691Y196607D01*
X1332529Y196625D01*
X1332368Y196647D01*
X1332207Y196673D01*
X1332048Y196702D01*
X1331888Y196736D01*
X1331730Y196774D01*
X1331573Y196815D01*
X1331417Y196860D01*
X1331262Y196909D01*
X1331108Y196962D01*
X1330956Y197019D01*
X1330805Y197079D01*
X1330655Y197143D01*
X1330507Y197211D01*
X1330361Y197282D01*
X1330217Y197357D01*
X1330075Y197436D01*
X1329934Y197518D01*
X1329796Y197603D01*
X1329659Y197692D01*
X1329525Y197784D01*
X1329393Y197879D01*
X1329264Y197977D01*
X1329137Y198079D01*
X1329013Y198183D01*
X1328891Y198291D01*
X1328772Y198402D01*
X1328655Y198515D01*
X1328542Y198632D01*
X1328431Y198751D01*
X1328323Y198873D01*
X1328219Y198997D01*
X1328117Y199124D01*
X1328019Y199253D01*
X1327924Y199385D01*
X1327832Y199519D01*
X1327743Y199656D01*
X1327658Y199794D01*
X1327576Y199935D01*
X1327497Y200077D01*
X1327422Y200221D01*
X1327351Y200367D01*
X1327283Y200515D01*
X1327219Y200665D01*
X1327159Y200816D01*
X1327102Y200968D01*
X1327049Y201122D01*
X1327000Y201277D01*
X1326955Y201433D01*
X1326914Y201590D01*
X1326876Y201748D01*
X1326842Y201908D01*
X1326813Y202067D01*
X1326787Y202228D01*
X1326765Y202389D01*
X1326747Y202551D01*
X1326733Y202713D01*
X1326723Y202875D01*
X1326717Y203037D01*
X1326715Y203200D01*
D42*
X1339840Y203200D03*
D43*
X1333340Y196700D03*
X1333340Y209700D03*
D42*
X1326840Y203200D03*
D44*
X1389930Y337100D03*
X1384930Y329100D03*
X1379930Y337100D03*
X1374930Y329100D03*
X1369930Y337100D03*
X1364930Y329100D03*
X1359930Y337100D03*
X1354930Y329100D03*
X1349930Y337100D03*
X1344930Y329100D03*
X1339930Y337100D03*
X1334930Y329100D03*
X1329930Y337100D03*
X1324930Y329100D03*
X1319930Y337100D03*
X1314930Y329100D03*
X1309930Y337100D03*
X1304930Y329100D03*
X1299930Y337100D03*
X1294930Y329100D03*
X1289930Y337100D03*
D45*
X1279930Y337100D03*
D46*
X1279930Y327100D03*
X1287930Y322100D03*
X1279930Y317100D03*
X1287930Y312100D03*
X1279930Y307100D03*
X1287930Y302100D03*
X1279930Y297100D03*
X1287930Y292100D03*
X1279930Y287100D03*
X1287930Y282100D03*
X1279930Y277100D03*
X1287930Y272100D03*
X1279930Y267100D03*
X1287930Y262100D03*
X1279930Y257100D03*
D45*
X1279930Y247100D03*
D44*
X1289930Y247100D03*
X1294930Y255100D03*
X1299930Y247100D03*
X1304930Y255100D03*
X1309930Y247100D03*
X1314930Y255100D03*
X1319930Y247100D03*
X1324930Y255100D03*
X1329930Y247100D03*
X1334930Y255100D03*
X1339930Y247100D03*
X1344930Y255100D03*
X1349930Y247100D03*
X1354930Y255100D03*
X1359930Y247100D03*
X1364930Y255100D03*
X1369930Y247100D03*
X1374930Y255100D03*
X1379930Y247100D03*
X1384930Y255100D03*
X1389930Y247100D03*
D36*
X927100Y571500D03*
X952500Y571500D03*
X977900Y571500D03*
X1003300Y571500D03*
X1028700Y571500D03*
X1054100Y571500D03*
X1079500Y571500D03*
X1104900Y571500D03*
X1130300Y571500D03*
X1155700Y571500D03*
X1196340Y12700D03*
X1170940Y12700D03*
X1145540Y12700D03*
X1120140Y12700D03*
X1094740Y12700D03*
X1069340Y12700D03*
X1043940Y12700D03*
X1018540Y12700D03*
X1247140Y12700D03*
X1272540Y12700D03*
X1297940Y12700D03*
X1323340Y12700D03*
X1348740Y12700D03*
X1374140Y12700D03*
X1374140Y571500D03*
X1348740Y571500D03*
X1323340Y571500D03*
X1297940Y571500D03*
X1272540Y571500D03*
X1247140Y571500D03*
X1221740Y571500D03*
X1196340Y571500D03*
D10*
X1685680Y361950D03*
X1702680Y361950D03*
X1863480Y172720D03*
X1880480Y172720D03*
X1646800Y482600D03*
X1629800Y482600D03*
X1987940Y247650D03*
X2004940Y247650D03*
D11*
X1695480Y160020D03*
X1667480Y160020D03*
D10*
X1571380Y287020D03*
X1588380Y287020D03*
D12*
X1694180Y107820D03*
X1694180Y59820D03*
D13*
X1516380Y301870D03*
X1516380Y284870D03*
D14*
X1531780Y304140D03*
X1531780Y285140D03*
X1552780Y294640D03*
D10*
X1660280Y447040D03*
X1677280Y447040D03*
X1504560Y321310D03*
X1487560Y321310D03*
D15*
X1584680Y218593D03*
X1584680Y241300D03*
X1584680Y264185D03*
D16*
X1525270Y241300D03*
D10*
X1620130Y198120D03*
X1603130Y198120D03*
X1603130Y223520D03*
X1620130Y223520D03*
D17*
X1617980Y50800D03*
X2138680Y101600D03*
X2138680Y381000D03*
X1630680Y533400D03*
D18*
X2137410Y68580D03*
X1592580Y546100D03*
D10*
X1571380Y302260D03*
X1588380Y302260D03*
D11*
X1598960Y330200D03*
X1570960Y330200D03*
D19*
X1818640Y516900D03*
X1767840Y516900D03*
X1717040Y516900D03*
X1844040Y549900D03*
X1793240Y549900D03*
X1742440Y549900D03*
X1691640Y549900D03*
X1666240Y549900D03*
X1691640Y516900D03*
X1717040Y549900D03*
X1742440Y516900D03*
X1767840Y549900D03*
X1793240Y516900D03*
X1818640Y549900D03*
X1844040Y516900D03*
X1666240Y516900D03*
X1869440Y549900D03*
X1894840Y549900D03*
X1869440Y516900D03*
X1894840Y516900D03*
X1783080Y67300D03*
X1833880Y67300D03*
X1884680Y67300D03*
X1757680Y34300D03*
X1808480Y34300D03*
X1859280Y34300D03*
X1910080Y34300D03*
X1935480Y34300D03*
X1910080Y67300D03*
X1884680Y34300D03*
X1859280Y67300D03*
X1833880Y34300D03*
X1808480Y67300D03*
X1783080Y34300D03*
X1757680Y67300D03*
X1935480Y67300D03*
D11*
X1667480Y248920D03*
X1695480Y248920D03*
D20*
X1856980Y152400D03*
X1886980Y152400D03*
X1709180Y381000D03*
X1679180Y381000D03*
D21*
X1638300Y87720D03*
X1638300Y130720D03*
D19*
X1960880Y549900D03*
X2011680Y549900D03*
X2062480Y549900D03*
X1935480Y516900D03*
X1986280Y516900D03*
X2037080Y516900D03*
X2087880Y516900D03*
X2113280Y516900D03*
X2087880Y549900D03*
X2062480Y516900D03*
X2037080Y549900D03*
X2011680Y516900D03*
X1986280Y549900D03*
X1960880Y516900D03*
X1935480Y549900D03*
X2113280Y549900D03*
X2087880Y34300D03*
X2037080Y34300D03*
X1986280Y34300D03*
X2113280Y67300D03*
X2062480Y67300D03*
X2011680Y67300D03*
X1986280Y67300D03*
X2011680Y34300D03*
X2037080Y67300D03*
X2062480Y34300D03*
X2087880Y67300D03*
X2113280Y34300D03*
D22*
X1498600Y168760D03*
X1498600Y54760D03*
X1559600Y168760D03*
X1559600Y54760D03*
D23*
X1498600Y111760D03*
X1544320Y111760D03*
D24*
X1668479Y212700D03*
X1668479Y203200D03*
X1668479Y193700D03*
X1694481Y193700D03*
X1694481Y212700D03*
D10*
X1689980Y228600D03*
X1672980Y228600D03*
X1596780Y355600D03*
X1613780Y355600D03*
D20*
X1709180Y304800D03*
X1679180Y304800D03*
D10*
X1702680Y285750D03*
X1685680Y285750D03*
X1613780Y482600D03*
X1596780Y482600D03*
X1702680Y323850D03*
X1685680Y323850D03*
D20*
X1709180Y342900D03*
X1679180Y342900D03*
D25*
X2150030Y162500D03*
X2150030Y218500D03*
D26*
X2113280Y175500D03*
X2113280Y185500D03*
X2113280Y195500D03*
X2113280Y205500D03*
D27*
X1543320Y411600D03*
X1543320Y416600D03*
D28*
X1543320Y386850D03*
D29*
X1543320Y394600D03*
D27*
X1543320Y401600D03*
X1543320Y406600D03*
X1543320Y426600D03*
X1543320Y421600D03*
D28*
X1543320Y451350D03*
D29*
X1543320Y443600D03*
D27*
X1543320Y436600D03*
X1543320Y431600D03*
D30*
X1527330Y448000D03*
X1527330Y390200D03*
D31*
X1577280Y463550D03*
X1577280Y450850D03*
X1577280Y438150D03*
X1577280Y425450D03*
X1577280Y412750D03*
X1577280Y400050D03*
X1577280Y387350D03*
X1577280Y374650D03*
X1633280Y374650D03*
X1633280Y387350D03*
X1633280Y400050D03*
X1633280Y412750D03*
X1633280Y425450D03*
X1633280Y438150D03*
X1633280Y450850D03*
X1633280Y463550D03*
D10*
X1487560Y339090D03*
X1504560Y339090D03*
X1580760Y482600D03*
X1563760Y482600D03*
D32*
X1557020Y501650D03*
X1501140Y501650D03*
X1557020Y539750D03*
X1501140Y539750D03*
D33*
X1565910Y358394D03*
X1565910Y350266D03*
D34*
X1520430Y330200D03*
X1550430Y330200D03*
D18*
X1935480Y367030D03*
X1948180Y367030D03*
X1960880Y367030D03*
X1973580Y367030D03*
X1922780Y367030D03*
X1935480Y379730D03*
X1948180Y379730D03*
X1960880Y379730D03*
X1973580Y379730D03*
X1922780Y379730D03*
D10*
X1660280Y401320D03*
X1677280Y401320D03*
X1660280Y416560D03*
X1677280Y416560D03*
X2004940Y232410D03*
X1987940Y232410D03*
X2004940Y215900D03*
X1987940Y215900D03*
D35*
X1732280Y202000D03*
X1732280Y179000D03*
D10*
X1677280Y431800D03*
X1660280Y431800D03*
D36*
X1808480Y215900D03*
X1783080Y215900D03*
D37*
X1790700Y177800D03*
X1800860Y177800D03*
D38*
X1996440Y275790D03*
X1996440Y300790D03*
D10*
X1987940Y313690D03*
X2004940Y313690D03*
X1987940Y262890D03*
X2004940Y262890D03*
D36*
X1605280Y508000D03*
X1579880Y508000D03*
D10*
X1629800Y497840D03*
X1646800Y497840D03*
D13*
X2033270Y194700D03*
X2033270Y211700D03*
D39*
X2059480Y212200D03*
D40*
X2072480Y203200D03*
D39*
X2049480Y212200D03*
X2049480Y194200D03*
X2059480Y194200D03*
D41*
X2065855Y203200D02*
X2065857Y203363D01*
X2065863Y203525D01*
X2065873Y203687D01*
X2065887Y203849D01*
X2065905Y204011D01*
X2065927Y204172D01*
X2065953Y204333D01*
X2065982Y204492D01*
X2066016Y204652D01*
X2066054Y204810D01*
X2066095Y204967D01*
X2066140Y205123D01*
X2066189Y205278D01*
X2066242Y205432D01*
X2066299Y205584D01*
X2066359Y205735D01*
X2066423Y205885D01*
X2066491Y206033D01*
X2066562Y206179D01*
X2066637Y206323D01*
X2066716Y206465D01*
X2066798Y206606D01*
X2066883Y206744D01*
X2066972Y206881D01*
X2067064Y207015D01*
X2067159Y207147D01*
X2067257Y207276D01*
X2067359Y207403D01*
X2067463Y207527D01*
X2067571Y207649D01*
X2067682Y207768D01*
X2067795Y207885D01*
X2067912Y207998D01*
X2068031Y208109D01*
X2068153Y208217D01*
X2068277Y208321D01*
X2068404Y208423D01*
X2068533Y208521D01*
X2068665Y208616D01*
X2068799Y208708D01*
X2068936Y208797D01*
X2069074Y208882D01*
X2069215Y208964D01*
X2069357Y209043D01*
X2069501Y209118D01*
X2069647Y209189D01*
X2069795Y209257D01*
X2069945Y209321D01*
X2070096Y209381D01*
X2070248Y209438D01*
X2070402Y209491D01*
X2070557Y209540D01*
X2070713Y209585D01*
X2070870Y209626D01*
X2071028Y209664D01*
X2071188Y209698D01*
X2071347Y209727D01*
X2071508Y209753D01*
X2071669Y209775D01*
X2071831Y209793D01*
X2071993Y209807D01*
X2072155Y209817D01*
X2072317Y209823D01*
X2072480Y209825D01*
X2072643Y209823D01*
X2072805Y209817D01*
X2072967Y209807D01*
X2073129Y209793D01*
X2073291Y209775D01*
X2073452Y209753D01*
X2073613Y209727D01*
X2073772Y209698D01*
X2073932Y209664D01*
X2074090Y209626D01*
X2074247Y209585D01*
X2074403Y209540D01*
X2074558Y209491D01*
X2074712Y209438D01*
X2074864Y209381D01*
X2075015Y209321D01*
X2075165Y209257D01*
X2075313Y209189D01*
X2075459Y209118D01*
X2075603Y209043D01*
X2075745Y208964D01*
X2075886Y208882D01*
X2076024Y208797D01*
X2076161Y208708D01*
X2076295Y208616D01*
X2076427Y208521D01*
X2076556Y208423D01*
X2076683Y208321D01*
X2076807Y208217D01*
X2076929Y208109D01*
X2077048Y207998D01*
X2077165Y207885D01*
X2077278Y207768D01*
X2077389Y207649D01*
X2077497Y207527D01*
X2077601Y207403D01*
X2077703Y207276D01*
X2077801Y207147D01*
X2077896Y207015D01*
X2077988Y206881D01*
X2078077Y206744D01*
X2078162Y206606D01*
X2078244Y206465D01*
X2078323Y206323D01*
X2078398Y206179D01*
X2078469Y206033D01*
X2078537Y205885D01*
X2078601Y205735D01*
X2078661Y205584D01*
X2078718Y205432D01*
X2078771Y205278D01*
X2078820Y205123D01*
X2078865Y204967D01*
X2078906Y204810D01*
X2078944Y204652D01*
X2078978Y204492D01*
X2079007Y204333D01*
X2079033Y204172D01*
X2079055Y204011D01*
X2079073Y203849D01*
X2079087Y203687D01*
X2079097Y203525D01*
X2079103Y203363D01*
X2079105Y203200D01*
X2079103Y203037D01*
X2079097Y202875D01*
X2079087Y202713D01*
X2079073Y202551D01*
X2079055Y202389D01*
X2079033Y202228D01*
X2079007Y202067D01*
X2078978Y201908D01*
X2078944Y201748D01*
X2078906Y201590D01*
X2078865Y201433D01*
X2078820Y201277D01*
X2078771Y201122D01*
X2078718Y200968D01*
X2078661Y200816D01*
X2078601Y200665D01*
X2078537Y200515D01*
X2078469Y200367D01*
X2078398Y200221D01*
X2078323Y200077D01*
X2078244Y199935D01*
X2078162Y199794D01*
X2078077Y199656D01*
X2077988Y199519D01*
X2077896Y199385D01*
X2077801Y199253D01*
X2077703Y199124D01*
X2077601Y198997D01*
X2077497Y198873D01*
X2077389Y198751D01*
X2077278Y198632D01*
X2077165Y198515D01*
X2077048Y198402D01*
X2076929Y198291D01*
X2076807Y198183D01*
X2076683Y198079D01*
X2076556Y197977D01*
X2076427Y197879D01*
X2076295Y197784D01*
X2076161Y197692D01*
X2076024Y197603D01*
X2075886Y197518D01*
X2075745Y197436D01*
X2075603Y197357D01*
X2075459Y197282D01*
X2075313Y197211D01*
X2075165Y197143D01*
X2075015Y197079D01*
X2074864Y197019D01*
X2074712Y196962D01*
X2074558Y196909D01*
X2074403Y196860D01*
X2074247Y196815D01*
X2074090Y196774D01*
X2073932Y196736D01*
X2073772Y196702D01*
X2073613Y196673D01*
X2073452Y196647D01*
X2073291Y196625D01*
X2073129Y196607D01*
X2072967Y196593D01*
X2072805Y196583D01*
X2072643Y196577D01*
X2072480Y196575D01*
X2072317Y196577D01*
X2072155Y196583D01*
X2071993Y196593D01*
X2071831Y196607D01*
X2071669Y196625D01*
X2071508Y196647D01*
X2071347Y196673D01*
X2071188Y196702D01*
X2071028Y196736D01*
X2070870Y196774D01*
X2070713Y196815D01*
X2070557Y196860D01*
X2070402Y196909D01*
X2070248Y196962D01*
X2070096Y197019D01*
X2069945Y197079D01*
X2069795Y197143D01*
X2069647Y197211D01*
X2069501Y197282D01*
X2069357Y197357D01*
X2069215Y197436D01*
X2069074Y197518D01*
X2068936Y197603D01*
X2068799Y197692D01*
X2068665Y197784D01*
X2068533Y197879D01*
X2068404Y197977D01*
X2068277Y198079D01*
X2068153Y198183D01*
X2068031Y198291D01*
X2067912Y198402D01*
X2067795Y198515D01*
X2067682Y198632D01*
X2067571Y198751D01*
X2067463Y198873D01*
X2067359Y198997D01*
X2067257Y199124D01*
X2067159Y199253D01*
X2067064Y199385D01*
X2066972Y199519D01*
X2066883Y199656D01*
X2066798Y199794D01*
X2066716Y199935D01*
X2066637Y200077D01*
X2066562Y200221D01*
X2066491Y200367D01*
X2066423Y200515D01*
X2066359Y200665D01*
X2066299Y200816D01*
X2066242Y200968D01*
X2066189Y201122D01*
X2066140Y201277D01*
X2066095Y201433D01*
X2066054Y201590D01*
X2066016Y201748D01*
X2065982Y201908D01*
X2065953Y202067D01*
X2065927Y202228D01*
X2065905Y202389D01*
X2065887Y202551D01*
X2065873Y202713D01*
X2065863Y202875D01*
X2065857Y203037D01*
X2065855Y203200D01*
D42*
X2078980Y203200D03*
D43*
X2072480Y196700D03*
X2072480Y209700D03*
D42*
X2065980Y203200D03*
D44*
X2129070Y337100D03*
X2124070Y329100D03*
X2119070Y337100D03*
X2114070Y329100D03*
X2109070Y337100D03*
X2104070Y329100D03*
X2099070Y337100D03*
X2094070Y329100D03*
X2089070Y337100D03*
X2084070Y329100D03*
X2079070Y337100D03*
X2074070Y329100D03*
X2069070Y337100D03*
X2064070Y329100D03*
X2059070Y337100D03*
X2054070Y329100D03*
X2049070Y337100D03*
X2044070Y329100D03*
X2039070Y337100D03*
X2034070Y329100D03*
X2029070Y337100D03*
D45*
X2019070Y337100D03*
D46*
X2019070Y327100D03*
X2027070Y322100D03*
X2019070Y317100D03*
X2027070Y312100D03*
X2019070Y307100D03*
X2027070Y302100D03*
X2019070Y297100D03*
X2027070Y292100D03*
X2019070Y287100D03*
X2027070Y282100D03*
X2019070Y277100D03*
X2027070Y272100D03*
X2019070Y267100D03*
X2027070Y262100D03*
X2019070Y257100D03*
D45*
X2019070Y247100D03*
D44*
X2029070Y247100D03*
X2034070Y255100D03*
X2039070Y247100D03*
X2044070Y255100D03*
X2049070Y247100D03*
X2054070Y255100D03*
X2059070Y247100D03*
X2064070Y255100D03*
X2069070Y247100D03*
X2074070Y255100D03*
X2079070Y247100D03*
X2084070Y255100D03*
X2089070Y247100D03*
X2094070Y255100D03*
X2099070Y247100D03*
X2104070Y255100D03*
X2109070Y247100D03*
X2114070Y255100D03*
X2119070Y247100D03*
X2124070Y255100D03*
X2129070Y247100D03*
D36*
X1666240Y571500D03*
X1691640Y571500D03*
X1717040Y571500D03*
X1742440Y571500D03*
X1767840Y571500D03*
X1793240Y571500D03*
X1818640Y571500D03*
X1844040Y571500D03*
X1869440Y571500D03*
X1894840Y571500D03*
X1935480Y12700D03*
X1910080Y12700D03*
X1884680Y12700D03*
X1859280Y12700D03*
X1833880Y12700D03*
X1808480Y12700D03*
X1783080Y12700D03*
X1757680Y12700D03*
X1986280Y12700D03*
X2011680Y12700D03*
X2037080Y12700D03*
X2062480Y12700D03*
X2087880Y12700D03*
X2113280Y12700D03*
X2113280Y571500D03*
X2087880Y571500D03*
X2062480Y571500D03*
X2037080Y571500D03*
X2011680Y571500D03*
X1986280Y571500D03*
X1960880Y571500D03*
X1935480Y571500D03*
D10*
X207400Y951230D03*
X224400Y951230D03*
X385200Y762000D03*
X402200Y762000D03*
X168520Y1071880D03*
X151520Y1071880D03*
X509660Y836930D03*
X526660Y836930D03*
D11*
X217200Y749300D03*
X189200Y749300D03*
D10*
X93100Y876300D03*
X110100Y876300D03*
D12*
X215900Y697100D03*
X215900Y649100D03*
D13*
X38100Y891150D03*
X38100Y874150D03*
D14*
X53500Y893420D03*
X53500Y874420D03*
X74500Y883920D03*
D10*
X182000Y1036320D03*
X199000Y1036320D03*
X26280Y910590D03*
X9280Y910590D03*
D15*
X106400Y807873D03*
X106400Y830580D03*
X106400Y853465D03*
D16*
X46990Y830580D03*
D10*
X141850Y787400D03*
X124850Y787400D03*
X124850Y812800D03*
X141850Y812800D03*
D17*
X139700Y640080D03*
X660400Y690880D03*
X660400Y970280D03*
X152400Y1122680D03*
D18*
X659130Y657860D03*
X114300Y1135380D03*
D10*
X93100Y891540D03*
X110100Y891540D03*
D11*
X120680Y919480D03*
X92680Y919480D03*
D19*
X340360Y1106180D03*
X289560Y1106180D03*
X238760Y1106180D03*
X365760Y1139180D03*
X314960Y1139180D03*
X264160Y1139180D03*
X213360Y1139180D03*
X187960Y1139180D03*
X213360Y1106180D03*
X238760Y1139180D03*
X264160Y1106180D03*
X289560Y1139180D03*
X314960Y1106180D03*
X340360Y1139180D03*
X365760Y1106180D03*
X187960Y1106180D03*
X391160Y1139180D03*
X416560Y1139180D03*
X391160Y1106180D03*
X416560Y1106180D03*
X304800Y656580D03*
X355600Y656580D03*
X406400Y656580D03*
X279400Y623580D03*
X330200Y623580D03*
X381000Y623580D03*
X431800Y623580D03*
X457200Y623580D03*
X431800Y656580D03*
X406400Y623580D03*
X381000Y656580D03*
X355600Y623580D03*
X330200Y656580D03*
X304800Y623580D03*
X279400Y656580D03*
X457200Y656580D03*
D11*
X189200Y838200D03*
X217200Y838200D03*
D20*
X378700Y741680D03*
X408700Y741680D03*
X230900Y970280D03*
X200900Y970280D03*
D21*
X160020Y677000D03*
X160020Y720000D03*
D19*
X482600Y1139180D03*
X533400Y1139180D03*
X584200Y1139180D03*
X457200Y1106180D03*
X508000Y1106180D03*
X558800Y1106180D03*
X609600Y1106180D03*
X635000Y1106180D03*
X609600Y1139180D03*
X584200Y1106180D03*
X558800Y1139180D03*
X533400Y1106180D03*
X508000Y1139180D03*
X482600Y1106180D03*
X457200Y1139180D03*
X635000Y1139180D03*
X609600Y623580D03*
X558800Y623580D03*
X508000Y623580D03*
X635000Y656580D03*
X584200Y656580D03*
X533400Y656580D03*
X508000Y656580D03*
X533400Y623580D03*
X558800Y656580D03*
X584200Y623580D03*
X609600Y656580D03*
X635000Y623580D03*
D22*
X20320Y758040D03*
X20320Y644040D03*
X81320Y758040D03*
X81320Y644040D03*
D23*
X20320Y701040D03*
X66040Y701040D03*
D24*
X190199Y801980D03*
X190199Y792480D03*
X190199Y782980D03*
X216201Y782980D03*
X216201Y801980D03*
D10*
X211700Y817880D03*
X194700Y817880D03*
X118500Y944880D03*
X135500Y944880D03*
D20*
X230900Y894080D03*
X200900Y894080D03*
D10*
X224400Y875030D03*
X207400Y875030D03*
X135500Y1071880D03*
X118500Y1071880D03*
X224400Y913130D03*
X207400Y913130D03*
D20*
X230900Y932180D03*
X200900Y932180D03*
D25*
X671750Y751780D03*
X671750Y807780D03*
D26*
X635000Y764780D03*
X635000Y774780D03*
X635000Y784780D03*
X635000Y794780D03*
D27*
X65040Y1000880D03*
X65040Y1005880D03*
D28*
X65040Y976130D03*
D29*
X65040Y983880D03*
D27*
X65040Y990880D03*
X65040Y995880D03*
X65040Y1015880D03*
X65040Y1010880D03*
D28*
X65040Y1040630D03*
D29*
X65040Y1032880D03*
D27*
X65040Y1025880D03*
X65040Y1020880D03*
D30*
X49050Y1037280D03*
X49050Y979480D03*
D31*
X99000Y1052830D03*
X99000Y1040130D03*
X99000Y1027430D03*
X99000Y1014730D03*
X99000Y1002030D03*
X99000Y989330D03*
X99000Y976630D03*
X99000Y963930D03*
X155000Y963930D03*
X155000Y976630D03*
X155000Y989330D03*
X155000Y1002030D03*
X155000Y1014730D03*
X155000Y1027430D03*
X155000Y1040130D03*
X155000Y1052830D03*
D10*
X9280Y928370D03*
X26280Y928370D03*
X102480Y1071880D03*
X85480Y1071880D03*
D32*
X78740Y1090930D03*
X22860Y1090930D03*
X78740Y1129030D03*
X22860Y1129030D03*
D33*
X87630Y947674D03*
X87630Y939546D03*
D34*
X42150Y919480D03*
X72150Y919480D03*
D18*
X457200Y956310D03*
X469900Y956310D03*
X482600Y956310D03*
X495300Y956310D03*
X444500Y956310D03*
X457200Y969010D03*
X469900Y969010D03*
X482600Y969010D03*
X495300Y969010D03*
X444500Y969010D03*
D10*
X182000Y990600D03*
X199000Y990600D03*
X182000Y1005840D03*
X199000Y1005840D03*
X526660Y821690D03*
X509660Y821690D03*
X526660Y805180D03*
X509660Y805180D03*
D35*
X254000Y791280D03*
X254000Y768280D03*
D10*
X199000Y1021080D03*
X182000Y1021080D03*
D36*
X330200Y805180D03*
X304800Y805180D03*
D37*
X312420Y767080D03*
X322580Y767080D03*
D38*
X518160Y865070D03*
X518160Y890070D03*
D10*
X509660Y902970D03*
X526660Y902970D03*
X509660Y852170D03*
X526660Y852170D03*
D36*
X127000Y1097280D03*
X101600Y1097280D03*
D10*
X151520Y1087120D03*
X168520Y1087120D03*
D13*
X554990Y783980D03*
X554990Y800980D03*
D39*
X581200Y801480D03*
D40*
X594200Y792480D03*
D39*
X571200Y801480D03*
X571200Y783480D03*
X581200Y783480D03*
D41*
X587575Y792480D02*
X587577Y792643D01*
X587583Y792805D01*
X587593Y792967D01*
X587607Y793129D01*
X587625Y793291D01*
X587647Y793452D01*
X587673Y793613D01*
X587702Y793772D01*
X587736Y793932D01*
X587774Y794090D01*
X587815Y794247D01*
X587860Y794403D01*
X587909Y794558D01*
X587962Y794712D01*
X588019Y794864D01*
X588079Y795015D01*
X588143Y795165D01*
X588211Y795313D01*
X588282Y795459D01*
X588357Y795603D01*
X588436Y795745D01*
X588518Y795886D01*
X588603Y796024D01*
X588692Y796161D01*
X588784Y796295D01*
X588879Y796427D01*
X588977Y796556D01*
X589079Y796683D01*
X589183Y796807D01*
X589291Y796929D01*
X589402Y797048D01*
X589515Y797165D01*
X589632Y797278D01*
X589751Y797389D01*
X589873Y797497D01*
X589997Y797601D01*
X590124Y797703D01*
X590253Y797801D01*
X590385Y797896D01*
X590519Y797988D01*
X590656Y798077D01*
X590794Y798162D01*
X590935Y798244D01*
X591077Y798323D01*
X591221Y798398D01*
X591367Y798469D01*
X591515Y798537D01*
X591665Y798601D01*
X591816Y798661D01*
X591968Y798718D01*
X592122Y798771D01*
X592277Y798820D01*
X592433Y798865D01*
X592590Y798906D01*
X592748Y798944D01*
X592908Y798978D01*
X593067Y799007D01*
X593228Y799033D01*
X593389Y799055D01*
X593551Y799073D01*
X593713Y799087D01*
X593875Y799097D01*
X594037Y799103D01*
X594200Y799105D01*
X594363Y799103D01*
X594525Y799097D01*
X594687Y799087D01*
X594849Y799073D01*
X595011Y799055D01*
X595172Y799033D01*
X595333Y799007D01*
X595492Y798978D01*
X595652Y798944D01*
X595810Y798906D01*
X595967Y798865D01*
X596123Y798820D01*
X596278Y798771D01*
X596432Y798718D01*
X596584Y798661D01*
X596735Y798601D01*
X596885Y798537D01*
X597033Y798469D01*
X597179Y798398D01*
X597323Y798323D01*
X597465Y798244D01*
X597606Y798162D01*
X597744Y798077D01*
X597881Y797988D01*
X598015Y797896D01*
X598147Y797801D01*
X598276Y797703D01*
X598403Y797601D01*
X598527Y797497D01*
X598649Y797389D01*
X598768Y797278D01*
X598885Y797165D01*
X598998Y797048D01*
X599109Y796929D01*
X599217Y796807D01*
X599321Y796683D01*
X599423Y796556D01*
X599521Y796427D01*
X599616Y796295D01*
X599708Y796161D01*
X599797Y796024D01*
X599882Y795886D01*
X599964Y795745D01*
X600043Y795603D01*
X600118Y795459D01*
X600189Y795313D01*
X600257Y795165D01*
X600321Y795015D01*
X600381Y794864D01*
X600438Y794712D01*
X600491Y794558D01*
X600540Y794403D01*
X600585Y794247D01*
X600626Y794090D01*
X600664Y793932D01*
X600698Y793772D01*
X600727Y793613D01*
X600753Y793452D01*
X600775Y793291D01*
X600793Y793129D01*
X600807Y792967D01*
X600817Y792805D01*
X600823Y792643D01*
X600825Y792480D01*
X600823Y792317D01*
X600817Y792155D01*
X600807Y791993D01*
X600793Y791831D01*
X600775Y791669D01*
X600753Y791508D01*
X600727Y791347D01*
X600698Y791188D01*
X600664Y791028D01*
X600626Y790870D01*
X600585Y790713D01*
X600540Y790557D01*
X600491Y790402D01*
X600438Y790248D01*
X600381Y790096D01*
X600321Y789945D01*
X600257Y789795D01*
X600189Y789647D01*
X600118Y789501D01*
X600043Y789357D01*
X599964Y789215D01*
X599882Y789074D01*
X599797Y788936D01*
X599708Y788799D01*
X599616Y788665D01*
X599521Y788533D01*
X599423Y788404D01*
X599321Y788277D01*
X599217Y788153D01*
X599109Y788031D01*
X598998Y787912D01*
X598885Y787795D01*
X598768Y787682D01*
X598649Y787571D01*
X598527Y787463D01*
X598403Y787359D01*
X598276Y787257D01*
X598147Y787159D01*
X598015Y787064D01*
X597881Y786972D01*
X597744Y786883D01*
X597606Y786798D01*
X597465Y786716D01*
X597323Y786637D01*
X597179Y786562D01*
X597033Y786491D01*
X596885Y786423D01*
X596735Y786359D01*
X596584Y786299D01*
X596432Y786242D01*
X596278Y786189D01*
X596123Y786140D01*
X595967Y786095D01*
X595810Y786054D01*
X595652Y786016D01*
X595492Y785982D01*
X595333Y785953D01*
X595172Y785927D01*
X595011Y785905D01*
X594849Y785887D01*
X594687Y785873D01*
X594525Y785863D01*
X594363Y785857D01*
X594200Y785855D01*
X594037Y785857D01*
X593875Y785863D01*
X593713Y785873D01*
X593551Y785887D01*
X593389Y785905D01*
X593228Y785927D01*
X593067Y785953D01*
X592908Y785982D01*
X592748Y786016D01*
X592590Y786054D01*
X592433Y786095D01*
X592277Y786140D01*
X592122Y786189D01*
X591968Y786242D01*
X591816Y786299D01*
X591665Y786359D01*
X591515Y786423D01*
X591367Y786491D01*
X591221Y786562D01*
X591077Y786637D01*
X590935Y786716D01*
X590794Y786798D01*
X590656Y786883D01*
X590519Y786972D01*
X590385Y787064D01*
X590253Y787159D01*
X590124Y787257D01*
X589997Y787359D01*
X589873Y787463D01*
X589751Y787571D01*
X589632Y787682D01*
X589515Y787795D01*
X589402Y787912D01*
X589291Y788031D01*
X589183Y788153D01*
X589079Y788277D01*
X588977Y788404D01*
X588879Y788533D01*
X588784Y788665D01*
X588692Y788799D01*
X588603Y788936D01*
X588518Y789074D01*
X588436Y789215D01*
X588357Y789357D01*
X588282Y789501D01*
X588211Y789647D01*
X588143Y789795D01*
X588079Y789945D01*
X588019Y790096D01*
X587962Y790248D01*
X587909Y790402D01*
X587860Y790557D01*
X587815Y790713D01*
X587774Y790870D01*
X587736Y791028D01*
X587702Y791188D01*
X587673Y791347D01*
X587647Y791508D01*
X587625Y791669D01*
X587607Y791831D01*
X587593Y791993D01*
X587583Y792155D01*
X587577Y792317D01*
X587575Y792480D01*
D42*
X600700Y792480D03*
D43*
X594200Y785980D03*
X594200Y798980D03*
D42*
X587700Y792480D03*
D44*
X650790Y926380D03*
X645790Y918380D03*
X640790Y926380D03*
X635790Y918380D03*
X630790Y926380D03*
X625790Y918380D03*
X620790Y926380D03*
X615790Y918380D03*
X610790Y926380D03*
X605790Y918380D03*
X600790Y926380D03*
X595790Y918380D03*
X590790Y926380D03*
X585790Y918380D03*
X580790Y926380D03*
X575790Y918380D03*
X570790Y926380D03*
X565790Y918380D03*
X560790Y926380D03*
X555790Y918380D03*
X550790Y926380D03*
D45*
X540790Y926380D03*
D46*
X540790Y916380D03*
X548790Y911380D03*
X540790Y906380D03*
X548790Y901380D03*
X540790Y896380D03*
X548790Y891380D03*
X540790Y886380D03*
X548790Y881380D03*
X540790Y876380D03*
X548790Y871380D03*
X540790Y866380D03*
X548790Y861380D03*
X540790Y856380D03*
X548790Y851380D03*
X540790Y846380D03*
D45*
X540790Y836380D03*
D44*
X550790Y836380D03*
X555790Y844380D03*
X560790Y836380D03*
X565790Y844380D03*
X570790Y836380D03*
X575790Y844380D03*
X580790Y836380D03*
X585790Y844380D03*
X590790Y836380D03*
X595790Y844380D03*
X600790Y836380D03*
X605790Y844380D03*
X610790Y836380D03*
X615790Y844380D03*
X620790Y836380D03*
X625790Y844380D03*
X630790Y836380D03*
X635790Y844380D03*
X640790Y836380D03*
X645790Y844380D03*
X650790Y836380D03*
D36*
X187960Y1160780D03*
X213360Y1160780D03*
X238760Y1160780D03*
X264160Y1160780D03*
X289560Y1160780D03*
X314960Y1160780D03*
X340360Y1160780D03*
X365760Y1160780D03*
X391160Y1160780D03*
X416560Y1160780D03*
X457200Y601980D03*
X431800Y601980D03*
X406400Y601980D03*
X381000Y601980D03*
X355600Y601980D03*
X330200Y601980D03*
X304800Y601980D03*
X279400Y601980D03*
X508000Y601980D03*
X533400Y601980D03*
X558800Y601980D03*
X584200Y601980D03*
X609600Y601980D03*
X635000Y601980D03*
X635000Y1160780D03*
X609600Y1160780D03*
X584200Y1160780D03*
X558800Y1160780D03*
X533400Y1160780D03*
X508000Y1160780D03*
X482600Y1160780D03*
X457200Y1160780D03*
D10*
X946540Y951230D03*
X963540Y951230D03*
X1124340Y762000D03*
X1141340Y762000D03*
X907660Y1071880D03*
X890660Y1071880D03*
X1248800Y836930D03*
X1265800Y836930D03*
D11*
X956340Y749300D03*
X928340Y749300D03*
D10*
X832240Y876300D03*
X849240Y876300D03*
D12*
X955040Y697100D03*
X955040Y649100D03*
D13*
X777240Y891150D03*
X777240Y874150D03*
D14*
X792640Y893420D03*
X792640Y874420D03*
X813640Y883920D03*
D10*
X921140Y1036320D03*
X938140Y1036320D03*
X765420Y910590D03*
X748420Y910590D03*
D15*
X845540Y807873D03*
X845540Y830580D03*
X845540Y853465D03*
D16*
X786130Y830580D03*
D10*
X880990Y787400D03*
X863990Y787400D03*
X863990Y812800D03*
X880990Y812800D03*
D17*
X878840Y640080D03*
X1399540Y690880D03*
X1399540Y970280D03*
X891540Y1122680D03*
D18*
X1398270Y657860D03*
X853440Y1135380D03*
D10*
X832240Y891540D03*
X849240Y891540D03*
D11*
X859820Y919480D03*
X831820Y919480D03*
D19*
X1079500Y1106180D03*
X1028700Y1106180D03*
X977900Y1106180D03*
X1104900Y1139180D03*
X1054100Y1139180D03*
X1003300Y1139180D03*
X952500Y1139180D03*
X927100Y1139180D03*
X952500Y1106180D03*
X977900Y1139180D03*
X1003300Y1106180D03*
X1028700Y1139180D03*
X1054100Y1106180D03*
X1079500Y1139180D03*
X1104900Y1106180D03*
X927100Y1106180D03*
X1130300Y1139180D03*
X1155700Y1139180D03*
X1130300Y1106180D03*
X1155700Y1106180D03*
X1043940Y656580D03*
X1094740Y656580D03*
X1145540Y656580D03*
X1018540Y623580D03*
X1069340Y623580D03*
X1120140Y623580D03*
X1170940Y623580D03*
X1196340Y623580D03*
X1170940Y656580D03*
X1145540Y623580D03*
X1120140Y656580D03*
X1094740Y623580D03*
X1069340Y656580D03*
X1043940Y623580D03*
X1018540Y656580D03*
X1196340Y656580D03*
D11*
X928340Y838200D03*
X956340Y838200D03*
D20*
X1117840Y741680D03*
X1147840Y741680D03*
X970040Y970280D03*
X940040Y970280D03*
D21*
X899160Y677000D03*
X899160Y720000D03*
D19*
X1221740Y1139180D03*
X1272540Y1139180D03*
X1323340Y1139180D03*
X1196340Y1106180D03*
X1247140Y1106180D03*
X1297940Y1106180D03*
X1348740Y1106180D03*
X1374140Y1106180D03*
X1348740Y1139180D03*
X1323340Y1106180D03*
X1297940Y1139180D03*
X1272540Y1106180D03*
X1247140Y1139180D03*
X1221740Y1106180D03*
X1196340Y1139180D03*
X1374140Y1139180D03*
X1348740Y623580D03*
X1297940Y623580D03*
X1247140Y623580D03*
X1374140Y656580D03*
X1323340Y656580D03*
X1272540Y656580D03*
X1247140Y656580D03*
X1272540Y623580D03*
X1297940Y656580D03*
X1323340Y623580D03*
X1348740Y656580D03*
X1374140Y623580D03*
D22*
X759460Y758040D03*
X759460Y644040D03*
X820460Y758040D03*
X820460Y644040D03*
D23*
X759460Y701040D03*
X805180Y701040D03*
D24*
X929339Y801980D03*
X929339Y792480D03*
X929339Y782980D03*
X955341Y782980D03*
X955341Y801980D03*
D10*
X950840Y817880D03*
X933840Y817880D03*
X857640Y944880D03*
X874640Y944880D03*
D20*
X970040Y894080D03*
X940040Y894080D03*
D10*
X963540Y875030D03*
X946540Y875030D03*
X874640Y1071880D03*
X857640Y1071880D03*
X963540Y913130D03*
X946540Y913130D03*
D20*
X970040Y932180D03*
X940040Y932180D03*
D25*
X1410890Y751780D03*
X1410890Y807780D03*
D26*
X1374140Y764780D03*
X1374140Y774780D03*
X1374140Y784780D03*
X1374140Y794780D03*
D27*
X804180Y1000880D03*
X804180Y1005880D03*
D28*
X804180Y976130D03*
D29*
X804180Y983880D03*
D27*
X804180Y990880D03*
X804180Y995880D03*
X804180Y1015880D03*
X804180Y1010880D03*
D28*
X804180Y1040630D03*
D29*
X804180Y1032880D03*
D27*
X804180Y1025880D03*
X804180Y1020880D03*
D30*
X788190Y1037280D03*
X788190Y979480D03*
D31*
X838140Y1052830D03*
X838140Y1040130D03*
X838140Y1027430D03*
X838140Y1014730D03*
X838140Y1002030D03*
X838140Y989330D03*
X838140Y976630D03*
X838140Y963930D03*
X894140Y963930D03*
X894140Y976630D03*
X894140Y989330D03*
X894140Y1002030D03*
X894140Y1014730D03*
X894140Y1027430D03*
X894140Y1040130D03*
X894140Y1052830D03*
D10*
X748420Y928370D03*
X765420Y928370D03*
X841620Y1071880D03*
X824620Y1071880D03*
D32*
X817880Y1090930D03*
X762000Y1090930D03*
X817880Y1129030D03*
X762000Y1129030D03*
D33*
X826770Y947674D03*
X826770Y939546D03*
D34*
X781290Y919480D03*
X811290Y919480D03*
D18*
X1196340Y956310D03*
X1209040Y956310D03*
X1221740Y956310D03*
X1234440Y956310D03*
X1183640Y956310D03*
X1196340Y969010D03*
X1209040Y969010D03*
X1221740Y969010D03*
X1234440Y969010D03*
X1183640Y969010D03*
D10*
X921140Y990600D03*
X938140Y990600D03*
X921140Y1005840D03*
X938140Y1005840D03*
X1265800Y821690D03*
X1248800Y821690D03*
X1265800Y805180D03*
X1248800Y805180D03*
D35*
X993140Y791280D03*
X993140Y768280D03*
D10*
X938140Y1021080D03*
X921140Y1021080D03*
D36*
X1069340Y805180D03*
X1043940Y805180D03*
D37*
X1051560Y767080D03*
X1061720Y767080D03*
D38*
X1257300Y865070D03*
X1257300Y890070D03*
D10*
X1248800Y902970D03*
X1265800Y902970D03*
X1248800Y852170D03*
X1265800Y852170D03*
D36*
X866140Y1097280D03*
X840740Y1097280D03*
D10*
X890660Y1087120D03*
X907660Y1087120D03*
D13*
X1294130Y783980D03*
X1294130Y800980D03*
D39*
X1320340Y801480D03*
D40*
X1333340Y792480D03*
D39*
X1310340Y801480D03*
X1310340Y783480D03*
X1320340Y783480D03*
D41*
X1326715Y792480D02*
X1326717Y792643D01*
X1326723Y792805D01*
X1326733Y792967D01*
X1326747Y793129D01*
X1326765Y793291D01*
X1326787Y793452D01*
X1326813Y793613D01*
X1326842Y793772D01*
X1326876Y793932D01*
X1326914Y794090D01*
X1326955Y794247D01*
X1327000Y794403D01*
X1327049Y794558D01*
X1327102Y794712D01*
X1327159Y794864D01*
X1327219Y795015D01*
X1327283Y795165D01*
X1327351Y795313D01*
X1327422Y795459D01*
X1327497Y795603D01*
X1327576Y795745D01*
X1327658Y795886D01*
X1327743Y796024D01*
X1327832Y796161D01*
X1327924Y796295D01*
X1328019Y796427D01*
X1328117Y796556D01*
X1328219Y796683D01*
X1328323Y796807D01*
X1328431Y796929D01*
X1328542Y797048D01*
X1328655Y797165D01*
X1328772Y797278D01*
X1328891Y797389D01*
X1329013Y797497D01*
X1329137Y797601D01*
X1329264Y797703D01*
X1329393Y797801D01*
X1329525Y797896D01*
X1329659Y797988D01*
X1329796Y798077D01*
X1329934Y798162D01*
X1330075Y798244D01*
X1330217Y798323D01*
X1330361Y798398D01*
X1330507Y798469D01*
X1330655Y798537D01*
X1330805Y798601D01*
X1330956Y798661D01*
X1331108Y798718D01*
X1331262Y798771D01*
X1331417Y798820D01*
X1331573Y798865D01*
X1331730Y798906D01*
X1331888Y798944D01*
X1332048Y798978D01*
X1332207Y799007D01*
X1332368Y799033D01*
X1332529Y799055D01*
X1332691Y799073D01*
X1332853Y799087D01*
X1333015Y799097D01*
X1333177Y799103D01*
X1333340Y799105D01*
X1333503Y799103D01*
X1333665Y799097D01*
X1333827Y799087D01*
X1333989Y799073D01*
X1334151Y799055D01*
X1334312Y799033D01*
X1334473Y799007D01*
X1334632Y798978D01*
X1334792Y798944D01*
X1334950Y798906D01*
X1335107Y798865D01*
X1335263Y798820D01*
X1335418Y798771D01*
X1335572Y798718D01*
X1335724Y798661D01*
X1335875Y798601D01*
X1336025Y798537D01*
X1336173Y798469D01*
X1336319Y798398D01*
X1336463Y798323D01*
X1336605Y798244D01*
X1336746Y798162D01*
X1336884Y798077D01*
X1337021Y797988D01*
X1337155Y797896D01*
X1337287Y797801D01*
X1337416Y797703D01*
X1337543Y797601D01*
X1337667Y797497D01*
X1337789Y797389D01*
X1337908Y797278D01*
X1338025Y797165D01*
X1338138Y797048D01*
X1338249Y796929D01*
X1338357Y796807D01*
X1338461Y796683D01*
X1338563Y796556D01*
X1338661Y796427D01*
X1338756Y796295D01*
X1338848Y796161D01*
X1338937Y796024D01*
X1339022Y795886D01*
X1339104Y795745D01*
X1339183Y795603D01*
X1339258Y795459D01*
X1339329Y795313D01*
X1339397Y795165D01*
X1339461Y795015D01*
X1339521Y794864D01*
X1339578Y794712D01*
X1339631Y794558D01*
X1339680Y794403D01*
X1339725Y794247D01*
X1339766Y794090D01*
X1339804Y793932D01*
X1339838Y793772D01*
X1339867Y793613D01*
X1339893Y793452D01*
X1339915Y793291D01*
X1339933Y793129D01*
X1339947Y792967D01*
X1339957Y792805D01*
X1339963Y792643D01*
X1339965Y792480D01*
X1339963Y792317D01*
X1339957Y792155D01*
X1339947Y791993D01*
X1339933Y791831D01*
X1339915Y791669D01*
X1339893Y791508D01*
X1339867Y791347D01*
X1339838Y791188D01*
X1339804Y791028D01*
X1339766Y790870D01*
X1339725Y790713D01*
X1339680Y790557D01*
X1339631Y790402D01*
X1339578Y790248D01*
X1339521Y790096D01*
X1339461Y789945D01*
X1339397Y789795D01*
X1339329Y789647D01*
X1339258Y789501D01*
X1339183Y789357D01*
X1339104Y789215D01*
X1339022Y789074D01*
X1338937Y788936D01*
X1338848Y788799D01*
X1338756Y788665D01*
X1338661Y788533D01*
X1338563Y788404D01*
X1338461Y788277D01*
X1338357Y788153D01*
X1338249Y788031D01*
X1338138Y787912D01*
X1338025Y787795D01*
X1337908Y787682D01*
X1337789Y787571D01*
X1337667Y787463D01*
X1337543Y787359D01*
X1337416Y787257D01*
X1337287Y787159D01*
X1337155Y787064D01*
X1337021Y786972D01*
X1336884Y786883D01*
X1336746Y786798D01*
X1336605Y786716D01*
X1336463Y786637D01*
X1336319Y786562D01*
X1336173Y786491D01*
X1336025Y786423D01*
X1335875Y786359D01*
X1335724Y786299D01*
X1335572Y786242D01*
X1335418Y786189D01*
X1335263Y786140D01*
X1335107Y786095D01*
X1334950Y786054D01*
X1334792Y786016D01*
X1334632Y785982D01*
X1334473Y785953D01*
X1334312Y785927D01*
X1334151Y785905D01*
X1333989Y785887D01*
X1333827Y785873D01*
X1333665Y785863D01*
X1333503Y785857D01*
X1333340Y785855D01*
X1333177Y785857D01*
X1333015Y785863D01*
X1332853Y785873D01*
X1332691Y785887D01*
X1332529Y785905D01*
X1332368Y785927D01*
X1332207Y785953D01*
X1332048Y785982D01*
X1331888Y786016D01*
X1331730Y786054D01*
X1331573Y786095D01*
X1331417Y786140D01*
X1331262Y786189D01*
X1331108Y786242D01*
X1330956Y786299D01*
X1330805Y786359D01*
X1330655Y786423D01*
X1330507Y786491D01*
X1330361Y786562D01*
X1330217Y786637D01*
X1330075Y786716D01*
X1329934Y786798D01*
X1329796Y786883D01*
X1329659Y786972D01*
X1329525Y787064D01*
X1329393Y787159D01*
X1329264Y787257D01*
X1329137Y787359D01*
X1329013Y787463D01*
X1328891Y787571D01*
X1328772Y787682D01*
X1328655Y787795D01*
X1328542Y787912D01*
X1328431Y788031D01*
X1328323Y788153D01*
X1328219Y788277D01*
X1328117Y788404D01*
X1328019Y788533D01*
X1327924Y788665D01*
X1327832Y788799D01*
X1327743Y788936D01*
X1327658Y789074D01*
X1327576Y789215D01*
X1327497Y789357D01*
X1327422Y789501D01*
X1327351Y789647D01*
X1327283Y789795D01*
X1327219Y789945D01*
X1327159Y790096D01*
X1327102Y790248D01*
X1327049Y790402D01*
X1327000Y790557D01*
X1326955Y790713D01*
X1326914Y790870D01*
X1326876Y791028D01*
X1326842Y791188D01*
X1326813Y791347D01*
X1326787Y791508D01*
X1326765Y791669D01*
X1326747Y791831D01*
X1326733Y791993D01*
X1326723Y792155D01*
X1326717Y792317D01*
X1326715Y792480D01*
D42*
X1339840Y792480D03*
D43*
X1333340Y785980D03*
X1333340Y798980D03*
D42*
X1326840Y792480D03*
D44*
X1389930Y926380D03*
X1384930Y918380D03*
X1379930Y926380D03*
X1374930Y918380D03*
X1369930Y926380D03*
X1364930Y918380D03*
X1359930Y926380D03*
X1354930Y918380D03*
X1349930Y926380D03*
X1344930Y918380D03*
X1339930Y926380D03*
X1334930Y918380D03*
X1329930Y926380D03*
X1324930Y918380D03*
X1319930Y926380D03*
X1314930Y918380D03*
X1309930Y926380D03*
X1304930Y918380D03*
X1299930Y926380D03*
X1294930Y918380D03*
X1289930Y926380D03*
D45*
X1279930Y926380D03*
D46*
X1279930Y916380D03*
X1287930Y911380D03*
X1279930Y906380D03*
X1287930Y901380D03*
X1279930Y896380D03*
X1287930Y891380D03*
X1279930Y886380D03*
X1287930Y881380D03*
X1279930Y876380D03*
X1287930Y871380D03*
X1279930Y866380D03*
X1287930Y861380D03*
X1279930Y856380D03*
X1287930Y851380D03*
X1279930Y846380D03*
D45*
X1279930Y836380D03*
D44*
X1289930Y836380D03*
X1294930Y844380D03*
X1299930Y836380D03*
X1304930Y844380D03*
X1309930Y836380D03*
X1314930Y844380D03*
X1319930Y836380D03*
X1324930Y844380D03*
X1329930Y836380D03*
X1334930Y844380D03*
X1339930Y836380D03*
X1344930Y844380D03*
X1349930Y836380D03*
X1354930Y844380D03*
X1359930Y836380D03*
X1364930Y844380D03*
X1369930Y836380D03*
X1374930Y844380D03*
X1379930Y836380D03*
X1384930Y844380D03*
X1389930Y836380D03*
D36*
X927100Y1160780D03*
X952500Y1160780D03*
X977900Y1160780D03*
X1003300Y1160780D03*
X1028700Y1160780D03*
X1054100Y1160780D03*
X1079500Y1160780D03*
X1104900Y1160780D03*
X1130300Y1160780D03*
X1155700Y1160780D03*
X1196340Y601980D03*
X1170940Y601980D03*
X1145540Y601980D03*
X1120140Y601980D03*
X1094740Y601980D03*
X1069340Y601980D03*
X1043940Y601980D03*
X1018540Y601980D03*
X1247140Y601980D03*
X1272540Y601980D03*
X1297940Y601980D03*
X1323340Y601980D03*
X1348740Y601980D03*
X1374140Y601980D03*
X1374140Y1160780D03*
X1348740Y1160780D03*
X1323340Y1160780D03*
X1297940Y1160780D03*
X1272540Y1160780D03*
X1247140Y1160780D03*
X1221740Y1160780D03*
X1196340Y1160780D03*
D10*
X1685680Y951230D03*
X1702680Y951230D03*
X1863480Y762000D03*
X1880480Y762000D03*
X1646800Y1071880D03*
X1629800Y1071880D03*
X1987940Y836930D03*
X2004940Y836930D03*
D11*
X1695480Y749300D03*
X1667480Y749300D03*
D10*
X1571380Y876300D03*
X1588380Y876300D03*
D12*
X1694180Y697100D03*
X1694180Y649100D03*
D13*
X1516380Y891150D03*
X1516380Y874150D03*
D14*
X1531780Y893420D03*
X1531780Y874420D03*
X1552780Y883920D03*
D10*
X1660280Y1036320D03*
X1677280Y1036320D03*
X1504560Y910590D03*
X1487560Y910590D03*
D15*
X1584680Y807873D03*
X1584680Y830580D03*
X1584680Y853465D03*
D16*
X1525270Y830580D03*
D10*
X1620130Y787400D03*
X1603130Y787400D03*
X1603130Y812800D03*
X1620130Y812800D03*
D17*
X1617980Y640080D03*
X2138680Y690880D03*
X2138680Y970280D03*
X1630680Y1122680D03*
D18*
X2137410Y657860D03*
X1592580Y1135380D03*
D10*
X1571380Y891540D03*
X1588380Y891540D03*
D11*
X1598960Y919480D03*
X1570960Y919480D03*
D19*
X1818640Y1106180D03*
X1767840Y1106180D03*
X1717040Y1106180D03*
X1844040Y1139180D03*
X1793240Y1139180D03*
X1742440Y1139180D03*
X1691640Y1139180D03*
X1666240Y1139180D03*
X1691640Y1106180D03*
X1717040Y1139180D03*
X1742440Y1106180D03*
X1767840Y1139180D03*
X1793240Y1106180D03*
X1818640Y1139180D03*
X1844040Y1106180D03*
X1666240Y1106180D03*
X1869440Y1139180D03*
X1894840Y1139180D03*
X1869440Y1106180D03*
X1894840Y1106180D03*
X1783080Y656580D03*
X1833880Y656580D03*
X1884680Y656580D03*
X1757680Y623580D03*
X1808480Y623580D03*
X1859280Y623580D03*
X1910080Y623580D03*
X1935480Y623580D03*
X1910080Y656580D03*
X1884680Y623580D03*
X1859280Y656580D03*
X1833880Y623580D03*
X1808480Y656580D03*
X1783080Y623580D03*
X1757680Y656580D03*
X1935480Y656580D03*
D11*
X1667480Y838200D03*
X1695480Y838200D03*
D20*
X1856980Y741680D03*
X1886980Y741680D03*
X1709180Y970280D03*
X1679180Y970280D03*
D21*
X1638300Y677000D03*
X1638300Y720000D03*
D19*
X1960880Y1139180D03*
X2011680Y1139180D03*
X2062480Y1139180D03*
X1935480Y1106180D03*
X1986280Y1106180D03*
X2037080Y1106180D03*
X2087880Y1106180D03*
X2113280Y1106180D03*
X2087880Y1139180D03*
X2062480Y1106180D03*
X2037080Y1139180D03*
X2011680Y1106180D03*
X1986280Y1139180D03*
X1960880Y1106180D03*
X1935480Y1139180D03*
X2113280Y1139180D03*
X2087880Y623580D03*
X2037080Y623580D03*
X1986280Y623580D03*
X2113280Y656580D03*
X2062480Y656580D03*
X2011680Y656580D03*
X1986280Y656580D03*
X2011680Y623580D03*
X2037080Y656580D03*
X2062480Y623580D03*
X2087880Y656580D03*
X2113280Y623580D03*
D22*
X1498600Y758040D03*
X1498600Y644040D03*
X1559600Y758040D03*
X1559600Y644040D03*
D23*
X1498600Y701040D03*
X1544320Y701040D03*
D24*
X1668479Y801980D03*
X1668479Y792480D03*
X1668479Y782980D03*
X1694481Y782980D03*
X1694481Y801980D03*
D10*
X1689980Y817880D03*
X1672980Y817880D03*
X1596780Y944880D03*
X1613780Y944880D03*
D20*
X1709180Y894080D03*
X1679180Y894080D03*
D10*
X1702680Y875030D03*
X1685680Y875030D03*
X1613780Y1071880D03*
X1596780Y1071880D03*
X1702680Y913130D03*
X1685680Y913130D03*
D20*
X1709180Y932180D03*
X1679180Y932180D03*
D25*
X2150030Y751780D03*
X2150030Y807780D03*
D26*
X2113280Y764780D03*
X2113280Y774780D03*
X2113280Y784780D03*
X2113280Y794780D03*
D27*
X1543320Y1000880D03*
X1543320Y1005880D03*
D28*
X1543320Y976130D03*
D29*
X1543320Y983880D03*
D27*
X1543320Y990880D03*
X1543320Y995880D03*
X1543320Y1015880D03*
X1543320Y1010880D03*
D28*
X1543320Y1040630D03*
D29*
X1543320Y1032880D03*
D27*
X1543320Y1025880D03*
X1543320Y1020880D03*
D30*
X1527330Y1037280D03*
X1527330Y979480D03*
D31*
X1577280Y1052830D03*
X1577280Y1040130D03*
X1577280Y1027430D03*
X1577280Y1014730D03*
X1577280Y1002030D03*
X1577280Y989330D03*
X1577280Y976630D03*
X1577280Y963930D03*
X1633280Y963930D03*
X1633280Y976630D03*
X1633280Y989330D03*
X1633280Y1002030D03*
X1633280Y1014730D03*
X1633280Y1027430D03*
X1633280Y1040130D03*
X1633280Y1052830D03*
D10*
X1487560Y928370D03*
X1504560Y928370D03*
X1580760Y1071880D03*
X1563760Y1071880D03*
D32*
X1557020Y1090930D03*
X1501140Y1090930D03*
X1557020Y1129030D03*
X1501140Y1129030D03*
D33*
X1565910Y947674D03*
X1565910Y939546D03*
D34*
X1520430Y919480D03*
X1550430Y919480D03*
D18*
X1935480Y956310D03*
X1948180Y956310D03*
X1960880Y956310D03*
X1973580Y956310D03*
X1922780Y956310D03*
X1935480Y969010D03*
X1948180Y969010D03*
X1960880Y969010D03*
X1973580Y969010D03*
X1922780Y969010D03*
D10*
X1660280Y990600D03*
X1677280Y990600D03*
X1660280Y1005840D03*
X1677280Y1005840D03*
X2004940Y821690D03*
X1987940Y821690D03*
X2004940Y805180D03*
X1987940Y805180D03*
D35*
X1732280Y791280D03*
X1732280Y768280D03*
D10*
X1677280Y1021080D03*
X1660280Y1021080D03*
D36*
X1808480Y805180D03*
X1783080Y805180D03*
D37*
X1790700Y767080D03*
X1800860Y767080D03*
D38*
X1996440Y865070D03*
X1996440Y890070D03*
D10*
X1987940Y902970D03*
X2004940Y902970D03*
X1987940Y852170D03*
X2004940Y852170D03*
D36*
X1605280Y1097280D03*
X1579880Y1097280D03*
D10*
X1629800Y1087120D03*
X1646800Y1087120D03*
D13*
X2033270Y783980D03*
X2033270Y800980D03*
D39*
X2059480Y801480D03*
D40*
X2072480Y792480D03*
D39*
X2049480Y801480D03*
X2049480Y783480D03*
X2059480Y783480D03*
D41*
X2065855Y792480D02*
X2065857Y792643D01*
X2065863Y792805D01*
X2065873Y792967D01*
X2065887Y793129D01*
X2065905Y793291D01*
X2065927Y793452D01*
X2065953Y793613D01*
X2065982Y793772D01*
X2066016Y793932D01*
X2066054Y794090D01*
X2066095Y794247D01*
X2066140Y794403D01*
X2066189Y794558D01*
X2066242Y794712D01*
X2066299Y794864D01*
X2066359Y795015D01*
X2066423Y795165D01*
X2066491Y795313D01*
X2066562Y795459D01*
X2066637Y795603D01*
X2066716Y795745D01*
X2066798Y795886D01*
X2066883Y796024D01*
X2066972Y796161D01*
X2067064Y796295D01*
X2067159Y796427D01*
X2067257Y796556D01*
X2067359Y796683D01*
X2067463Y796807D01*
X2067571Y796929D01*
X2067682Y797048D01*
X2067795Y797165D01*
X2067912Y797278D01*
X2068031Y797389D01*
X2068153Y797497D01*
X2068277Y797601D01*
X2068404Y797703D01*
X2068533Y797801D01*
X2068665Y797896D01*
X2068799Y797988D01*
X2068936Y798077D01*
X2069074Y798162D01*
X2069215Y798244D01*
X2069357Y798323D01*
X2069501Y798398D01*
X2069647Y798469D01*
X2069795Y798537D01*
X2069945Y798601D01*
X2070096Y798661D01*
X2070248Y798718D01*
X2070402Y798771D01*
X2070557Y798820D01*
X2070713Y798865D01*
X2070870Y798906D01*
X2071028Y798944D01*
X2071188Y798978D01*
X2071347Y799007D01*
X2071508Y799033D01*
X2071669Y799055D01*
X2071831Y799073D01*
X2071993Y799087D01*
X2072155Y799097D01*
X2072317Y799103D01*
X2072480Y799105D01*
X2072643Y799103D01*
X2072805Y799097D01*
X2072967Y799087D01*
X2073129Y799073D01*
X2073291Y799055D01*
X2073452Y799033D01*
X2073613Y799007D01*
X2073772Y798978D01*
X2073932Y798944D01*
X2074090Y798906D01*
X2074247Y798865D01*
X2074403Y798820D01*
X2074558Y798771D01*
X2074712Y798718D01*
X2074864Y798661D01*
X2075015Y798601D01*
X2075165Y798537D01*
X2075313Y798469D01*
X2075459Y798398D01*
X2075603Y798323D01*
X2075745Y798244D01*
X2075886Y798162D01*
X2076024Y798077D01*
X2076161Y797988D01*
X2076295Y797896D01*
X2076427Y797801D01*
X2076556Y797703D01*
X2076683Y797601D01*
X2076807Y797497D01*
X2076929Y797389D01*
X2077048Y797278D01*
X2077165Y797165D01*
X2077278Y797048D01*
X2077389Y796929D01*
X2077497Y796807D01*
X2077601Y796683D01*
X2077703Y796556D01*
X2077801Y796427D01*
X2077896Y796295D01*
X2077988Y796161D01*
X2078077Y796024D01*
X2078162Y795886D01*
X2078244Y795745D01*
X2078323Y795603D01*
X2078398Y795459D01*
X2078469Y795313D01*
X2078537Y795165D01*
X2078601Y795015D01*
X2078661Y794864D01*
X2078718Y794712D01*
X2078771Y794558D01*
X2078820Y794403D01*
X2078865Y794247D01*
X2078906Y794090D01*
X2078944Y793932D01*
X2078978Y793772D01*
X2079007Y793613D01*
X2079033Y793452D01*
X2079055Y793291D01*
X2079073Y793129D01*
X2079087Y792967D01*
X2079097Y792805D01*
X2079103Y792643D01*
X2079105Y792480D01*
X2079103Y792317D01*
X2079097Y792155D01*
X2079087Y791993D01*
X2079073Y791831D01*
X2079055Y791669D01*
X2079033Y791508D01*
X2079007Y791347D01*
X2078978Y791188D01*
X2078944Y791028D01*
X2078906Y790870D01*
X2078865Y790713D01*
X2078820Y790557D01*
X2078771Y790402D01*
X2078718Y790248D01*
X2078661Y790096D01*
X2078601Y789945D01*
X2078537Y789795D01*
X2078469Y789647D01*
X2078398Y789501D01*
X2078323Y789357D01*
X2078244Y789215D01*
X2078162Y789074D01*
X2078077Y788936D01*
X2077988Y788799D01*
X2077896Y788665D01*
X2077801Y788533D01*
X2077703Y788404D01*
X2077601Y788277D01*
X2077497Y788153D01*
X2077389Y788031D01*
X2077278Y787912D01*
X2077165Y787795D01*
X2077048Y787682D01*
X2076929Y787571D01*
X2076807Y787463D01*
X2076683Y787359D01*
X2076556Y787257D01*
X2076427Y787159D01*
X2076295Y787064D01*
X2076161Y786972D01*
X2076024Y786883D01*
X2075886Y786798D01*
X2075745Y786716D01*
X2075603Y786637D01*
X2075459Y786562D01*
X2075313Y786491D01*
X2075165Y786423D01*
X2075015Y786359D01*
X2074864Y786299D01*
X2074712Y786242D01*
X2074558Y786189D01*
X2074403Y786140D01*
X2074247Y786095D01*
X2074090Y786054D01*
X2073932Y786016D01*
X2073772Y785982D01*
X2073613Y785953D01*
X2073452Y785927D01*
X2073291Y785905D01*
X2073129Y785887D01*
X2072967Y785873D01*
X2072805Y785863D01*
X2072643Y785857D01*
X2072480Y785855D01*
X2072317Y785857D01*
X2072155Y785863D01*
X2071993Y785873D01*
X2071831Y785887D01*
X2071669Y785905D01*
X2071508Y785927D01*
X2071347Y785953D01*
X2071188Y785982D01*
X2071028Y786016D01*
X2070870Y786054D01*
X2070713Y786095D01*
X2070557Y786140D01*
X2070402Y786189D01*
X2070248Y786242D01*
X2070096Y786299D01*
X2069945Y786359D01*
X2069795Y786423D01*
X2069647Y786491D01*
X2069501Y786562D01*
X2069357Y786637D01*
X2069215Y786716D01*
X2069074Y786798D01*
X2068936Y786883D01*
X2068799Y786972D01*
X2068665Y787064D01*
X2068533Y787159D01*
X2068404Y787257D01*
X2068277Y787359D01*
X2068153Y787463D01*
X2068031Y787571D01*
X2067912Y787682D01*
X2067795Y787795D01*
X2067682Y787912D01*
X2067571Y788031D01*
X2067463Y788153D01*
X2067359Y788277D01*
X2067257Y788404D01*
X2067159Y788533D01*
X2067064Y788665D01*
X2066972Y788799D01*
X2066883Y788936D01*
X2066798Y789074D01*
X2066716Y789215D01*
X2066637Y789357D01*
X2066562Y789501D01*
X2066491Y789647D01*
X2066423Y789795D01*
X2066359Y789945D01*
X2066299Y790096D01*
X2066242Y790248D01*
X2066189Y790402D01*
X2066140Y790557D01*
X2066095Y790713D01*
X2066054Y790870D01*
X2066016Y791028D01*
X2065982Y791188D01*
X2065953Y791347D01*
X2065927Y791508D01*
X2065905Y791669D01*
X2065887Y791831D01*
X2065873Y791993D01*
X2065863Y792155D01*
X2065857Y792317D01*
X2065855Y792480D01*
D42*
X2078980Y792480D03*
D43*
X2072480Y785980D03*
X2072480Y798980D03*
D42*
X2065980Y792480D03*
D44*
X2129070Y926380D03*
X2124070Y918380D03*
X2119070Y926380D03*
X2114070Y918380D03*
X2109070Y926380D03*
X2104070Y918380D03*
X2099070Y926380D03*
X2094070Y918380D03*
X2089070Y926380D03*
X2084070Y918380D03*
X2079070Y926380D03*
X2074070Y918380D03*
X2069070Y926380D03*
X2064070Y918380D03*
X2059070Y926380D03*
X2054070Y918380D03*
X2049070Y926380D03*
X2044070Y918380D03*
X2039070Y926380D03*
X2034070Y918380D03*
X2029070Y926380D03*
D45*
X2019070Y926380D03*
D46*
X2019070Y916380D03*
X2027070Y911380D03*
X2019070Y906380D03*
X2027070Y901380D03*
X2019070Y896380D03*
X2027070Y891380D03*
X2019070Y886380D03*
X2027070Y881380D03*
X2019070Y876380D03*
X2027070Y871380D03*
X2019070Y866380D03*
X2027070Y861380D03*
X2019070Y856380D03*
X2027070Y851380D03*
X2019070Y846380D03*
D45*
X2019070Y836380D03*
D44*
X2029070Y836380D03*
X2034070Y844380D03*
X2039070Y836380D03*
X2044070Y844380D03*
X2049070Y836380D03*
X2054070Y844380D03*
X2059070Y836380D03*
X2064070Y844380D03*
X2069070Y836380D03*
X2074070Y844380D03*
X2079070Y836380D03*
X2084070Y844380D03*
X2089070Y836380D03*
X2094070Y844380D03*
X2099070Y836380D03*
X2104070Y844380D03*
X2109070Y836380D03*
X2114070Y844380D03*
X2119070Y836380D03*
X2124070Y844380D03*
X2129070Y836380D03*
D36*
X1666240Y1160780D03*
X1691640Y1160780D03*
X1717040Y1160780D03*
X1742440Y1160780D03*
X1767840Y1160780D03*
X1793240Y1160780D03*
X1818640Y1160780D03*
X1844040Y1160780D03*
X1869440Y1160780D03*
X1894840Y1160780D03*
X1935480Y601980D03*
X1910080Y601980D03*
X1884680Y601980D03*
X1859280Y601980D03*
X1833880Y601980D03*
X1808480Y601980D03*
X1783080Y601980D03*
X1757680Y601980D03*
X1986280Y601980D03*
X2011680Y601980D03*
X2037080Y601980D03*
X2062480Y601980D03*
X2087880Y601980D03*
X2113280Y601980D03*
X2113280Y1160780D03*
X2087880Y1160780D03*
X2062480Y1160780D03*
X2037080Y1160780D03*
X2011680Y1160780D03*
X1986280Y1160780D03*
X1960880Y1160780D03*
X1935480Y1160780D03*
D18*
X116840Y1194435D03*
X2047240Y1194435D03*
D47*
X107785Y-20955D02*
X107788Y-20733D01*
X107796Y-20511D01*
X107810Y-20289D01*
X107829Y-20067D01*
X107853Y-19847D01*
X107883Y-19626D01*
X107918Y-19407D01*
X107959Y-19188D01*
X108005Y-18971D01*
X108056Y-18755D01*
X108113Y-18540D01*
X108175Y-18326D01*
X108242Y-18115D01*
X108314Y-17904D01*
X108392Y-17696D01*
X108474Y-17490D01*
X108562Y-17286D01*
X108654Y-17083D01*
X108752Y-16884D01*
X108854Y-16687D01*
X108961Y-16492D01*
X109073Y-16300D01*
X109190Y-16111D01*
X109311Y-15924D01*
X109437Y-15741D01*
X109567Y-15561D01*
X109702Y-15384D01*
X109840Y-15211D01*
X109983Y-15041D01*
X110131Y-14874D01*
X110282Y-14711D01*
X110437Y-14552D01*
X110596Y-14397D01*
X110759Y-14246D01*
X110926Y-14098D01*
X111096Y-13955D01*
X111269Y-13817D01*
X111446Y-13682D01*
X111626Y-13552D01*
X111809Y-13426D01*
X111996Y-13305D01*
X112185Y-13188D01*
X112377Y-13076D01*
X112572Y-12969D01*
X112769Y-12867D01*
X112968Y-12769D01*
X113171Y-12677D01*
X113375Y-12589D01*
X113581Y-12507D01*
X113789Y-12429D01*
X114000Y-12357D01*
X114211Y-12290D01*
X114425Y-12228D01*
X114640Y-12171D01*
X114856Y-12120D01*
X115073Y-12074D01*
X115292Y-12033D01*
X115511Y-11998D01*
X115732Y-11968D01*
X115952Y-11944D01*
X116174Y-11925D01*
X116396Y-11911D01*
X116618Y-11903D01*
X116840Y-11900D01*
X117062Y-11903D01*
X117284Y-11911D01*
X117506Y-11925D01*
X117728Y-11944D01*
X117948Y-11968D01*
X118169Y-11998D01*
X118388Y-12033D01*
X118607Y-12074D01*
X118824Y-12120D01*
X119040Y-12171D01*
X119255Y-12228D01*
X119469Y-12290D01*
X119680Y-12357D01*
X119891Y-12429D01*
X120099Y-12507D01*
X120305Y-12589D01*
X120509Y-12677D01*
X120712Y-12769D01*
X120911Y-12867D01*
X121108Y-12969D01*
X121303Y-13076D01*
X121495Y-13188D01*
X121684Y-13305D01*
X121871Y-13426D01*
X122054Y-13552D01*
X122234Y-13682D01*
X122411Y-13817D01*
X122584Y-13955D01*
X122754Y-14098D01*
X122921Y-14246D01*
X123084Y-14397D01*
X123243Y-14552D01*
X123398Y-14711D01*
X123549Y-14874D01*
X123697Y-15041D01*
X123840Y-15211D01*
X123978Y-15384D01*
X124113Y-15561D01*
X124243Y-15741D01*
X124369Y-15924D01*
X124490Y-16111D01*
X124607Y-16300D01*
X124719Y-16492D01*
X124826Y-16687D01*
X124928Y-16884D01*
X125026Y-17083D01*
X125118Y-17286D01*
X125206Y-17490D01*
X125288Y-17696D01*
X125366Y-17904D01*
X125438Y-18115D01*
X125505Y-18326D01*
X125567Y-18540D01*
X125624Y-18755D01*
X125675Y-18971D01*
X125721Y-19188D01*
X125762Y-19407D01*
X125797Y-19626D01*
X125827Y-19847D01*
X125851Y-20067D01*
X125870Y-20289D01*
X125884Y-20511D01*
X125892Y-20733D01*
X125895Y-20955D01*
X125892Y-21177D01*
X125884Y-21399D01*
X125870Y-21621D01*
X125851Y-21843D01*
X125827Y-22063D01*
X125797Y-22284D01*
X125762Y-22503D01*
X125721Y-22722D01*
X125675Y-22939D01*
X125624Y-23155D01*
X125567Y-23370D01*
X125505Y-23584D01*
X125438Y-23795D01*
X125366Y-24006D01*
X125288Y-24214D01*
X125206Y-24420D01*
X125118Y-24624D01*
X125026Y-24827D01*
X124928Y-25026D01*
X124826Y-25223D01*
X124719Y-25418D01*
X124607Y-25610D01*
X124490Y-25799D01*
X124369Y-25986D01*
X124243Y-26169D01*
X124113Y-26349D01*
X123978Y-26526D01*
X123840Y-26699D01*
X123697Y-26869D01*
X123549Y-27036D01*
X123398Y-27199D01*
X123243Y-27358D01*
X123084Y-27513D01*
X122921Y-27664D01*
X122754Y-27812D01*
X122584Y-27955D01*
X122411Y-28093D01*
X122234Y-28228D01*
X122054Y-28358D01*
X121871Y-28484D01*
X121684Y-28605D01*
X121495Y-28722D01*
X121303Y-28834D01*
X121108Y-28941D01*
X120911Y-29043D01*
X120712Y-29141D01*
X120509Y-29233D01*
X120305Y-29321D01*
X120099Y-29403D01*
X119891Y-29481D01*
X119680Y-29553D01*
X119469Y-29620D01*
X119255Y-29682D01*
X119040Y-29739D01*
X118824Y-29790D01*
X118607Y-29836D01*
X118388Y-29877D01*
X118169Y-29912D01*
X117948Y-29942D01*
X117728Y-29966D01*
X117506Y-29985D01*
X117284Y-29999D01*
X117062Y-30007D01*
X116840Y-30010D01*
X116618Y-30007D01*
X116396Y-29999D01*
X116174Y-29985D01*
X115952Y-29966D01*
X115732Y-29942D01*
X115511Y-29912D01*
X115292Y-29877D01*
X115073Y-29836D01*
X114856Y-29790D01*
X114640Y-29739D01*
X114425Y-29682D01*
X114211Y-29620D01*
X114000Y-29553D01*
X113789Y-29481D01*
X113581Y-29403D01*
X113375Y-29321D01*
X113171Y-29233D01*
X112968Y-29141D01*
X112769Y-29043D01*
X112572Y-28941D01*
X112377Y-28834D01*
X112185Y-28722D01*
X111996Y-28605D01*
X111809Y-28484D01*
X111626Y-28358D01*
X111446Y-28228D01*
X111269Y-28093D01*
X111096Y-27955D01*
X110926Y-27812D01*
X110759Y-27664D01*
X110596Y-27513D01*
X110437Y-27358D01*
X110282Y-27199D01*
X110131Y-27036D01*
X109983Y-26869D01*
X109840Y-26699D01*
X109702Y-26526D01*
X109567Y-26349D01*
X109437Y-26169D01*
X109311Y-25986D01*
X109190Y-25799D01*
X109073Y-25610D01*
X108961Y-25418D01*
X108854Y-25223D01*
X108752Y-25026D01*
X108654Y-24827D01*
X108562Y-24624D01*
X108474Y-24420D01*
X108392Y-24214D01*
X108314Y-24006D01*
X108242Y-23795D01*
X108175Y-23584D01*
X108113Y-23370D01*
X108056Y-23155D01*
X108005Y-22939D01*
X107959Y-22722D01*
X107918Y-22503D01*
X107883Y-22284D01*
X107853Y-22063D01*
X107829Y-21843D01*
X107810Y-21621D01*
X107796Y-21399D01*
X107788Y-21177D01*
X107785Y-20955D01*
D48*
X116840Y-20955D03*
M02*
