G04 EAGLE Gerber RS-274X export*
G75*
%MOMM*%
%FSLAX34Y34*%
%LPD*%
%INSolderpaste Top*%
%IPPOS*%
%AMOC8*
5,1,8,0,0,1.08239X$1,22.5*%
G01*
%ADD10R,1.100000X1.000000*%
%ADD11R,1.400000X1.600000*%
%ADD12R,1.400000X3.000000*%
%ADD13R,1.000000X1.100000*%
%ADD14R,0.900000X0.800000*%
%ADD15R,1.524000X0.838200*%
%ADD16R,1.778000X3.124200*%
%ADD17R,1.000000X2.000000*%
%ADD18R,1.200000X1.400000*%
%ADD19R,1.470000X1.270000*%
%ADD20R,2.800000X2.400000*%
%ADD21R,2.799081X1.485900*%
%ADD22R,1.200000X0.550000*%
%ADD23R,2.000000X1.200000*%
%ADD24R,1.350000X0.600000*%
%ADD25R,1.016000X0.300000*%
%ADD26R,1.016000X0.600000*%
%ADD27R,1.016000X0.550000*%
%ADD28R,1.200000X0.600000*%
%ADD29R,1.524000X0.762000*%
%ADD30R,1.000000X2.800000*%
%ADD31R,0.830000X0.630000*%
%ADD32R,1.800000X1.000000*%
%ADD33R,0.522000X0.725000*%
%ADD34R,0.200000X0.500000*%
%ADD35R,0.500000X0.200000*%
%ADD36R,0.400000X0.600000*%
%ADD37R,0.600000X0.600000*%
%ADD38R,0.600000X0.400000*%

G36*
X799444Y959134D02*
X799444Y959134D01*
X799447Y959131D01*
X800569Y959286D01*
X800574Y959291D01*
X800578Y959288D01*
X801649Y959659D01*
X801653Y959665D01*
X801658Y959663D01*
X802635Y960236D01*
X802638Y960242D01*
X802643Y960241D01*
X803490Y960994D01*
X803492Y961001D01*
X803497Y961001D01*
X804181Y961904D01*
X804181Y961911D01*
X804186Y961912D01*
X804681Y962931D01*
X804679Y962938D01*
X804684Y962940D01*
X804971Y964037D01*
X804969Y964041D01*
X804971Y964042D01*
X804969Y964044D01*
X804972Y964046D01*
X805039Y965177D01*
X805037Y965181D01*
X805039Y965183D01*
X804972Y966314D01*
X804967Y966319D01*
X804971Y966323D01*
X804684Y967420D01*
X804678Y967424D01*
X804681Y967429D01*
X804186Y968448D01*
X804180Y968451D01*
X804181Y968456D01*
X803497Y969359D01*
X803490Y969361D01*
X803490Y969366D01*
X802643Y970119D01*
X802636Y970119D01*
X802635Y970124D01*
X801658Y970697D01*
X801651Y970696D01*
X801649Y970701D01*
X800578Y971072D01*
X800572Y971069D01*
X800569Y971074D01*
X799447Y971229D01*
X799442Y971226D01*
X799440Y971229D01*
X787440Y971229D01*
X787435Y971226D01*
X787432Y971229D01*
X786165Y971024D01*
X786159Y971018D01*
X786155Y971021D01*
X784965Y970539D01*
X784961Y970532D01*
X784955Y970534D01*
X783902Y969800D01*
X783900Y969792D01*
X783894Y969793D01*
X783031Y968843D01*
X783030Y968834D01*
X783025Y968834D01*
X782395Y967715D01*
X782396Y967707D01*
X782390Y967705D01*
X782025Y966475D01*
X782028Y966467D01*
X782023Y966464D01*
X781941Y965183D01*
X781944Y965179D01*
X781941Y965177D01*
X782023Y963896D01*
X782029Y963890D01*
X782025Y963885D01*
X782390Y962655D01*
X782397Y962650D01*
X782395Y962645D01*
X783025Y961526D01*
X783032Y961523D01*
X783031Y961517D01*
X783894Y960567D01*
X783902Y960566D01*
X783902Y960560D01*
X784955Y959826D01*
X784963Y959826D01*
X784965Y959821D01*
X786155Y959339D01*
X786162Y959341D01*
X786165Y959336D01*
X787432Y959131D01*
X787437Y959134D01*
X787440Y959131D01*
X799440Y959131D01*
X799444Y959134D01*
G37*
G36*
X60304Y959134D02*
X60304Y959134D01*
X60307Y959131D01*
X61429Y959286D01*
X61434Y959291D01*
X61438Y959288D01*
X62509Y959659D01*
X62513Y959665D01*
X62518Y959663D01*
X63495Y960236D01*
X63498Y960242D01*
X63503Y960241D01*
X64350Y960994D01*
X64352Y961001D01*
X64357Y961001D01*
X65041Y961904D01*
X65041Y961911D01*
X65046Y961912D01*
X65541Y962931D01*
X65539Y962938D01*
X65544Y962940D01*
X65831Y964037D01*
X65829Y964041D01*
X65831Y964042D01*
X65829Y964044D01*
X65832Y964046D01*
X65899Y965177D01*
X65897Y965181D01*
X65899Y965183D01*
X65832Y966314D01*
X65827Y966319D01*
X65831Y966323D01*
X65544Y967420D01*
X65538Y967424D01*
X65541Y967429D01*
X65046Y968448D01*
X65040Y968451D01*
X65041Y968456D01*
X64357Y969359D01*
X64350Y969361D01*
X64350Y969366D01*
X63503Y970119D01*
X63496Y970119D01*
X63495Y970124D01*
X62518Y970697D01*
X62511Y970696D01*
X62509Y970701D01*
X61438Y971072D01*
X61432Y971069D01*
X61429Y971074D01*
X60307Y971229D01*
X60302Y971226D01*
X60300Y971229D01*
X48300Y971229D01*
X48295Y971226D01*
X48292Y971229D01*
X47025Y971024D01*
X47019Y971018D01*
X47015Y971021D01*
X45825Y970539D01*
X45821Y970532D01*
X45815Y970534D01*
X44762Y969800D01*
X44760Y969792D01*
X44754Y969793D01*
X43891Y968843D01*
X43890Y968834D01*
X43885Y968834D01*
X43255Y967715D01*
X43256Y967707D01*
X43250Y967705D01*
X42885Y966475D01*
X42888Y966467D01*
X42883Y966464D01*
X42801Y965183D01*
X42804Y965179D01*
X42801Y965177D01*
X42883Y963896D01*
X42889Y963890D01*
X42885Y963885D01*
X43250Y962655D01*
X43257Y962650D01*
X43255Y962645D01*
X43885Y961526D01*
X43892Y961523D01*
X43891Y961517D01*
X44754Y960567D01*
X44762Y960566D01*
X44762Y960560D01*
X45815Y959826D01*
X45823Y959826D01*
X45825Y959821D01*
X47015Y959339D01*
X47022Y959341D01*
X47025Y959336D01*
X48292Y959131D01*
X48297Y959134D01*
X48300Y959131D01*
X60300Y959131D01*
X60304Y959134D01*
G37*
G36*
X1538584Y959134D02*
X1538584Y959134D01*
X1538587Y959131D01*
X1539709Y959286D01*
X1539714Y959291D01*
X1539718Y959288D01*
X1540789Y959659D01*
X1540793Y959665D01*
X1540798Y959663D01*
X1541775Y960236D01*
X1541778Y960242D01*
X1541783Y960241D01*
X1542630Y960994D01*
X1542632Y961001D01*
X1542637Y961001D01*
X1543321Y961904D01*
X1543321Y961911D01*
X1543326Y961912D01*
X1543821Y962931D01*
X1543819Y962938D01*
X1543824Y962940D01*
X1544111Y964037D01*
X1544109Y964041D01*
X1544111Y964042D01*
X1544109Y964044D01*
X1544112Y964046D01*
X1544179Y965177D01*
X1544177Y965181D01*
X1544179Y965183D01*
X1544112Y966314D01*
X1544107Y966319D01*
X1544111Y966323D01*
X1543824Y967420D01*
X1543818Y967424D01*
X1543821Y967429D01*
X1543326Y968448D01*
X1543320Y968451D01*
X1543321Y968456D01*
X1542637Y969359D01*
X1542630Y969361D01*
X1542630Y969366D01*
X1541783Y970119D01*
X1541776Y970119D01*
X1541775Y970124D01*
X1540798Y970697D01*
X1540791Y970696D01*
X1540789Y970701D01*
X1539718Y971072D01*
X1539712Y971069D01*
X1539709Y971074D01*
X1538587Y971229D01*
X1538582Y971226D01*
X1538580Y971229D01*
X1526580Y971229D01*
X1526575Y971226D01*
X1526572Y971229D01*
X1525305Y971024D01*
X1525299Y971018D01*
X1525295Y971021D01*
X1524105Y970539D01*
X1524101Y970532D01*
X1524095Y970534D01*
X1523042Y969800D01*
X1523040Y969792D01*
X1523034Y969793D01*
X1522171Y968843D01*
X1522170Y968834D01*
X1522165Y968834D01*
X1521535Y967715D01*
X1521536Y967707D01*
X1521530Y967705D01*
X1521165Y966475D01*
X1521168Y966467D01*
X1521163Y966464D01*
X1521081Y965183D01*
X1521084Y965179D01*
X1521081Y965177D01*
X1521163Y963896D01*
X1521169Y963890D01*
X1521165Y963885D01*
X1521530Y962655D01*
X1521537Y962650D01*
X1521535Y962645D01*
X1522165Y961526D01*
X1522172Y961523D01*
X1522171Y961517D01*
X1523034Y960567D01*
X1523042Y960566D01*
X1523042Y960560D01*
X1524095Y959826D01*
X1524103Y959826D01*
X1524105Y959821D01*
X1525295Y959339D01*
X1525302Y959341D01*
X1525305Y959336D01*
X1526572Y959131D01*
X1526577Y959134D01*
X1526580Y959131D01*
X1538580Y959131D01*
X1538584Y959134D01*
G37*
G36*
X1538584Y1045534D02*
X1538584Y1045534D01*
X1538587Y1045531D01*
X1539709Y1045686D01*
X1539714Y1045691D01*
X1539718Y1045688D01*
X1540789Y1046059D01*
X1540793Y1046065D01*
X1540798Y1046063D01*
X1541775Y1046636D01*
X1541778Y1046642D01*
X1541783Y1046641D01*
X1542630Y1047394D01*
X1542632Y1047401D01*
X1542637Y1047401D01*
X1543321Y1048304D01*
X1543321Y1048311D01*
X1543326Y1048312D01*
X1543821Y1049331D01*
X1543819Y1049338D01*
X1543824Y1049340D01*
X1544111Y1050437D01*
X1544109Y1050441D01*
X1544111Y1050442D01*
X1544109Y1050444D01*
X1544112Y1050446D01*
X1544179Y1051577D01*
X1544177Y1051581D01*
X1544179Y1051583D01*
X1544112Y1052714D01*
X1544107Y1052719D01*
X1544111Y1052723D01*
X1543824Y1053820D01*
X1543818Y1053824D01*
X1543821Y1053829D01*
X1543326Y1054848D01*
X1543320Y1054851D01*
X1543321Y1054856D01*
X1542637Y1055759D01*
X1542630Y1055761D01*
X1542630Y1055766D01*
X1541783Y1056519D01*
X1541776Y1056519D01*
X1541775Y1056524D01*
X1540798Y1057097D01*
X1540791Y1057096D01*
X1540789Y1057101D01*
X1539718Y1057472D01*
X1539712Y1057469D01*
X1539709Y1057474D01*
X1538587Y1057629D01*
X1538582Y1057626D01*
X1538580Y1057629D01*
X1526580Y1057629D01*
X1526575Y1057626D01*
X1526572Y1057629D01*
X1525305Y1057424D01*
X1525299Y1057418D01*
X1525295Y1057421D01*
X1524105Y1056939D01*
X1524101Y1056932D01*
X1524095Y1056934D01*
X1523042Y1056200D01*
X1523040Y1056192D01*
X1523034Y1056193D01*
X1522171Y1055243D01*
X1522170Y1055234D01*
X1522165Y1055234D01*
X1521535Y1054115D01*
X1521536Y1054107D01*
X1521530Y1054105D01*
X1521165Y1052875D01*
X1521168Y1052867D01*
X1521163Y1052864D01*
X1521081Y1051583D01*
X1521084Y1051579D01*
X1521081Y1051577D01*
X1521163Y1050296D01*
X1521169Y1050290D01*
X1521165Y1050285D01*
X1521530Y1049055D01*
X1521537Y1049050D01*
X1521535Y1049045D01*
X1522165Y1047926D01*
X1522172Y1047923D01*
X1522171Y1047917D01*
X1523034Y1046967D01*
X1523042Y1046966D01*
X1523042Y1046960D01*
X1524095Y1046226D01*
X1524103Y1046226D01*
X1524105Y1046221D01*
X1525295Y1045739D01*
X1525302Y1045741D01*
X1525305Y1045736D01*
X1526572Y1045531D01*
X1526577Y1045534D01*
X1526580Y1045531D01*
X1538580Y1045531D01*
X1538584Y1045534D01*
G37*
G36*
X799444Y1045534D02*
X799444Y1045534D01*
X799447Y1045531D01*
X800569Y1045686D01*
X800574Y1045691D01*
X800578Y1045688D01*
X801649Y1046059D01*
X801653Y1046065D01*
X801658Y1046063D01*
X802635Y1046636D01*
X802638Y1046642D01*
X802643Y1046641D01*
X803490Y1047394D01*
X803492Y1047401D01*
X803497Y1047401D01*
X804181Y1048304D01*
X804181Y1048311D01*
X804186Y1048312D01*
X804681Y1049331D01*
X804679Y1049338D01*
X804684Y1049340D01*
X804971Y1050437D01*
X804969Y1050441D01*
X804971Y1050442D01*
X804969Y1050444D01*
X804972Y1050446D01*
X805039Y1051577D01*
X805037Y1051581D01*
X805039Y1051583D01*
X804972Y1052714D01*
X804967Y1052719D01*
X804971Y1052723D01*
X804684Y1053820D01*
X804678Y1053824D01*
X804681Y1053829D01*
X804186Y1054848D01*
X804180Y1054851D01*
X804181Y1054856D01*
X803497Y1055759D01*
X803490Y1055761D01*
X803490Y1055766D01*
X802643Y1056519D01*
X802636Y1056519D01*
X802635Y1056524D01*
X801658Y1057097D01*
X801651Y1057096D01*
X801649Y1057101D01*
X800578Y1057472D01*
X800572Y1057469D01*
X800569Y1057474D01*
X799447Y1057629D01*
X799442Y1057626D01*
X799440Y1057629D01*
X787440Y1057629D01*
X787435Y1057626D01*
X787432Y1057629D01*
X786165Y1057424D01*
X786159Y1057418D01*
X786155Y1057421D01*
X784965Y1056939D01*
X784961Y1056932D01*
X784955Y1056934D01*
X783902Y1056200D01*
X783900Y1056192D01*
X783894Y1056193D01*
X783031Y1055243D01*
X783030Y1055234D01*
X783025Y1055234D01*
X782395Y1054115D01*
X782396Y1054107D01*
X782390Y1054105D01*
X782025Y1052875D01*
X782028Y1052867D01*
X782023Y1052864D01*
X781941Y1051583D01*
X781944Y1051579D01*
X781941Y1051577D01*
X782023Y1050296D01*
X782029Y1050290D01*
X782025Y1050285D01*
X782390Y1049055D01*
X782397Y1049050D01*
X782395Y1049045D01*
X783025Y1047926D01*
X783032Y1047923D01*
X783031Y1047917D01*
X783894Y1046967D01*
X783902Y1046966D01*
X783902Y1046960D01*
X784955Y1046226D01*
X784963Y1046226D01*
X784965Y1046221D01*
X786155Y1045739D01*
X786162Y1045741D01*
X786165Y1045736D01*
X787432Y1045531D01*
X787437Y1045534D01*
X787440Y1045531D01*
X799440Y1045531D01*
X799444Y1045534D01*
G37*
G36*
X60304Y1045534D02*
X60304Y1045534D01*
X60307Y1045531D01*
X61429Y1045686D01*
X61434Y1045691D01*
X61438Y1045688D01*
X62509Y1046059D01*
X62513Y1046065D01*
X62518Y1046063D01*
X63495Y1046636D01*
X63498Y1046642D01*
X63503Y1046641D01*
X64350Y1047394D01*
X64352Y1047401D01*
X64357Y1047401D01*
X65041Y1048304D01*
X65041Y1048311D01*
X65046Y1048312D01*
X65541Y1049331D01*
X65539Y1049338D01*
X65544Y1049340D01*
X65831Y1050437D01*
X65829Y1050441D01*
X65831Y1050442D01*
X65829Y1050444D01*
X65832Y1050446D01*
X65899Y1051577D01*
X65897Y1051581D01*
X65899Y1051583D01*
X65832Y1052714D01*
X65827Y1052719D01*
X65831Y1052723D01*
X65544Y1053820D01*
X65538Y1053824D01*
X65541Y1053829D01*
X65046Y1054848D01*
X65040Y1054851D01*
X65041Y1054856D01*
X64357Y1055759D01*
X64350Y1055761D01*
X64350Y1055766D01*
X63503Y1056519D01*
X63496Y1056519D01*
X63495Y1056524D01*
X62518Y1057097D01*
X62511Y1057096D01*
X62509Y1057101D01*
X61438Y1057472D01*
X61432Y1057469D01*
X61429Y1057474D01*
X60307Y1057629D01*
X60302Y1057626D01*
X60300Y1057629D01*
X48300Y1057629D01*
X48295Y1057626D01*
X48292Y1057629D01*
X47025Y1057424D01*
X47019Y1057418D01*
X47015Y1057421D01*
X45825Y1056939D01*
X45821Y1056932D01*
X45815Y1056934D01*
X44762Y1056200D01*
X44760Y1056192D01*
X44754Y1056193D01*
X43891Y1055243D01*
X43890Y1055234D01*
X43885Y1055234D01*
X43255Y1054115D01*
X43256Y1054107D01*
X43250Y1054105D01*
X42885Y1052875D01*
X42888Y1052867D01*
X42883Y1052864D01*
X42801Y1051583D01*
X42804Y1051579D01*
X42801Y1051577D01*
X42883Y1050296D01*
X42889Y1050290D01*
X42885Y1050285D01*
X43250Y1049055D01*
X43257Y1049050D01*
X43255Y1049045D01*
X43885Y1047926D01*
X43892Y1047923D01*
X43891Y1047917D01*
X44754Y1046967D01*
X44762Y1046966D01*
X44762Y1046960D01*
X45815Y1046226D01*
X45823Y1046226D01*
X45825Y1046221D01*
X47015Y1045739D01*
X47022Y1045741D01*
X47025Y1045736D01*
X48292Y1045531D01*
X48297Y1045534D01*
X48300Y1045531D01*
X60300Y1045531D01*
X60304Y1045534D01*
G37*
G36*
X60304Y369854D02*
X60304Y369854D01*
X60307Y369851D01*
X61429Y370006D01*
X61434Y370011D01*
X61438Y370008D01*
X62509Y370379D01*
X62513Y370385D01*
X62518Y370383D01*
X63495Y370956D01*
X63498Y370962D01*
X63503Y370961D01*
X64350Y371714D01*
X64352Y371721D01*
X64357Y371721D01*
X65041Y372624D01*
X65041Y372631D01*
X65046Y372632D01*
X65541Y373651D01*
X65539Y373658D01*
X65544Y373660D01*
X65831Y374757D01*
X65829Y374761D01*
X65831Y374762D01*
X65829Y374764D01*
X65832Y374766D01*
X65899Y375897D01*
X65897Y375901D01*
X65899Y375903D01*
X65832Y377034D01*
X65827Y377039D01*
X65831Y377043D01*
X65544Y378140D01*
X65538Y378144D01*
X65541Y378149D01*
X65046Y379168D01*
X65040Y379171D01*
X65041Y379176D01*
X64357Y380079D01*
X64350Y380081D01*
X64350Y380086D01*
X63503Y380839D01*
X63496Y380839D01*
X63495Y380844D01*
X62518Y381417D01*
X62511Y381416D01*
X62509Y381421D01*
X61438Y381792D01*
X61432Y381789D01*
X61429Y381794D01*
X60307Y381949D01*
X60302Y381946D01*
X60300Y381949D01*
X48300Y381949D01*
X48295Y381946D01*
X48292Y381949D01*
X47025Y381744D01*
X47019Y381738D01*
X47015Y381741D01*
X45825Y381259D01*
X45821Y381252D01*
X45815Y381254D01*
X44762Y380520D01*
X44760Y380512D01*
X44754Y380513D01*
X43891Y379563D01*
X43890Y379554D01*
X43885Y379554D01*
X43255Y378435D01*
X43256Y378427D01*
X43250Y378425D01*
X42885Y377195D01*
X42888Y377187D01*
X42883Y377184D01*
X42801Y375903D01*
X42804Y375899D01*
X42801Y375897D01*
X42883Y374616D01*
X42889Y374610D01*
X42885Y374605D01*
X43250Y373375D01*
X43257Y373370D01*
X43255Y373365D01*
X43885Y372246D01*
X43892Y372243D01*
X43891Y372237D01*
X44754Y371287D01*
X44762Y371286D01*
X44762Y371280D01*
X45815Y370546D01*
X45823Y370546D01*
X45825Y370541D01*
X47015Y370059D01*
X47022Y370061D01*
X47025Y370056D01*
X48292Y369851D01*
X48297Y369854D01*
X48300Y369851D01*
X60300Y369851D01*
X60304Y369854D01*
G37*
G36*
X60304Y456254D02*
X60304Y456254D01*
X60307Y456251D01*
X61429Y456406D01*
X61434Y456411D01*
X61438Y456408D01*
X62509Y456779D01*
X62513Y456785D01*
X62518Y456783D01*
X63495Y457356D01*
X63498Y457362D01*
X63503Y457361D01*
X64350Y458114D01*
X64352Y458121D01*
X64357Y458121D01*
X65041Y459024D01*
X65041Y459031D01*
X65046Y459032D01*
X65541Y460051D01*
X65539Y460058D01*
X65544Y460060D01*
X65831Y461157D01*
X65829Y461161D01*
X65831Y461162D01*
X65829Y461164D01*
X65832Y461166D01*
X65899Y462297D01*
X65897Y462301D01*
X65899Y462303D01*
X65832Y463434D01*
X65827Y463439D01*
X65831Y463443D01*
X65544Y464540D01*
X65538Y464544D01*
X65541Y464549D01*
X65046Y465568D01*
X65040Y465571D01*
X65041Y465576D01*
X64357Y466479D01*
X64350Y466481D01*
X64350Y466486D01*
X63503Y467239D01*
X63496Y467239D01*
X63495Y467244D01*
X62518Y467817D01*
X62511Y467816D01*
X62509Y467821D01*
X61438Y468192D01*
X61432Y468189D01*
X61429Y468194D01*
X60307Y468349D01*
X60302Y468346D01*
X60300Y468349D01*
X48300Y468349D01*
X48295Y468346D01*
X48292Y468349D01*
X47025Y468144D01*
X47019Y468138D01*
X47015Y468141D01*
X45825Y467659D01*
X45821Y467652D01*
X45815Y467654D01*
X44762Y466920D01*
X44760Y466912D01*
X44754Y466913D01*
X43891Y465963D01*
X43890Y465954D01*
X43885Y465954D01*
X43255Y464835D01*
X43256Y464827D01*
X43250Y464825D01*
X42885Y463595D01*
X42888Y463587D01*
X42883Y463584D01*
X42801Y462303D01*
X42804Y462299D01*
X42801Y462297D01*
X42883Y461016D01*
X42889Y461010D01*
X42885Y461005D01*
X43250Y459775D01*
X43257Y459770D01*
X43255Y459765D01*
X43885Y458646D01*
X43892Y458643D01*
X43891Y458637D01*
X44754Y457687D01*
X44762Y457686D01*
X44762Y457680D01*
X45815Y456946D01*
X45823Y456946D01*
X45825Y456941D01*
X47015Y456459D01*
X47022Y456461D01*
X47025Y456456D01*
X48292Y456251D01*
X48297Y456254D01*
X48300Y456251D01*
X60300Y456251D01*
X60304Y456254D01*
G37*
G36*
X1538584Y456254D02*
X1538584Y456254D01*
X1538587Y456251D01*
X1539709Y456406D01*
X1539714Y456411D01*
X1539718Y456408D01*
X1540789Y456779D01*
X1540793Y456785D01*
X1540798Y456783D01*
X1541775Y457356D01*
X1541778Y457362D01*
X1541783Y457361D01*
X1542630Y458114D01*
X1542632Y458121D01*
X1542637Y458121D01*
X1543321Y459024D01*
X1543321Y459031D01*
X1543326Y459032D01*
X1543821Y460051D01*
X1543819Y460058D01*
X1543824Y460060D01*
X1544111Y461157D01*
X1544109Y461161D01*
X1544111Y461162D01*
X1544109Y461164D01*
X1544112Y461166D01*
X1544179Y462297D01*
X1544177Y462301D01*
X1544179Y462303D01*
X1544112Y463434D01*
X1544107Y463439D01*
X1544111Y463443D01*
X1543824Y464540D01*
X1543818Y464544D01*
X1543821Y464549D01*
X1543326Y465568D01*
X1543320Y465571D01*
X1543321Y465576D01*
X1542637Y466479D01*
X1542630Y466481D01*
X1542630Y466486D01*
X1541783Y467239D01*
X1541776Y467239D01*
X1541775Y467244D01*
X1540798Y467817D01*
X1540791Y467816D01*
X1540789Y467821D01*
X1539718Y468192D01*
X1539712Y468189D01*
X1539709Y468194D01*
X1538587Y468349D01*
X1538582Y468346D01*
X1538580Y468349D01*
X1526580Y468349D01*
X1526575Y468346D01*
X1526572Y468349D01*
X1525305Y468144D01*
X1525299Y468138D01*
X1525295Y468141D01*
X1524105Y467659D01*
X1524101Y467652D01*
X1524095Y467654D01*
X1523042Y466920D01*
X1523040Y466912D01*
X1523034Y466913D01*
X1522171Y465963D01*
X1522170Y465954D01*
X1522165Y465954D01*
X1521535Y464835D01*
X1521536Y464827D01*
X1521530Y464825D01*
X1521165Y463595D01*
X1521168Y463587D01*
X1521163Y463584D01*
X1521081Y462303D01*
X1521084Y462299D01*
X1521081Y462297D01*
X1521163Y461016D01*
X1521169Y461010D01*
X1521165Y461005D01*
X1521530Y459775D01*
X1521537Y459770D01*
X1521535Y459765D01*
X1522165Y458646D01*
X1522172Y458643D01*
X1522171Y458637D01*
X1523034Y457687D01*
X1523042Y457686D01*
X1523042Y457680D01*
X1524095Y456946D01*
X1524103Y456946D01*
X1524105Y456941D01*
X1525295Y456459D01*
X1525302Y456461D01*
X1525305Y456456D01*
X1526572Y456251D01*
X1526577Y456254D01*
X1526580Y456251D01*
X1538580Y456251D01*
X1538584Y456254D01*
G37*
G36*
X799444Y456254D02*
X799444Y456254D01*
X799447Y456251D01*
X800569Y456406D01*
X800574Y456411D01*
X800578Y456408D01*
X801649Y456779D01*
X801653Y456785D01*
X801658Y456783D01*
X802635Y457356D01*
X802638Y457362D01*
X802643Y457361D01*
X803490Y458114D01*
X803492Y458121D01*
X803497Y458121D01*
X804181Y459024D01*
X804181Y459031D01*
X804186Y459032D01*
X804681Y460051D01*
X804679Y460058D01*
X804684Y460060D01*
X804971Y461157D01*
X804969Y461161D01*
X804971Y461162D01*
X804969Y461164D01*
X804972Y461166D01*
X805039Y462297D01*
X805037Y462301D01*
X805039Y462303D01*
X804972Y463434D01*
X804967Y463439D01*
X804971Y463443D01*
X804684Y464540D01*
X804678Y464544D01*
X804681Y464549D01*
X804186Y465568D01*
X804180Y465571D01*
X804181Y465576D01*
X803497Y466479D01*
X803490Y466481D01*
X803490Y466486D01*
X802643Y467239D01*
X802636Y467239D01*
X802635Y467244D01*
X801658Y467817D01*
X801651Y467816D01*
X801649Y467821D01*
X800578Y468192D01*
X800572Y468189D01*
X800569Y468194D01*
X799447Y468349D01*
X799442Y468346D01*
X799440Y468349D01*
X787440Y468349D01*
X787435Y468346D01*
X787432Y468349D01*
X786165Y468144D01*
X786159Y468138D01*
X786155Y468141D01*
X784965Y467659D01*
X784961Y467652D01*
X784955Y467654D01*
X783902Y466920D01*
X783900Y466912D01*
X783894Y466913D01*
X783031Y465963D01*
X783030Y465954D01*
X783025Y465954D01*
X782395Y464835D01*
X782396Y464827D01*
X782390Y464825D01*
X782025Y463595D01*
X782028Y463587D01*
X782023Y463584D01*
X781941Y462303D01*
X781944Y462299D01*
X781941Y462297D01*
X782023Y461016D01*
X782029Y461010D01*
X782025Y461005D01*
X782390Y459775D01*
X782397Y459770D01*
X782395Y459765D01*
X783025Y458646D01*
X783032Y458643D01*
X783031Y458637D01*
X783894Y457687D01*
X783902Y457686D01*
X783902Y457680D01*
X784955Y456946D01*
X784963Y456946D01*
X784965Y456941D01*
X786155Y456459D01*
X786162Y456461D01*
X786165Y456456D01*
X787432Y456251D01*
X787437Y456254D01*
X787440Y456251D01*
X799440Y456251D01*
X799444Y456254D01*
G37*
G36*
X799444Y369854D02*
X799444Y369854D01*
X799447Y369851D01*
X800569Y370006D01*
X800574Y370011D01*
X800578Y370008D01*
X801649Y370379D01*
X801653Y370385D01*
X801658Y370383D01*
X802635Y370956D01*
X802638Y370962D01*
X802643Y370961D01*
X803490Y371714D01*
X803492Y371721D01*
X803497Y371721D01*
X804181Y372624D01*
X804181Y372631D01*
X804186Y372632D01*
X804681Y373651D01*
X804679Y373658D01*
X804684Y373660D01*
X804971Y374757D01*
X804969Y374761D01*
X804971Y374762D01*
X804969Y374764D01*
X804972Y374766D01*
X805039Y375897D01*
X805037Y375901D01*
X805039Y375903D01*
X804972Y377034D01*
X804967Y377039D01*
X804971Y377043D01*
X804684Y378140D01*
X804678Y378144D01*
X804681Y378149D01*
X804186Y379168D01*
X804180Y379171D01*
X804181Y379176D01*
X803497Y380079D01*
X803490Y380081D01*
X803490Y380086D01*
X802643Y380839D01*
X802636Y380839D01*
X802635Y380844D01*
X801658Y381417D01*
X801651Y381416D01*
X801649Y381421D01*
X800578Y381792D01*
X800572Y381789D01*
X800569Y381794D01*
X799447Y381949D01*
X799442Y381946D01*
X799440Y381949D01*
X787440Y381949D01*
X787435Y381946D01*
X787432Y381949D01*
X786165Y381744D01*
X786159Y381738D01*
X786155Y381741D01*
X784965Y381259D01*
X784961Y381252D01*
X784955Y381254D01*
X783902Y380520D01*
X783900Y380512D01*
X783894Y380513D01*
X783031Y379563D01*
X783030Y379554D01*
X783025Y379554D01*
X782395Y378435D01*
X782396Y378427D01*
X782390Y378425D01*
X782025Y377195D01*
X782028Y377187D01*
X782023Y377184D01*
X781941Y375903D01*
X781944Y375899D01*
X781941Y375897D01*
X782023Y374616D01*
X782029Y374610D01*
X782025Y374605D01*
X782390Y373375D01*
X782397Y373370D01*
X782395Y373365D01*
X783025Y372246D01*
X783032Y372243D01*
X783031Y372237D01*
X783894Y371287D01*
X783902Y371286D01*
X783902Y371280D01*
X784955Y370546D01*
X784963Y370546D01*
X784965Y370541D01*
X786155Y370059D01*
X786162Y370061D01*
X786165Y370056D01*
X787432Y369851D01*
X787437Y369854D01*
X787440Y369851D01*
X799440Y369851D01*
X799444Y369854D01*
G37*
G36*
X1538584Y369854D02*
X1538584Y369854D01*
X1538587Y369851D01*
X1539709Y370006D01*
X1539714Y370011D01*
X1539718Y370008D01*
X1540789Y370379D01*
X1540793Y370385D01*
X1540798Y370383D01*
X1541775Y370956D01*
X1541778Y370962D01*
X1541783Y370961D01*
X1542630Y371714D01*
X1542632Y371721D01*
X1542637Y371721D01*
X1543321Y372624D01*
X1543321Y372631D01*
X1543326Y372632D01*
X1543821Y373651D01*
X1543819Y373658D01*
X1543824Y373660D01*
X1544111Y374757D01*
X1544109Y374761D01*
X1544111Y374762D01*
X1544109Y374764D01*
X1544112Y374766D01*
X1544179Y375897D01*
X1544177Y375901D01*
X1544179Y375903D01*
X1544112Y377034D01*
X1544107Y377039D01*
X1544111Y377043D01*
X1543824Y378140D01*
X1543818Y378144D01*
X1543821Y378149D01*
X1543326Y379168D01*
X1543320Y379171D01*
X1543321Y379176D01*
X1542637Y380079D01*
X1542630Y380081D01*
X1542630Y380086D01*
X1541783Y380839D01*
X1541776Y380839D01*
X1541775Y380844D01*
X1540798Y381417D01*
X1540791Y381416D01*
X1540789Y381421D01*
X1539718Y381792D01*
X1539712Y381789D01*
X1539709Y381794D01*
X1538587Y381949D01*
X1538582Y381946D01*
X1538580Y381949D01*
X1526580Y381949D01*
X1526575Y381946D01*
X1526572Y381949D01*
X1525305Y381744D01*
X1525299Y381738D01*
X1525295Y381741D01*
X1524105Y381259D01*
X1524101Y381252D01*
X1524095Y381254D01*
X1523042Y380520D01*
X1523040Y380512D01*
X1523034Y380513D01*
X1522171Y379563D01*
X1522170Y379554D01*
X1522165Y379554D01*
X1521535Y378435D01*
X1521536Y378427D01*
X1521530Y378425D01*
X1521165Y377195D01*
X1521168Y377187D01*
X1521163Y377184D01*
X1521081Y375903D01*
X1521084Y375899D01*
X1521081Y375897D01*
X1521163Y374616D01*
X1521169Y374610D01*
X1521165Y374605D01*
X1521530Y373375D01*
X1521537Y373370D01*
X1521535Y373365D01*
X1522165Y372246D01*
X1522172Y372243D01*
X1522171Y372237D01*
X1523034Y371287D01*
X1523042Y371286D01*
X1523042Y371280D01*
X1524095Y370546D01*
X1524103Y370546D01*
X1524105Y370541D01*
X1525295Y370059D01*
X1525302Y370061D01*
X1525305Y370056D01*
X1526572Y369851D01*
X1526577Y369854D01*
X1526580Y369851D01*
X1538580Y369851D01*
X1538584Y369854D01*
G37*
G36*
X15503Y959133D02*
X15503Y959133D01*
X15505Y959131D01*
X16681Y959242D01*
X16686Y959247D01*
X16690Y959244D01*
X17822Y959582D01*
X17826Y959588D01*
X17831Y959586D01*
X18875Y960138D01*
X18878Y960145D01*
X18883Y960143D01*
X19799Y960889D01*
X19800Y960896D01*
X19806Y960896D01*
X20559Y961806D01*
X20559Y961813D01*
X20564Y961814D01*
X21125Y962853D01*
X21124Y962858D01*
X21128Y962860D01*
X21127Y962861D01*
X21129Y962862D01*
X21476Y963991D01*
X21476Y963992D01*
X21477Y963993D01*
X21474Y963997D01*
X21478Y964000D01*
X21599Y965175D01*
X21595Y965182D01*
X21599Y965186D01*
X21442Y966526D01*
X21437Y966532D01*
X21440Y966537D01*
X20989Y967808D01*
X20982Y967813D01*
X20984Y967818D01*
X20262Y968957D01*
X20254Y968960D01*
X20255Y968966D01*
X19297Y969916D01*
X19289Y969917D01*
X19288Y969923D01*
X18143Y970636D01*
X18135Y970635D01*
X18133Y970641D01*
X16857Y971081D01*
X16850Y971079D01*
X16847Y971083D01*
X15505Y971229D01*
X15502Y971227D01*
X15500Y971229D01*
X9500Y971229D01*
X9497Y971227D01*
X9494Y971229D01*
X8165Y971074D01*
X8159Y971068D01*
X8155Y971071D01*
X6894Y970624D01*
X6889Y970617D01*
X6884Y970619D01*
X5754Y969902D01*
X5751Y969895D01*
X5745Y969896D01*
X4803Y968946D01*
X4802Y968937D01*
X4796Y968937D01*
X4089Y967801D01*
X4090Y967793D01*
X4084Y967791D01*
X3648Y966526D01*
X3650Y966518D01*
X3645Y966516D01*
X3501Y965185D01*
X3505Y965179D01*
X3501Y965175D01*
X3611Y964009D01*
X3616Y964004D01*
X3613Y964000D01*
X3948Y962877D01*
X3954Y962873D01*
X3952Y962869D01*
X4500Y961833D01*
X4506Y961830D01*
X4505Y961825D01*
X5244Y960917D01*
X5251Y960915D01*
X5251Y960910D01*
X6153Y960163D01*
X6161Y960163D01*
X6161Y960158D01*
X7192Y959601D01*
X7199Y959602D01*
X7201Y959597D01*
X8320Y959253D01*
X8327Y959255D01*
X8330Y959251D01*
X9495Y959131D01*
X9498Y959133D01*
X9500Y959131D01*
X15500Y959131D01*
X15503Y959133D01*
G37*
G36*
X1493783Y959133D02*
X1493783Y959133D01*
X1493785Y959131D01*
X1494961Y959242D01*
X1494966Y959247D01*
X1494970Y959244D01*
X1496102Y959582D01*
X1496106Y959588D01*
X1496111Y959586D01*
X1497155Y960138D01*
X1497158Y960145D01*
X1497163Y960143D01*
X1498079Y960889D01*
X1498080Y960896D01*
X1498086Y960896D01*
X1498839Y961806D01*
X1498839Y961813D01*
X1498844Y961814D01*
X1499405Y962853D01*
X1499404Y962858D01*
X1499408Y962860D01*
X1499407Y962861D01*
X1499409Y962862D01*
X1499756Y963991D01*
X1499756Y963992D01*
X1499757Y963993D01*
X1499754Y963997D01*
X1499758Y964000D01*
X1499879Y965175D01*
X1499875Y965182D01*
X1499879Y965186D01*
X1499722Y966526D01*
X1499717Y966532D01*
X1499720Y966537D01*
X1499269Y967808D01*
X1499262Y967813D01*
X1499264Y967818D01*
X1498542Y968957D01*
X1498534Y968960D01*
X1498535Y968966D01*
X1497577Y969916D01*
X1497569Y969917D01*
X1497568Y969923D01*
X1496423Y970636D01*
X1496415Y970635D01*
X1496413Y970641D01*
X1495137Y971081D01*
X1495130Y971079D01*
X1495127Y971083D01*
X1493785Y971229D01*
X1493782Y971227D01*
X1493780Y971229D01*
X1487780Y971229D01*
X1487777Y971227D01*
X1487774Y971229D01*
X1486445Y971074D01*
X1486439Y971068D01*
X1486435Y971071D01*
X1485174Y970624D01*
X1485169Y970617D01*
X1485164Y970619D01*
X1484034Y969902D01*
X1484031Y969895D01*
X1484025Y969896D01*
X1483083Y968946D01*
X1483082Y968937D01*
X1483076Y968937D01*
X1482369Y967801D01*
X1482370Y967793D01*
X1482364Y967791D01*
X1481928Y966526D01*
X1481930Y966518D01*
X1481925Y966516D01*
X1481781Y965185D01*
X1481785Y965179D01*
X1481781Y965175D01*
X1481891Y964009D01*
X1481896Y964004D01*
X1481893Y964000D01*
X1482228Y962877D01*
X1482234Y962873D01*
X1482232Y962869D01*
X1482780Y961833D01*
X1482786Y961830D01*
X1482785Y961825D01*
X1483524Y960917D01*
X1483531Y960915D01*
X1483531Y960910D01*
X1484433Y960163D01*
X1484441Y960163D01*
X1484441Y960158D01*
X1485472Y959601D01*
X1485479Y959602D01*
X1485481Y959597D01*
X1486600Y959253D01*
X1486607Y959255D01*
X1486610Y959251D01*
X1487775Y959131D01*
X1487778Y959133D01*
X1487780Y959131D01*
X1493780Y959131D01*
X1493783Y959133D01*
G37*
G36*
X754643Y959133D02*
X754643Y959133D01*
X754645Y959131D01*
X755821Y959242D01*
X755826Y959247D01*
X755830Y959244D01*
X756962Y959582D01*
X756966Y959588D01*
X756971Y959586D01*
X758015Y960138D01*
X758018Y960145D01*
X758023Y960143D01*
X758939Y960889D01*
X758940Y960896D01*
X758946Y960896D01*
X759699Y961806D01*
X759699Y961813D01*
X759704Y961814D01*
X760265Y962853D01*
X760264Y962858D01*
X760268Y962860D01*
X760267Y962861D01*
X760269Y962862D01*
X760616Y963991D01*
X760616Y963992D01*
X760617Y963993D01*
X760614Y963997D01*
X760618Y964000D01*
X760739Y965175D01*
X760735Y965182D01*
X760739Y965186D01*
X760582Y966526D01*
X760577Y966532D01*
X760580Y966537D01*
X760129Y967808D01*
X760122Y967813D01*
X760124Y967818D01*
X759402Y968957D01*
X759394Y968960D01*
X759395Y968966D01*
X758437Y969916D01*
X758429Y969917D01*
X758428Y969923D01*
X757283Y970636D01*
X757275Y970635D01*
X757273Y970641D01*
X755997Y971081D01*
X755990Y971079D01*
X755987Y971083D01*
X754645Y971229D01*
X754642Y971227D01*
X754640Y971229D01*
X748640Y971229D01*
X748637Y971227D01*
X748634Y971229D01*
X747305Y971074D01*
X747299Y971068D01*
X747295Y971071D01*
X746034Y970624D01*
X746029Y970617D01*
X746024Y970619D01*
X744894Y969902D01*
X744891Y969895D01*
X744885Y969896D01*
X743943Y968946D01*
X743942Y968937D01*
X743936Y968937D01*
X743229Y967801D01*
X743230Y967793D01*
X743224Y967791D01*
X742788Y966526D01*
X742790Y966518D01*
X742785Y966516D01*
X742641Y965185D01*
X742645Y965179D01*
X742641Y965175D01*
X742751Y964009D01*
X742756Y964004D01*
X742753Y964000D01*
X743088Y962877D01*
X743094Y962873D01*
X743092Y962869D01*
X743640Y961833D01*
X743646Y961830D01*
X743645Y961825D01*
X744384Y960917D01*
X744391Y960915D01*
X744391Y960910D01*
X745293Y960163D01*
X745301Y960163D01*
X745301Y960158D01*
X746332Y959601D01*
X746339Y959602D01*
X746341Y959597D01*
X747460Y959253D01*
X747467Y959255D01*
X747470Y959251D01*
X748635Y959131D01*
X748638Y959133D01*
X748640Y959131D01*
X754640Y959131D01*
X754643Y959133D01*
G37*
G36*
X754643Y1045533D02*
X754643Y1045533D01*
X754645Y1045531D01*
X755821Y1045642D01*
X755826Y1045647D01*
X755830Y1045644D01*
X756962Y1045982D01*
X756966Y1045988D01*
X756971Y1045986D01*
X758015Y1046538D01*
X758018Y1046545D01*
X758023Y1046543D01*
X758939Y1047289D01*
X758940Y1047296D01*
X758946Y1047296D01*
X759699Y1048206D01*
X759699Y1048213D01*
X759704Y1048214D01*
X760265Y1049253D01*
X760264Y1049258D01*
X760268Y1049260D01*
X760267Y1049261D01*
X760269Y1049262D01*
X760616Y1050391D01*
X760616Y1050392D01*
X760617Y1050393D01*
X760614Y1050397D01*
X760618Y1050400D01*
X760739Y1051575D01*
X760735Y1051582D01*
X760739Y1051586D01*
X760582Y1052926D01*
X760577Y1052932D01*
X760580Y1052937D01*
X760129Y1054208D01*
X760122Y1054213D01*
X760124Y1054218D01*
X759402Y1055357D01*
X759394Y1055360D01*
X759395Y1055366D01*
X758437Y1056316D01*
X758429Y1056317D01*
X758428Y1056323D01*
X757283Y1057036D01*
X757275Y1057035D01*
X757273Y1057041D01*
X755997Y1057481D01*
X755990Y1057479D01*
X755987Y1057483D01*
X754645Y1057629D01*
X754642Y1057627D01*
X754640Y1057629D01*
X748640Y1057629D01*
X748637Y1057627D01*
X748634Y1057629D01*
X747305Y1057474D01*
X747299Y1057468D01*
X747295Y1057471D01*
X746034Y1057024D01*
X746029Y1057017D01*
X746024Y1057019D01*
X744894Y1056302D01*
X744891Y1056295D01*
X744885Y1056296D01*
X743943Y1055346D01*
X743942Y1055337D01*
X743936Y1055337D01*
X743229Y1054201D01*
X743230Y1054193D01*
X743224Y1054191D01*
X742788Y1052926D01*
X742790Y1052918D01*
X742785Y1052916D01*
X742641Y1051585D01*
X742645Y1051579D01*
X742641Y1051575D01*
X742751Y1050409D01*
X742756Y1050404D01*
X742753Y1050400D01*
X743088Y1049277D01*
X743094Y1049273D01*
X743092Y1049269D01*
X743640Y1048233D01*
X743646Y1048230D01*
X743645Y1048225D01*
X744384Y1047317D01*
X744391Y1047315D01*
X744391Y1047310D01*
X745293Y1046563D01*
X745301Y1046563D01*
X745301Y1046558D01*
X746332Y1046001D01*
X746339Y1046002D01*
X746341Y1045997D01*
X747460Y1045653D01*
X747467Y1045655D01*
X747470Y1045651D01*
X748635Y1045531D01*
X748638Y1045533D01*
X748640Y1045531D01*
X754640Y1045531D01*
X754643Y1045533D01*
G37*
G36*
X1493783Y1045533D02*
X1493783Y1045533D01*
X1493785Y1045531D01*
X1494961Y1045642D01*
X1494966Y1045647D01*
X1494970Y1045644D01*
X1496102Y1045982D01*
X1496106Y1045988D01*
X1496111Y1045986D01*
X1497155Y1046538D01*
X1497158Y1046545D01*
X1497163Y1046543D01*
X1498079Y1047289D01*
X1498080Y1047296D01*
X1498086Y1047296D01*
X1498839Y1048206D01*
X1498839Y1048213D01*
X1498844Y1048214D01*
X1499405Y1049253D01*
X1499404Y1049258D01*
X1499408Y1049260D01*
X1499407Y1049261D01*
X1499409Y1049262D01*
X1499756Y1050391D01*
X1499756Y1050392D01*
X1499757Y1050393D01*
X1499754Y1050397D01*
X1499758Y1050400D01*
X1499879Y1051575D01*
X1499875Y1051582D01*
X1499879Y1051586D01*
X1499722Y1052926D01*
X1499717Y1052932D01*
X1499720Y1052937D01*
X1499269Y1054208D01*
X1499262Y1054213D01*
X1499264Y1054218D01*
X1498542Y1055357D01*
X1498534Y1055360D01*
X1498535Y1055366D01*
X1497577Y1056316D01*
X1497569Y1056317D01*
X1497568Y1056323D01*
X1496423Y1057036D01*
X1496415Y1057035D01*
X1496413Y1057041D01*
X1495137Y1057481D01*
X1495130Y1057479D01*
X1495127Y1057483D01*
X1493785Y1057629D01*
X1493782Y1057627D01*
X1493780Y1057629D01*
X1487780Y1057629D01*
X1487777Y1057627D01*
X1487774Y1057629D01*
X1486445Y1057474D01*
X1486439Y1057468D01*
X1486435Y1057471D01*
X1485174Y1057024D01*
X1485169Y1057017D01*
X1485164Y1057019D01*
X1484034Y1056302D01*
X1484031Y1056295D01*
X1484025Y1056296D01*
X1483083Y1055346D01*
X1483082Y1055337D01*
X1483076Y1055337D01*
X1482369Y1054201D01*
X1482370Y1054193D01*
X1482364Y1054191D01*
X1481928Y1052926D01*
X1481930Y1052918D01*
X1481925Y1052916D01*
X1481781Y1051585D01*
X1481785Y1051579D01*
X1481781Y1051575D01*
X1481891Y1050409D01*
X1481896Y1050404D01*
X1481893Y1050400D01*
X1482228Y1049277D01*
X1482234Y1049273D01*
X1482232Y1049269D01*
X1482780Y1048233D01*
X1482786Y1048230D01*
X1482785Y1048225D01*
X1483524Y1047317D01*
X1483531Y1047315D01*
X1483531Y1047310D01*
X1484433Y1046563D01*
X1484441Y1046563D01*
X1484441Y1046558D01*
X1485472Y1046001D01*
X1485479Y1046002D01*
X1485481Y1045997D01*
X1486600Y1045653D01*
X1486607Y1045655D01*
X1486610Y1045651D01*
X1487775Y1045531D01*
X1487778Y1045533D01*
X1487780Y1045531D01*
X1493780Y1045531D01*
X1493783Y1045533D01*
G37*
G36*
X15503Y1045533D02*
X15503Y1045533D01*
X15505Y1045531D01*
X16681Y1045642D01*
X16686Y1045647D01*
X16690Y1045644D01*
X17822Y1045982D01*
X17826Y1045988D01*
X17831Y1045986D01*
X18875Y1046538D01*
X18878Y1046545D01*
X18883Y1046543D01*
X19799Y1047289D01*
X19800Y1047296D01*
X19806Y1047296D01*
X20559Y1048206D01*
X20559Y1048213D01*
X20564Y1048214D01*
X21125Y1049253D01*
X21124Y1049258D01*
X21128Y1049260D01*
X21127Y1049261D01*
X21129Y1049262D01*
X21476Y1050391D01*
X21476Y1050392D01*
X21477Y1050393D01*
X21474Y1050397D01*
X21478Y1050400D01*
X21599Y1051575D01*
X21595Y1051582D01*
X21599Y1051586D01*
X21442Y1052926D01*
X21437Y1052932D01*
X21440Y1052937D01*
X20989Y1054208D01*
X20982Y1054213D01*
X20984Y1054218D01*
X20262Y1055357D01*
X20254Y1055360D01*
X20255Y1055366D01*
X19297Y1056316D01*
X19289Y1056317D01*
X19288Y1056323D01*
X18143Y1057036D01*
X18135Y1057035D01*
X18133Y1057041D01*
X16857Y1057481D01*
X16850Y1057479D01*
X16847Y1057483D01*
X15505Y1057629D01*
X15502Y1057627D01*
X15500Y1057629D01*
X9500Y1057629D01*
X9497Y1057627D01*
X9494Y1057629D01*
X8165Y1057474D01*
X8159Y1057468D01*
X8155Y1057471D01*
X6894Y1057024D01*
X6889Y1057017D01*
X6884Y1057019D01*
X5754Y1056302D01*
X5751Y1056295D01*
X5745Y1056296D01*
X4803Y1055346D01*
X4802Y1055337D01*
X4796Y1055337D01*
X4089Y1054201D01*
X4090Y1054193D01*
X4084Y1054191D01*
X3648Y1052926D01*
X3650Y1052918D01*
X3645Y1052916D01*
X3501Y1051585D01*
X3505Y1051579D01*
X3501Y1051575D01*
X3611Y1050409D01*
X3616Y1050404D01*
X3613Y1050400D01*
X3948Y1049277D01*
X3954Y1049273D01*
X3952Y1049269D01*
X4500Y1048233D01*
X4506Y1048230D01*
X4505Y1048225D01*
X5244Y1047317D01*
X5251Y1047315D01*
X5251Y1047310D01*
X6153Y1046563D01*
X6161Y1046563D01*
X6161Y1046558D01*
X7192Y1046001D01*
X7199Y1046002D01*
X7201Y1045997D01*
X8320Y1045653D01*
X8327Y1045655D01*
X8330Y1045651D01*
X9495Y1045531D01*
X9498Y1045533D01*
X9500Y1045531D01*
X15500Y1045531D01*
X15503Y1045533D01*
G37*
G36*
X754643Y369853D02*
X754643Y369853D01*
X754645Y369851D01*
X755821Y369962D01*
X755826Y369967D01*
X755830Y369964D01*
X756962Y370302D01*
X756966Y370308D01*
X756971Y370306D01*
X758015Y370858D01*
X758018Y370865D01*
X758023Y370863D01*
X758939Y371609D01*
X758940Y371616D01*
X758946Y371616D01*
X759699Y372526D01*
X759699Y372533D01*
X759704Y372534D01*
X760265Y373573D01*
X760264Y373578D01*
X760268Y373580D01*
X760267Y373581D01*
X760269Y373582D01*
X760616Y374711D01*
X760616Y374712D01*
X760617Y374713D01*
X760614Y374717D01*
X760618Y374720D01*
X760739Y375895D01*
X760735Y375902D01*
X760739Y375906D01*
X760582Y377246D01*
X760577Y377252D01*
X760580Y377257D01*
X760129Y378528D01*
X760122Y378533D01*
X760124Y378538D01*
X759402Y379677D01*
X759394Y379680D01*
X759395Y379686D01*
X758437Y380636D01*
X758429Y380637D01*
X758428Y380643D01*
X757283Y381356D01*
X757275Y381355D01*
X757273Y381361D01*
X755997Y381801D01*
X755990Y381799D01*
X755987Y381803D01*
X754645Y381949D01*
X754642Y381947D01*
X754640Y381949D01*
X748640Y381949D01*
X748637Y381947D01*
X748634Y381949D01*
X747305Y381794D01*
X747299Y381788D01*
X747295Y381791D01*
X746034Y381344D01*
X746029Y381337D01*
X746024Y381339D01*
X744894Y380622D01*
X744891Y380615D01*
X744885Y380616D01*
X743943Y379666D01*
X743942Y379657D01*
X743936Y379657D01*
X743229Y378521D01*
X743230Y378513D01*
X743224Y378511D01*
X742788Y377246D01*
X742790Y377238D01*
X742785Y377236D01*
X742641Y375905D01*
X742645Y375899D01*
X742641Y375895D01*
X742751Y374729D01*
X742756Y374724D01*
X742753Y374720D01*
X743088Y373597D01*
X743094Y373593D01*
X743092Y373589D01*
X743640Y372553D01*
X743646Y372550D01*
X743645Y372545D01*
X744384Y371637D01*
X744391Y371635D01*
X744391Y371630D01*
X745293Y370883D01*
X745301Y370883D01*
X745301Y370878D01*
X746332Y370321D01*
X746339Y370322D01*
X746341Y370317D01*
X747460Y369973D01*
X747467Y369975D01*
X747470Y369971D01*
X748635Y369851D01*
X748638Y369853D01*
X748640Y369851D01*
X754640Y369851D01*
X754643Y369853D01*
G37*
G36*
X1493783Y456253D02*
X1493783Y456253D01*
X1493785Y456251D01*
X1494961Y456362D01*
X1494966Y456367D01*
X1494970Y456364D01*
X1496102Y456702D01*
X1496106Y456708D01*
X1496111Y456706D01*
X1497155Y457258D01*
X1497158Y457265D01*
X1497163Y457263D01*
X1498079Y458009D01*
X1498080Y458016D01*
X1498086Y458016D01*
X1498839Y458926D01*
X1498839Y458933D01*
X1498844Y458934D01*
X1499405Y459973D01*
X1499404Y459978D01*
X1499408Y459980D01*
X1499407Y459981D01*
X1499409Y459982D01*
X1499756Y461111D01*
X1499756Y461112D01*
X1499757Y461113D01*
X1499754Y461117D01*
X1499758Y461120D01*
X1499879Y462295D01*
X1499875Y462302D01*
X1499879Y462306D01*
X1499722Y463646D01*
X1499717Y463652D01*
X1499720Y463657D01*
X1499269Y464928D01*
X1499262Y464933D01*
X1499264Y464938D01*
X1498542Y466077D01*
X1498534Y466080D01*
X1498535Y466086D01*
X1497577Y467036D01*
X1497569Y467037D01*
X1497568Y467043D01*
X1496423Y467756D01*
X1496415Y467755D01*
X1496413Y467761D01*
X1495137Y468201D01*
X1495130Y468199D01*
X1495127Y468203D01*
X1493785Y468349D01*
X1493782Y468347D01*
X1493780Y468349D01*
X1487780Y468349D01*
X1487777Y468347D01*
X1487774Y468349D01*
X1486445Y468194D01*
X1486439Y468188D01*
X1486435Y468191D01*
X1485174Y467744D01*
X1485169Y467737D01*
X1485164Y467739D01*
X1484034Y467022D01*
X1484031Y467015D01*
X1484025Y467016D01*
X1483083Y466066D01*
X1483082Y466057D01*
X1483076Y466057D01*
X1482369Y464921D01*
X1482370Y464913D01*
X1482364Y464911D01*
X1481928Y463646D01*
X1481930Y463638D01*
X1481925Y463636D01*
X1481781Y462305D01*
X1481785Y462299D01*
X1481781Y462295D01*
X1481891Y461129D01*
X1481896Y461124D01*
X1481893Y461120D01*
X1482228Y459997D01*
X1482234Y459993D01*
X1482232Y459989D01*
X1482780Y458953D01*
X1482786Y458950D01*
X1482785Y458945D01*
X1483524Y458037D01*
X1483531Y458035D01*
X1483531Y458030D01*
X1484433Y457283D01*
X1484441Y457283D01*
X1484441Y457278D01*
X1485472Y456721D01*
X1485479Y456722D01*
X1485481Y456717D01*
X1486600Y456373D01*
X1486607Y456375D01*
X1486610Y456371D01*
X1487775Y456251D01*
X1487778Y456253D01*
X1487780Y456251D01*
X1493780Y456251D01*
X1493783Y456253D01*
G37*
G36*
X754643Y456253D02*
X754643Y456253D01*
X754645Y456251D01*
X755821Y456362D01*
X755826Y456367D01*
X755830Y456364D01*
X756962Y456702D01*
X756966Y456708D01*
X756971Y456706D01*
X758015Y457258D01*
X758018Y457265D01*
X758023Y457263D01*
X758939Y458009D01*
X758940Y458016D01*
X758946Y458016D01*
X759699Y458926D01*
X759699Y458933D01*
X759704Y458934D01*
X760265Y459973D01*
X760264Y459978D01*
X760268Y459980D01*
X760267Y459981D01*
X760269Y459982D01*
X760616Y461111D01*
X760616Y461112D01*
X760617Y461113D01*
X760614Y461117D01*
X760618Y461120D01*
X760739Y462295D01*
X760735Y462302D01*
X760739Y462306D01*
X760582Y463646D01*
X760577Y463652D01*
X760580Y463657D01*
X760129Y464928D01*
X760122Y464933D01*
X760124Y464938D01*
X759402Y466077D01*
X759394Y466080D01*
X759395Y466086D01*
X758437Y467036D01*
X758429Y467037D01*
X758428Y467043D01*
X757283Y467756D01*
X757275Y467755D01*
X757273Y467761D01*
X755997Y468201D01*
X755990Y468199D01*
X755987Y468203D01*
X754645Y468349D01*
X754642Y468347D01*
X754640Y468349D01*
X748640Y468349D01*
X748637Y468347D01*
X748634Y468349D01*
X747305Y468194D01*
X747299Y468188D01*
X747295Y468191D01*
X746034Y467744D01*
X746029Y467737D01*
X746024Y467739D01*
X744894Y467022D01*
X744891Y467015D01*
X744885Y467016D01*
X743943Y466066D01*
X743942Y466057D01*
X743936Y466057D01*
X743229Y464921D01*
X743230Y464913D01*
X743224Y464911D01*
X742788Y463646D01*
X742790Y463638D01*
X742785Y463636D01*
X742641Y462305D01*
X742645Y462299D01*
X742641Y462295D01*
X742751Y461129D01*
X742756Y461124D01*
X742753Y461120D01*
X743088Y459997D01*
X743094Y459993D01*
X743092Y459989D01*
X743640Y458953D01*
X743646Y458950D01*
X743645Y458945D01*
X744384Y458037D01*
X744391Y458035D01*
X744391Y458030D01*
X745293Y457283D01*
X745301Y457283D01*
X745301Y457278D01*
X746332Y456721D01*
X746339Y456722D01*
X746341Y456717D01*
X747460Y456373D01*
X747467Y456375D01*
X747470Y456371D01*
X748635Y456251D01*
X748638Y456253D01*
X748640Y456251D01*
X754640Y456251D01*
X754643Y456253D01*
G37*
G36*
X15503Y456253D02*
X15503Y456253D01*
X15505Y456251D01*
X16681Y456362D01*
X16686Y456367D01*
X16690Y456364D01*
X17822Y456702D01*
X17826Y456708D01*
X17831Y456706D01*
X18875Y457258D01*
X18878Y457265D01*
X18883Y457263D01*
X19799Y458009D01*
X19800Y458016D01*
X19806Y458016D01*
X20559Y458926D01*
X20559Y458933D01*
X20564Y458934D01*
X21125Y459973D01*
X21124Y459978D01*
X21128Y459980D01*
X21127Y459981D01*
X21129Y459982D01*
X21476Y461111D01*
X21476Y461112D01*
X21477Y461113D01*
X21474Y461117D01*
X21478Y461120D01*
X21599Y462295D01*
X21595Y462302D01*
X21599Y462306D01*
X21442Y463646D01*
X21437Y463652D01*
X21440Y463657D01*
X20989Y464928D01*
X20982Y464933D01*
X20984Y464938D01*
X20262Y466077D01*
X20254Y466080D01*
X20255Y466086D01*
X19297Y467036D01*
X19289Y467037D01*
X19288Y467043D01*
X18143Y467756D01*
X18135Y467755D01*
X18133Y467761D01*
X16857Y468201D01*
X16850Y468199D01*
X16847Y468203D01*
X15505Y468349D01*
X15502Y468347D01*
X15500Y468349D01*
X9500Y468349D01*
X9497Y468347D01*
X9494Y468349D01*
X8165Y468194D01*
X8159Y468188D01*
X8155Y468191D01*
X6894Y467744D01*
X6889Y467737D01*
X6884Y467739D01*
X5754Y467022D01*
X5751Y467015D01*
X5745Y467016D01*
X4803Y466066D01*
X4802Y466057D01*
X4796Y466057D01*
X4089Y464921D01*
X4090Y464913D01*
X4084Y464911D01*
X3648Y463646D01*
X3650Y463638D01*
X3645Y463636D01*
X3501Y462305D01*
X3505Y462299D01*
X3501Y462295D01*
X3611Y461129D01*
X3616Y461124D01*
X3613Y461120D01*
X3948Y459997D01*
X3954Y459993D01*
X3952Y459989D01*
X4500Y458953D01*
X4506Y458950D01*
X4505Y458945D01*
X5244Y458037D01*
X5251Y458035D01*
X5251Y458030D01*
X6153Y457283D01*
X6161Y457283D01*
X6161Y457278D01*
X7192Y456721D01*
X7199Y456722D01*
X7201Y456717D01*
X8320Y456373D01*
X8327Y456375D01*
X8330Y456371D01*
X9495Y456251D01*
X9498Y456253D01*
X9500Y456251D01*
X15500Y456251D01*
X15503Y456253D01*
G37*
G36*
X15503Y369853D02*
X15503Y369853D01*
X15505Y369851D01*
X16681Y369962D01*
X16686Y369967D01*
X16690Y369964D01*
X17822Y370302D01*
X17826Y370308D01*
X17831Y370306D01*
X18875Y370858D01*
X18878Y370865D01*
X18883Y370863D01*
X19799Y371609D01*
X19800Y371616D01*
X19806Y371616D01*
X20559Y372526D01*
X20559Y372533D01*
X20564Y372534D01*
X21125Y373573D01*
X21124Y373578D01*
X21128Y373580D01*
X21127Y373581D01*
X21129Y373582D01*
X21476Y374711D01*
X21476Y374712D01*
X21477Y374713D01*
X21474Y374717D01*
X21478Y374720D01*
X21599Y375895D01*
X21595Y375902D01*
X21599Y375906D01*
X21442Y377246D01*
X21437Y377252D01*
X21440Y377257D01*
X20989Y378528D01*
X20982Y378533D01*
X20984Y378538D01*
X20262Y379677D01*
X20254Y379680D01*
X20255Y379686D01*
X19297Y380636D01*
X19289Y380637D01*
X19288Y380643D01*
X18143Y381356D01*
X18135Y381355D01*
X18133Y381361D01*
X16857Y381801D01*
X16850Y381799D01*
X16847Y381803D01*
X15505Y381949D01*
X15502Y381947D01*
X15500Y381949D01*
X9500Y381949D01*
X9497Y381947D01*
X9494Y381949D01*
X8165Y381794D01*
X8159Y381788D01*
X8155Y381791D01*
X6894Y381344D01*
X6889Y381337D01*
X6884Y381339D01*
X5754Y380622D01*
X5751Y380615D01*
X5745Y380616D01*
X4803Y379666D01*
X4802Y379657D01*
X4796Y379657D01*
X4089Y378521D01*
X4090Y378513D01*
X4084Y378511D01*
X3648Y377246D01*
X3650Y377238D01*
X3645Y377236D01*
X3501Y375905D01*
X3505Y375899D01*
X3501Y375895D01*
X3611Y374729D01*
X3616Y374724D01*
X3613Y374720D01*
X3948Y373597D01*
X3954Y373593D01*
X3952Y373589D01*
X4500Y372553D01*
X4506Y372550D01*
X4505Y372545D01*
X5244Y371637D01*
X5251Y371635D01*
X5251Y371630D01*
X6153Y370883D01*
X6161Y370883D01*
X6161Y370878D01*
X7192Y370321D01*
X7199Y370322D01*
X7201Y370317D01*
X8320Y369973D01*
X8327Y369975D01*
X8330Y369971D01*
X9495Y369851D01*
X9498Y369853D01*
X9500Y369851D01*
X15500Y369851D01*
X15503Y369853D01*
G37*
G36*
X1493783Y369853D02*
X1493783Y369853D01*
X1493785Y369851D01*
X1494961Y369962D01*
X1494966Y369967D01*
X1494970Y369964D01*
X1496102Y370302D01*
X1496106Y370308D01*
X1496111Y370306D01*
X1497155Y370858D01*
X1497158Y370865D01*
X1497163Y370863D01*
X1498079Y371609D01*
X1498080Y371616D01*
X1498086Y371616D01*
X1498839Y372526D01*
X1498839Y372533D01*
X1498844Y372534D01*
X1499405Y373573D01*
X1499404Y373578D01*
X1499408Y373580D01*
X1499407Y373581D01*
X1499409Y373582D01*
X1499756Y374711D01*
X1499756Y374712D01*
X1499757Y374713D01*
X1499754Y374717D01*
X1499758Y374720D01*
X1499879Y375895D01*
X1499875Y375902D01*
X1499879Y375906D01*
X1499722Y377246D01*
X1499717Y377252D01*
X1499720Y377257D01*
X1499269Y378528D01*
X1499262Y378533D01*
X1499264Y378538D01*
X1498542Y379677D01*
X1498534Y379680D01*
X1498535Y379686D01*
X1497577Y380636D01*
X1497569Y380637D01*
X1497568Y380643D01*
X1496423Y381356D01*
X1496415Y381355D01*
X1496413Y381361D01*
X1495137Y381801D01*
X1495130Y381799D01*
X1495127Y381803D01*
X1493785Y381949D01*
X1493782Y381947D01*
X1493780Y381949D01*
X1487780Y381949D01*
X1487777Y381947D01*
X1487774Y381949D01*
X1486445Y381794D01*
X1486439Y381788D01*
X1486435Y381791D01*
X1485174Y381344D01*
X1485169Y381337D01*
X1485164Y381339D01*
X1484034Y380622D01*
X1484031Y380615D01*
X1484025Y380616D01*
X1483083Y379666D01*
X1483082Y379657D01*
X1483076Y379657D01*
X1482369Y378521D01*
X1482370Y378513D01*
X1482364Y378511D01*
X1481928Y377246D01*
X1481930Y377238D01*
X1481925Y377236D01*
X1481781Y375905D01*
X1481785Y375899D01*
X1481781Y375895D01*
X1481891Y374729D01*
X1481896Y374724D01*
X1481893Y374720D01*
X1482228Y373597D01*
X1482234Y373593D01*
X1482232Y373589D01*
X1482780Y372553D01*
X1482786Y372550D01*
X1482785Y372545D01*
X1483524Y371637D01*
X1483531Y371635D01*
X1483531Y371630D01*
X1484433Y370883D01*
X1484441Y370883D01*
X1484441Y370878D01*
X1485472Y370321D01*
X1485479Y370322D01*
X1485481Y370317D01*
X1486600Y369973D01*
X1486607Y369975D01*
X1486610Y369971D01*
X1487775Y369851D01*
X1487778Y369853D01*
X1487780Y369851D01*
X1493780Y369851D01*
X1493783Y369853D01*
G37*
G36*
X1334917Y784483D02*
X1334917Y784483D01*
X1334926Y784487D01*
X1334966Y784493D01*
X1336453Y784962D01*
X1336462Y784968D01*
X1336500Y784982D01*
X1337861Y785742D01*
X1337881Y785762D01*
X1337906Y785774D01*
X1337929Y785811D01*
X1337960Y785842D01*
X1337965Y785869D01*
X1337980Y785893D01*
X1337980Y785936D01*
X1337989Y785979D01*
X1337979Y786005D01*
X1337978Y786033D01*
X1337946Y786100D01*
X1336546Y788170D01*
X1336542Y788174D01*
X1336539Y788180D01*
X1336488Y788218D01*
X1336439Y788259D01*
X1336433Y788260D01*
X1336428Y788263D01*
X1336364Y788268D01*
X1336300Y788276D01*
X1336294Y788273D01*
X1336288Y788274D01*
X1336219Y788248D01*
X1335312Y787742D01*
X1334347Y787438D01*
X1333340Y787335D01*
X1332333Y787438D01*
X1331368Y787742D01*
X1330461Y788248D01*
X1330455Y788249D01*
X1330451Y788253D01*
X1330388Y788265D01*
X1330325Y788279D01*
X1330319Y788277D01*
X1330313Y788278D01*
X1330254Y788253D01*
X1330194Y788232D01*
X1330190Y788227D01*
X1330184Y788224D01*
X1330134Y788170D01*
X1328734Y786100D01*
X1328725Y786073D01*
X1328708Y786051D01*
X1328704Y786008D01*
X1328691Y785967D01*
X1328698Y785940D01*
X1328695Y785912D01*
X1328715Y785873D01*
X1328727Y785831D01*
X1328747Y785813D01*
X1328760Y785788D01*
X1328819Y785742D01*
X1330180Y784982D01*
X1330191Y784980D01*
X1330227Y784962D01*
X1331714Y784493D01*
X1331724Y784493D01*
X1331763Y784483D01*
X1333315Y784325D01*
X1333325Y784327D01*
X1333365Y784325D01*
X1334917Y784483D01*
G37*
G36*
X2074057Y784483D02*
X2074057Y784483D01*
X2074066Y784487D01*
X2074106Y784493D01*
X2075593Y784962D01*
X2075602Y784968D01*
X2075640Y784982D01*
X2077001Y785742D01*
X2077021Y785762D01*
X2077046Y785774D01*
X2077069Y785811D01*
X2077100Y785842D01*
X2077105Y785869D01*
X2077120Y785893D01*
X2077120Y785936D01*
X2077129Y785979D01*
X2077119Y786005D01*
X2077118Y786033D01*
X2077086Y786100D01*
X2075686Y788170D01*
X2075682Y788174D01*
X2075679Y788180D01*
X2075628Y788218D01*
X2075579Y788259D01*
X2075573Y788260D01*
X2075568Y788263D01*
X2075504Y788268D01*
X2075440Y788276D01*
X2075434Y788273D01*
X2075428Y788274D01*
X2075359Y788248D01*
X2074452Y787742D01*
X2073487Y787438D01*
X2072480Y787335D01*
X2071473Y787438D01*
X2070508Y787742D01*
X2069601Y788248D01*
X2069595Y788249D01*
X2069591Y788253D01*
X2069528Y788265D01*
X2069465Y788279D01*
X2069459Y788277D01*
X2069453Y788278D01*
X2069394Y788253D01*
X2069334Y788232D01*
X2069330Y788227D01*
X2069324Y788224D01*
X2069274Y788170D01*
X2067874Y786100D01*
X2067865Y786073D01*
X2067848Y786051D01*
X2067844Y786008D01*
X2067831Y785967D01*
X2067838Y785940D01*
X2067835Y785912D01*
X2067855Y785873D01*
X2067867Y785831D01*
X2067887Y785813D01*
X2067900Y785788D01*
X2067959Y785742D01*
X2069320Y784982D01*
X2069331Y784980D01*
X2069367Y784962D01*
X2070854Y784493D01*
X2070864Y784493D01*
X2070903Y784483D01*
X2072455Y784325D01*
X2072465Y784327D01*
X2072505Y784325D01*
X2074057Y784483D01*
G37*
G36*
X595777Y784483D02*
X595777Y784483D01*
X595786Y784487D01*
X595826Y784493D01*
X597313Y784962D01*
X597322Y784968D01*
X597360Y784982D01*
X598721Y785742D01*
X598741Y785762D01*
X598766Y785774D01*
X598789Y785811D01*
X598820Y785842D01*
X598825Y785869D01*
X598840Y785893D01*
X598840Y785936D01*
X598849Y785979D01*
X598839Y786005D01*
X598838Y786033D01*
X598806Y786100D01*
X597406Y788170D01*
X597402Y788174D01*
X597399Y788180D01*
X597348Y788218D01*
X597299Y788259D01*
X597293Y788260D01*
X597288Y788263D01*
X597224Y788268D01*
X597160Y788276D01*
X597154Y788273D01*
X597148Y788274D01*
X597079Y788248D01*
X596172Y787742D01*
X595207Y787438D01*
X594200Y787335D01*
X593193Y787438D01*
X592228Y787742D01*
X591321Y788248D01*
X591315Y788249D01*
X591311Y788253D01*
X591248Y788265D01*
X591185Y788279D01*
X591179Y788277D01*
X591173Y788278D01*
X591114Y788253D01*
X591054Y788232D01*
X591050Y788227D01*
X591044Y788224D01*
X590994Y788170D01*
X589594Y786100D01*
X589585Y786073D01*
X589568Y786051D01*
X589564Y786008D01*
X589551Y785967D01*
X589558Y785940D01*
X589555Y785912D01*
X589575Y785873D01*
X589587Y785831D01*
X589607Y785813D01*
X589620Y785788D01*
X589679Y785742D01*
X591040Y784982D01*
X591051Y784980D01*
X591087Y784962D01*
X592574Y784493D01*
X592584Y784493D01*
X592623Y784483D01*
X594175Y784325D01*
X594185Y784327D01*
X594225Y784325D01*
X595777Y784483D01*
G37*
G36*
X2074057Y195203D02*
X2074057Y195203D01*
X2074066Y195207D01*
X2074106Y195213D01*
X2075593Y195682D01*
X2075602Y195688D01*
X2075640Y195702D01*
X2077001Y196462D01*
X2077021Y196482D01*
X2077046Y196494D01*
X2077069Y196531D01*
X2077100Y196562D01*
X2077105Y196589D01*
X2077120Y196613D01*
X2077120Y196656D01*
X2077129Y196699D01*
X2077119Y196725D01*
X2077118Y196753D01*
X2077086Y196820D01*
X2075686Y198890D01*
X2075682Y198894D01*
X2075679Y198900D01*
X2075628Y198938D01*
X2075579Y198979D01*
X2075573Y198980D01*
X2075568Y198983D01*
X2075504Y198988D01*
X2075440Y198996D01*
X2075434Y198993D01*
X2075428Y198994D01*
X2075359Y198968D01*
X2074452Y198462D01*
X2073487Y198158D01*
X2072480Y198055D01*
X2071473Y198158D01*
X2070508Y198462D01*
X2069601Y198968D01*
X2069595Y198969D01*
X2069591Y198973D01*
X2069528Y198985D01*
X2069465Y198999D01*
X2069459Y198997D01*
X2069453Y198998D01*
X2069394Y198973D01*
X2069334Y198952D01*
X2069330Y198947D01*
X2069324Y198944D01*
X2069274Y198890D01*
X2067874Y196820D01*
X2067865Y196793D01*
X2067848Y196771D01*
X2067844Y196728D01*
X2067831Y196687D01*
X2067838Y196660D01*
X2067835Y196632D01*
X2067855Y196593D01*
X2067867Y196551D01*
X2067887Y196533D01*
X2067900Y196508D01*
X2067959Y196462D01*
X2069320Y195702D01*
X2069331Y195700D01*
X2069367Y195682D01*
X2070854Y195213D01*
X2070864Y195213D01*
X2070903Y195203D01*
X2072455Y195045D01*
X2072465Y195047D01*
X2072505Y195045D01*
X2074057Y195203D01*
G37*
G36*
X1334917Y195203D02*
X1334917Y195203D01*
X1334926Y195207D01*
X1334966Y195213D01*
X1336453Y195682D01*
X1336462Y195688D01*
X1336500Y195702D01*
X1337861Y196462D01*
X1337881Y196482D01*
X1337906Y196494D01*
X1337929Y196531D01*
X1337960Y196562D01*
X1337965Y196589D01*
X1337980Y196613D01*
X1337980Y196656D01*
X1337989Y196699D01*
X1337979Y196725D01*
X1337978Y196753D01*
X1337946Y196820D01*
X1336546Y198890D01*
X1336542Y198894D01*
X1336539Y198900D01*
X1336488Y198938D01*
X1336439Y198979D01*
X1336433Y198980D01*
X1336428Y198983D01*
X1336364Y198988D01*
X1336300Y198996D01*
X1336294Y198993D01*
X1336288Y198994D01*
X1336219Y198968D01*
X1335312Y198462D01*
X1334347Y198158D01*
X1333340Y198055D01*
X1332333Y198158D01*
X1331368Y198462D01*
X1330461Y198968D01*
X1330455Y198969D01*
X1330451Y198973D01*
X1330388Y198985D01*
X1330325Y198999D01*
X1330319Y198997D01*
X1330313Y198998D01*
X1330254Y198973D01*
X1330194Y198952D01*
X1330190Y198947D01*
X1330184Y198944D01*
X1330134Y198890D01*
X1328734Y196820D01*
X1328725Y196793D01*
X1328708Y196771D01*
X1328704Y196728D01*
X1328691Y196687D01*
X1328698Y196660D01*
X1328695Y196632D01*
X1328715Y196593D01*
X1328727Y196551D01*
X1328747Y196533D01*
X1328760Y196508D01*
X1328819Y196462D01*
X1330180Y195702D01*
X1330191Y195700D01*
X1330227Y195682D01*
X1331714Y195213D01*
X1331724Y195213D01*
X1331763Y195203D01*
X1333315Y195045D01*
X1333325Y195047D01*
X1333365Y195045D01*
X1334917Y195203D01*
G37*
G36*
X595777Y195203D02*
X595777Y195203D01*
X595786Y195207D01*
X595826Y195213D01*
X597313Y195682D01*
X597322Y195688D01*
X597360Y195702D01*
X598721Y196462D01*
X598741Y196482D01*
X598766Y196494D01*
X598789Y196531D01*
X598820Y196562D01*
X598825Y196589D01*
X598840Y196613D01*
X598840Y196656D01*
X598849Y196699D01*
X598839Y196725D01*
X598838Y196753D01*
X598806Y196820D01*
X597406Y198890D01*
X597402Y198894D01*
X597399Y198900D01*
X597348Y198938D01*
X597299Y198979D01*
X597293Y198980D01*
X597288Y198983D01*
X597224Y198988D01*
X597160Y198996D01*
X597154Y198993D01*
X597148Y198994D01*
X597079Y198968D01*
X596172Y198462D01*
X595207Y198158D01*
X594200Y198055D01*
X593193Y198158D01*
X592228Y198462D01*
X591321Y198968D01*
X591315Y198969D01*
X591311Y198973D01*
X591248Y198985D01*
X591185Y198999D01*
X591179Y198997D01*
X591173Y198998D01*
X591114Y198973D01*
X591054Y198952D01*
X591050Y198947D01*
X591044Y198944D01*
X590994Y198890D01*
X589594Y196820D01*
X589585Y196793D01*
X589568Y196771D01*
X589564Y196728D01*
X589551Y196687D01*
X589558Y196660D01*
X589555Y196632D01*
X589575Y196593D01*
X589587Y196551D01*
X589607Y196533D01*
X589620Y196508D01*
X589679Y196462D01*
X591040Y195702D01*
X591051Y195700D01*
X591087Y195682D01*
X592574Y195213D01*
X592584Y195213D01*
X592623Y195203D01*
X594175Y195045D01*
X594185Y195047D01*
X594225Y195045D01*
X595777Y195203D01*
G37*
G36*
X597221Y796683D02*
X597221Y796683D01*
X597227Y796682D01*
X597286Y796707D01*
X597346Y796728D01*
X597350Y796733D01*
X597356Y796736D01*
X597406Y796790D01*
X598806Y798860D01*
X598815Y798887D01*
X598832Y798909D01*
X598836Y798952D01*
X598849Y798993D01*
X598842Y799020D01*
X598845Y799048D01*
X598825Y799087D01*
X598814Y799129D01*
X598793Y799147D01*
X598780Y799172D01*
X598721Y799218D01*
X597360Y799978D01*
X597349Y799980D01*
X597313Y799998D01*
X595826Y800467D01*
X595816Y800467D01*
X595777Y800477D01*
X594225Y800635D01*
X594215Y800633D01*
X594175Y800635D01*
X592623Y800477D01*
X592614Y800473D01*
X592574Y800467D01*
X591087Y799998D01*
X591078Y799992D01*
X591040Y799978D01*
X589679Y799218D01*
X589659Y799198D01*
X589634Y799186D01*
X589611Y799149D01*
X589580Y799118D01*
X589575Y799091D01*
X589560Y799067D01*
X589560Y799024D01*
X589551Y798981D01*
X589561Y798955D01*
X589562Y798927D01*
X589594Y798860D01*
X590994Y796790D01*
X590998Y796786D01*
X591001Y796780D01*
X591052Y796742D01*
X591101Y796701D01*
X591107Y796700D01*
X591112Y796697D01*
X591176Y796692D01*
X591240Y796684D01*
X591246Y796687D01*
X591252Y796686D01*
X591321Y796712D01*
X592228Y797218D01*
X593193Y797522D01*
X594200Y797625D01*
X595207Y797522D01*
X596172Y797218D01*
X597079Y796712D01*
X597085Y796711D01*
X597089Y796707D01*
X597152Y796695D01*
X597215Y796681D01*
X597221Y796683D01*
G37*
G36*
X1336361Y796683D02*
X1336361Y796683D01*
X1336367Y796682D01*
X1336426Y796707D01*
X1336486Y796728D01*
X1336490Y796733D01*
X1336496Y796736D01*
X1336546Y796790D01*
X1337946Y798860D01*
X1337955Y798887D01*
X1337972Y798909D01*
X1337976Y798952D01*
X1337989Y798993D01*
X1337982Y799020D01*
X1337985Y799048D01*
X1337965Y799087D01*
X1337954Y799129D01*
X1337933Y799147D01*
X1337920Y799172D01*
X1337861Y799218D01*
X1336500Y799978D01*
X1336489Y799980D01*
X1336453Y799998D01*
X1334966Y800467D01*
X1334956Y800467D01*
X1334917Y800477D01*
X1333365Y800635D01*
X1333355Y800633D01*
X1333315Y800635D01*
X1331763Y800477D01*
X1331754Y800473D01*
X1331714Y800467D01*
X1330227Y799998D01*
X1330218Y799992D01*
X1330180Y799978D01*
X1328819Y799218D01*
X1328799Y799198D01*
X1328774Y799186D01*
X1328751Y799149D01*
X1328720Y799118D01*
X1328715Y799091D01*
X1328700Y799067D01*
X1328700Y799024D01*
X1328691Y798981D01*
X1328701Y798955D01*
X1328702Y798927D01*
X1328734Y798860D01*
X1330134Y796790D01*
X1330138Y796786D01*
X1330141Y796780D01*
X1330192Y796742D01*
X1330241Y796701D01*
X1330247Y796700D01*
X1330252Y796697D01*
X1330316Y796692D01*
X1330380Y796684D01*
X1330386Y796687D01*
X1330392Y796686D01*
X1330461Y796712D01*
X1331368Y797218D01*
X1332333Y797522D01*
X1333340Y797625D01*
X1334347Y797522D01*
X1335312Y797218D01*
X1336219Y796712D01*
X1336225Y796711D01*
X1336229Y796707D01*
X1336292Y796695D01*
X1336355Y796681D01*
X1336361Y796683D01*
G37*
G36*
X2075501Y796683D02*
X2075501Y796683D01*
X2075507Y796682D01*
X2075566Y796707D01*
X2075626Y796728D01*
X2075630Y796733D01*
X2075636Y796736D01*
X2075686Y796790D01*
X2077086Y798860D01*
X2077095Y798887D01*
X2077112Y798909D01*
X2077116Y798952D01*
X2077129Y798993D01*
X2077122Y799020D01*
X2077125Y799048D01*
X2077105Y799087D01*
X2077094Y799129D01*
X2077073Y799147D01*
X2077060Y799172D01*
X2077001Y799218D01*
X2075640Y799978D01*
X2075629Y799980D01*
X2075593Y799998D01*
X2074106Y800467D01*
X2074096Y800467D01*
X2074057Y800477D01*
X2072505Y800635D01*
X2072495Y800633D01*
X2072455Y800635D01*
X2070903Y800477D01*
X2070894Y800473D01*
X2070854Y800467D01*
X2069367Y799998D01*
X2069358Y799992D01*
X2069320Y799978D01*
X2067959Y799218D01*
X2067939Y799198D01*
X2067914Y799186D01*
X2067891Y799149D01*
X2067860Y799118D01*
X2067855Y799091D01*
X2067840Y799067D01*
X2067840Y799024D01*
X2067831Y798981D01*
X2067841Y798955D01*
X2067842Y798927D01*
X2067874Y798860D01*
X2069274Y796790D01*
X2069278Y796786D01*
X2069281Y796780D01*
X2069332Y796742D01*
X2069381Y796701D01*
X2069387Y796700D01*
X2069392Y796697D01*
X2069456Y796692D01*
X2069520Y796684D01*
X2069526Y796687D01*
X2069532Y796686D01*
X2069601Y796712D01*
X2070508Y797218D01*
X2071473Y797522D01*
X2072480Y797625D01*
X2073487Y797522D01*
X2074452Y797218D01*
X2075359Y796712D01*
X2075365Y796711D01*
X2075369Y796707D01*
X2075432Y796695D01*
X2075495Y796681D01*
X2075501Y796683D01*
G37*
G36*
X2066005Y787841D02*
X2066005Y787841D01*
X2066033Y787842D01*
X2066100Y787874D01*
X2068170Y789274D01*
X2068174Y789278D01*
X2068180Y789281D01*
X2068218Y789332D01*
X2068259Y789381D01*
X2068260Y789387D01*
X2068263Y789392D01*
X2068268Y789456D01*
X2068276Y789520D01*
X2068273Y789526D01*
X2068274Y789532D01*
X2068248Y789601D01*
X2067742Y790508D01*
X2067438Y791473D01*
X2067335Y792480D01*
X2067438Y793487D01*
X2067742Y794452D01*
X2068248Y795359D01*
X2068249Y795365D01*
X2068253Y795369D01*
X2068265Y795432D01*
X2068279Y795495D01*
X2068277Y795501D01*
X2068278Y795507D01*
X2068253Y795566D01*
X2068232Y795626D01*
X2068227Y795630D01*
X2068224Y795636D01*
X2068170Y795686D01*
X2066100Y797086D01*
X2066073Y797095D01*
X2066051Y797112D01*
X2066008Y797116D01*
X2065967Y797129D01*
X2065940Y797122D01*
X2065912Y797125D01*
X2065873Y797105D01*
X2065831Y797094D01*
X2065813Y797073D01*
X2065788Y797060D01*
X2065742Y797001D01*
X2064982Y795640D01*
X2064980Y795629D01*
X2064962Y795593D01*
X2064493Y794106D01*
X2064493Y794096D01*
X2064483Y794057D01*
X2064325Y792505D01*
X2064327Y792495D01*
X2064325Y792455D01*
X2064483Y790903D01*
X2064487Y790894D01*
X2064493Y790854D01*
X2064962Y789367D01*
X2064968Y789358D01*
X2064982Y789320D01*
X2065742Y787959D01*
X2065762Y787939D01*
X2065774Y787914D01*
X2065811Y787891D01*
X2065842Y787860D01*
X2065869Y787855D01*
X2065893Y787840D01*
X2065936Y787840D01*
X2065979Y787831D01*
X2066005Y787841D01*
G37*
G36*
X1326865Y787841D02*
X1326865Y787841D01*
X1326893Y787842D01*
X1326960Y787874D01*
X1329030Y789274D01*
X1329034Y789278D01*
X1329040Y789281D01*
X1329078Y789332D01*
X1329119Y789381D01*
X1329120Y789387D01*
X1329123Y789392D01*
X1329128Y789456D01*
X1329136Y789520D01*
X1329133Y789526D01*
X1329134Y789532D01*
X1329108Y789601D01*
X1328602Y790508D01*
X1328298Y791473D01*
X1328195Y792480D01*
X1328298Y793487D01*
X1328602Y794452D01*
X1329108Y795359D01*
X1329109Y795365D01*
X1329113Y795369D01*
X1329125Y795432D01*
X1329139Y795495D01*
X1329137Y795501D01*
X1329138Y795507D01*
X1329113Y795566D01*
X1329092Y795626D01*
X1329087Y795630D01*
X1329084Y795636D01*
X1329030Y795686D01*
X1326960Y797086D01*
X1326933Y797095D01*
X1326911Y797112D01*
X1326868Y797116D01*
X1326827Y797129D01*
X1326800Y797122D01*
X1326772Y797125D01*
X1326733Y797105D01*
X1326691Y797094D01*
X1326673Y797073D01*
X1326648Y797060D01*
X1326602Y797001D01*
X1325842Y795640D01*
X1325840Y795629D01*
X1325822Y795593D01*
X1325353Y794106D01*
X1325353Y794096D01*
X1325343Y794057D01*
X1325185Y792505D01*
X1325187Y792495D01*
X1325185Y792455D01*
X1325343Y790903D01*
X1325347Y790894D01*
X1325353Y790854D01*
X1325822Y789367D01*
X1325828Y789358D01*
X1325842Y789320D01*
X1326602Y787959D01*
X1326622Y787939D01*
X1326634Y787914D01*
X1326671Y787891D01*
X1326702Y787860D01*
X1326729Y787855D01*
X1326753Y787840D01*
X1326796Y787840D01*
X1326839Y787831D01*
X1326865Y787841D01*
G37*
G36*
X587725Y787841D02*
X587725Y787841D01*
X587753Y787842D01*
X587820Y787874D01*
X589890Y789274D01*
X589894Y789278D01*
X589900Y789281D01*
X589938Y789332D01*
X589979Y789381D01*
X589980Y789387D01*
X589983Y789392D01*
X589988Y789456D01*
X589996Y789520D01*
X589993Y789526D01*
X589994Y789532D01*
X589968Y789601D01*
X589462Y790508D01*
X589158Y791473D01*
X589055Y792480D01*
X589158Y793487D01*
X589462Y794452D01*
X589968Y795359D01*
X589969Y795365D01*
X589973Y795369D01*
X589985Y795432D01*
X589999Y795495D01*
X589997Y795501D01*
X589998Y795507D01*
X589973Y795566D01*
X589952Y795626D01*
X589947Y795630D01*
X589944Y795636D01*
X589890Y795686D01*
X587820Y797086D01*
X587793Y797095D01*
X587771Y797112D01*
X587728Y797116D01*
X587687Y797129D01*
X587660Y797122D01*
X587632Y797125D01*
X587593Y797105D01*
X587551Y797094D01*
X587533Y797073D01*
X587508Y797060D01*
X587462Y797001D01*
X586702Y795640D01*
X586700Y795629D01*
X586682Y795593D01*
X586213Y794106D01*
X586213Y794096D01*
X586203Y794057D01*
X586045Y792505D01*
X586047Y792495D01*
X586045Y792455D01*
X586203Y790903D01*
X586207Y790894D01*
X586213Y790854D01*
X586682Y789367D01*
X586688Y789358D01*
X586702Y789320D01*
X587462Y787959D01*
X587482Y787939D01*
X587494Y787914D01*
X587531Y787891D01*
X587562Y787860D01*
X587589Y787855D01*
X587613Y787840D01*
X587656Y787840D01*
X587699Y787831D01*
X587725Y787841D01*
G37*
G36*
X1339880Y787838D02*
X1339880Y787838D01*
X1339908Y787835D01*
X1339947Y787855D01*
X1339989Y787867D01*
X1340007Y787887D01*
X1340032Y787900D01*
X1340078Y787959D01*
X1340838Y789320D01*
X1340840Y789331D01*
X1340858Y789367D01*
X1341327Y790854D01*
X1341327Y790864D01*
X1341337Y790903D01*
X1341495Y792455D01*
X1341493Y792465D01*
X1341495Y792505D01*
X1341337Y794057D01*
X1341333Y794066D01*
X1341327Y794106D01*
X1340858Y795593D01*
X1340852Y795602D01*
X1340838Y795640D01*
X1340078Y797001D01*
X1340058Y797021D01*
X1340046Y797046D01*
X1340009Y797069D01*
X1339978Y797100D01*
X1339951Y797105D01*
X1339927Y797120D01*
X1339884Y797120D01*
X1339841Y797129D01*
X1339815Y797119D01*
X1339787Y797118D01*
X1339720Y797086D01*
X1337650Y795686D01*
X1337646Y795682D01*
X1337640Y795679D01*
X1337602Y795628D01*
X1337561Y795579D01*
X1337560Y795573D01*
X1337557Y795568D01*
X1337552Y795504D01*
X1337544Y795440D01*
X1337547Y795434D01*
X1337546Y795428D01*
X1337572Y795359D01*
X1338078Y794452D01*
X1338382Y793487D01*
X1338485Y792480D01*
X1338382Y791473D01*
X1338078Y790508D01*
X1337572Y789601D01*
X1337571Y789595D01*
X1337567Y789591D01*
X1337555Y789528D01*
X1337541Y789465D01*
X1337543Y789459D01*
X1337542Y789453D01*
X1337567Y789394D01*
X1337588Y789334D01*
X1337593Y789330D01*
X1337596Y789324D01*
X1337650Y789274D01*
X1339720Y787874D01*
X1339747Y787865D01*
X1339769Y787848D01*
X1339812Y787844D01*
X1339853Y787831D01*
X1339880Y787838D01*
G37*
G36*
X600740Y787838D02*
X600740Y787838D01*
X600768Y787835D01*
X600807Y787855D01*
X600849Y787867D01*
X600867Y787887D01*
X600892Y787900D01*
X600938Y787959D01*
X601698Y789320D01*
X601700Y789331D01*
X601718Y789367D01*
X602187Y790854D01*
X602187Y790864D01*
X602197Y790903D01*
X602355Y792455D01*
X602353Y792465D01*
X602355Y792505D01*
X602197Y794057D01*
X602193Y794066D01*
X602187Y794106D01*
X601718Y795593D01*
X601712Y795602D01*
X601698Y795640D01*
X600938Y797001D01*
X600918Y797021D01*
X600906Y797046D01*
X600869Y797069D01*
X600838Y797100D01*
X600811Y797105D01*
X600787Y797120D01*
X600744Y797120D01*
X600701Y797129D01*
X600675Y797119D01*
X600647Y797118D01*
X600580Y797086D01*
X598510Y795686D01*
X598506Y795682D01*
X598500Y795679D01*
X598462Y795628D01*
X598421Y795579D01*
X598420Y795573D01*
X598417Y795568D01*
X598412Y795504D01*
X598404Y795440D01*
X598407Y795434D01*
X598406Y795428D01*
X598432Y795359D01*
X598938Y794452D01*
X599242Y793487D01*
X599345Y792480D01*
X599242Y791473D01*
X598938Y790508D01*
X598432Y789601D01*
X598431Y789595D01*
X598427Y789591D01*
X598415Y789528D01*
X598401Y789465D01*
X598403Y789459D01*
X598402Y789453D01*
X598427Y789394D01*
X598448Y789334D01*
X598453Y789330D01*
X598456Y789324D01*
X598510Y789274D01*
X600580Y787874D01*
X600607Y787865D01*
X600629Y787848D01*
X600672Y787844D01*
X600713Y787831D01*
X600740Y787838D01*
G37*
G36*
X2079020Y787838D02*
X2079020Y787838D01*
X2079048Y787835D01*
X2079087Y787855D01*
X2079129Y787867D01*
X2079147Y787887D01*
X2079172Y787900D01*
X2079218Y787959D01*
X2079978Y789320D01*
X2079980Y789331D01*
X2079998Y789367D01*
X2080467Y790854D01*
X2080467Y790864D01*
X2080477Y790903D01*
X2080635Y792455D01*
X2080633Y792465D01*
X2080635Y792505D01*
X2080477Y794057D01*
X2080473Y794066D01*
X2080467Y794106D01*
X2079998Y795593D01*
X2079992Y795602D01*
X2079978Y795640D01*
X2079218Y797001D01*
X2079198Y797021D01*
X2079186Y797046D01*
X2079149Y797069D01*
X2079118Y797100D01*
X2079091Y797105D01*
X2079067Y797120D01*
X2079024Y797120D01*
X2078981Y797129D01*
X2078955Y797119D01*
X2078927Y797118D01*
X2078860Y797086D01*
X2076790Y795686D01*
X2076786Y795682D01*
X2076780Y795679D01*
X2076742Y795628D01*
X2076701Y795579D01*
X2076700Y795573D01*
X2076697Y795568D01*
X2076692Y795504D01*
X2076684Y795440D01*
X2076687Y795434D01*
X2076686Y795428D01*
X2076712Y795359D01*
X2077218Y794452D01*
X2077522Y793487D01*
X2077625Y792480D01*
X2077522Y791473D01*
X2077218Y790508D01*
X2076712Y789601D01*
X2076711Y789595D01*
X2076707Y789591D01*
X2076695Y789528D01*
X2076681Y789465D01*
X2076683Y789459D01*
X2076682Y789453D01*
X2076707Y789394D01*
X2076728Y789334D01*
X2076733Y789330D01*
X2076736Y789324D01*
X2076790Y789274D01*
X2078860Y787874D01*
X2078887Y787865D01*
X2078909Y787848D01*
X2078952Y787844D01*
X2078993Y787831D01*
X2079020Y787838D01*
G37*
G36*
X2075501Y207403D02*
X2075501Y207403D01*
X2075507Y207402D01*
X2075566Y207427D01*
X2075626Y207448D01*
X2075630Y207453D01*
X2075636Y207456D01*
X2075686Y207510D01*
X2077086Y209580D01*
X2077095Y209607D01*
X2077112Y209629D01*
X2077116Y209672D01*
X2077129Y209713D01*
X2077122Y209740D01*
X2077125Y209768D01*
X2077105Y209807D01*
X2077094Y209849D01*
X2077073Y209867D01*
X2077060Y209892D01*
X2077001Y209938D01*
X2075640Y210698D01*
X2075629Y210700D01*
X2075593Y210718D01*
X2074106Y211187D01*
X2074096Y211187D01*
X2074057Y211197D01*
X2072505Y211355D01*
X2072495Y211353D01*
X2072455Y211355D01*
X2070903Y211197D01*
X2070894Y211193D01*
X2070854Y211187D01*
X2069367Y210718D01*
X2069358Y210712D01*
X2069320Y210698D01*
X2067959Y209938D01*
X2067939Y209918D01*
X2067914Y209906D01*
X2067891Y209869D01*
X2067860Y209838D01*
X2067855Y209811D01*
X2067840Y209787D01*
X2067840Y209744D01*
X2067831Y209701D01*
X2067841Y209675D01*
X2067842Y209647D01*
X2067874Y209580D01*
X2069274Y207510D01*
X2069278Y207506D01*
X2069281Y207500D01*
X2069332Y207462D01*
X2069381Y207421D01*
X2069387Y207420D01*
X2069392Y207417D01*
X2069456Y207412D01*
X2069520Y207404D01*
X2069526Y207407D01*
X2069532Y207406D01*
X2069601Y207432D01*
X2070508Y207938D01*
X2071473Y208242D01*
X2072480Y208345D01*
X2073487Y208242D01*
X2074452Y207938D01*
X2075359Y207432D01*
X2075365Y207431D01*
X2075369Y207427D01*
X2075432Y207415D01*
X2075495Y207401D01*
X2075501Y207403D01*
G37*
G36*
X597221Y207403D02*
X597221Y207403D01*
X597227Y207402D01*
X597286Y207427D01*
X597346Y207448D01*
X597350Y207453D01*
X597356Y207456D01*
X597406Y207510D01*
X598806Y209580D01*
X598815Y209607D01*
X598832Y209629D01*
X598836Y209672D01*
X598849Y209713D01*
X598842Y209740D01*
X598845Y209768D01*
X598825Y209807D01*
X598814Y209849D01*
X598793Y209867D01*
X598780Y209892D01*
X598721Y209938D01*
X597360Y210698D01*
X597349Y210700D01*
X597313Y210718D01*
X595826Y211187D01*
X595816Y211187D01*
X595777Y211197D01*
X594225Y211355D01*
X594215Y211353D01*
X594175Y211355D01*
X592623Y211197D01*
X592614Y211193D01*
X592574Y211187D01*
X591087Y210718D01*
X591078Y210712D01*
X591040Y210698D01*
X589679Y209938D01*
X589659Y209918D01*
X589634Y209906D01*
X589611Y209869D01*
X589580Y209838D01*
X589575Y209811D01*
X589560Y209787D01*
X589560Y209744D01*
X589551Y209701D01*
X589561Y209675D01*
X589562Y209647D01*
X589594Y209580D01*
X590994Y207510D01*
X590998Y207506D01*
X591001Y207500D01*
X591052Y207462D01*
X591101Y207421D01*
X591107Y207420D01*
X591112Y207417D01*
X591176Y207412D01*
X591240Y207404D01*
X591246Y207407D01*
X591252Y207406D01*
X591321Y207432D01*
X592228Y207938D01*
X593193Y208242D01*
X594200Y208345D01*
X595207Y208242D01*
X596172Y207938D01*
X597079Y207432D01*
X597085Y207431D01*
X597089Y207427D01*
X597152Y207415D01*
X597215Y207401D01*
X597221Y207403D01*
G37*
G36*
X1336361Y207403D02*
X1336361Y207403D01*
X1336367Y207402D01*
X1336426Y207427D01*
X1336486Y207448D01*
X1336490Y207453D01*
X1336496Y207456D01*
X1336546Y207510D01*
X1337946Y209580D01*
X1337955Y209607D01*
X1337972Y209629D01*
X1337976Y209672D01*
X1337989Y209713D01*
X1337982Y209740D01*
X1337985Y209768D01*
X1337965Y209807D01*
X1337954Y209849D01*
X1337933Y209867D01*
X1337920Y209892D01*
X1337861Y209938D01*
X1336500Y210698D01*
X1336489Y210700D01*
X1336453Y210718D01*
X1334966Y211187D01*
X1334956Y211187D01*
X1334917Y211197D01*
X1333365Y211355D01*
X1333355Y211353D01*
X1333315Y211355D01*
X1331763Y211197D01*
X1331754Y211193D01*
X1331714Y211187D01*
X1330227Y210718D01*
X1330218Y210712D01*
X1330180Y210698D01*
X1328819Y209938D01*
X1328799Y209918D01*
X1328774Y209906D01*
X1328751Y209869D01*
X1328720Y209838D01*
X1328715Y209811D01*
X1328700Y209787D01*
X1328700Y209744D01*
X1328691Y209701D01*
X1328701Y209675D01*
X1328702Y209647D01*
X1328734Y209580D01*
X1330134Y207510D01*
X1330138Y207506D01*
X1330141Y207500D01*
X1330192Y207462D01*
X1330241Y207421D01*
X1330247Y207420D01*
X1330252Y207417D01*
X1330316Y207412D01*
X1330380Y207404D01*
X1330386Y207407D01*
X1330392Y207406D01*
X1330461Y207432D01*
X1331368Y207938D01*
X1332333Y208242D01*
X1333340Y208345D01*
X1334347Y208242D01*
X1335312Y207938D01*
X1336219Y207432D01*
X1336225Y207431D01*
X1336229Y207427D01*
X1336292Y207415D01*
X1336355Y207401D01*
X1336361Y207403D01*
G37*
G36*
X587725Y198561D02*
X587725Y198561D01*
X587753Y198562D01*
X587820Y198594D01*
X589890Y199994D01*
X589894Y199998D01*
X589900Y200001D01*
X589938Y200052D01*
X589979Y200101D01*
X589980Y200107D01*
X589983Y200112D01*
X589988Y200176D01*
X589996Y200240D01*
X589993Y200246D01*
X589994Y200252D01*
X589968Y200321D01*
X589462Y201228D01*
X589158Y202193D01*
X589055Y203200D01*
X589158Y204207D01*
X589462Y205172D01*
X589968Y206079D01*
X589969Y206085D01*
X589973Y206089D01*
X589985Y206152D01*
X589999Y206215D01*
X589997Y206221D01*
X589998Y206227D01*
X589973Y206286D01*
X589952Y206346D01*
X589947Y206350D01*
X589944Y206356D01*
X589890Y206406D01*
X587820Y207806D01*
X587793Y207815D01*
X587771Y207832D01*
X587728Y207836D01*
X587687Y207849D01*
X587660Y207842D01*
X587632Y207845D01*
X587593Y207825D01*
X587551Y207814D01*
X587533Y207793D01*
X587508Y207780D01*
X587462Y207721D01*
X586702Y206360D01*
X586700Y206349D01*
X586682Y206313D01*
X586213Y204826D01*
X586213Y204816D01*
X586203Y204777D01*
X586045Y203225D01*
X586047Y203215D01*
X586045Y203175D01*
X586203Y201623D01*
X586207Y201614D01*
X586213Y201574D01*
X586682Y200087D01*
X586688Y200078D01*
X586702Y200040D01*
X587462Y198679D01*
X587482Y198659D01*
X587494Y198634D01*
X587531Y198611D01*
X587562Y198580D01*
X587589Y198575D01*
X587613Y198560D01*
X587656Y198560D01*
X587699Y198551D01*
X587725Y198561D01*
G37*
G36*
X2066005Y198561D02*
X2066005Y198561D01*
X2066033Y198562D01*
X2066100Y198594D01*
X2068170Y199994D01*
X2068174Y199998D01*
X2068180Y200001D01*
X2068218Y200052D01*
X2068259Y200101D01*
X2068260Y200107D01*
X2068263Y200112D01*
X2068268Y200176D01*
X2068276Y200240D01*
X2068273Y200246D01*
X2068274Y200252D01*
X2068248Y200321D01*
X2067742Y201228D01*
X2067438Y202193D01*
X2067335Y203200D01*
X2067438Y204207D01*
X2067742Y205172D01*
X2068248Y206079D01*
X2068249Y206085D01*
X2068253Y206089D01*
X2068265Y206152D01*
X2068279Y206215D01*
X2068277Y206221D01*
X2068278Y206227D01*
X2068253Y206286D01*
X2068232Y206346D01*
X2068227Y206350D01*
X2068224Y206356D01*
X2068170Y206406D01*
X2066100Y207806D01*
X2066073Y207815D01*
X2066051Y207832D01*
X2066008Y207836D01*
X2065967Y207849D01*
X2065940Y207842D01*
X2065912Y207845D01*
X2065873Y207825D01*
X2065831Y207814D01*
X2065813Y207793D01*
X2065788Y207780D01*
X2065742Y207721D01*
X2064982Y206360D01*
X2064980Y206349D01*
X2064962Y206313D01*
X2064493Y204826D01*
X2064493Y204816D01*
X2064483Y204777D01*
X2064325Y203225D01*
X2064327Y203215D01*
X2064325Y203175D01*
X2064483Y201623D01*
X2064487Y201614D01*
X2064493Y201574D01*
X2064962Y200087D01*
X2064968Y200078D01*
X2064982Y200040D01*
X2065742Y198679D01*
X2065762Y198659D01*
X2065774Y198634D01*
X2065811Y198611D01*
X2065842Y198580D01*
X2065869Y198575D01*
X2065893Y198560D01*
X2065936Y198560D01*
X2065979Y198551D01*
X2066005Y198561D01*
G37*
G36*
X2079020Y198558D02*
X2079020Y198558D01*
X2079048Y198555D01*
X2079087Y198575D01*
X2079129Y198587D01*
X2079147Y198607D01*
X2079172Y198620D01*
X2079218Y198679D01*
X2079978Y200040D01*
X2079980Y200051D01*
X2079998Y200087D01*
X2080467Y201574D01*
X2080467Y201584D01*
X2080477Y201623D01*
X2080635Y203175D01*
X2080633Y203185D01*
X2080635Y203225D01*
X2080477Y204777D01*
X2080473Y204786D01*
X2080467Y204826D01*
X2079998Y206313D01*
X2079992Y206322D01*
X2079978Y206360D01*
X2079218Y207721D01*
X2079198Y207741D01*
X2079186Y207766D01*
X2079149Y207789D01*
X2079118Y207820D01*
X2079091Y207825D01*
X2079067Y207840D01*
X2079024Y207840D01*
X2078981Y207849D01*
X2078955Y207839D01*
X2078927Y207838D01*
X2078860Y207806D01*
X2076790Y206406D01*
X2076786Y206402D01*
X2076780Y206399D01*
X2076742Y206348D01*
X2076701Y206299D01*
X2076700Y206293D01*
X2076697Y206288D01*
X2076692Y206224D01*
X2076684Y206160D01*
X2076687Y206154D01*
X2076686Y206148D01*
X2076712Y206079D01*
X2077218Y205172D01*
X2077522Y204207D01*
X2077625Y203200D01*
X2077522Y202193D01*
X2077218Y201228D01*
X2076712Y200321D01*
X2076711Y200315D01*
X2076707Y200311D01*
X2076695Y200248D01*
X2076681Y200185D01*
X2076683Y200179D01*
X2076682Y200173D01*
X2076707Y200114D01*
X2076728Y200054D01*
X2076733Y200050D01*
X2076736Y200044D01*
X2076790Y199994D01*
X2078860Y198594D01*
X2078887Y198585D01*
X2078909Y198568D01*
X2078952Y198564D01*
X2078993Y198551D01*
X2079020Y198558D01*
G37*
G36*
X1339880Y198558D02*
X1339880Y198558D01*
X1339908Y198555D01*
X1339947Y198575D01*
X1339989Y198587D01*
X1340007Y198607D01*
X1340032Y198620D01*
X1340078Y198679D01*
X1340838Y200040D01*
X1340840Y200051D01*
X1340858Y200087D01*
X1341327Y201574D01*
X1341327Y201584D01*
X1341337Y201623D01*
X1341495Y203175D01*
X1341493Y203185D01*
X1341495Y203225D01*
X1341337Y204777D01*
X1341333Y204786D01*
X1341327Y204826D01*
X1340858Y206313D01*
X1340852Y206322D01*
X1340838Y206360D01*
X1340078Y207721D01*
X1340058Y207741D01*
X1340046Y207766D01*
X1340009Y207789D01*
X1339978Y207820D01*
X1339951Y207825D01*
X1339927Y207840D01*
X1339884Y207840D01*
X1339841Y207849D01*
X1339815Y207839D01*
X1339787Y207838D01*
X1339720Y207806D01*
X1337650Y206406D01*
X1337646Y206402D01*
X1337640Y206399D01*
X1337602Y206348D01*
X1337561Y206299D01*
X1337560Y206293D01*
X1337557Y206288D01*
X1337552Y206224D01*
X1337544Y206160D01*
X1337547Y206154D01*
X1337546Y206148D01*
X1337572Y206079D01*
X1338078Y205172D01*
X1338382Y204207D01*
X1338485Y203200D01*
X1338382Y202193D01*
X1338078Y201228D01*
X1337572Y200321D01*
X1337571Y200315D01*
X1337567Y200311D01*
X1337555Y200248D01*
X1337541Y200185D01*
X1337543Y200179D01*
X1337542Y200173D01*
X1337567Y200114D01*
X1337588Y200054D01*
X1337593Y200050D01*
X1337596Y200044D01*
X1337650Y199994D01*
X1339720Y198594D01*
X1339747Y198585D01*
X1339769Y198568D01*
X1339812Y198564D01*
X1339853Y198551D01*
X1339880Y198558D01*
G37*
G36*
X600740Y198558D02*
X600740Y198558D01*
X600768Y198555D01*
X600807Y198575D01*
X600849Y198587D01*
X600867Y198607D01*
X600892Y198620D01*
X600938Y198679D01*
X601698Y200040D01*
X601700Y200051D01*
X601718Y200087D01*
X602187Y201574D01*
X602187Y201584D01*
X602197Y201623D01*
X602355Y203175D01*
X602353Y203185D01*
X602355Y203225D01*
X602197Y204777D01*
X602193Y204786D01*
X602187Y204826D01*
X601718Y206313D01*
X601712Y206322D01*
X601698Y206360D01*
X600938Y207721D01*
X600918Y207741D01*
X600906Y207766D01*
X600869Y207789D01*
X600838Y207820D01*
X600811Y207825D01*
X600787Y207840D01*
X600744Y207840D01*
X600701Y207849D01*
X600675Y207839D01*
X600647Y207838D01*
X600580Y207806D01*
X598510Y206406D01*
X598506Y206402D01*
X598500Y206399D01*
X598462Y206348D01*
X598421Y206299D01*
X598420Y206293D01*
X598417Y206288D01*
X598412Y206224D01*
X598404Y206160D01*
X598407Y206154D01*
X598406Y206148D01*
X598432Y206079D01*
X598938Y205172D01*
X599242Y204207D01*
X599345Y203200D01*
X599242Y202193D01*
X598938Y201228D01*
X598432Y200321D01*
X598431Y200315D01*
X598427Y200311D01*
X598415Y200248D01*
X598401Y200185D01*
X598403Y200179D01*
X598402Y200173D01*
X598427Y200114D01*
X598448Y200054D01*
X598453Y200050D01*
X598456Y200044D01*
X598510Y199994D01*
X600580Y198594D01*
X600607Y198585D01*
X600629Y198568D01*
X600672Y198564D01*
X600713Y198551D01*
X600740Y198558D01*
G37*
G36*
X1326865Y198561D02*
X1326865Y198561D01*
X1326893Y198562D01*
X1326960Y198594D01*
X1329030Y199994D01*
X1329034Y199998D01*
X1329040Y200001D01*
X1329078Y200052D01*
X1329119Y200101D01*
X1329120Y200107D01*
X1329123Y200112D01*
X1329128Y200176D01*
X1329136Y200240D01*
X1329133Y200246D01*
X1329134Y200252D01*
X1329108Y200321D01*
X1328602Y201228D01*
X1328298Y202193D01*
X1328195Y203200D01*
X1328298Y204207D01*
X1328602Y205172D01*
X1329108Y206079D01*
X1329109Y206085D01*
X1329113Y206089D01*
X1329125Y206152D01*
X1329139Y206215D01*
X1329137Y206221D01*
X1329138Y206227D01*
X1329113Y206286D01*
X1329092Y206346D01*
X1329087Y206350D01*
X1329084Y206356D01*
X1329030Y206406D01*
X1326960Y207806D01*
X1326933Y207815D01*
X1326911Y207832D01*
X1326868Y207836D01*
X1326827Y207849D01*
X1326800Y207842D01*
X1326772Y207845D01*
X1326733Y207825D01*
X1326691Y207814D01*
X1326673Y207793D01*
X1326648Y207780D01*
X1326602Y207721D01*
X1325842Y206360D01*
X1325840Y206349D01*
X1325822Y206313D01*
X1325353Y204826D01*
X1325353Y204816D01*
X1325343Y204777D01*
X1325185Y203225D01*
X1325187Y203215D01*
X1325185Y203175D01*
X1325343Y201623D01*
X1325347Y201614D01*
X1325353Y201574D01*
X1325822Y200087D01*
X1325828Y200078D01*
X1325842Y200040D01*
X1326602Y198679D01*
X1326622Y198659D01*
X1326634Y198634D01*
X1326671Y198611D01*
X1326702Y198580D01*
X1326729Y198575D01*
X1326753Y198560D01*
X1326796Y198560D01*
X1326839Y198551D01*
X1326865Y198561D01*
G37*
D10*
X207400Y361950D03*
X224400Y361950D03*
X385200Y172720D03*
X402200Y172720D03*
X168520Y482600D03*
X151520Y482600D03*
X509660Y247650D03*
X526660Y247650D03*
D11*
X217200Y160020D03*
X189200Y160020D03*
D10*
X93100Y287020D03*
X110100Y287020D03*
D12*
X215900Y107820D03*
X215900Y59820D03*
D13*
X38100Y301870D03*
X38100Y284870D03*
D14*
X53500Y304140D03*
X53500Y285140D03*
X74500Y294640D03*
D10*
X182000Y447040D03*
X199000Y447040D03*
X26280Y321310D03*
X9280Y321310D03*
D15*
X106400Y218593D03*
X106400Y241300D03*
X106400Y264185D03*
D16*
X46990Y241300D03*
D10*
X141850Y198120D03*
X124850Y198120D03*
X124850Y223520D03*
X141850Y223520D03*
X93100Y302260D03*
X110100Y302260D03*
D11*
X120680Y330200D03*
X92680Y330200D03*
D17*
X340360Y516900D03*
X289560Y516900D03*
X238760Y516900D03*
X365760Y549900D03*
X314960Y549900D03*
X264160Y549900D03*
X213360Y549900D03*
X187960Y549900D03*
X213360Y516900D03*
X238760Y549900D03*
X264160Y516900D03*
X289560Y549900D03*
X314960Y516900D03*
X340360Y549900D03*
X365760Y516900D03*
X187960Y516900D03*
X391160Y549900D03*
X416560Y549900D03*
X391160Y516900D03*
X416560Y516900D03*
X304800Y67300D03*
X355600Y67300D03*
X406400Y67300D03*
X279400Y34300D03*
X330200Y34300D03*
X381000Y34300D03*
X431800Y34300D03*
X457200Y34300D03*
X431800Y67300D03*
X406400Y34300D03*
X381000Y67300D03*
X355600Y34300D03*
X330200Y67300D03*
X304800Y34300D03*
X279400Y67300D03*
X457200Y67300D03*
D11*
X189200Y248920D03*
X217200Y248920D03*
D18*
X378700Y152400D03*
X408700Y152400D03*
X230900Y381000D03*
X200900Y381000D03*
D19*
X160020Y87720D03*
X160020Y130720D03*
D17*
X482600Y549900D03*
X533400Y549900D03*
X584200Y549900D03*
X457200Y516900D03*
X508000Y516900D03*
X558800Y516900D03*
X609600Y516900D03*
X635000Y516900D03*
X609600Y549900D03*
X584200Y516900D03*
X558800Y549900D03*
X533400Y516900D03*
X508000Y549900D03*
X482600Y516900D03*
X457200Y549900D03*
X635000Y549900D03*
X609600Y34300D03*
X558800Y34300D03*
X508000Y34300D03*
X635000Y67300D03*
X584200Y67300D03*
X533400Y67300D03*
X508000Y67300D03*
X533400Y34300D03*
X558800Y67300D03*
X584200Y34300D03*
X609600Y67300D03*
X635000Y34300D03*
D20*
X20320Y168760D03*
X20320Y54760D03*
X81320Y168760D03*
X81320Y54760D03*
D21*
X20320Y35370D03*
X81331Y35344D03*
X81331Y188151D03*
X20320Y188151D03*
D22*
X190199Y212700D03*
X190199Y203200D03*
X190199Y193700D03*
X216201Y193700D03*
X216201Y212700D03*
D10*
X211700Y228600D03*
X194700Y228600D03*
X118500Y355600D03*
X135500Y355600D03*
D18*
X230900Y304800D03*
X200900Y304800D03*
D10*
X224400Y285750D03*
X207400Y285750D03*
X135500Y482600D03*
X118500Y482600D03*
X224400Y323850D03*
X207400Y323850D03*
D18*
X230900Y342900D03*
X200900Y342900D03*
D23*
X671750Y162500D03*
X671750Y218500D03*
D24*
X635000Y175500D03*
X635000Y185500D03*
X635000Y195500D03*
X635000Y205500D03*
D25*
X65040Y411600D03*
X65040Y416600D03*
D26*
X65040Y386850D03*
D27*
X65040Y394600D03*
D25*
X65040Y401600D03*
X65040Y406600D03*
X65040Y426600D03*
X65040Y421600D03*
D26*
X65040Y451350D03*
D27*
X65040Y443600D03*
D25*
X65040Y436600D03*
X65040Y431600D03*
D28*
X99000Y463550D03*
X99000Y450850D03*
X99000Y438150D03*
X99000Y425450D03*
X99000Y412750D03*
X99000Y400050D03*
X99000Y387350D03*
X99000Y374650D03*
X155000Y374650D03*
X155000Y387350D03*
X155000Y400050D03*
X155000Y412750D03*
X155000Y425450D03*
X155000Y438150D03*
X155000Y450850D03*
X155000Y463550D03*
D10*
X9280Y339090D03*
X26280Y339090D03*
X102480Y482600D03*
X85480Y482600D03*
D29*
X78740Y501650D03*
X22860Y501650D03*
X78740Y539750D03*
X22860Y539750D03*
D30*
X42150Y330200D03*
X72150Y330200D03*
D10*
X182000Y401320D03*
X199000Y401320D03*
X182000Y416560D03*
X199000Y416560D03*
X526660Y232410D03*
X509660Y232410D03*
X526660Y215900D03*
X509660Y215900D03*
D31*
X254000Y202000D03*
X254000Y179000D03*
D10*
X199000Y431800D03*
X182000Y431800D03*
D32*
X518160Y275790D03*
X518160Y300790D03*
D10*
X509660Y313690D03*
X526660Y313690D03*
X509660Y262890D03*
X526660Y262890D03*
X151520Y497840D03*
X168520Y497840D03*
D13*
X554990Y194700D03*
X554990Y211700D03*
D33*
X581200Y212200D03*
X571200Y212200D03*
X571200Y194200D03*
X581200Y194200D03*
D34*
X600700Y203200D03*
D35*
X594200Y196700D03*
X594200Y209700D03*
D34*
X587700Y203200D03*
D36*
X650790Y337100D03*
X645790Y329100D03*
X640790Y337100D03*
X635790Y329100D03*
X630790Y337100D03*
X625790Y329100D03*
X620790Y337100D03*
X615790Y329100D03*
X610790Y337100D03*
X605790Y329100D03*
X600790Y337100D03*
X595790Y329100D03*
X590790Y337100D03*
X585790Y329100D03*
X580790Y337100D03*
X575790Y329100D03*
X570790Y337100D03*
X565790Y329100D03*
X560790Y337100D03*
X555790Y329100D03*
X550790Y337100D03*
D37*
X540790Y337100D03*
D38*
X540790Y327100D03*
X548790Y322100D03*
X540790Y317100D03*
X548790Y312100D03*
X540790Y307100D03*
X548790Y302100D03*
X540790Y297100D03*
X548790Y292100D03*
X540790Y287100D03*
X548790Y282100D03*
X540790Y277100D03*
X548790Y272100D03*
X540790Y267100D03*
X548790Y262100D03*
X540790Y257100D03*
D37*
X540790Y247100D03*
D36*
X550790Y247100D03*
X555790Y255100D03*
X560790Y247100D03*
X565790Y255100D03*
X570790Y247100D03*
X575790Y255100D03*
X580790Y247100D03*
X585790Y255100D03*
X590790Y247100D03*
X595790Y255100D03*
X600790Y247100D03*
X605790Y255100D03*
X610790Y247100D03*
X615790Y255100D03*
X620790Y247100D03*
X625790Y255100D03*
X630790Y247100D03*
X635790Y255100D03*
X640790Y247100D03*
X645790Y255100D03*
X650790Y247100D03*
D10*
X946540Y361950D03*
X963540Y361950D03*
X1124340Y172720D03*
X1141340Y172720D03*
X907660Y482600D03*
X890660Y482600D03*
X1248800Y247650D03*
X1265800Y247650D03*
D11*
X956340Y160020D03*
X928340Y160020D03*
D10*
X832240Y287020D03*
X849240Y287020D03*
D12*
X955040Y107820D03*
X955040Y59820D03*
D13*
X777240Y301870D03*
X777240Y284870D03*
D14*
X792640Y304140D03*
X792640Y285140D03*
X813640Y294640D03*
D10*
X921140Y447040D03*
X938140Y447040D03*
X765420Y321310D03*
X748420Y321310D03*
D15*
X845540Y218593D03*
X845540Y241300D03*
X845540Y264185D03*
D16*
X786130Y241300D03*
D10*
X880990Y198120D03*
X863990Y198120D03*
X863990Y223520D03*
X880990Y223520D03*
X832240Y302260D03*
X849240Y302260D03*
D11*
X859820Y330200D03*
X831820Y330200D03*
D17*
X1079500Y516900D03*
X1028700Y516900D03*
X977900Y516900D03*
X1104900Y549900D03*
X1054100Y549900D03*
X1003300Y549900D03*
X952500Y549900D03*
X927100Y549900D03*
X952500Y516900D03*
X977900Y549900D03*
X1003300Y516900D03*
X1028700Y549900D03*
X1054100Y516900D03*
X1079500Y549900D03*
X1104900Y516900D03*
X927100Y516900D03*
X1130300Y549900D03*
X1155700Y549900D03*
X1130300Y516900D03*
X1155700Y516900D03*
X1043940Y67300D03*
X1094740Y67300D03*
X1145540Y67300D03*
X1018540Y34300D03*
X1069340Y34300D03*
X1120140Y34300D03*
X1170940Y34300D03*
X1196340Y34300D03*
X1170940Y67300D03*
X1145540Y34300D03*
X1120140Y67300D03*
X1094740Y34300D03*
X1069340Y67300D03*
X1043940Y34300D03*
X1018540Y67300D03*
X1196340Y67300D03*
D11*
X928340Y248920D03*
X956340Y248920D03*
D18*
X1117840Y152400D03*
X1147840Y152400D03*
X970040Y381000D03*
X940040Y381000D03*
D19*
X899160Y87720D03*
X899160Y130720D03*
D17*
X1221740Y549900D03*
X1272540Y549900D03*
X1323340Y549900D03*
X1196340Y516900D03*
X1247140Y516900D03*
X1297940Y516900D03*
X1348740Y516900D03*
X1374140Y516900D03*
X1348740Y549900D03*
X1323340Y516900D03*
X1297940Y549900D03*
X1272540Y516900D03*
X1247140Y549900D03*
X1221740Y516900D03*
X1196340Y549900D03*
X1374140Y549900D03*
X1348740Y34300D03*
X1297940Y34300D03*
X1247140Y34300D03*
X1374140Y67300D03*
X1323340Y67300D03*
X1272540Y67300D03*
X1247140Y67300D03*
X1272540Y34300D03*
X1297940Y67300D03*
X1323340Y34300D03*
X1348740Y67300D03*
X1374140Y34300D03*
D20*
X759460Y168760D03*
X759460Y54760D03*
X820460Y168760D03*
X820460Y54760D03*
D21*
X759460Y35370D03*
X820471Y35344D03*
X820471Y188151D03*
X759460Y188151D03*
D22*
X929339Y212700D03*
X929339Y203200D03*
X929339Y193700D03*
X955341Y193700D03*
X955341Y212700D03*
D10*
X950840Y228600D03*
X933840Y228600D03*
X857640Y355600D03*
X874640Y355600D03*
D18*
X970040Y304800D03*
X940040Y304800D03*
D10*
X963540Y285750D03*
X946540Y285750D03*
X874640Y482600D03*
X857640Y482600D03*
X963540Y323850D03*
X946540Y323850D03*
D18*
X970040Y342900D03*
X940040Y342900D03*
D23*
X1410890Y162500D03*
X1410890Y218500D03*
D24*
X1374140Y175500D03*
X1374140Y185500D03*
X1374140Y195500D03*
X1374140Y205500D03*
D25*
X804180Y411600D03*
X804180Y416600D03*
D26*
X804180Y386850D03*
D27*
X804180Y394600D03*
D25*
X804180Y401600D03*
X804180Y406600D03*
X804180Y426600D03*
X804180Y421600D03*
D26*
X804180Y451350D03*
D27*
X804180Y443600D03*
D25*
X804180Y436600D03*
X804180Y431600D03*
D28*
X838140Y463550D03*
X838140Y450850D03*
X838140Y438150D03*
X838140Y425450D03*
X838140Y412750D03*
X838140Y400050D03*
X838140Y387350D03*
X838140Y374650D03*
X894140Y374650D03*
X894140Y387350D03*
X894140Y400050D03*
X894140Y412750D03*
X894140Y425450D03*
X894140Y438150D03*
X894140Y450850D03*
X894140Y463550D03*
D10*
X748420Y339090D03*
X765420Y339090D03*
X841620Y482600D03*
X824620Y482600D03*
D29*
X817880Y501650D03*
X762000Y501650D03*
X817880Y539750D03*
X762000Y539750D03*
D30*
X781290Y330200D03*
X811290Y330200D03*
D10*
X921140Y401320D03*
X938140Y401320D03*
X921140Y416560D03*
X938140Y416560D03*
X1265800Y232410D03*
X1248800Y232410D03*
X1265800Y215900D03*
X1248800Y215900D03*
D31*
X993140Y202000D03*
X993140Y179000D03*
D10*
X938140Y431800D03*
X921140Y431800D03*
D32*
X1257300Y275790D03*
X1257300Y300790D03*
D10*
X1248800Y313690D03*
X1265800Y313690D03*
X1248800Y262890D03*
X1265800Y262890D03*
X890660Y497840D03*
X907660Y497840D03*
D13*
X1294130Y194700D03*
X1294130Y211700D03*
D33*
X1320340Y212200D03*
X1310340Y212200D03*
X1310340Y194200D03*
X1320340Y194200D03*
D34*
X1339840Y203200D03*
D35*
X1333340Y196700D03*
X1333340Y209700D03*
D34*
X1326840Y203200D03*
D36*
X1389930Y337100D03*
X1384930Y329100D03*
X1379930Y337100D03*
X1374930Y329100D03*
X1369930Y337100D03*
X1364930Y329100D03*
X1359930Y337100D03*
X1354930Y329100D03*
X1349930Y337100D03*
X1344930Y329100D03*
X1339930Y337100D03*
X1334930Y329100D03*
X1329930Y337100D03*
X1324930Y329100D03*
X1319930Y337100D03*
X1314930Y329100D03*
X1309930Y337100D03*
X1304930Y329100D03*
X1299930Y337100D03*
X1294930Y329100D03*
X1289930Y337100D03*
D37*
X1279930Y337100D03*
D38*
X1279930Y327100D03*
X1287930Y322100D03*
X1279930Y317100D03*
X1287930Y312100D03*
X1279930Y307100D03*
X1287930Y302100D03*
X1279930Y297100D03*
X1287930Y292100D03*
X1279930Y287100D03*
X1287930Y282100D03*
X1279930Y277100D03*
X1287930Y272100D03*
X1279930Y267100D03*
X1287930Y262100D03*
X1279930Y257100D03*
D37*
X1279930Y247100D03*
D36*
X1289930Y247100D03*
X1294930Y255100D03*
X1299930Y247100D03*
X1304930Y255100D03*
X1309930Y247100D03*
X1314930Y255100D03*
X1319930Y247100D03*
X1324930Y255100D03*
X1329930Y247100D03*
X1334930Y255100D03*
X1339930Y247100D03*
X1344930Y255100D03*
X1349930Y247100D03*
X1354930Y255100D03*
X1359930Y247100D03*
X1364930Y255100D03*
X1369930Y247100D03*
X1374930Y255100D03*
X1379930Y247100D03*
X1384930Y255100D03*
X1389930Y247100D03*
D10*
X1685680Y361950D03*
X1702680Y361950D03*
X1863480Y172720D03*
X1880480Y172720D03*
X1646800Y482600D03*
X1629800Y482600D03*
X1987940Y247650D03*
X2004940Y247650D03*
D11*
X1695480Y160020D03*
X1667480Y160020D03*
D10*
X1571380Y287020D03*
X1588380Y287020D03*
D12*
X1694180Y107820D03*
X1694180Y59820D03*
D13*
X1516380Y301870D03*
X1516380Y284870D03*
D14*
X1531780Y304140D03*
X1531780Y285140D03*
X1552780Y294640D03*
D10*
X1660280Y447040D03*
X1677280Y447040D03*
X1504560Y321310D03*
X1487560Y321310D03*
D15*
X1584680Y218593D03*
X1584680Y241300D03*
X1584680Y264185D03*
D16*
X1525270Y241300D03*
D10*
X1620130Y198120D03*
X1603130Y198120D03*
X1603130Y223520D03*
X1620130Y223520D03*
X1571380Y302260D03*
X1588380Y302260D03*
D11*
X1598960Y330200D03*
X1570960Y330200D03*
D17*
X1818640Y516900D03*
X1767840Y516900D03*
X1717040Y516900D03*
X1844040Y549900D03*
X1793240Y549900D03*
X1742440Y549900D03*
X1691640Y549900D03*
X1666240Y549900D03*
X1691640Y516900D03*
X1717040Y549900D03*
X1742440Y516900D03*
X1767840Y549900D03*
X1793240Y516900D03*
X1818640Y549900D03*
X1844040Y516900D03*
X1666240Y516900D03*
X1869440Y549900D03*
X1894840Y549900D03*
X1869440Y516900D03*
X1894840Y516900D03*
X1783080Y67300D03*
X1833880Y67300D03*
X1884680Y67300D03*
X1757680Y34300D03*
X1808480Y34300D03*
X1859280Y34300D03*
X1910080Y34300D03*
X1935480Y34300D03*
X1910080Y67300D03*
X1884680Y34300D03*
X1859280Y67300D03*
X1833880Y34300D03*
X1808480Y67300D03*
X1783080Y34300D03*
X1757680Y67300D03*
X1935480Y67300D03*
D11*
X1667480Y248920D03*
X1695480Y248920D03*
D18*
X1856980Y152400D03*
X1886980Y152400D03*
X1709180Y381000D03*
X1679180Y381000D03*
D19*
X1638300Y87720D03*
X1638300Y130720D03*
D17*
X1960880Y549900D03*
X2011680Y549900D03*
X2062480Y549900D03*
X1935480Y516900D03*
X1986280Y516900D03*
X2037080Y516900D03*
X2087880Y516900D03*
X2113280Y516900D03*
X2087880Y549900D03*
X2062480Y516900D03*
X2037080Y549900D03*
X2011680Y516900D03*
X1986280Y549900D03*
X1960880Y516900D03*
X1935480Y549900D03*
X2113280Y549900D03*
X2087880Y34300D03*
X2037080Y34300D03*
X1986280Y34300D03*
X2113280Y67300D03*
X2062480Y67300D03*
X2011680Y67300D03*
X1986280Y67300D03*
X2011680Y34300D03*
X2037080Y67300D03*
X2062480Y34300D03*
X2087880Y67300D03*
X2113280Y34300D03*
D20*
X1498600Y168760D03*
X1498600Y54760D03*
X1559600Y168760D03*
X1559600Y54760D03*
D21*
X1498600Y35370D03*
X1559611Y35344D03*
X1559611Y188151D03*
X1498600Y188151D03*
D22*
X1668479Y212700D03*
X1668479Y203200D03*
X1668479Y193700D03*
X1694481Y193700D03*
X1694481Y212700D03*
D10*
X1689980Y228600D03*
X1672980Y228600D03*
X1596780Y355600D03*
X1613780Y355600D03*
D18*
X1709180Y304800D03*
X1679180Y304800D03*
D10*
X1702680Y285750D03*
X1685680Y285750D03*
X1613780Y482600D03*
X1596780Y482600D03*
X1702680Y323850D03*
X1685680Y323850D03*
D18*
X1709180Y342900D03*
X1679180Y342900D03*
D23*
X2150030Y162500D03*
X2150030Y218500D03*
D24*
X2113280Y175500D03*
X2113280Y185500D03*
X2113280Y195500D03*
X2113280Y205500D03*
D25*
X1543320Y411600D03*
X1543320Y416600D03*
D26*
X1543320Y386850D03*
D27*
X1543320Y394600D03*
D25*
X1543320Y401600D03*
X1543320Y406600D03*
X1543320Y426600D03*
X1543320Y421600D03*
D26*
X1543320Y451350D03*
D27*
X1543320Y443600D03*
D25*
X1543320Y436600D03*
X1543320Y431600D03*
D28*
X1577280Y463550D03*
X1577280Y450850D03*
X1577280Y438150D03*
X1577280Y425450D03*
X1577280Y412750D03*
X1577280Y400050D03*
X1577280Y387350D03*
X1577280Y374650D03*
X1633280Y374650D03*
X1633280Y387350D03*
X1633280Y400050D03*
X1633280Y412750D03*
X1633280Y425450D03*
X1633280Y438150D03*
X1633280Y450850D03*
X1633280Y463550D03*
D10*
X1487560Y339090D03*
X1504560Y339090D03*
X1580760Y482600D03*
X1563760Y482600D03*
D29*
X1557020Y501650D03*
X1501140Y501650D03*
X1557020Y539750D03*
X1501140Y539750D03*
D30*
X1520430Y330200D03*
X1550430Y330200D03*
D10*
X1660280Y401320D03*
X1677280Y401320D03*
X1660280Y416560D03*
X1677280Y416560D03*
X2004940Y232410D03*
X1987940Y232410D03*
X2004940Y215900D03*
X1987940Y215900D03*
D31*
X1732280Y202000D03*
X1732280Y179000D03*
D10*
X1677280Y431800D03*
X1660280Y431800D03*
D32*
X1996440Y275790D03*
X1996440Y300790D03*
D10*
X1987940Y313690D03*
X2004940Y313690D03*
X1987940Y262890D03*
X2004940Y262890D03*
X1629800Y497840D03*
X1646800Y497840D03*
D13*
X2033270Y194700D03*
X2033270Y211700D03*
D33*
X2059480Y212200D03*
X2049480Y212200D03*
X2049480Y194200D03*
X2059480Y194200D03*
D34*
X2078980Y203200D03*
D35*
X2072480Y196700D03*
X2072480Y209700D03*
D34*
X2065980Y203200D03*
D36*
X2129070Y337100D03*
X2124070Y329100D03*
X2119070Y337100D03*
X2114070Y329100D03*
X2109070Y337100D03*
X2104070Y329100D03*
X2099070Y337100D03*
X2094070Y329100D03*
X2089070Y337100D03*
X2084070Y329100D03*
X2079070Y337100D03*
X2074070Y329100D03*
X2069070Y337100D03*
X2064070Y329100D03*
X2059070Y337100D03*
X2054070Y329100D03*
X2049070Y337100D03*
X2044070Y329100D03*
X2039070Y337100D03*
X2034070Y329100D03*
X2029070Y337100D03*
D37*
X2019070Y337100D03*
D38*
X2019070Y327100D03*
X2027070Y322100D03*
X2019070Y317100D03*
X2027070Y312100D03*
X2019070Y307100D03*
X2027070Y302100D03*
X2019070Y297100D03*
X2027070Y292100D03*
X2019070Y287100D03*
X2027070Y282100D03*
X2019070Y277100D03*
X2027070Y272100D03*
X2019070Y267100D03*
X2027070Y262100D03*
X2019070Y257100D03*
D37*
X2019070Y247100D03*
D36*
X2029070Y247100D03*
X2034070Y255100D03*
X2039070Y247100D03*
X2044070Y255100D03*
X2049070Y247100D03*
X2054070Y255100D03*
X2059070Y247100D03*
X2064070Y255100D03*
X2069070Y247100D03*
X2074070Y255100D03*
X2079070Y247100D03*
X2084070Y255100D03*
X2089070Y247100D03*
X2094070Y255100D03*
X2099070Y247100D03*
X2104070Y255100D03*
X2109070Y247100D03*
X2114070Y255100D03*
X2119070Y247100D03*
X2124070Y255100D03*
X2129070Y247100D03*
D10*
X207400Y951230D03*
X224400Y951230D03*
X385200Y762000D03*
X402200Y762000D03*
X168520Y1071880D03*
X151520Y1071880D03*
X509660Y836930D03*
X526660Y836930D03*
D11*
X217200Y749300D03*
X189200Y749300D03*
D10*
X93100Y876300D03*
X110100Y876300D03*
D12*
X215900Y697100D03*
X215900Y649100D03*
D13*
X38100Y891150D03*
X38100Y874150D03*
D14*
X53500Y893420D03*
X53500Y874420D03*
X74500Y883920D03*
D10*
X182000Y1036320D03*
X199000Y1036320D03*
X26280Y910590D03*
X9280Y910590D03*
D15*
X106400Y807873D03*
X106400Y830580D03*
X106400Y853465D03*
D16*
X46990Y830580D03*
D10*
X141850Y787400D03*
X124850Y787400D03*
X124850Y812800D03*
X141850Y812800D03*
X93100Y891540D03*
X110100Y891540D03*
D11*
X120680Y919480D03*
X92680Y919480D03*
D17*
X340360Y1106180D03*
X289560Y1106180D03*
X238760Y1106180D03*
X365760Y1139180D03*
X314960Y1139180D03*
X264160Y1139180D03*
X213360Y1139180D03*
X187960Y1139180D03*
X213360Y1106180D03*
X238760Y1139180D03*
X264160Y1106180D03*
X289560Y1139180D03*
X314960Y1106180D03*
X340360Y1139180D03*
X365760Y1106180D03*
X187960Y1106180D03*
X391160Y1139180D03*
X416560Y1139180D03*
X391160Y1106180D03*
X416560Y1106180D03*
X304800Y656580D03*
X355600Y656580D03*
X406400Y656580D03*
X279400Y623580D03*
X330200Y623580D03*
X381000Y623580D03*
X431800Y623580D03*
X457200Y623580D03*
X431800Y656580D03*
X406400Y623580D03*
X381000Y656580D03*
X355600Y623580D03*
X330200Y656580D03*
X304800Y623580D03*
X279400Y656580D03*
X457200Y656580D03*
D11*
X189200Y838200D03*
X217200Y838200D03*
D18*
X378700Y741680D03*
X408700Y741680D03*
X230900Y970280D03*
X200900Y970280D03*
D19*
X160020Y677000D03*
X160020Y720000D03*
D17*
X482600Y1139180D03*
X533400Y1139180D03*
X584200Y1139180D03*
X457200Y1106180D03*
X508000Y1106180D03*
X558800Y1106180D03*
X609600Y1106180D03*
X635000Y1106180D03*
X609600Y1139180D03*
X584200Y1106180D03*
X558800Y1139180D03*
X533400Y1106180D03*
X508000Y1139180D03*
X482600Y1106180D03*
X457200Y1139180D03*
X635000Y1139180D03*
X609600Y623580D03*
X558800Y623580D03*
X508000Y623580D03*
X635000Y656580D03*
X584200Y656580D03*
X533400Y656580D03*
X508000Y656580D03*
X533400Y623580D03*
X558800Y656580D03*
X584200Y623580D03*
X609600Y656580D03*
X635000Y623580D03*
D20*
X20320Y758040D03*
X20320Y644040D03*
X81320Y758040D03*
X81320Y644040D03*
D21*
X20320Y624650D03*
X81331Y624624D03*
X81331Y777431D03*
X20320Y777431D03*
D22*
X190199Y801980D03*
X190199Y792480D03*
X190199Y782980D03*
X216201Y782980D03*
X216201Y801980D03*
D10*
X211700Y817880D03*
X194700Y817880D03*
X118500Y944880D03*
X135500Y944880D03*
D18*
X230900Y894080D03*
X200900Y894080D03*
D10*
X224400Y875030D03*
X207400Y875030D03*
X135500Y1071880D03*
X118500Y1071880D03*
X224400Y913130D03*
X207400Y913130D03*
D18*
X230900Y932180D03*
X200900Y932180D03*
D23*
X671750Y751780D03*
X671750Y807780D03*
D24*
X635000Y764780D03*
X635000Y774780D03*
X635000Y784780D03*
X635000Y794780D03*
D25*
X65040Y1000880D03*
X65040Y1005880D03*
D26*
X65040Y976130D03*
D27*
X65040Y983880D03*
D25*
X65040Y990880D03*
X65040Y995880D03*
X65040Y1015880D03*
X65040Y1010880D03*
D26*
X65040Y1040630D03*
D27*
X65040Y1032880D03*
D25*
X65040Y1025880D03*
X65040Y1020880D03*
D28*
X99000Y1052830D03*
X99000Y1040130D03*
X99000Y1027430D03*
X99000Y1014730D03*
X99000Y1002030D03*
X99000Y989330D03*
X99000Y976630D03*
X99000Y963930D03*
X155000Y963930D03*
X155000Y976630D03*
X155000Y989330D03*
X155000Y1002030D03*
X155000Y1014730D03*
X155000Y1027430D03*
X155000Y1040130D03*
X155000Y1052830D03*
D10*
X9280Y928370D03*
X26280Y928370D03*
X102480Y1071880D03*
X85480Y1071880D03*
D29*
X78740Y1090930D03*
X22860Y1090930D03*
X78740Y1129030D03*
X22860Y1129030D03*
D30*
X42150Y919480D03*
X72150Y919480D03*
D10*
X182000Y990600D03*
X199000Y990600D03*
X182000Y1005840D03*
X199000Y1005840D03*
X526660Y821690D03*
X509660Y821690D03*
X526660Y805180D03*
X509660Y805180D03*
D31*
X254000Y791280D03*
X254000Y768280D03*
D10*
X199000Y1021080D03*
X182000Y1021080D03*
D32*
X518160Y865070D03*
X518160Y890070D03*
D10*
X509660Y902970D03*
X526660Y902970D03*
X509660Y852170D03*
X526660Y852170D03*
X151520Y1087120D03*
X168520Y1087120D03*
D13*
X554990Y783980D03*
X554990Y800980D03*
D33*
X581200Y801480D03*
X571200Y801480D03*
X571200Y783480D03*
X581200Y783480D03*
D34*
X600700Y792480D03*
D35*
X594200Y785980D03*
X594200Y798980D03*
D34*
X587700Y792480D03*
D36*
X650790Y926380D03*
X645790Y918380D03*
X640790Y926380D03*
X635790Y918380D03*
X630790Y926380D03*
X625790Y918380D03*
X620790Y926380D03*
X615790Y918380D03*
X610790Y926380D03*
X605790Y918380D03*
X600790Y926380D03*
X595790Y918380D03*
X590790Y926380D03*
X585790Y918380D03*
X580790Y926380D03*
X575790Y918380D03*
X570790Y926380D03*
X565790Y918380D03*
X560790Y926380D03*
X555790Y918380D03*
X550790Y926380D03*
D37*
X540790Y926380D03*
D38*
X540790Y916380D03*
X548790Y911380D03*
X540790Y906380D03*
X548790Y901380D03*
X540790Y896380D03*
X548790Y891380D03*
X540790Y886380D03*
X548790Y881380D03*
X540790Y876380D03*
X548790Y871380D03*
X540790Y866380D03*
X548790Y861380D03*
X540790Y856380D03*
X548790Y851380D03*
X540790Y846380D03*
D37*
X540790Y836380D03*
D36*
X550790Y836380D03*
X555790Y844380D03*
X560790Y836380D03*
X565790Y844380D03*
X570790Y836380D03*
X575790Y844380D03*
X580790Y836380D03*
X585790Y844380D03*
X590790Y836380D03*
X595790Y844380D03*
X600790Y836380D03*
X605790Y844380D03*
X610790Y836380D03*
X615790Y844380D03*
X620790Y836380D03*
X625790Y844380D03*
X630790Y836380D03*
X635790Y844380D03*
X640790Y836380D03*
X645790Y844380D03*
X650790Y836380D03*
D10*
X946540Y951230D03*
X963540Y951230D03*
X1124340Y762000D03*
X1141340Y762000D03*
X907660Y1071880D03*
X890660Y1071880D03*
X1248800Y836930D03*
X1265800Y836930D03*
D11*
X956340Y749300D03*
X928340Y749300D03*
D10*
X832240Y876300D03*
X849240Y876300D03*
D12*
X955040Y697100D03*
X955040Y649100D03*
D13*
X777240Y891150D03*
X777240Y874150D03*
D14*
X792640Y893420D03*
X792640Y874420D03*
X813640Y883920D03*
D10*
X921140Y1036320D03*
X938140Y1036320D03*
X765420Y910590D03*
X748420Y910590D03*
D15*
X845540Y807873D03*
X845540Y830580D03*
X845540Y853465D03*
D16*
X786130Y830580D03*
D10*
X880990Y787400D03*
X863990Y787400D03*
X863990Y812800D03*
X880990Y812800D03*
X832240Y891540D03*
X849240Y891540D03*
D11*
X859820Y919480D03*
X831820Y919480D03*
D17*
X1079500Y1106180D03*
X1028700Y1106180D03*
X977900Y1106180D03*
X1104900Y1139180D03*
X1054100Y1139180D03*
X1003300Y1139180D03*
X952500Y1139180D03*
X927100Y1139180D03*
X952500Y1106180D03*
X977900Y1139180D03*
X1003300Y1106180D03*
X1028700Y1139180D03*
X1054100Y1106180D03*
X1079500Y1139180D03*
X1104900Y1106180D03*
X927100Y1106180D03*
X1130300Y1139180D03*
X1155700Y1139180D03*
X1130300Y1106180D03*
X1155700Y1106180D03*
X1043940Y656580D03*
X1094740Y656580D03*
X1145540Y656580D03*
X1018540Y623580D03*
X1069340Y623580D03*
X1120140Y623580D03*
X1170940Y623580D03*
X1196340Y623580D03*
X1170940Y656580D03*
X1145540Y623580D03*
X1120140Y656580D03*
X1094740Y623580D03*
X1069340Y656580D03*
X1043940Y623580D03*
X1018540Y656580D03*
X1196340Y656580D03*
D11*
X928340Y838200D03*
X956340Y838200D03*
D18*
X1117840Y741680D03*
X1147840Y741680D03*
X970040Y970280D03*
X940040Y970280D03*
D19*
X899160Y677000D03*
X899160Y720000D03*
D17*
X1221740Y1139180D03*
X1272540Y1139180D03*
X1323340Y1139180D03*
X1196340Y1106180D03*
X1247140Y1106180D03*
X1297940Y1106180D03*
X1348740Y1106180D03*
X1374140Y1106180D03*
X1348740Y1139180D03*
X1323340Y1106180D03*
X1297940Y1139180D03*
X1272540Y1106180D03*
X1247140Y1139180D03*
X1221740Y1106180D03*
X1196340Y1139180D03*
X1374140Y1139180D03*
X1348740Y623580D03*
X1297940Y623580D03*
X1247140Y623580D03*
X1374140Y656580D03*
X1323340Y656580D03*
X1272540Y656580D03*
X1247140Y656580D03*
X1272540Y623580D03*
X1297940Y656580D03*
X1323340Y623580D03*
X1348740Y656580D03*
X1374140Y623580D03*
D20*
X759460Y758040D03*
X759460Y644040D03*
X820460Y758040D03*
X820460Y644040D03*
D21*
X759460Y624650D03*
X820471Y624624D03*
X820471Y777431D03*
X759460Y777431D03*
D22*
X929339Y801980D03*
X929339Y792480D03*
X929339Y782980D03*
X955341Y782980D03*
X955341Y801980D03*
D10*
X950840Y817880D03*
X933840Y817880D03*
X857640Y944880D03*
X874640Y944880D03*
D18*
X970040Y894080D03*
X940040Y894080D03*
D10*
X963540Y875030D03*
X946540Y875030D03*
X874640Y1071880D03*
X857640Y1071880D03*
X963540Y913130D03*
X946540Y913130D03*
D18*
X970040Y932180D03*
X940040Y932180D03*
D23*
X1410890Y751780D03*
X1410890Y807780D03*
D24*
X1374140Y764780D03*
X1374140Y774780D03*
X1374140Y784780D03*
X1374140Y794780D03*
D25*
X804180Y1000880D03*
X804180Y1005880D03*
D26*
X804180Y976130D03*
D27*
X804180Y983880D03*
D25*
X804180Y990880D03*
X804180Y995880D03*
X804180Y1015880D03*
X804180Y1010880D03*
D26*
X804180Y1040630D03*
D27*
X804180Y1032880D03*
D25*
X804180Y1025880D03*
X804180Y1020880D03*
D28*
X838140Y1052830D03*
X838140Y1040130D03*
X838140Y1027430D03*
X838140Y1014730D03*
X838140Y1002030D03*
X838140Y989330D03*
X838140Y976630D03*
X838140Y963930D03*
X894140Y963930D03*
X894140Y976630D03*
X894140Y989330D03*
X894140Y1002030D03*
X894140Y1014730D03*
X894140Y1027430D03*
X894140Y1040130D03*
X894140Y1052830D03*
D10*
X748420Y928370D03*
X765420Y928370D03*
X841620Y1071880D03*
X824620Y1071880D03*
D29*
X817880Y1090930D03*
X762000Y1090930D03*
X817880Y1129030D03*
X762000Y1129030D03*
D30*
X781290Y919480D03*
X811290Y919480D03*
D10*
X921140Y990600D03*
X938140Y990600D03*
X921140Y1005840D03*
X938140Y1005840D03*
X1265800Y821690D03*
X1248800Y821690D03*
X1265800Y805180D03*
X1248800Y805180D03*
D31*
X993140Y791280D03*
X993140Y768280D03*
D10*
X938140Y1021080D03*
X921140Y1021080D03*
D32*
X1257300Y865070D03*
X1257300Y890070D03*
D10*
X1248800Y902970D03*
X1265800Y902970D03*
X1248800Y852170D03*
X1265800Y852170D03*
X890660Y1087120D03*
X907660Y1087120D03*
D13*
X1294130Y783980D03*
X1294130Y800980D03*
D33*
X1320340Y801480D03*
X1310340Y801480D03*
X1310340Y783480D03*
X1320340Y783480D03*
D34*
X1339840Y792480D03*
D35*
X1333340Y785980D03*
X1333340Y798980D03*
D34*
X1326840Y792480D03*
D36*
X1389930Y926380D03*
X1384930Y918380D03*
X1379930Y926380D03*
X1374930Y918380D03*
X1369930Y926380D03*
X1364930Y918380D03*
X1359930Y926380D03*
X1354930Y918380D03*
X1349930Y926380D03*
X1344930Y918380D03*
X1339930Y926380D03*
X1334930Y918380D03*
X1329930Y926380D03*
X1324930Y918380D03*
X1319930Y926380D03*
X1314930Y918380D03*
X1309930Y926380D03*
X1304930Y918380D03*
X1299930Y926380D03*
X1294930Y918380D03*
X1289930Y926380D03*
D37*
X1279930Y926380D03*
D38*
X1279930Y916380D03*
X1287930Y911380D03*
X1279930Y906380D03*
X1287930Y901380D03*
X1279930Y896380D03*
X1287930Y891380D03*
X1279930Y886380D03*
X1287930Y881380D03*
X1279930Y876380D03*
X1287930Y871380D03*
X1279930Y866380D03*
X1287930Y861380D03*
X1279930Y856380D03*
X1287930Y851380D03*
X1279930Y846380D03*
D37*
X1279930Y836380D03*
D36*
X1289930Y836380D03*
X1294930Y844380D03*
X1299930Y836380D03*
X1304930Y844380D03*
X1309930Y836380D03*
X1314930Y844380D03*
X1319930Y836380D03*
X1324930Y844380D03*
X1329930Y836380D03*
X1334930Y844380D03*
X1339930Y836380D03*
X1344930Y844380D03*
X1349930Y836380D03*
X1354930Y844380D03*
X1359930Y836380D03*
X1364930Y844380D03*
X1369930Y836380D03*
X1374930Y844380D03*
X1379930Y836380D03*
X1384930Y844380D03*
X1389930Y836380D03*
D10*
X1685680Y951230D03*
X1702680Y951230D03*
X1863480Y762000D03*
X1880480Y762000D03*
X1646800Y1071880D03*
X1629800Y1071880D03*
X1987940Y836930D03*
X2004940Y836930D03*
D11*
X1695480Y749300D03*
X1667480Y749300D03*
D10*
X1571380Y876300D03*
X1588380Y876300D03*
D12*
X1694180Y697100D03*
X1694180Y649100D03*
D13*
X1516380Y891150D03*
X1516380Y874150D03*
D14*
X1531780Y893420D03*
X1531780Y874420D03*
X1552780Y883920D03*
D10*
X1660280Y1036320D03*
X1677280Y1036320D03*
X1504560Y910590D03*
X1487560Y910590D03*
D15*
X1584680Y807873D03*
X1584680Y830580D03*
X1584680Y853465D03*
D16*
X1525270Y830580D03*
D10*
X1620130Y787400D03*
X1603130Y787400D03*
X1603130Y812800D03*
X1620130Y812800D03*
X1571380Y891540D03*
X1588380Y891540D03*
D11*
X1598960Y919480D03*
X1570960Y919480D03*
D17*
X1818640Y1106180D03*
X1767840Y1106180D03*
X1717040Y1106180D03*
X1844040Y1139180D03*
X1793240Y1139180D03*
X1742440Y1139180D03*
X1691640Y1139180D03*
X1666240Y1139180D03*
X1691640Y1106180D03*
X1717040Y1139180D03*
X1742440Y1106180D03*
X1767840Y1139180D03*
X1793240Y1106180D03*
X1818640Y1139180D03*
X1844040Y1106180D03*
X1666240Y1106180D03*
X1869440Y1139180D03*
X1894840Y1139180D03*
X1869440Y1106180D03*
X1894840Y1106180D03*
X1783080Y656580D03*
X1833880Y656580D03*
X1884680Y656580D03*
X1757680Y623580D03*
X1808480Y623580D03*
X1859280Y623580D03*
X1910080Y623580D03*
X1935480Y623580D03*
X1910080Y656580D03*
X1884680Y623580D03*
X1859280Y656580D03*
X1833880Y623580D03*
X1808480Y656580D03*
X1783080Y623580D03*
X1757680Y656580D03*
X1935480Y656580D03*
D11*
X1667480Y838200D03*
X1695480Y838200D03*
D18*
X1856980Y741680D03*
X1886980Y741680D03*
X1709180Y970280D03*
X1679180Y970280D03*
D19*
X1638300Y677000D03*
X1638300Y720000D03*
D17*
X1960880Y1139180D03*
X2011680Y1139180D03*
X2062480Y1139180D03*
X1935480Y1106180D03*
X1986280Y1106180D03*
X2037080Y1106180D03*
X2087880Y1106180D03*
X2113280Y1106180D03*
X2087880Y1139180D03*
X2062480Y1106180D03*
X2037080Y1139180D03*
X2011680Y1106180D03*
X1986280Y1139180D03*
X1960880Y1106180D03*
X1935480Y1139180D03*
X2113280Y1139180D03*
X2087880Y623580D03*
X2037080Y623580D03*
X1986280Y623580D03*
X2113280Y656580D03*
X2062480Y656580D03*
X2011680Y656580D03*
X1986280Y656580D03*
X2011680Y623580D03*
X2037080Y656580D03*
X2062480Y623580D03*
X2087880Y656580D03*
X2113280Y623580D03*
D20*
X1498600Y758040D03*
X1498600Y644040D03*
X1559600Y758040D03*
X1559600Y644040D03*
D21*
X1498600Y624650D03*
X1559611Y624624D03*
X1559611Y777431D03*
X1498600Y777431D03*
D22*
X1668479Y801980D03*
X1668479Y792480D03*
X1668479Y782980D03*
X1694481Y782980D03*
X1694481Y801980D03*
D10*
X1689980Y817880D03*
X1672980Y817880D03*
X1596780Y944880D03*
X1613780Y944880D03*
D18*
X1709180Y894080D03*
X1679180Y894080D03*
D10*
X1702680Y875030D03*
X1685680Y875030D03*
X1613780Y1071880D03*
X1596780Y1071880D03*
X1702680Y913130D03*
X1685680Y913130D03*
D18*
X1709180Y932180D03*
X1679180Y932180D03*
D23*
X2150030Y751780D03*
X2150030Y807780D03*
D24*
X2113280Y764780D03*
X2113280Y774780D03*
X2113280Y784780D03*
X2113280Y794780D03*
D25*
X1543320Y1000880D03*
X1543320Y1005880D03*
D26*
X1543320Y976130D03*
D27*
X1543320Y983880D03*
D25*
X1543320Y990880D03*
X1543320Y995880D03*
X1543320Y1015880D03*
X1543320Y1010880D03*
D26*
X1543320Y1040630D03*
D27*
X1543320Y1032880D03*
D25*
X1543320Y1025880D03*
X1543320Y1020880D03*
D28*
X1577280Y1052830D03*
X1577280Y1040130D03*
X1577280Y1027430D03*
X1577280Y1014730D03*
X1577280Y1002030D03*
X1577280Y989330D03*
X1577280Y976630D03*
X1577280Y963930D03*
X1633280Y963930D03*
X1633280Y976630D03*
X1633280Y989330D03*
X1633280Y1002030D03*
X1633280Y1014730D03*
X1633280Y1027430D03*
X1633280Y1040130D03*
X1633280Y1052830D03*
D10*
X1487560Y928370D03*
X1504560Y928370D03*
X1580760Y1071880D03*
X1563760Y1071880D03*
D29*
X1557020Y1090930D03*
X1501140Y1090930D03*
X1557020Y1129030D03*
X1501140Y1129030D03*
D30*
X1520430Y919480D03*
X1550430Y919480D03*
D10*
X1660280Y990600D03*
X1677280Y990600D03*
X1660280Y1005840D03*
X1677280Y1005840D03*
X2004940Y821690D03*
X1987940Y821690D03*
X2004940Y805180D03*
X1987940Y805180D03*
D31*
X1732280Y791280D03*
X1732280Y768280D03*
D10*
X1677280Y1021080D03*
X1660280Y1021080D03*
D32*
X1996440Y865070D03*
X1996440Y890070D03*
D10*
X1987940Y902970D03*
X2004940Y902970D03*
X1987940Y852170D03*
X2004940Y852170D03*
X1629800Y1087120D03*
X1646800Y1087120D03*
D13*
X2033270Y783980D03*
X2033270Y800980D03*
D33*
X2059480Y801480D03*
X2049480Y801480D03*
X2049480Y783480D03*
X2059480Y783480D03*
D34*
X2078980Y792480D03*
D35*
X2072480Y785980D03*
X2072480Y798980D03*
D34*
X2065980Y792480D03*
D36*
X2129070Y926380D03*
X2124070Y918380D03*
X2119070Y926380D03*
X2114070Y918380D03*
X2109070Y926380D03*
X2104070Y918380D03*
X2099070Y926380D03*
X2094070Y918380D03*
X2089070Y926380D03*
X2084070Y918380D03*
X2079070Y926380D03*
X2074070Y918380D03*
X2069070Y926380D03*
X2064070Y918380D03*
X2059070Y926380D03*
X2054070Y918380D03*
X2049070Y926380D03*
X2044070Y918380D03*
X2039070Y926380D03*
X2034070Y918380D03*
X2029070Y926380D03*
D37*
X2019070Y926380D03*
D38*
X2019070Y916380D03*
X2027070Y911380D03*
X2019070Y906380D03*
X2027070Y901380D03*
X2019070Y896380D03*
X2027070Y891380D03*
X2019070Y886380D03*
X2027070Y881380D03*
X2019070Y876380D03*
X2027070Y871380D03*
X2019070Y866380D03*
X2027070Y861380D03*
X2019070Y856380D03*
X2027070Y851380D03*
X2019070Y846380D03*
D37*
X2019070Y836380D03*
D36*
X2029070Y836380D03*
X2034070Y844380D03*
X2039070Y836380D03*
X2044070Y844380D03*
X2049070Y836380D03*
X2054070Y844380D03*
X2059070Y836380D03*
X2064070Y844380D03*
X2069070Y836380D03*
X2074070Y844380D03*
X2079070Y836380D03*
X2084070Y844380D03*
X2089070Y836380D03*
X2094070Y844380D03*
X2099070Y836380D03*
X2104070Y844380D03*
X2109070Y836380D03*
X2114070Y844380D03*
X2119070Y836380D03*
X2124070Y844380D03*
X2129070Y836380D03*
M02*
